<svg xmlns="http://www.w3.org/2000/svg" width="148.046" height="148.046" viewBox="0 0 148.046 148.046"><g transform="translate(-725.977 -12738.188)"><path d="M74.023,0A74.023,74.023,0,1,1,0,74.023,74.023,74.023,0,0,1,74.023,0Z" transform="translate(725.977 12738.188)" fill="#fff7e0"/><path d="M74.023,10a64.023,64.023,0,1,0,64.023,64.023A64.1,64.1,0,0,0,74.023,10m0-10A74.023,74.023,0,1,1,0,74.023,74.023,74.023,0,0,1,74.023,0Z" transform="translate(725.977 12738.188)" fill="#fcc843"/><g transform="translate(758.891 12770.399)"><path d="M33.415,169.6a2.322,2.322,0,0,0-2.322-2.322H14.862v25.551a5.785,5.785,0,0,1-1.131,3.443,9.7,9.7,0,0,0-1.908,5.792V215A2.173,2.173,0,0,0,14,217.177H15.1A2.173,2.173,0,0,0,17.275,215v2.562A2.726,2.726,0,0,0,20,220.292h1.007a2.726,2.726,0,0,0,2.726-2.726v1.007a2.726,2.726,0,0,0,2.726,2.726h1.007a2.726,2.726,0,0,0,2.726-2.726v-1.007a2.726,2.726,0,0,0,2.726,2.726h1.007a2.726,2.726,0,0,0,2.726-2.726V201.334a2.322,2.322,0,0,1,2.322-2.322h3.9v-.047a6.7,6.7,0,0,0-4.962-6.47l-.836-.224a4.946,4.946,0,0,1-3.666-4.777V169.6Z" transform="translate(-9.924 -139.716)" fill="#f9c295"/><path d="M66.42,192.495l-.836-.224a4.946,4.946,0,0,1-3.666-4.777V169.6A2.322,2.322,0,0,0,59.6,167.28H55.5v17a4.939,4.939,0,0,0,1.1,3.107,9.7,9.7,0,0,1,2.14,6.092v17.3a6.3,6.3,0,0,1-6.3,6.3H45.779v.485a2.726,2.726,0,0,0,2.726,2.726h1.007a2.726,2.726,0,0,0,2.726-2.726v1.007a2.726,2.726,0,0,0,2.726,2.726h1.007a2.726,2.726,0,0,0,2.726-2.726v-1.007a2.726,2.726,0,0,0,2.726,2.726H62.43a2.726,2.726,0,0,0,2.726-2.726V201.334a2.322,2.322,0,0,1,2.322-2.322h3.9v-.047A6.7,6.7,0,0,0,66.42,192.495Z" transform="translate(-38.428 -139.716)" fill="#e59f6a"/><path d="M227.246,37.29a2.1,2.1,0,0,1-2.1-2.1V14.756a2.1,2.1,0,0,1,4.193,0V35.193A2.1,2.1,0,0,1,227.246,37.29Z" transform="translate(-188.993 -9.925)" fill="#ffd064"/><circle cx="9.277" cy="9.277" r="9.277" transform="translate(58.461 30.959)" fill="#86a0af"/><path d="M394.239,223.89a5.276,5.276,0,1,1,5.276-5.276A5.282,5.282,0,0,1,394.239,223.89Z" transform="translate(-326.501 -178.379)" fill="#f1f4f6"/><path d="M334,12.458H332.89a2.173,2.173,0,0,0-2.173,2.173V12.069a2.726,2.726,0,0,0-2.726-2.726h-1.007a2.726,2.726,0,0,0-2.726,2.726V11.062a2.726,2.726,0,0,0-2.726-2.726h-1.007a2.726,2.726,0,0,0-2.726,2.726v1.007a2.726,2.726,0,0,0-2.726-2.726h-1.007a2.726,2.726,0,0,0-2.726,2.726V28.3a2.322,2.322,0,0,1-2.322,2.322h-3.9v.047a6.7,6.7,0,0,0,4.962,6.47l.836.224a4.946,4.946,0,0,1,3.517,3.574h2.025a9.278,9.278,0,0,1,14.8,0h1.876V36.8a5.785,5.785,0,0,1,1.131-3.443,9.7,9.7,0,0,0,1.908-5.792V14.631A2.173,2.173,0,0,0,334,12.458Z" transform="translate(-256.116 -6.296)" fill="#dfaca0"/><path d="M380.723,281.033a9.278,9.278,0,0,1-14.8,0h-1.876v7.905a2.322,2.322,0,0,0,2.322,2.322H382.6V281.033Z" transform="translate(-305.586 -235.202)" fill="#dfaca0"/><g transform="translate(58.461 6.161)"><path d="M455.267,34h-1.106a2.166,2.166,0,0,0-1.538.638V45.9a9.7,9.7,0,0,1-1.908,5.792,5.784,5.784,0,0,0-1.131,3.443v4.8a9.321,9.321,0,0,1,2.941,2.542H454.4V58.348a5.784,5.784,0,0,1,1.131-3.443,9.7,9.7,0,0,0,1.908-5.792V36.175A2.173,2.173,0,0,0,455.267,34Z" transform="translate(-435.848 -34.002)" fill="#d59b8b"/><path d="M374.054,281.168l-.1-.135h-.341Q373.828,281.106,374.054,281.168Z" transform="translate(-372.073 -241.363)" fill="#d59b8b"/><path d="M380.724,281.033a9.318,9.318,0,0,1-3.265,2.711,6.305,6.305,0,0,1-5.979,4.3h-7.434v.89a2.322,2.322,0,0,0,2.322,2.322H382.6V281.033h-1.877Z" transform="translate(-364.047 -241.363)" fill="#d59b8b"/></g><path d="M343.132,216.947a9.235,9.235,0,0,1,1.876-5.595h-4.52a1.357,1.357,0,0,0-1.357,1.357v8.475a1.357,1.357,0,0,0,1.357,1.357h4.52a9.236,9.236,0,0,1-1.876-5.6Z" transform="translate(-284.671 -176.711)" fill="#617881"/><path d="M472.419,211.352H467.9a9.279,9.279,0,0,1,0,11.19h4.52a1.357,1.357,0,0,0,1.357-1.357v-8.475A1.357,1.357,0,0,0,472.419,211.352Z" transform="translate(-392.761 -176.711)" fill="#617881"/><path d="M42.452,15.7H35.968a5.785,5.785,0,0,1-3.443-1.131,9.7,9.7,0,0,0-5.792-1.908H13.8a2.173,2.173,0,0,0-2.173,2.173v1.106A2.173,2.173,0,0,0,13.8,18.111H11.234a2.726,2.726,0,0,0-2.726,2.726v1.007a2.726,2.726,0,0,0,2.726,2.726H10.227A2.726,2.726,0,0,0,7.5,27.3V28.3a2.726,2.726,0,0,0,2.726,2.726h1.007a2.726,2.726,0,0,0-2.726,2.726v1.007a2.726,2.726,0,0,0,2.726,2.726H27.466a2.322,2.322,0,0,1,2.322,2.322v3.9h.047a6.7,6.7,0,0,0,6.47-4.962l.224-.836a4.946,4.946,0,0,1,4.777-3.666h1.146V15.7Z" transform="translate(-6.297 -9.925)" fill="#fff1dd"/><path d="M251.26,31.581V50.135h12.553a2.322,2.322,0,0,0,2.322-2.322V31.581Z" transform="translate(-210.911 -25.809)" fill="#fff1dd"/><path d="M41.75,127.117a4.935,4.935,0,0,0-2.661.777,15.072,15.072,0,0,1-8.1,2.461H13.769v.485a2.726,2.726,0,0,0,2.726,2.726H32.727a2.322,2.322,0,0,1,2.322,2.322v3.9H35.1a6.7,6.7,0,0,0,6.47-4.962l.224-.836a4.946,4.946,0,0,1,4.777-3.666h1.146v-3.212H41.75Z" transform="translate(-11.558 -106.003)" fill="#ffe4c1"/><path d="M261.317,31.581V40.62a6.3,6.3,0,0,1-6.3,6.3H251.26v3.212h12.553a2.322,2.322,0,0,0,2.322-2.322V31.581Z" transform="translate(-210.911 -25.809)" fill="#ffe4c1"/><path d="M241.815,380.64h5.551a.521.521,0,0,0,.521-.521V361.285a.521.521,0,0,0-.521-.521h-5.551a.521.521,0,0,0-.521.521v18.834A.521.521,0,0,0,241.815,380.64Z" transform="translate(-202.546 -302.13)" fill="#b1e4f9"/><path d="M178.465,364.882h-9.7a2.322,2.322,0,0,0-2.322,2.322v16.232h12.02Z" transform="translate(-139.716 -305.586)" fill="#9dc6fb"/><path d="M315.031,318.633h-1.007a2.726,2.726,0,0,0,2.726-2.726V314.9a2.726,2.726,0,0,0-2.726-2.726H297.792a2.322,2.322,0,0,1-2.322-2.322l-.047-3.9a6.7,6.7,0,0,0-6.47,4.962l-.224.836a4.946,4.946,0,0,1-4.777,3.666h-1.6v18.554h6.938a5.785,5.785,0,0,1,3.443,1.131A9.7,9.7,0,0,0,298.524,337h12.938a2.173,2.173,0,0,0,2.173-2.173v-1.106a2.173,2.173,0,0,0-2.173-2.173h2.562a2.726,2.726,0,0,0,2.726-2.726v-1.007a2.726,2.726,0,0,0-2.726-2.726h1.007a2.726,2.726,0,0,0,2.726-2.726V321.36a2.726,2.726,0,0,0-2.726-2.726Z" transform="translate(-237.01 -256.116)" fill="#ffece4"/><path d="M172.041,364.882v9.039a6.3,6.3,0,0,1-5.6,6.263v3.251h12.02V364.882Z" transform="translate(-139.716 -305.586)" fill="#80b4fb"/><path d="M315.031,351.178h-1.007a2.726,2.726,0,0,0,2.726-2.726v-1.007a2.726,2.726,0,0,0-2.726-2.726h-6.812v15.316a6.3,6.3,0,0,1-6.3,6.3H292.1a9.7,9.7,0,0,1-5.809-1.921,5.737,5.737,0,0,0-3.425-1.118h-.515v3.212h6.938a5.785,5.785,0,0,1,3.443,1.131,9.7,9.7,0,0,0,5.792,1.908h12.938a2.173,2.173,0,0,0,2.173-2.173V366.27a2.173,2.173,0,0,0-2.173-2.173h2.562a2.726,2.726,0,0,0,2.726-2.726v-1.007a2.726,2.726,0,0,0-2.726-2.726h1.007a2.726,2.726,0,0,0,2.726-2.726V353.9a2.726,2.726,0,0,0-2.726-2.726Z" transform="translate(-237.01 -288.661)" fill="#ffddce"/><path d="M387.942,218.8a6.48,6.48,0,1,0-6.48-6.48A6.488,6.488,0,0,0,387.942,218.8Zm0-10.551a4.071,4.071,0,1,1-4.071,4.071A4.076,4.076,0,0,1,387.942,208.248Z" transform="translate(-320.205 -172.083)"/><path d="M79.658,33.437H78.219v-2.93a4.612,4.612,0,0,1,.894-2.726,10.865,10.865,0,0,0,2.144-6.508V8.334A3.381,3.381,0,0,0,77.88,4.957H76.774a3.366,3.366,0,0,0-1.024.158,3.937,3.937,0,0,0-3.876-3.274H70.867a3.909,3.909,0,0,0-2.221.689,3.929,3.929,0,0,0-3.232-1.7H64.408a3.929,3.929,0,0,0-3.232,1.7,3.91,3.91,0,0,0-2.221-.689H57.949a3.937,3.937,0,0,0-3.742,2.726H41.543a3.3,3.3,0,0,0-6.581,0h-5.29a4.612,4.612,0,0,1-2.726-.894A10.865,10.865,0,0,0,20.437,1.53H16.559a1.2,1.2,0,1,0,0,2.409h3.878A8.471,8.471,0,0,1,25.512,5.61a7.037,7.037,0,0,0,4.159,1.367h5.28V23.122a6.159,6.159,0,0,0-5.882,4.558l-.224.836a5.5,5.5,0,0,1-4.15,3.947V29.886a3.53,3.53,0,0,0-3.526-3.526H4.937a1.524,1.524,0,0,1-1.522-1.522V23.831a1.524,1.524,0,0,1,1.522-1.522H10.51a1.2,1.2,0,1,0,0-2.409H3.931a1.524,1.524,0,0,1-1.522-1.522V17.372A1.524,1.524,0,0,1,3.931,15.85h6.58a1.2,1.2,0,1,0,0-2.409H4.937a1.524,1.524,0,0,1-1.522-1.522V10.913A1.524,1.524,0,0,1,4.937,9.391H10.51a1.2,1.2,0,0,0,0-2.409H7.5a.97.97,0,0,1-.969-.969V4.907A.97.97,0,0,1,7.5,3.938h3.439a1.2,1.2,0,0,0,0-2.409H7.5A3.381,3.381,0,0,0,4.122,4.907V6.013A3.367,3.367,0,0,0,4.28,7.037a3.937,3.937,0,0,0-3.274,3.876v1.007A3.909,3.909,0,0,0,1.7,14.14,3.929,3.929,0,0,0,0,17.372v1.007A3.93,3.93,0,0,0,1.7,21.61a3.909,3.909,0,0,0-.689,2.221v1.007A3.938,3.938,0,0,0,3.733,28.58V44.473a1.2,1.2,0,1,0,2.409,0v-15.7H21.169a1.119,1.119,0,0,1,1.117,1.117V47.777a6.159,6.159,0,0,0,4.558,5.941l.836.224a5.5,5.5,0,0,1,3.947,4.15H29.05a3.53,3.53,0,0,0-3.526,3.526V77.85A1.524,1.524,0,0,1,24,79.372H23a1.524,1.524,0,0,1-1.522-1.522V72.277a1.2,1.2,0,0,0-2.409,0v6.579a1.524,1.524,0,0,1-1.522,1.522H16.536a1.524,1.524,0,0,1-1.522-1.522V72.277a1.2,1.2,0,0,0-2.409,0V77.85a1.524,1.524,0,0,1-1.522,1.522H10.077A1.524,1.524,0,0,1,8.555,77.85c0-5.519,0,.082,0-5.573a1.2,1.2,0,0,0-2.409,0c0,2.3,0,3.042,0,3.019a.97.97,0,0,1-.969.96H4.071a.97.97,0,0,1-.969-.969V62.35a8.471,8.471,0,0,1,1.672-5.075,7.038,7.038,0,0,0,1.367-4.159V50.094a1.2,1.2,0,1,0-2.409,0v3.022a4.612,4.612,0,0,1-.894,2.726A10.864,10.864,0,0,0,.694,62.35V75.288a3.381,3.381,0,0,0,3.378,3.378H5.178A3.367,3.367,0,0,0,6.2,78.507a3.937,3.937,0,0,0,3.876,3.274h1.007a3.908,3.908,0,0,0,2.221-.689,3.929,3.929,0,0,0,3.232,1.7h1.007a3.929,3.929,0,0,0,3.232-1.7A3.909,3.909,0,0,0,23,81.781H24a3.937,3.937,0,0,0,3.742-2.726H37.912a1.723,1.723,0,0,0,1.357.661H44.82a1.723,1.723,0,0,0,1.357-.661h6.1a4.612,4.612,0,0,1,2.726.894,10.865,10.865,0,0,0,6.508,2.144H74.452a3.381,3.381,0,0,0,3.378-3.378V77.609a3.367,3.367,0,0,0-.159-1.024,3.937,3.937,0,0,0,3.274-3.876V71.7a3.909,3.909,0,0,0-.689-2.221,3.929,3.929,0,0,0,1.7-3.232V65.244a3.929,3.929,0,0,0-1.7-3.232,3.909,3.909,0,0,0,.689-2.221V58.784a3.938,3.938,0,0,0-2.726-3.742V47.035h1.439a2.565,2.565,0,0,0,2.562-2.562V36a2.564,2.564,0,0,0-2.561-2.562Zm-19.993,6.8a8.072,8.072,0,1,1,8.072,8.072A8.082,8.082,0,0,1,59.665,40.236ZM57.949,4.25h1.007a1.524,1.524,0,0,1,1.522,1.522v5.573a1.2,1.2,0,1,0,2.409,0V4.766a1.524,1.524,0,0,1,1.522-1.522h1.007a1.524,1.524,0,0,1,1.522,1.522v6.579a1.2,1.2,0,1,0,2.409,0V5.772A1.524,1.524,0,0,1,70.868,4.25h1.007A1.524,1.524,0,0,1,73.4,5.772v5.573a1.2,1.2,0,1,0,2.409,0V8.334a.97.97,0,0,1,.969-.969H77.88a.97.97,0,0,1,.969.969V21.272a8.473,8.473,0,0,1-1.672,5.075,7.037,7.037,0,0,0-1.367,4.159v2.93h-.1a10.468,10.468,0,0,0-15.941,0h-.593A6.155,6.155,0,0,0,55.107,29.9l-.836-.224a5.5,5.5,0,0,1-3.947-4.15H52.9A3.53,3.53,0,0,0,56.428,22V5.772A1.523,1.523,0,0,1,57.949,4.25Zm-16.4,2.726H54.019V22A1.119,1.119,0,0,1,52.9,23.122H41.553ZM37.36,4.83a.892.892,0,0,1,1.784,0V25.268a.892.892,0,0,1-1.784,0ZM28.3,51.615l-.836-.224A3.747,3.747,0,0,1,24.7,47.777V34.91a7.913,7.913,0,0,0,6.477-5.77L31.4,28.3a3.747,3.747,0,0,1,3.566-2.773,3.3,3.3,0,0,0,6.581,0h6.334a7.913,7.913,0,0,0,5.77,6.477l.836.224a3.742,3.742,0,0,1,1.895,1.206h-.561A2.565,2.565,0,0,0,53.255,36v1.256a1.2,1.2,0,1,0,2.409,0V36a.153.153,0,0,1,.153-.153h2.4a10.471,10.471,0,0,0,0,8.781h-2.4a.153.153,0,0,1-.153-.153v-1.6a1.2,1.2,0,0,0-2.409,0v1.6a2.565,2.565,0,0,0,2.562,2.562h1.439v1.677a7.913,7.913,0,0,0-6.476,5.77l-.224.836a3.747,3.747,0,0,1-3.614,2.773h-.764a1.723,1.723,0,0,0-1.357-.661H39.27a1.723,1.723,0,0,0-1.357.661H34.074a7.913,7.913,0,0,0-5.77-6.477Zm9.24,8.885V76.645H27.933V61.617A1.119,1.119,0,0,1,29.05,60.5h8.494Zm2.409-.661h4.185V77.306H39.953Zm37.062,1.474H71.442a1.2,1.2,0,0,0,0,2.409h6.58a1.524,1.524,0,0,1,1.522,1.522V66.25a1.524,1.524,0,0,1-1.522,1.522H71.442a1.2,1.2,0,0,0,0,2.409h5.573A1.524,1.524,0,0,1,78.536,71.7v1.007a1.524,1.524,0,0,1-1.522,1.522H71.442a1.2,1.2,0,0,0,0,2.409h3.011a.97.97,0,0,1,.969.969v1.106a.97.97,0,0,1-.969.969H61.515a8.471,8.471,0,0,1-5.075-1.672,7.037,7.037,0,0,0-4.159-1.367H46.546V60.5h.4a6.158,6.158,0,0,0,5.94-4.558l.224-.836a5.5,5.5,0,0,1,4.119-3.94l.031,2.57a3.53,3.53,0,0,0,3.526,3.526H77.014a1.524,1.524,0,0,1,1.522,1.522v1.007A1.524,1.524,0,0,1,77.014,61.313Zm-1.2-6.459H60.782a1.122,1.122,0,0,1-1.117-1.119v-6.7h.1a10.468,10.468,0,0,0,15.941,0h.1v7.818Zm4-10.38a.153.153,0,0,1-.153.153h-2.4a10.472,10.472,0,0,0,0-8.781h2.4a.153.153,0,0,1,.153.153Z"/></g></g></svg>