<svg xmlns="http://www.w3.org/2000/svg" width="143.331" height="143.331" viewBox="0 0 143.331 143.331"><g transform="translate(-308 -12740.546)"><circle cx="71.665" cy="71.665" r="71.665" transform="translate(308 12740.546)" fill="#ebfae2"/><path d="M71.665,10a61.665,61.665,0,1,0,61.665,61.665A61.735,61.735,0,0,0,71.665,10m0-10A71.665,71.665,0,1,1,0,71.665,71.665,71.665,0,0,1,71.665,0Z" transform="translate(308 12740.546)" fill="#699156"/><g transform="translate(326 12788.48)"><g transform="translate(1.574 1.573)"><g transform="translate(24.772 1.442)"><path d="M186.986,140.312l-2.728-22.162-5.112.629,0,0-9.911-5.578a5.973,5.973,0,0,0-3.478-.742L150.109,113.9a5.971,5.971,0,0,0-4.613,2.946l-11.03,18.985a2.624,2.624,0,0,0,1.342,3.772l.451.17a9.785,9.785,0,0,0,2.652.592l-1.4,1.217-2.8,2.436-7.953,6.784a3.4,3.4,0,0,0-.33,4.795l.807.924a4.367,4.367,0,0,0,6.16.421l3.039,3.486a4.359,4.359,0,0,0,6.159.421l3.036,3.486a4.369,4.369,0,0,0,6.163.423l1.65,1.426a4.369,4.369,0,0,0,6.163.423l2.243-1.957,18.856-14.686.02-.019,7.44-.007Z" transform="translate(-125.598 -112.431)" fill="#ffddce"/><path d="M178.914,260.374l-.02.019-18.856,14.686-2.243,1.957a4.369,4.369,0,0,1-6.163-.423l-1.65-1.426a4.369,4.369,0,0,1-6.163-.423l-3.036-3.486a4.359,4.359,0,0,1-6.159-.421l-3.039-3.486a4.366,4.366,0,0,1-5.408.257,3.4,3.4,0,0,0,.269,4.107l.807.924a4.367,4.367,0,0,0,6.16.421l3.039,3.486a4.359,4.359,0,0,0,6.159.421l3.036,3.487a4.369,4.369,0,0,0,6.163.423l1.65,1.426a4.369,4.369,0,0,0,6.163.423l2.243-1.957L180.721,266.1l.02-.019,7.44-.007-.823-6.686Z" transform="translate(-125.607 -228.564)" fill="#f5cab7"/></g><g transform="translate(14.521 2.318)"><path d="M143.718,157.129l-10.1-8.711L130.806,146l-2.01-1.731-8.644-7.451,1-8.5a5.864,5.864,0,0,0-4.26-6.336l-18.841-5.214A4.36,4.36,0,0,0,93,118.983l-2.369,4.625-10.171-.69-2.605,22.176-1.132,9.637,9.9.658.021.019,20.683,17.828,2.254,1.944a4.368,4.368,0,0,0,6.161-.457l3.016-3.5a4.369,4.369,0,0,0,6.161-.457l3.017-3.5a4.359,4.359,0,0,0,6.157-.455l3.02-3.5a4.367,4.367,0,0,0,6.157-.455l.8-.929A3.4,3.4,0,0,0,143.718,157.129Z" transform="translate(-76.727 -116.61)" fill="#f9c295"/><path d="M262.369,299.784l-3.077-2.653a3.607,3.607,0,0,1-.149,4.523l-.851.986a4.636,4.636,0,0,1-6.536.483l-3.206,3.719a4.627,4.627,0,0,1-6.536.483l-3.2,3.719a4.637,4.637,0,0,1-6.54.486l-3.2,3.716a4.6,4.6,0,0,1-2.2,1.416l1.363,1.176a4.368,4.368,0,0,0,6.161-.457l3.016-3.5a4.369,4.369,0,0,0,6.161-.458l3.017-3.5a4.359,4.359,0,0,0,6.157-.455l3.02-3.5a4.367,4.367,0,0,0,6.157-.455l.8-.929A3.4,3.4,0,0,0,262.369,299.784Z" transform="translate(-195.378 -259.265)" fill="#e59f6a"/></g><g transform="translate(22.945 39.525)"><path d="M118.879,295.539l-1.2,1.582a3.914,3.914,0,0,0,.757,5.483h0a3.914,3.914,0,0,0,5.483-.757l1.2-1.582a3.914,3.914,0,0,0-.757-5.483h0A3.914,3.914,0,0,0,118.879,295.539Z" transform="translate(-116.887 -293.988)" fill="#f29f5c"/><path d="M149.688,311.405l-2.257,2.98a3.914,3.914,0,0,0,.757,5.483h0a3.914,3.914,0,0,0,5.483-.757l2.257-2.98a3.914,3.914,0,0,0-.757-5.483h0A3.914,3.914,0,0,0,149.688,311.405Z" transform="translate(-140.397 -306.526)" fill="#f29f5c"/><path d="M180.256,328.78l-3.076,4.061a3.914,3.914,0,0,0,.757,5.483h0a3.914,3.914,0,0,0,5.483-.757l3.076-4.061a3.914,3.914,0,0,0-.757-5.483h0A3.914,3.914,0,0,0,180.256,328.78Z" transform="translate(-163.906 -320.257)" fill="#f29f5c"/><path d="M210.184,350.187l-3.254,4.3a3.914,3.914,0,0,0,.757,5.483h0a3.914,3.914,0,0,0,5.483-.757l3.254-4.3a3.914,3.914,0,0,0-.757-5.483h0A3.914,3.914,0,0,0,210.184,350.187Z" transform="translate(-187.415 -337.173)" fill="#f29f5c"/></g><path d="M211.214,118.776,201.3,113.2a5.973,5.973,0,0,0-3.478-.742L182.176,113.9a5.971,5.971,0,0,0-4.613,2.946l-11.03,18.985a2.624,2.624,0,0,0,1.342,3.772l.451.17a9.808,9.808,0,0,0,11.242-3.2l4.226-5.5s10.158,11.762,21.343-1.974" transform="translate(-132.893 -110.989)" fill="#ffece4"/><path d="M420.3,105.557l5.184,42.109-12.121,1.492a4.179,4.179,0,0,1-4.659-3.637l-4.162-33.813a4.179,4.179,0,0,1,3.637-4.659Z" transform="translate(-321.232 -105.557)" fill="#5c9cee"/><path d="M426.8,277.452a4.582,4.582,0,0,1-5.028-3.534l.572,4.649a4.179,4.179,0,0,0,4.659,3.637l12.121-1.492-.579-4.706Z" transform="translate(-334.878 -238.603)" fill="#3580d3"/><path d="M12.685,105.557,7.5,147.666l12.121,1.492a4.179,4.179,0,0,0,4.659-3.637l4.162-33.813a4.179,4.179,0,0,0-3.637-4.659Z" transform="translate(-7.501 -105.557)" fill="#fcd03e"/><path d="M19.908,281.406,8.094,279.952,7.5,284.771l12.121,1.492a4.179,4.179,0,0,0,4.659-3.637l.44-3.572A4.91,4.91,0,0,1,19.908,281.406Z" transform="translate(-7.501 -242.662)" fill="#e3b829"/><g transform="translate(5.284 32.133)"><circle cx="3.041" cy="3.041" r="3.041" transform="translate(87.43)" fill="#ebeef2"/><circle cx="3.041" cy="3.041" r="3.041" fill="#ebeef2"/></g></g><g transform="translate(0 0)"><path d="M53.719,150.158a5.474,5.474,0,0,0-4.32-1.017,5.484,5.484,0,0,0-6.162-4.535,5.544,5.544,0,0,0-1.045.249,5.479,5.479,0,0,0-7.358-3.527,5.489,5.489,0,0,0-9.034-2.19l-5.758-.383,3.529-28.67,6.324.43c.036,0,.072,0,.107,0a1.573,1.573,0,0,0,1.4-.856l2.37-4.625a2.8,2.8,0,0,1,3.224-1.415l3.52.973a1.573,1.573,0,0,0,.839-3.033l-3.519-.973a5.957,5.957,0,0,0-6.862,3.011l-1.9,3.7-5.119-.348.121-.985a5.759,5.759,0,0,0-5.007-6.412L6.949,98.069a1.573,1.573,0,0,0-.384,3.123l12.121,1.492a2.606,2.606,0,0,1,2.268,2.905L16.791,139.4a2.61,2.61,0,0,1-2.905,2.268L1.765,140.178A1.573,1.573,0,0,0,1.38,143.3L13.5,144.793a5.747,5.747,0,0,0,5.742-2.937l4.308.286a5.488,5.488,0,0,0,4.868,8,5.6,5.6,0,0,0,.762-.052l.048-.008c0,.016,0,.033.005.049a5.482,5.482,0,0,0,5.429,4.734,5.538,5.538,0,0,0,.808-.061,5.476,5.476,0,0,0,5.433,4.787,5.531,5.531,0,0,0,.805-.061c0,.017,0,.035.006.052a5.49,5.49,0,0,0,5.424,4.737,5.587,5.587,0,0,0,.762-.052,5.451,5.451,0,0,0,3.624-2.123l3.254-4.3A5.493,5.493,0,0,0,53.719,150.158Zm-24.967-3.187a2.341,2.341,0,0,1-2.186-3.732l1.2-1.582a2.341,2.341,0,0,1,3.732,2.826l-1.2,1.582A2.327,2.327,0,0,1,28.751,146.971Zm4.507,4.273a2.341,2.341,0,0,1-.453-3.279l1.2-1.582h0l1.058-1.4a2.341,2.341,0,0,1,3.732,2.826l-2.257,2.98A2.343,2.343,0,0,1,33.258,151.244Zm6.24,4.726a2.341,2.341,0,0,1-.453-3.279h0l2.257-2.98h0l.819-1.081a2.341,2.341,0,0,1,3.733,2.825l-3.077,4.062h0A2.343,2.343,0,0,1,39.5,155.969Zm12.773-.024-3.254,4.3a2.341,2.341,0,1,1-3.732-2.826l3.076-4.061,0,0,.177-.233a2.341,2.341,0,1,1,3.732,2.826Z" transform="translate(0.001 -98.057)"/><path d="M232.778,141.548a1.573,1.573,0,0,0-1.754-1.369L218.9,141.671A2.608,2.608,0,0,1,216,139.4l-.124-1.009h0l-.029-.234-4.009-32.57a2.606,2.606,0,0,1,2.268-2.905l12.121-1.492a1.573,1.573,0,0,0-.384-3.123L213.72,99.562a5.76,5.76,0,0,0-5.047,5.858l-3.057.376-9.466-5.327a7.512,7.512,0,0,0-4.394-.938h-.009L188.9,99.8a1.573,1.573,0,0,0,.29,3.133l2.857-.264a4.379,4.379,0,0,1,2.562.547l9.814,5.523a1.574,1.574,0,0,0,1.059.249l3.55-.437,2.6,21.153.9,7.315-5.663,0a1.572,1.572,0,0,0-1.027.383l-.438.341-14.217-12.253c3.249-.934,6.346-3.193,9.242-6.749a1.573,1.573,0,0,0-2.44-1.987c-3.237,3.975-6.64,6.021-10.115,6.081-5.063.1-8.783-4.1-8.817-4.142a1.573,1.573,0,0,0-2.438.07l-4.226,5.5a8.186,8.186,0,0,1-9.439,2.686l-.451-.171a1.051,1.051,0,0,1-.537-1.51L173,106.282a4.406,4.406,0,0,1,3.4-2.17l6.53-.6a1.573,1.573,0,0,0-.29-3.133l-6.53.6a7.559,7.559,0,0,0-5.829,3.722l-11.03,18.985a4.2,4.2,0,0,0,2.146,6.035l.451.171a11.461,11.461,0,0,0,4.055.745,11.315,11.315,0,0,0,8.991-4.458l3.153-4.1a15.536,15.536,0,0,0,8.865,3.878l20.545,17.707a1.826,1.826,0,0,1,.192,2.574l-.8.929a2.8,2.8,0,0,1-3.941.289,1.573,1.573,0,0,0-.206-.148l-5.333-4.6a1.573,1.573,0,0,0-2.055,2.383l4.334,3.737-1.977,2.294a2.787,2.787,0,0,1-3.939.291l-.023-.018-4.956-4.273a1.573,1.573,0,1,0-2.055,2.383l3.787,3.265-1.989,2.31a2.8,2.8,0,0,1-2.447.952,1.573,1.573,0,1,0-.367,3.125,5.941,5.941,0,0,0,5.2-2.023L193,154.662a5.937,5.937,0,0,0,7.048-1.489l2.13-2.472a5.954,5.954,0,0,0,7.047-1.484l.8-.93a4.971,4.971,0,0,0-.521-7.011l-1.291-1.113,4.72,0a5.748,5.748,0,0,0,6.353,4.634l12.121-1.492A1.573,1.573,0,0,0,232.778,141.548Z" transform="translate(-125.394 -98.058)"/><path d="M446.618,251.249a4.614,4.614,0,1,0,4.614,4.614A4.62,4.62,0,0,0,446.618,251.249Zm0,6.082a1.468,1.468,0,1,1,1.468-1.468A1.47,1.47,0,0,1,446.618,257.331Z" transform="translate(-349.29 -219.116)"/><path d="M34.422,255.863a4.614,4.614,0,1,0-4.614,4.614A4.619,4.619,0,0,0,34.422,255.863Zm-6.082,0a1.468,1.468,0,1,1,1.468,1.468A1.469,1.469,0,0,1,28.339,255.863Z" transform="translate(-19.908 -219.116)"/></g></g></g></svg>