<svg xmlns="http://www.w3.org/2000/svg" width="186" height="186" viewBox="0 0 186 186"><g transform="translate(-395 -5101)"><circle cx="93" cy="93" r="93" transform="translate(395 5101)" fill="#fff7e0"/><path d="M93,12a81,81,0,1,0,81,81A81.092,81.092,0,0,0,93,12M93,0A93,93,0,1,1,0,93,93,93,0,0,1,93,0Z" transform="translate(395 5101)" fill="#fab729"/><g transform="translate(436.48 5109.198)"><g transform="translate(2.038 51.945)"><path d="M19.278,92.573,10,91.566v73.819H59.379l-40.1-10.1Z" transform="translate(-10 -91.566)" fill="#afafaf"/></g><g transform="translate(51.417 51.945)"><path d="M292.382,92.573l9.481-1.007v73.819H252.28l40.1-10.1Z" transform="translate(-252.28 -91.566)" fill="#afafaf"/></g><g transform="translate(11.316 45.582)"><path d="M95.622,81.038v48.806l-40.1-10.407V60.349L92.7,70.464a13.757,13.757,0,0,0,2.925,10.574Z" transform="translate(-55.52 -60.349)" fill="#f9f5f3"/></g><g transform="translate(51.417 45.582)"><path d="M292.382,60.349v59.089l-40.1,10.407V81.038a13.781,13.781,0,0,0,22.454-15.887Z" transform="translate(-252.28 -60.349)" fill="#f9f5f3"/></g><g transform="translate(11.316 104.67)"><path d="M55.522,350.266v11l40.1,10.1V360.674Z" transform="translate(-55.522 -350.266)" fill="#a7bcce"/></g><g transform="translate(51.417 104.67)"><path d="M292.381,350.266v11l-40.1,10.1V360.674Z" transform="translate(-252.28 -350.266)" fill="#a7bcce"/></g><g transform="translate(48.358 43.833)"><circle cx="13.779" cy="13.779" r="13.779" transform="translate(0 0)" fill="#a0c8ff"/></g><g transform="translate(74.417 69.892)"><path d="M380.971,195.468a4.206,4.206,0,0,1-5.891,0l-9.953-9.953,5.891-5.891,9.953,9.953A4.166,4.166,0,0,1,380.971,195.468Z" transform="translate(-365.127 -179.624)" fill="#fab729"/></g><g transform="translate(0 41.802)"><path d="M102.363,50.43a2.038,2.038,0,0,0-1.578-.511l-7.228.767v-5.1a2.057,2.057,0,0,0-2.573-1.967L74.725,48.04a15.794,15.794,0,0,0-23.772-1.612,15.721,15.721,0,0,0-3.992,6.741L30.014,48.558a2.038,2.038,0,0,0-1.07,3.933L46.327,57.22a15.941,15.941,0,0,0,3.053,9.745v45.478l-36.026-9.349V52.952s0-.006,0-.009V45.582a2.038,2.038,0,1,0-4.076,0v5.1l-7.019-.762A2.058,2.058,0,0,0,0,51.945v73.818A2.038,2.038,0,0,0,2.038,127.8H101a2.038,2.038,0,0,0,2.038-2.038V51.945a2.038,2.038,0,0,0-.675-1.515ZM13.354,107.306l36.025,9.349v6.494l-36.025-9.071Zm40.1-36.465A15.949,15.949,0,0,0,68.1,72.271a15.746,15.746,0,0,0,3.69-2.127l2.694,2.694-1.5,1.5a2.059,2.059,0,0,0,0,2.882l9.953,9.953A6.261,6.261,0,0,0,89.481,88.6v14.492l-36.025,9.349Zm26.852,1.934,8.512,8.512a2.128,2.128,0,0,1-3.009,3.009L77.3,75.783ZM53.455,123.149v-6.494l36.025-9.349v6.772Zm36.026-74.9v4.7s0,0,0,.006V76.182l-7.732-7.732a2.039,2.039,0,0,0-2.882,0l-1.5,1.5L74.67,67.263A15.732,15.732,0,0,0,76.815,51.7ZM53.835,49.31a11.746,11.746,0,1,1-3.421,8.842A11.712,11.712,0,0,1,53.835,49.31ZM4.076,54.216l5.2.564v60.886a2.038,2.038,0,0,0,1.54,1.976l24.158,6.083H4.076Zm94.886,69.509h-31.1l24.158-6.083a2.038,2.038,0,0,0,1.54-1.976V54.785l5.405-.574v69.514Z" transform="translate(0 -41.802)"/><path d="M89.614,126.169l21.947,5.8a2.038,2.038,0,0,0,1.042-3.941l-21.947-5.8a2.038,2.038,0,0,0-1.042,3.941Z" transform="translate(-70.142 -105.782)"/><path d="M89.614,183.1l21.947,5.8a2.038,2.038,0,0,0,1.042-3.941l-21.947-5.8a2.038,2.038,0,0,0-1.042,3.941Z" transform="translate(-70.142 -151.109)"/><path d="M89.614,240.027l21.947,5.8a2.038,2.038,0,0,0,1.042-3.941l-21.947-5.8a2.038,2.038,0,0,0-1.042,3.941Z" transform="translate(-70.142 -196.435)"/><path d="M89.614,296.956l11.936,3.155a2.038,2.038,0,0,0,1.042-3.941l-11.936-3.155a2.038,2.038,0,0,0-1.042,3.941Z" transform="translate(-70.142 -241.761)"/><path d="M290.315,257.815a2.038,2.038,0,0,0,.51-.065L301.5,255a2.038,2.038,0,1,0-1.017-3.947L289.807,253.8a2.038,2.038,0,0,0,.507,4.012Z" transform="translate(-229.523 -208.353)"/><path d="M310.077,300.83a2.038,2.038,0,1,0-1.027-3.945L289.8,301.9a2.038,2.038,0,1,0,1.027,3.945Z" transform="translate(-229.524 -244.844)"/><path d="M92.745,66.68a2.039,2.039,0,1,0-.768-2.428A2.054,2.054,0,0,0,92.745,66.68Z" transform="translate(-73.124 -58.638)"/><path d="M285.513,112.878v3.05a2.038,2.038,0,0,0,2.038,2.038h2.168a2.038,2.038,0,1,0,0-4.076h-.13v-4.168a2.038,2.038,0,0,0-2.918-1.838l-2.4,1.151a2.038,2.038,0,0,0,1.245,3.844Z" transform="translate(-225.409 -94.256)"/><path d="M294.3,80.4a2.037,2.037,0,1,0,1.1-2.662A2.058,2.058,0,0,0,294.3,80.4Z" transform="translate(-234.195 -70.295)"/><path d="M199.7,322.958a2.036,2.036,0,1,0-.834,2.527A2.052,2.052,0,0,0,199.7,322.958Z" transform="translate(-155.882 -264.654)"/></g></g></g></svg>