<svg xmlns="http://www.w3.org/2000/svg" width="148.046" height="148.046" viewBox="0 0 148.046 148.046"><g transform="translate(-1145.977 -12738.188)"><circle cx="74.023" cy="74.023" r="74.023" transform="translate(1145.977 12738.188)" fill="#ebfae2"/><path d="M74.023,10a64.023,64.023,0,1,0,64.023,64.023A64.1,64.1,0,0,0,74.023,10m0-10A74.023,74.023,0,1,1,0,74.023,74.023,74.023,0,0,1,74.023,0Z" transform="translate(1145.977 12738.188)" fill="#699156"/><g transform="translate(1177.573 12746.682)"><g transform="translate(1.326 20.264)"><g transform="translate(0 18.999)"><ellipse cx="6.571" cy="7.445" rx="6.571" ry="7.445" transform="translate(56.866 3.617)" fill="#3f5959"/><g transform="translate(0 5.364)"><g transform="translate(0 10.803)"><path d="M43.21,350.24V336.728a11.452,11.452,0,0,0-1.612-5.87c-3.767-6.311-9.642-9.683-16.243-9.683s-12.476,3.372-16.243,9.683a11.452,11.452,0,0,0-1.612,5.87V350.24H43.21Z" transform="translate(-7.5 -304.226)" fill="#eff5f6"/><path d="M115.217,336.732v13.512h-4.779V336.732a11.45,11.45,0,0,0-1.613-5.87c-3.3-5.538-8.234-8.812-13.851-9.53a18.716,18.716,0,0,1,2.389-.152c6.6,0,12.476,3.372,16.242,9.682A11.451,11.451,0,0,1,115.217,336.732Z" transform="translate(-79.508 -304.23)" fill="#deecf0"/><path d="M96.508,283.87v7.764a3.275,3.275,0,0,1-6.549,0V283.87Z" transform="translate(-75.379 -273.517)" fill="#fdb0a0"/><g transform="translate(4.701)"><circle cx="3.493" cy="3.493" r="3.493" transform="translate(19.322)" fill="#fdb0a0"/><circle cx="3.493" cy="3.493" r="3.493" fill="#fdb0a0"/></g></g><g transform="translate(8.68)"><path d="M74.939,173.393v6.627a9.175,9.175,0,1,1-18.35.115v-6.742a9.175,9.175,0,0,1,18.35,0Z" transform="translate(-56.589 -164.219)" fill="#ffcec0"/></g><g transform="translate(52.166)"><g transform="translate(0 10.803)"><path d="M338.246,350.24V336.728a11.452,11.452,0,0,0-1.612-5.87c-3.767-6.311-9.642-9.683-16.243-9.683s-12.476,3.372-16.243,9.683a11.453,11.453,0,0,0-1.612,5.87V350.24h35.71Z" transform="translate(-302.536 -304.226)" fill="#fcd03e"/><path d="M410.253,336.732v13.512h-4.779V336.732a11.45,11.45,0,0,0-1.613-5.87c-3.3-5.538-8.234-8.812-13.851-9.53a18.715,18.715,0,0,1,2.389-.152c6.6,0,12.476,3.372,16.242,9.682A11.451,11.451,0,0,1,410.253,336.732Z" transform="translate(-374.544 -304.23)" fill="#e3b829"/><path d="M391.544,283.87v7.764a3.275,3.275,0,0,1-6.549,0V283.87Z" transform="translate(-370.415 -273.517)" fill="#fdb0a0"/><g transform="translate(4.701)"><circle cx="3.493" cy="3.493" r="3.493" transform="translate(19.322)" fill="#fdb0a0"/><circle cx="3.493" cy="3.493" r="3.493" fill="#fdb0a0"/></g></g><g transform="translate(8.68)"><path d="M369.975,173.393v6.627a9.175,9.175,0,1,1-18.35.115v-6.742a9.175,9.175,0,0,1,18.35,0Z" transform="translate(-351.625 -164.219)" fill="#ffcec0"/></g></g></g><path d="M381.346,139.117c1.089-1,1.608-2.071,1.3-3-.633-1.919-15.18-4.652-18.677,1.9-1.782,3.337,2.665,9.307,7.724,10.834s10.151-.114,11.374-3.665C383.768,143.151,383.043,140.93,381.346,139.117Z" transform="translate(-300.612 -133.884)" fill="#557983"/><path d="M416.079,146.007c-1.223,3.55-6.316,5.191-11.374,3.665a9.95,9.95,0,0,1-1.034-.377c3.876.2,7.26-1.411,8.227-4.219a5.652,5.652,0,0,0-.974-5.155,1.493,1.493,0,0,1,.022-1.758,2.383,2.383,0,0,0,.531-2.154c-.122-.371-.762-.771-1.742-1.13,3.147.377,5.667,1.285,5.923,2.058.306.928-.212,2-1.3,3C416.054,141.751,416.779,143.972,416.079,146.007Z" transform="translate(-333.623 -134.704)" fill="#3f5959"/><g transform="translate(4.564 1.001)"><path d="M59.776,147.553a8.967,8.967,0,0,0-9.009-8.007H42.441a8.967,8.967,0,0,0-9.009,8.007c-1.5,8.844,11.71,4.55,13.172,4.05C48.066,152.1,61.278,156.4,59.776,147.553Z" transform="translate(-33.313 -139.546)" fill="#fde784"/><path d="M113.908,152.922c2.348-.444,4.031-1.89,3.441-5.366a8.963,8.963,0,0,0-9.009-8.006h4.189a8.963,8.963,0,0,1,9.009,8.006C122.45,152.933,117.925,153.453,113.908,152.922Z" transform="translate(-95.074 -139.549)" fill="#fdd330"/></g><path d="M82.954,399.617v3.111a.884.884,0,0,0,.884.884H91.1a.884.884,0,0,0,.884-.884v-3.111a.884.884,0,0,0-.884-.884H83.838A.884.884,0,0,0,82.954,399.617Z" transform="translate(-69.613 -351.905)" fill="#27e19d"/></g><g transform="translate(32.26 0)"><path d="M200.153,50.511a3.68,3.68,0,0,1-2.611-1.082L190.613,42.5a2.257,2.257,0,0,1,0-3.193l2.03-2.03a2.257,2.257,0,0,1,3.193,0l4.318,4.318,14.506-14.505a2.257,2.257,0,0,1,3.192,0l2.03,2.03a2.257,2.257,0,0,1,0,3.193L202.765,49.43A3.683,3.683,0,0,1,200.153,50.511Z" transform="translate(-189.951 -26.429)" fill="#27e19d"/><g transform="translate(4.959 0.389)"><path d="M242.969,34.123,225.853,51.241a3.7,3.7,0,0,1-5.222,0L218,48.609a3.691,3.691,0,0,0,5.222,0l17.116-17.116a2.256,2.256,0,0,0,.271-2.864,2.131,2.131,0,0,1,.332.272l2.029,2.031a2.255,2.255,0,0,1,0,3.192Z" transform="translate(-217.999 -28.629)" fill="#1ec186"/></g></g></g><g transform="translate(0 18.94)"><path d="M203.29,457.43a1.326,1.326,0,0,0-1.326,1.326V462.4a1.326,1.326,0,0,0,2.652,0v-3.648A1.326,1.326,0,0,0,203.29,457.43Z" transform="translate(-166.254 -379.9)"/><path d="M23.781,164.7v-1.623a10.665,10.665,0,0,0,5.374-6.233,4.816,4.816,0,0,0,1.539-9.253,5.481,5.481,0,0,0,1.158-.657,5.123,5.123,0,0,0,1.933-4.627,1.326,1.326,0,1,0-2.649.128,2.485,2.485,0,0,1-.878,2.379c-1.745,1.312-6.1.769-9.752-.346v-3.439a2,2,0,0,1,1.993-1.993,1.326,1.326,0,0,0,0-2.652,4.617,4.617,0,0,0-1.993.45V134.7h2.837a7.721,7.721,0,0,1,3.025.584,7.44,7.44,0,0,1,2.809,2.024,1.326,1.326,0,0,0,2.02-1.719,10.067,10.067,0,0,0-3.8-2.748,10.357,10.357,0,0,0-4.057-.794H15.018A10.289,10.289,0,0,0,4.7,141.157c-.521,3.071.568,4.735,1.575,5.591a5.353,5.353,0,0,0,1.385.841,4.816,4.816,0,0,0,1.511,9.248,10.54,10.54,0,0,0,5.408,6.256v1.6A20.278,20.278,0,0,0,1.8,174.49a12.784,12.784,0,0,0-1.8,6.55v13.512a1.326,1.326,0,0,0,2.652,0V181.039a10.129,10.129,0,0,1,1.425-5.19,17.8,17.8,0,0,1,10.568-8.432,4.6,4.6,0,0,0,9.072,0,17.809,17.809,0,0,1,10.568,8.433,10.129,10.129,0,0,1,1.425,5.19v3.512a1.326,1.326,0,0,0,2.652,0v-3.512a12.782,12.782,0,0,0-1.8-6.55A20.291,20.291,0,0,0,23.781,164.7Zm5.888-10.662c.008-.165.013-.331.013-.5v-3.5a2.165,2.165,0,0,1-.013,4ZM17.855,141.024v3.439c-3.756,1.15-8.192,1.682-9.861.263-.261-.222-1.056-.9-.678-3.126a7.645,7.645,0,0,1,7.7-6.9h2.837v2.131a4.628,4.628,0,0,0-1.993-.45,1.326,1.326,0,1,0,0,2.652,2.236,2.236,0,0,1,1.993,1.993Zm-10.5,11.007a2.175,2.175,0,0,1,1.327-2v3.615c0,.128,0,.255.009.382A2.171,2.171,0,0,1,7.354,152.031Zm3.979-3.794a27.681,27.681,0,0,0,7.849-1.411,26.926,26.926,0,0,0,7.849,1.41v5.3A7.927,7.927,0,0,1,19.24,161.5h-.059a7.848,7.848,0,0,1-7.848-7.849v-5.413ZM19.181,168.6a1.951,1.951,0,0,1-1.948-1.948V163.97a10.609,10.609,0,0,0,1.948.181h.08a10.327,10.327,0,0,0,1.87-.187v2.69a1.951,1.951,0,0,1-1.948,1.948Z" transform="translate(0 -112.048)"/><path d="M78.589,234.991h-.013a1.332,1.332,0,1,0,.013,0Z" transform="translate(-63.597 -196.791)"/><path d="M126.04,237.643h0a1.326,1.326,0,0,0,0-2.652h-.014a1.326,1.326,0,0,0,.013,2.652Z" transform="translate(-102.658 -196.791)"/><path d="M331.6,169.837a20.291,20.291,0,0,0-12.781-9.794V158.42a10.666,10.666,0,0,0,5.374-6.233,4.818,4.818,0,0,0,1.142-9.4,6.766,6.766,0,0,0,2.573-3.333A6.947,6.947,0,0,0,326.691,133a3.643,3.643,0,0,0,.8-3.461c-.765-2.319-6.711-2.946-7.9-3.048-2.8-.242-9.246-.317-12.4,3.534-4.149.256-7.454,4.085-7.454,8.756a9.411,9.411,0,0,0,1.488,5.127,4.81,4.81,0,0,0,2.983,8.278,10.54,10.54,0,0,0,5.408,6.256v1.6a20.293,20.293,0,0,0-12.781,9.794,12.782,12.782,0,0,0-1.8,6.55V189.9a1.326,1.326,0,1,0,2.652,0v-2.452h4.74v2.415a1.326,1.326,0,1,0,2.652,0v-2.415h18.347v2.415a1.326,1.326,0,1,0,2.652,0v-2.415h4.666V189.9a1.326,1.326,0,1,0,2.652,0V176.387a12.782,12.782,0,0,0-1.8-6.55Zm-6.845,8.362a1.326,1.326,0,0,0-1.326,1.326v.9H305.08v-.9a1.326,1.326,0,0,0-2.652,0v.9h-4.74v-4.039c0-.052,0-.1,0-.155h33.052c0,.052,0,.1,0,.155v4.039H326.08v-.9A1.326,1.326,0,0,0,324.753,178.2Zm4.931-6.336a10.065,10.065,0,0,1,.667,1.717H298.083a10.078,10.078,0,0,1,.667-1.717Zm-3.64-24.485a2.171,2.171,0,0,1-1.339,2c.008-.165.013-.331.013-.5v-3.5A2.175,2.175,0,0,1,326.044,147.378ZM314.59,129.237a19.227,19.227,0,0,1,2.783-.2c3.633,0,6.85.924,7.618,1.467a2.5,2.5,0,0,1-.957,1.465,1.326,1.326,0,0,0-.072,1.884c1.424,1.521,1.948,3.245,1.436,4.731-.974,2.831-5.433,4.126-9.737,2.827a11.512,11.512,0,0,1-6.77-6.057,3.463,3.463,0,0,1-.167-2.883C309.862,130.343,312.542,129.537,314.59,129.237Zm-12.2,9.543a6.152,6.152,0,0,1,3.462-5.754,6.5,6.5,0,0,0,.293,2.517,10.471,10.471,0,0,0-2.427,6.714v.378l-.134.026A6.718,6.718,0,0,1,302.389,138.78Zm0,8.6a2.175,2.175,0,0,1,1.328-2V149c0,.128,0,.255.009.382A2.17,2.17,0,0,1,302.389,147.378Zm3.98,1.619v-6.741a7.829,7.829,0,0,1,1.089-3.987,13.707,13.707,0,0,0,11.619,6.315,12.493,12.493,0,0,0,2.989-.355v4.653a7.927,7.927,0,0,1-7.789,7.963A7.849,7.849,0,0,1,306.368,149Zm7.848,10.5h.08a10.331,10.331,0,0,0,1.87-.187V162a1.948,1.948,0,0,1-3.9,0v-2.684A10.616,10.616,0,0,0,314.216,159.5Zm-4.536,3.265a4.6,4.6,0,0,0,9.073,0,17.232,17.232,0,0,1,9.234,6.447h-27.54A17.234,17.234,0,0,1,309.681,162.763Zm-11.992,22.031v-1.717h4.74v1.717Zm7.392,0v-1.717h18.347v1.717Zm21,0v-1.717h4.666v1.717Z" transform="translate(-242.87 -107.395)"/><path d="M373.625,234.991h-.013a1.333,1.333,0,1,0,.013,0Z" transform="translate(-306.467 -196.791)"/><path d="M421.077,237.643h0a1.326,1.326,0,0,0,0-2.652h-.014a1.326,1.326,0,0,0,.013,2.652Z" transform="translate(-345.529 -196.791)"/><path d="M206.167,295.63a1.326,1.326,0,0,0,1.875,0l2.433-2.433a1.326,1.326,0,0,0,0-1.876l-2.433-2.433a1.326,1.326,0,0,0-1.875,1.875l.169.169H190.7l.169-.169a1.326,1.326,0,0,0-1.875-1.875l-2.433,2.433a1.326,1.326,0,0,0,0,1.876l2.433,2.433a1.326,1.326,0,1,0,1.875-1.875l-.169-.169h15.637l-.169.169A1.326,1.326,0,0,0,206.167,295.63Z" transform="translate(-153.253 -240.839)"/><path d="M42.925,419.388a1.326,1.326,0,0,0-1.326,1.326v10.336a1.326,1.326,0,0,0,2.652,0V420.714A1.326,1.326,0,0,0,42.925,419.388Z" transform="translate(-34.244 -348.584)"/><path d="M161.691,419.388a1.326,1.326,0,0,0-1.326,1.326v10.336a1.326,1.326,0,0,0,2.652,0V420.714A1.326,1.326,0,0,0,161.691,419.388Z" transform="translate(-132.011 -348.584)"/><path d="M84.923,391.233H77.664a2.213,2.213,0,0,0-2.21,2.21v3.111a2.213,2.213,0,0,0,2.21,2.21h7.259a2.213,2.213,0,0,0,2.21-2.21v-3.111A2.213,2.213,0,0,0,84.923,391.233Zm-.442,4.879H78.106v-2.227h6.375Z" transform="translate(-62.113 -325.407)"/><path d="M190.431,44.2a5.019,5.019,0,0,0,7.1,0l6.143-6.144a1.326,1.326,0,0,0-1.875-1.875l-6.143,6.144a2.366,2.366,0,0,1-3.347,0L185.377,35.4a.932.932,0,0,1,0-1.317l2.03-2.03a.931.931,0,0,1,1.317,0l4.318,4.318a1.326,1.326,0,0,0,1.875,0l14.506-14.505a.932.932,0,0,1,1.317,0l2.03,2.03a.932.932,0,0,1,0,1.317l-6.482,6.482a1.326,1.326,0,1,0,1.875,1.875l6.482-6.482a3.584,3.584,0,0,0,0-5.068l-2.03-2.03a3.588,3.588,0,0,0-5.068,0L193.98,33.555,190.6,30.175a3.588,3.588,0,0,0-5.068,0L183.5,32.2a3.583,3.583,0,0,0,0,5.068Z" transform="translate(-150.192 -18.94)"/><path d="M263.556,233.215a1.326,1.326,0,0,0,1.326-1.326v-6.82a1.326,1.326,0,0,0-2.192-1l-2.184,1.881-2.184-1.881a1.326,1.326,0,0,0-2.192,1v6.82a1.326,1.326,0,1,0,2.652,0v-3.928l.858.739a1.326,1.326,0,0,0,1.731,0l.858-.739v3.928A1.327,1.327,0,0,0,263.556,233.215Z" transform="translate(-210.843 -187.531)"/><path d="M207.83,231.028a1.326,1.326,0,0,0,1.008,2.187h4.082a1.326,1.326,0,1,0,0-2.652h-1.205l1.743-2.04a2.733,2.733,0,0,0,.173-3.354,3.368,3.368,0,0,0-5.984,1,1.326,1.326,0,1,0,2.546.744.719.719,0,0,1,.687-.513.709.709,0,0,1,.585.3.1.1,0,0,1-.024.1Z" transform="translate(-170.821 -187.531)"/></g></g></g></svg>