<svg xmlns="http://www.w3.org/2000/svg" width="572" height="716" viewBox="0 0 572 716"><g transform="translate(-514 -15605)"><g transform="translate(335 504)"><g transform="translate(0 -17)"><path d="M.176,0H420.035l18.214,77.989-457.96.443Z" transform="translate(256.114 15446.01)" fill="#fcd368"/><path d="M13.726,27.016H6.68L5.449,31H-.044L7.778,9.672h4.834L20.493,31H14.971ZM7.91,23.046H12.5l-2.3-7.4ZM21.2,22.958a9.682,9.682,0,0,1,1.626-5.933,5.352,5.352,0,0,1,4.541-2.168,4.552,4.552,0,0,1,3.574,1.67V8.5h4.951V31H31.45L31.2,29.3a4.674,4.674,0,0,1-3.867,1.992,5.342,5.342,0,0,1-4.482-2.168A9.989,9.989,0,0,1,21.2,22.958Zm4.937.308q0,4.219,2.461,4.219a2.43,2.43,0,0,0,2.344-1.377V20.072a2.365,2.365,0,0,0-2.314-1.406q-2.285,0-2.476,3.691Z" transform="translate(294.143 15465.646)" fill="#12263f"/><path d="M13.726,27.016H6.68L5.449,31H-.044L7.778,9.672h4.834L20.493,31H14.971ZM7.91,23.046H12.5l-2.3-7.4ZM27.026,31H22.075V15.15h4.951ZM21.782,11.063a2.2,2.2,0,0,1,.762-1.729,2.874,2.874,0,0,1,1.978-.674,2.874,2.874,0,0,1,1.978.674,2.2,2.2,0,0,1,.762,1.729,2.2,2.2,0,0,1-.762,1.729,2.874,2.874,0,0,1-1.978.674,2.874,2.874,0,0,1-1.978-.674A2.2,2.2,0,0,1,21.782,11.063Z" transform="translate(598.143 15465.646)" fill="#12263f"/><path d="M1.634.084,460.186.827l23.94,90.408L-21.163,90.043Z" transform="translate(234.177 15524.611)" fill="#fde3a0"/><path d="M18.867,23.778a7.789,7.789,0,0,1-1.2,3.933,7.249,7.249,0,0,1-3.083,2.644,10.5,10.5,0,0,1-4.534.938,8.375,8.375,0,0,1-6.621-2.739q-2.417-2.739-2.417-7.734V19.765A12.91,12.91,0,0,1,2.1,14.279a8.269,8.269,0,0,1,3.142-3.633A8.767,8.767,0,0,1,9.99,9.364a9.193,9.193,0,0,1,6.24,2.043,8.074,8.074,0,0,1,2.681,5.632H13.784a3.82,3.82,0,0,0-.981-2.8,4.037,4.037,0,0,0-2.812-.85,3.071,3.071,0,0,0-2.812,1.436,9.226,9.226,0,0,0-.937,4.585v1.509A10.209,10.209,0,0,0,7.1,25.8a3.136,3.136,0,0,0,2.952,1.465,3.948,3.948,0,0,0,2.71-.835,3.544,3.544,0,0,0,1-2.651Zm1.582-.82a9.682,9.682,0,0,1,1.626-5.933,5.352,5.352,0,0,1,4.541-2.168,4.552,4.552,0,0,1,3.574,1.67V8.5h4.951V31H30.7l-.249-1.7a4.674,4.674,0,0,1-3.867,1.992A5.342,5.342,0,0,1,22.1,29.125,9.989,9.989,0,0,1,20.449,22.958Zm4.937.308q0,4.219,2.461,4.219a2.43,2.43,0,0,0,2.344-1.377V20.072a2.365,2.365,0,0,0-2.314-1.406q-2.285,0-2.476,3.691Z" transform="translate(283.143 15550.748)" fill="#12263f"/><path d="M18.867,23.778a7.789,7.789,0,0,1-1.2,3.933,7.249,7.249,0,0,1-3.083,2.644,10.5,10.5,0,0,1-4.534.938,8.375,8.375,0,0,1-6.621-2.739q-2.417-2.739-2.417-7.734V19.765A12.91,12.91,0,0,1,2.1,14.279a8.269,8.269,0,0,1,3.142-3.633A8.767,8.767,0,0,1,9.99,9.364a9.193,9.193,0,0,1,6.24,2.043,8.074,8.074,0,0,1,2.681,5.632H13.784a3.82,3.82,0,0,0-.981-2.8,4.037,4.037,0,0,0-2.812-.85,3.071,3.071,0,0,0-2.812,1.436,9.226,9.226,0,0,0-.937,4.585v1.509A10.209,10.209,0,0,0,7.1,25.8a3.136,3.136,0,0,0,2.952,1.465,3.948,3.948,0,0,0,2.71-.835,3.544,3.544,0,0,0,1-2.651ZM26.279,31H21.328V15.15h4.951ZM21.035,11.063A2.2,2.2,0,0,1,21.8,9.335a2.874,2.874,0,0,1,1.978-.674,2.874,2.874,0,0,1,1.978.674,2.2,2.2,0,0,1,.762,1.729,2.2,2.2,0,0,1-.762,1.729,2.874,2.874,0,0,1-1.978.674,2.874,2.874,0,0,1-1.978-.674A2.2,2.2,0,0,1,21.035,11.063Z" transform="translate(618.143 15550.748)" fill="#12263f"/><path d="M0,1V-1l459.315-.254v2Z" transform="translate(235.472 15524.898)" fill="#496e3e"/><path d="M-3.285-.321,503.364-.546l30.27,123.818-568.751.127Z" transform="translate(215.118 15616.144)" fill="#fef1d0"/><path d="M13.726,27.016H6.68L5.449,31H-.044L7.778,9.672h4.834L20.493,31H14.971ZM7.91,23.046H12.5l-2.3-7.4Zm28.623.161A9.66,9.66,0,0,1,34.922,29.2a5.4,5.4,0,0,1-4.541,2.095,4.684,4.684,0,0,1-3.9-1.919L26.279,31H21.855V8.5h4.937v7.925a4.519,4.519,0,0,1,3.56-1.567,5.4,5.4,0,0,1,4.57,2.124,9.71,9.71,0,0,1,1.611,5.977Zm-4.951-.315a6.443,6.443,0,0,0-.608-3.254,2.049,2.049,0,0,0-1.868-.973,2.364,2.364,0,0,0-2.314,1.272v6.288a2.377,2.377,0,0,0,2.344,1.258,2.1,2.1,0,0,0,2.212-1.7A12.182,12.182,0,0,0,31.582,22.892Zm6.5.066a9.682,9.682,0,0,1,1.626-5.933,5.352,5.352,0,0,1,4.541-2.168,4.552,4.552,0,0,1,3.574,1.67V8.5h4.951V31H48.34l-.249-1.7a4.674,4.674,0,0,1-3.867,1.992,5.342,5.342,0,0,1-4.482-2.168A9.989,9.989,0,0,1,38.086,22.958Zm4.937.308q0,4.219,2.461,4.219a2.43,2.43,0,0,0,2.344-1.377V20.072a2.365,2.365,0,0,0-2.314-1.406q-2.285,0-2.476,3.691Z" transform="translate(251.143 15658.341)" fill="#12263f"/><path d="M13.726,27.016H6.68L5.449,31H-.044L7.778,9.672h4.834L20.493,31H14.971ZM7.91,23.046H12.5l-2.3-7.4Zm20.61,4.438a2.2,2.2,0,0,0,1.611-.564,2.068,2.068,0,0,0,.557-1.575h4.629a5.48,5.48,0,0,1-1.868,4.277,6.947,6.947,0,0,1-4.812,1.67,7.034,7.034,0,0,1-5.449-2.168A8.542,8.542,0,0,1,21.2,23.119v-.205a9.654,9.654,0,0,1,.886-4.241,6.453,6.453,0,0,1,2.556-2.827,7.622,7.622,0,0,1,3.955-.989A6.86,6.86,0,0,1,33.5,16.571a6.079,6.079,0,0,1,1.816,4.644H30.688a2.71,2.71,0,0,0-.6-1.89,2.073,2.073,0,0,0-1.611-.659q-1.919,0-2.241,2.446a17.262,17.262,0,0,0-.1,2.139,6.78,6.78,0,0,0,.571,3.311A1.978,1.978,0,0,0,28.521,27.484Z" transform="translate(444.972 15465.646)" fill="#12263f"/><path d="M18.867,23.778a7.789,7.789,0,0,1-1.2,3.933,7.249,7.249,0,0,1-3.083,2.644,10.5,10.5,0,0,1-4.534.938,8.375,8.375,0,0,1-6.621-2.739q-2.417-2.739-2.417-7.734V19.765A12.91,12.91,0,0,1,2.1,14.279a8.269,8.269,0,0,1,3.142-3.633A8.767,8.767,0,0,1,9.99,9.364a9.193,9.193,0,0,1,6.24,2.043,8.074,8.074,0,0,1,2.681,5.632H13.784a3.82,3.82,0,0,0-.981-2.8,4.037,4.037,0,0,0-2.812-.85,3.071,3.071,0,0,0-2.812,1.436,9.226,9.226,0,0,0-.937,4.585v1.509A10.209,10.209,0,0,0,7.1,25.8a3.136,3.136,0,0,0,2.952,1.465,3.948,3.948,0,0,0,2.71-.835,3.544,3.544,0,0,0,1-2.651Zm8.906,3.706a2.2,2.2,0,0,0,1.611-.564,2.068,2.068,0,0,0,.557-1.575H34.57A5.48,5.48,0,0,1,32.7,29.623a6.947,6.947,0,0,1-4.812,1.67,7.034,7.034,0,0,1-5.449-2.168,8.542,8.542,0,0,1-1.992-6.006v-.205a9.654,9.654,0,0,1,.886-4.241,6.453,6.453,0,0,1,2.556-2.827,7.622,7.622,0,0,1,3.955-.989,6.86,6.86,0,0,1,4.907,1.714,6.079,6.079,0,0,1,1.816,4.644H29.941a2.71,2.71,0,0,0-.6-1.89,2.073,2.073,0,0,0-1.611-.659q-1.919,0-2.241,2.446a17.262,17.262,0,0,0-.1,2.139,6.78,6.78,0,0,0,.571,3.311A1.978,1.978,0,0,0,27.773,27.484Z" transform="translate(444.972 15550.748)" fill="#12263f"/><path d="M13.726,27.016H6.68L5.449,31H-.044L7.778,9.672h4.834L20.493,31H14.971ZM7.91,23.046H12.5l-2.3-7.4Zm28.623.161A9.66,9.66,0,0,1,34.922,29.2a5.4,5.4,0,0,1-4.541,2.095,4.684,4.684,0,0,1-3.9-1.919L26.279,31H21.855V8.5h4.937v7.925a4.519,4.519,0,0,1,3.56-1.567,5.4,5.4,0,0,1,4.57,2.124,9.71,9.71,0,0,1,1.611,5.977Zm-4.951-.315a6.443,6.443,0,0,0-.608-3.254,2.049,2.049,0,0,0-1.868-.973,2.364,2.364,0,0,0-2.314,1.272v6.288a2.377,2.377,0,0,0,2.344,1.258,2.1,2.1,0,0,0,2.212-1.7A12.182,12.182,0,0,0,31.582,22.892ZM45.41,27.484a2.2,2.2,0,0,0,1.611-.564,2.068,2.068,0,0,0,.557-1.575h4.629a5.48,5.48,0,0,1-1.868,4.277,6.947,6.947,0,0,1-4.812,1.67,7.034,7.034,0,0,1-5.449-2.168,8.542,8.542,0,0,1-1.992-6.006v-.205a9.654,9.654,0,0,1,.886-4.241,6.453,6.453,0,0,1,2.556-2.827,7.622,7.622,0,0,1,3.955-.989,6.86,6.86,0,0,1,4.907,1.714,6.079,6.079,0,0,1,1.816,4.644H47.578a2.71,2.71,0,0,0-.6-1.89,2.073,2.073,0,0,0-1.611-.659q-1.919,0-2.241,2.446a17.262,17.262,0,0,0-.1,2.139,6.78,6.78,0,0,0,.571,3.311A1.978,1.978,0,0,0,45.41,27.484Z" transform="translate(436.972 15658.341)" fill="#12263f"/><path d="M13.726,27.016H6.68L5.449,31H-.044L7.778,9.672h4.834L20.493,31H14.971ZM7.91,23.046H12.5l-2.3-7.4Zm28.623.161A9.66,9.66,0,0,1,34.922,29.2a5.4,5.4,0,0,1-4.541,2.095,4.684,4.684,0,0,1-3.9-1.919L26.279,31H21.855V8.5h4.937v7.925a4.519,4.519,0,0,1,3.56-1.567,5.4,5.4,0,0,1,4.57,2.124,9.71,9.71,0,0,1,1.611,5.977Zm-4.951-.315a6.443,6.443,0,0,0-.608-3.254,2.049,2.049,0,0,0-1.868-.973,2.364,2.364,0,0,0-2.314,1.272v6.288a2.377,2.377,0,0,0,2.344,1.258,2.1,2.1,0,0,0,2.212-1.7A12.182,12.182,0,0,0,31.582,22.892ZM43.916,31H38.965V15.15h4.951ZM38.672,11.063a2.2,2.2,0,0,1,.762-1.729,3.239,3.239,0,0,1,3.955,0,2.2,2.2,0,0,1,.762,1.729,2.2,2.2,0,0,1-.762,1.729,3.239,3.239,0,0,1-3.955,0A2.2,2.2,0,0,1,38.672,11.063Z" transform="translate(633.927 15658.341)" fill="#12263f"/><path d="M.964,1.021v-2L506.856-.99v2Z" transform="translate(211.472 15615.598)" fill="#496e3e"/><path d="M33.875,289.023l-.359-2.978,1.986-.24.359,2.978Zm-.719-5.957-.359-2.978,1.986-.24.359,2.978Zm-.719-5.957-.359-2.978,1.986-.24.359,2.978Zm-.719-5.957-.359-2.978,1.986-.24.359,2.978ZM31,265.2l-.359-2.978,1.986-.24.359,2.978Zm-.719-5.957-.359-2.978,1.986-.24L32.266,259Zm-.719-5.957L29.2,250.3l1.986-.24.359,2.978Zm-.719-5.957-.359-2.978,1.986-.24.359,2.978Zm-.719-5.957-.359-2.978,1.986-.24.359,2.978Zm-.719-5.957-.359-2.978,1.986-.24.359,2.978Zm-.719-5.957-.359-2.978,1.986-.24.359,2.978Zm-.719-5.957-.359-2.978,1.986-.24.359,2.978Zm-.719-5.957-.359-2.978,1.986-.24.359,2.978Zm-.719-5.957-.359-2.978,1.986-.24.359,2.978Zm-.719-5.957-.359-2.978,1.986-.24.359,2.978Zm-.719-5.957-.359-2.978,1.986-.24.359,2.978Zm-.719-5.957-.359-2.978L24,190.5l.359,2.978Zm-.719-5.957-.359-2.978,1.986-.24.359,2.978Zm-.719-5.957-.359-2.978,1.986-.24.359,2.978Zm-.719-5.957-.359-2.978,1.986-.24L22.2,175.6Zm-.719-5.957-.359-2.978,1.986-.24.359,2.978Zm-.719-5.957-.359-2.978,1.986-.24.359,2.978Zm-.719-5.957L17.7,155l1.986-.24.359,2.978Zm-.719-5.957-.359-2.978,1.986-.24.359,2.978Zm-.719-5.957-.359-2.978,1.986-.24.359,2.978ZM15.9,140.1l-.359-2.978,1.986-.24.359,2.978Zm-.719-5.957-.359-2.978,1.986-.24.359,2.978Zm-.719-5.957-.359-2.978,1.986-.24.359,2.978Zm-.719-5.957-.359-2.978,1.986-.24.359,2.978Zm-.719-5.957-.359-2.978,1.986-.24.359,2.978Zm-.719-5.957-.359-2.978,1.986-.24.359,2.978Zm-.719-5.957-.359-2.978,1.986-.24.359,2.978Zm-.719-5.957-.359-2.978,1.986-.24.359,2.978ZM10.15,92.45l-.359-2.978,1.986-.24.359,2.978Zm-.719-5.957-.359-2.978,1.986-.24.359,2.978Zm-.719-5.957-.359-2.978,1.986-.24L10.7,80.3Zm-.719-5.957L7.634,71.6l1.986-.24.359,2.978Zm-.719-5.957-.359-2.978L8.9,65.4l.359,2.978Zm-.719-5.957L6.2,59.688l1.986-.24.359,2.978Zm-.719-5.957-.359-2.978,1.986-.24.359,2.978Zm-.719-5.957-.359-2.978,1.986-.24L7.1,50.513ZM4.4,44.8,4.04,41.817l1.986-.24.359,2.978ZM3.68,38.839,3.321,35.86l1.986-.24L5.666,38.6Zm-.719-5.957L2.6,29.9l1.986-.24.359,2.978Zm-.719-5.957-.359-2.978,1.986-.24.359,2.978Zm-.719-5.957L1.164,17.99l1.986-.24.359,2.978ZM.8,15.012.445,12.033l1.986-.24.359,2.978ZM.086,9.055-.274,6.077l1.986-.24.359,2.978ZM-.633,3.1-.993.12.993-.12l.359,2.978Z" transform="translate(540.472 15447.566)" fill="#496e3e" opacity="0.95"/><path d="M1.125,289.023l-1.986-.24.359-2.978,1.986.24Zm.719-5.957-1.986-.24.359-2.978,1.986.24Zm.719-5.957-1.986-.24.359-2.978,1.986.24Zm.719-5.957-1.986-.24.359-2.978,1.986.24ZM4,265.2l-1.986-.24.359-2.978,1.986.24Zm.719-5.957L2.734,259l.359-2.978,1.986.24Zm.719-5.957-1.986-.24.359-2.978,1.986.24Zm.719-5.957-1.986-.24.359-2.978,1.986.24Zm.719-5.957-1.986-.24.359-2.978,1.986.24Zm.719-5.957-1.986-.24.359-2.978,1.986.24Zm.719-5.957-1.986-.24.359-2.978,1.986.24Zm.719-5.957-1.986-.24.359-2.978,1.986.24Zm.719-5.957-1.986-.24.359-2.978,1.986.24Zm.719-5.957-1.986-.24.359-2.978,1.986.24Zm.719-5.957-1.986-.24.359-2.978,1.986.24Zm.719-5.957-1.986-.24.359-2.978,1.986.24Zm.719-5.957-1.986-.24L11,190.5l1.986.24Zm.719-5.957-1.986-.24.359-2.978,1.986.24Zm.719-5.957-1.986-.24.359-2.978,1.986.24Zm.719-5.957L12.8,175.6l.359-2.978,1.986.24Zm.719-5.957-1.986-.24.359-2.978,1.986.24Zm.719-5.957-1.986-.24.359-2.978,1.986.24Zm.719-5.957-1.986-.24.359-2.978L17.3,155Zm.719-5.957-1.986-.24.359-2.978,1.986.24Zm.719-5.957-1.986-.24.359-2.978,1.986.24ZM19.1,140.1l-1.986-.24.359-2.978,1.986.24Zm.719-5.957-1.986-.24.359-2.978,1.986.24Zm.719-5.957-1.986-.24.359-2.978,1.986.24Zm.719-5.957-1.986-.24.359-2.978,1.986.24Zm.719-5.957-1.986-.24.359-2.978,1.986.24Zm.719-5.957-1.986-.24.359-2.978,1.986.24Zm.719-5.957-1.986-.24.359-2.978,1.986.24Zm.719-5.957-1.986-.24.359-2.978,1.986.24Zm.719-5.957-1.986-.24.359-2.978,1.986.24Zm.719-5.957-1.986-.24.359-2.978,1.986.24Zm.719-5.957L24.3,80.3l.359-2.978,1.986.24Zm.719-5.957-1.986-.24.359-2.978,1.986.24Zm.719-5.957-1.986-.24L26.1,65.4l1.986.24Zm.719-5.957-1.986-.24.359-2.978,1.986.24Zm.719-5.957-1.986-.24.359-2.978,1.986.24Zm.719-5.957-1.986-.24.359-2.978,1.986.24ZM30.6,44.8l-1.986-.24.359-2.978,1.986.24Zm.719-5.957-1.986-.24.359-2.978,1.986.24Zm.719-5.957-1.986-.24.359-2.978,1.986.24Zm.719-5.957-1.986-.24.359-2.978,1.986.24Zm.719-5.957-1.986-.24.359-2.978,1.986.24Zm.719-5.957-1.986-.24.359-2.978,1.986.24Zm.719-5.957-1.986-.24.359-2.978,1.986.24ZM35.633,3.1l-1.986-.24L34.007-.12l1.986.24Z" transform="translate(352.143 15447.566)" fill="#496e3e"/><path d="M47.079-1.057-26.571,288.476H538.885L464.731-1,47.079-1.057m-1.555-2L466.283-3l75.179,293.475h-570.6Z" transform="translate(209.143 15449.066)" fill="#496e3e"/></g><rect width="421" height="38" transform="translate(254 15140.01)" fill="#fcc843" opacity="0.8"/><rect width="139" height="42" transform="translate(254 15180.01)" fill="#fcc843" opacity="0.8"/><rect width="139" height="42" transform="translate(254 15275.01)" fill="#fde3a0" opacity="0.8"/><rect width="139" height="42" transform="translate(254 15370.01)" fill="#fef1d0" opacity="0.8"/><rect width="137" height="42" transform="translate(396 15180.01)" fill="#fcc843" opacity="0.8"/><rect width="137" height="42" transform="translate(396 15275.01)" fill="#fde3a0" opacity="0.8"/><rect width="137" height="42" transform="translate(396 15370.01)" fill="#fef1d0" opacity="0.8"/><rect width="139" height="42" transform="translate(536 15180.01)" fill="#fcc843" opacity="0.8"/><rect width="139" height="42" transform="translate(536 15275.01)" fill="#fde3a0" opacity="0.8"/><rect width="139" height="42" transform="translate(536 15370.01)" fill="#fef1d0" opacity="0.8"/><rect width="421" height="38" transform="translate(254 15235.01)" fill="#fcc843" opacity="0.5"/><path d="M4.821,21V6.781h4.2a6.586,6.586,0,0,1,3.345.84A5.726,5.726,0,0,1,14.626,10a7.564,7.564,0,0,1,.8,3.535v.713a7.532,7.532,0,0,1-.806,3.555,5.658,5.658,0,0,1-2.295,2.363A6.892,6.892,0,0,1,8.913,21ZM7.292,8.773V19.027H8.9a3.71,3.71,0,0,0,2.983-1.216,5.3,5.3,0,0,0,1.06-3.491v-.791A5.434,5.434,0,0,0,11.94,9.994a3.566,3.566,0,0,0-2.92-1.221ZM22.312,21.2a4.91,4.91,0,0,1-3.657-1.421,5.154,5.154,0,0,1-1.4-3.784V15.7a6.34,6.34,0,0,1,.61-2.827,4.645,4.645,0,0,1,1.714-1.938,4.531,4.531,0,0,1,2.461-.693,4.147,4.147,0,0,1,3.335,1.377,5.823,5.823,0,0,1,1.177,3.9v.957h-6.9a3.173,3.173,0,0,0,.874,2.07,2.624,2.624,0,0,0,1.929.762A3.213,3.213,0,0,0,25.1,17.982L26.384,19.2a4.272,4.272,0,0,1-1.694,1.47A5.3,5.3,0,0,1,22.312,21.2Zm-.283-9.053a2,2,0,0,0-1.577.684,3.543,3.543,0,0,0-.767,1.9h4.521v-.176a2.884,2.884,0,0,0-.635-1.8A1.983,1.983,0,0,0,22.028,12.143Zm11.895.459a5.872,5.872,0,0,0-.967-.078,2.177,2.177,0,0,0-2.2,1.25V21H28.386V10.434h2.266l.059,1.182a2.674,2.674,0,0,1,2.383-1.377,2.222,2.222,0,0,1,.84.137ZM40.075,21.2a4.91,4.91,0,0,1-3.657-1.421,5.154,5.154,0,0,1-1.4-3.784V15.7a6.34,6.34,0,0,1,.61-2.827,4.646,4.646,0,0,1,1.714-1.938,4.531,4.531,0,0,1,2.461-.693,4.147,4.147,0,0,1,3.335,1.377,5.823,5.823,0,0,1,1.177,3.9v.957h-6.9a3.173,3.173,0,0,0,.874,2.07,2.624,2.624,0,0,0,1.929.762,3.213,3.213,0,0,0,2.656-1.318L44.147,19.2a4.272,4.272,0,0,1-1.694,1.47A5.3,5.3,0,0,1,40.075,21.2Zm-.283-9.053a2,2,0,0,0-1.577.684,3.543,3.543,0,0,0-.767,1.9H41.97v-.176a2.884,2.884,0,0,0-.635-1.8A1.983,1.983,0,0,0,39.792,12.143ZM50.5,19.3a2.146,2.146,0,0,0,1.475-.518,1.768,1.768,0,0,0,.625-1.279h2.236a3.486,3.486,0,0,1-.615,1.841A4.035,4.035,0,0,1,52.653,20.7a4.656,4.656,0,0,1-2.129.5,4.505,4.505,0,0,1-3.516-1.436,5.694,5.694,0,0,1-1.3-3.965v-.244A5.6,5.6,0,0,1,47,11.688a4.464,4.464,0,0,1,3.516-1.45,4.341,4.341,0,0,1,3.071,1.1,3.935,3.935,0,0,1,1.245,2.886H52.595a2.173,2.173,0,0,0-.62-1.494,2,2,0,0,0-1.479-.586,2.088,2.088,0,0,0-1.777.835,4.261,4.261,0,0,0-.635,2.534v.381a4.331,4.331,0,0,0,.62,2.563A2.086,2.086,0,0,0,50.5,19.3Zm8.467-7.715A3.714,3.714,0,0,1,61.9,10.238q3.379,0,3.428,3.857V21H62.956V14.184a2.086,2.086,0,0,0-.474-1.548,1.936,1.936,0,0,0-1.392-.454,2.286,2.286,0,0,0-2.129,1.27V21H56.589V6h2.373ZM74.04,21a3.662,3.662,0,0,1-.273-.986,3.992,3.992,0,0,1-5.371.273,2.906,2.906,0,0,1-1.006-2.246,3,3,0,0,1,1.255-2.593,6.081,6.081,0,0,1,3.589-.9h1.455v-.693a1.851,1.851,0,0,0-.459-1.313,1.819,1.819,0,0,0-1.4-.493,2.09,2.09,0,0,0-1.328.405,1.254,1.254,0,0,0-.518,1.03H67.614a2.634,2.634,0,0,1,.576-1.626,3.839,3.839,0,0,1,1.567-1.187,5.506,5.506,0,0,1,2.212-.43,4.434,4.434,0,0,1,2.959.933,3.326,3.326,0,0,1,1.133,2.622v4.766a5.4,5.4,0,0,0,.4,2.275V21Zm-2.607-1.709a2.7,2.7,0,0,0,1.323-.342,2.284,2.284,0,0,0,.933-.918V16.039H72.409a3.5,3.5,0,0,0-1.982.459,1.487,1.487,0,0,0-.664,1.3,1.387,1.387,0,0,0,.454,1.089A1.758,1.758,0,0,0,71.433,19.291Zm12.129-4.072a14.881,14.881,0,0,1,.605-4.282,11.754,11.754,0,0,1,1.777-3.623,7.057,7.057,0,0,1,2.48-2.241l.469,1.387a7.249,7.249,0,0,0-2.231,3.188,14.28,14.28,0,0,0-.933,4.907l-.01.84a15.525,15.525,0,0,0,.835,5.278,7.779,7.779,0,0,0,2.339,3.53l-.469,1.318a7.069,7.069,0,0,1-2.485-2.251,11.752,11.752,0,0,1-1.777-3.623A15.468,15.468,0,0,1,83.562,15.219Zm6.494.42a6.282,6.282,0,0,1,1.133-3.921,3.63,3.63,0,0,1,3.037-1.479A3.449,3.449,0,0,1,96.94,11.41V6h2.373V21H97.165l-.117-1.094A3.5,3.5,0,0,1,94.206,21.2a3.609,3.609,0,0,1-3-1.494A6.512,6.512,0,0,1,90.056,15.639Zm2.373.205a4.4,4.4,0,0,0,.62,2.515,2.012,2.012,0,0,0,1.763.9,2.241,2.241,0,0,0,2.129-1.3V13.451a2.207,2.207,0,0,0-2.109-1.27,2.027,2.027,0,0,0-1.777.913A4.9,4.9,0,0,0,92.429,15.844Zm13.936-.469a14.693,14.693,0,0,1-.6,4.185,11.856,11.856,0,0,1-1.807,3.672,7.075,7.075,0,0,1-2.529,2.29l-.469-1.318a7.5,7.5,0,0,0,2.319-3.462,15.378,15.378,0,0,0,.854-5.317V15.2a15.6,15.6,0,0,0-.742-4.946,8.725,8.725,0,0,0-2.129-3.579l-.3-.273.469-1.328a7,7,0,0,1,2.422,2.148,11.657,11.657,0,0,1,1.8,3.452,14.38,14.38,0,0,1,.7,3.94Z" transform="translate(270 15283.01)" fill="#12263f"/><rect width="421" height="38" transform="translate(254 15330.01)" fill="#fcebbe"/><path d="M14.75,16.609H10.522L9.784,19h-3.3L11.181,6.2h2.9L18.81,19H15.5ZM11.26,14.228h2.751l-1.38-4.438Zm14.1-2.057-.976-.07a1.752,1.752,0,0,0-1.793.879V19H19.627V9.49H22.4l.1,1.222a2.294,2.294,0,0,1,2.083-1.4,2.888,2.888,0,0,1,.826.105Zm6.82,0L31.2,12.1a1.752,1.752,0,0,0-1.793.879V19H26.448V9.49h2.777l.1,1.222a2.294,2.294,0,0,1,2.083-1.4,2.888,2.888,0,0,1,.826.105ZM36.371,19H33.4V9.49h2.971ZM33.224,7.038A1.322,1.322,0,0,1,33.681,6a1.943,1.943,0,0,1,2.373,0,1.322,1.322,0,0,1,.457,1.037,1.322,1.322,0,0,1-.457,1.037,1.943,1.943,0,0,1-2.373,0A1.322,1.322,0,0,1,33.224,7.038Zm13.8,7.286a5.8,5.8,0,0,1-.967,3.595,3.238,3.238,0,0,1-2.725,1.257,2.81,2.81,0,0,1-2.338-1.151L40.871,19H38.216V5.5h2.962v4.755a2.711,2.711,0,0,1,2.136-.94,3.239,3.239,0,0,1,2.742,1.274,5.826,5.826,0,0,1,.967,3.586Zm-2.971-.189a3.866,3.866,0,0,0-.365-1.952,1.229,1.229,0,0,0-1.121-.584,1.418,1.418,0,0,0-1.389.763v3.773a1.426,1.426,0,0,0,1.406.755,1.258,1.258,0,0,0,1.327-1.018A7.309,7.309,0,0,0,44.052,14.135ZM53.685,19a3.344,3.344,0,0,1-.281-.853,2.754,2.754,0,0,1-2.285,1.028,3.374,3.374,0,0,1-2.285-.813,2.588,2.588,0,0,1-.94-2.043,2.66,2.66,0,0,1,1.143-2.338,5.821,5.821,0,0,1,3.322-.791h.914v-.5q0-1.316-1.134-1.316a.927.927,0,0,0-1.055,1.042H48.122a2.655,2.655,0,0,1,1.173-2.239,4.931,4.931,0,0,1,2.993-.86,4.323,4.323,0,0,1,2.874.888,3.086,3.086,0,0,1,1.081,2.435v4.21a4.311,4.311,0,0,0,.4,2V19Zm-1.854-1.934a1.652,1.652,0,0,0,.918-.237,1.487,1.487,0,0,0,.523-.536V14.772h-.861q-1.547,0-1.547,1.389a.848.848,0,0,0,.272.655A.986.986,0,0,0,51.831,17.066ZM62.588,13.8a13.431,13.431,0,0,1,.571-3.99,9.629,9.629,0,0,1,1.578-3.129,5.6,5.6,0,0,1,2.237-1.793l.563,1.459a5.73,5.73,0,0,0-1.9,2.826,13.782,13.782,0,0,0-.681,4.5v.387a14.051,14.051,0,0,0,.672,4.588A5.706,5.706,0,0,0,67.537,21.5l-.562,1.459a5.547,5.547,0,0,1-2.237-1.8,9.484,9.484,0,0,1-1.578-3.116,13.5,13.5,0,0,1-.571-3.85Zm13.535,2.813H71.9L71.158,19h-3.3L72.555,6.2h2.9L80.184,19H76.871Zm-3.489-2.382h2.751l-1.38-4.438Zm13.017-.185a12.532,12.532,0,0,1-.606,3.92,10.008,10.008,0,0,1-1.674,3.186,5.574,5.574,0,0,1-2.307,1.806L80.5,21.5a5.787,5.787,0,0,0,1.89-2.812,13.577,13.577,0,0,0,.694-4.368v-.536a14.051,14.051,0,0,0-.672-4.588A5.706,5.706,0,0,0,80.5,6.344l.563-1.459a5.676,5.676,0,0,1,2.29,1.789,9.885,9.885,0,0,1,1.67,3.138,12.426,12.426,0,0,1,.628,3.845Z" transform="translate(419 15146.01)" fill="#12263f"/><path d="M3.889,19V6.2H7.668a5.928,5.928,0,0,1,3.01.756A5.154,5.154,0,0,1,12.713,9.1a6.807,6.807,0,0,1,.721,3.182v.642a6.779,6.779,0,0,1-.725,3.2,5.092,5.092,0,0,1-2.065,2.127A6.2,6.2,0,0,1,7.572,19ZM6.113,8v9.229h1.45a3.339,3.339,0,0,0,2.685-1.094,4.766,4.766,0,0,0,.954-3.142v-.712A4.891,4.891,0,0,0,10.3,9.095,3.209,3.209,0,0,0,7.668,8ZM19.63,19.176A4.419,4.419,0,0,1,16.339,17.9a4.639,4.639,0,0,1-1.261-3.406v-.264a5.706,5.706,0,0,1,.549-2.544,4.181,4.181,0,0,1,1.542-1.745,4.078,4.078,0,0,1,2.215-.624,3.733,3.733,0,0,1,3,1.239,5.24,5.24,0,0,1,1.059,3.507v.861H17.231a2.856,2.856,0,0,0,.787,1.863,2.362,2.362,0,0,0,1.736.686,2.892,2.892,0,0,0,2.391-1.187l1.151,1.1a3.845,3.845,0,0,1-1.525,1.323A4.774,4.774,0,0,1,19.63,19.176Zm-.255-8.147a1.8,1.8,0,0,0-1.419.615,3.189,3.189,0,0,0-.69,1.714h4.069V13.2a2.6,2.6,0,0,0-.571-1.622A1.785,1.785,0,0,0,19.375,11.028Zm10.705.413a5.285,5.285,0,0,0-.87-.07A1.959,1.959,0,0,0,27.233,12.5V19H25.1V9.49h2.039l.053,1.063a2.406,2.406,0,0,1,2.145-1.239,2,2,0,0,1,.756.123Zm5.537,7.734A4.419,4.419,0,0,1,32.326,17.9a4.639,4.639,0,0,1-1.261-3.406v-.264a5.706,5.706,0,0,1,.549-2.544,4.181,4.181,0,0,1,1.542-1.745,4.078,4.078,0,0,1,2.215-.624,3.733,3.733,0,0,1,3,1.239,5.24,5.24,0,0,1,1.059,3.507v.861H33.218A2.856,2.856,0,0,0,34,16.785a2.362,2.362,0,0,0,1.736.686,2.892,2.892,0,0,0,2.391-1.187l1.151,1.1a3.845,3.845,0,0,1-1.525,1.323A4.774,4.774,0,0,1,35.618,19.176Zm-.255-8.147a1.8,1.8,0,0,0-1.419.615,3.189,3.189,0,0,0-.69,1.714h4.069V13.2a2.6,2.6,0,0,0-.571-1.622A1.785,1.785,0,0,0,35.363,11.028ZM45,17.471A1.931,1.931,0,0,0,46.323,17a1.591,1.591,0,0,0,.563-1.151H48.9a3.137,3.137,0,0,1-.554,1.657,3.632,3.632,0,0,1-1.406,1.217,4.191,4.191,0,0,1-1.916.448,4.055,4.055,0,0,1-3.164-1.292,5.124,5.124,0,0,1-1.169-3.568V14.1a5.039,5.039,0,0,1,1.16-3.476,4.018,4.018,0,0,1,3.164-1.305,3.907,3.907,0,0,1,2.764.989A3.542,3.542,0,0,1,48.9,12.9H46.885a1.956,1.956,0,0,0-.558-1.345A1.8,1.8,0,0,0,45,11.028a1.879,1.879,0,0,0-1.6.751,3.834,3.834,0,0,0-.571,2.281V14.4a3.9,3.9,0,0,0,.558,2.307A1.878,1.878,0,0,0,45,17.471Zm7.62-6.943a3.343,3.343,0,0,1,2.646-1.213q3.041,0,3.085,3.472V19H56.21V12.865a1.878,1.878,0,0,0-.426-1.393,1.743,1.743,0,0,0-1.252-.409,2.057,2.057,0,0,0-1.916,1.143V19H50.48V5.5h2.136ZM66.186,19a3.3,3.3,0,0,1-.246-.888,3.593,3.593,0,0,1-4.834.246,2.615,2.615,0,0,1-.905-2.021A2.7,2.7,0,0,1,61.33,14a5.473,5.473,0,0,1,3.23-.813h1.31v-.624a1.666,1.666,0,0,0-.413-1.182A1.638,1.638,0,0,0,64.2,10.94a1.881,1.881,0,0,0-1.2.365,1.129,1.129,0,0,0-.466.927H60.4a2.37,2.37,0,0,1,.519-1.463A3.455,3.455,0,0,1,62.332,9.7a4.955,4.955,0,0,1,1.991-.387,3.99,3.99,0,0,1,2.663.839,2.993,2.993,0,0,1,1.02,2.36V16.8a4.861,4.861,0,0,0,.36,2.048V19Zm-2.347-1.538a2.429,2.429,0,0,0,1.191-.308,2.055,2.055,0,0,0,.839-.826V14.535H64.718a3.148,3.148,0,0,0-1.784.413,1.338,1.338,0,0,0-.6,1.169,1.248,1.248,0,0,0,.409.98A1.583,1.583,0,0,0,63.839,17.462ZM74.755,13.8A13.393,13.393,0,0,1,75.3,9.943a10.578,10.578,0,0,1,1.6-3.261,6.351,6.351,0,0,1,2.232-2.017l.422,1.248a6.524,6.524,0,0,0-2.008,2.87,12.852,12.852,0,0,0-.839,4.417l-.009.756a13.972,13.972,0,0,0,.751,4.75,7,7,0,0,0,2.1,3.177l-.422,1.187A6.362,6.362,0,0,1,76.9,21.043a10.577,10.577,0,0,1-1.6-3.261A13.921,13.921,0,0,1,74.755,13.8Zm5.845.378a5.654,5.654,0,0,1,1.02-3.529,3.267,3.267,0,0,1,2.733-1.332A3.1,3.1,0,0,1,86.8,10.369V5.5h2.136V19H87l-.105-.984a3.148,3.148,0,0,1-2.558,1.16,3.248,3.248,0,0,1-2.7-1.345A5.861,5.861,0,0,1,80.6,14.175Zm2.136.185a3.958,3.958,0,0,0,.558,2.263,1.811,1.811,0,0,0,1.586.813A2.017,2.017,0,0,0,86.8,16.267V12.206a1.986,1.986,0,0,0-1.9-1.143,1.824,1.824,0,0,0-1.6.822A4.408,4.408,0,0,0,82.736,14.359Zm12.542-.422a13.224,13.224,0,0,1-.536,3.766,10.671,10.671,0,0,1-1.626,3.3,6.367,6.367,0,0,1-2.276,2.061l-.422-1.187A6.754,6.754,0,0,0,92.5,18.767a13.84,13.84,0,0,0,.769-4.786v-.2a14.044,14.044,0,0,0-.668-4.452A7.852,7.852,0,0,0,90.69,6.106l-.272-.246.422-1.2A6.3,6.3,0,0,1,93.019,6.6a10.491,10.491,0,0,1,1.617,3.107,12.941,12.941,0,0,1,.633,3.546Z" transform="translate(276 15188.01)" fill="#12263f"/><path d="M10.878,19H8.663V6.2h2.215Zm4.808-1.705h5.063V19H13.031V17.6l4.825-6.39H13.119V9.49h7.444v1.354Zm6.372-3.129a5.619,5.619,0,0,1,1.02-3.542,3.313,3.313,0,0,1,2.76-1.31,3.114,3.114,0,0,1,2.522,1.116l.123-.94h1.9V22.656H28.245V18.191a3.188,3.188,0,0,1-2.426.984,3.282,3.282,0,0,1-2.733-1.332A5.884,5.884,0,0,1,22.058,14.166Zm2.136.185a3.968,3.968,0,0,0,.576,2.29,1.835,1.835,0,0,0,1.6.831,2.023,2.023,0,0,0,1.881-1.081V12.065a2.025,2.025,0,0,0-1.863-1.037,1.866,1.866,0,0,0-1.6.817A4.33,4.33,0,0,0,24.193,14.351ZM38.44,18.068a3.312,3.312,0,0,1-2.672,1.107,2.952,2.952,0,0,1-2.342-.905,3.851,3.851,0,0,1-.8-2.619V9.49h2.136v6.135q0,1.811,1.5,1.811a2.111,2.111,0,0,0,2.1-1.116V9.49h2.136V19H38.493ZM44.953,19H42.817V9.49h2.136ZM42.686,7.021A1.133,1.133,0,0,1,43,6.2a1.179,1.179,0,0,1,.892-.325,1.193,1.193,0,0,1,.9.325,1.125,1.125,0,0,1,.316.817,1.1,1.1,0,0,1-.316.8,1.2,1.2,0,0,1-.9.321A1.188,1.188,0,0,1,43,7.825,1.107,1.107,0,0,1,42.686,7.021Zm8.78,12.155A4.419,4.419,0,0,1,48.174,17.9a4.639,4.639,0,0,1-1.261-3.406v-.264a5.706,5.706,0,0,1,.549-2.544A4.181,4.181,0,0,1,49,9.938a4.078,4.078,0,0,1,2.215-.624,3.733,3.733,0,0,1,3,1.239,5.24,5.24,0,0,1,1.059,3.507v.861H49.066a2.856,2.856,0,0,0,.787,1.863,2.362,2.362,0,0,0,1.736.686,2.892,2.892,0,0,0,2.391-1.187l1.151,1.1a3.845,3.845,0,0,1-1.525,1.323A4.774,4.774,0,0,1,51.466,19.176Zm-.255-8.147a1.8,1.8,0,0,0-1.419.615,3.189,3.189,0,0,0-.69,1.714h4.069V13.2a2.6,2.6,0,0,0-.571-1.622A1.785,1.785,0,0,0,51.211,11.028Zm10.705.413a5.285,5.285,0,0,0-.87-.07A1.959,1.959,0,0,0,59.068,12.5V19H56.933V9.49h2.039l.053,1.063a2.406,2.406,0,0,1,2.145-1.239,2,2,0,0,1,.756.123Zm.949,2.733a5.654,5.654,0,0,1,1.02-3.529,3.267,3.267,0,0,1,2.733-1.332,3.1,3.1,0,0,1,2.443,1.055V5.5H71.2V19H69.264l-.105-.984a3.148,3.148,0,0,1-2.558,1.16,3.248,3.248,0,0,1-2.7-1.345A5.861,5.861,0,0,1,62.865,14.175ZM65,14.359a3.958,3.958,0,0,0,.558,2.263,1.811,1.811,0,0,0,1.586.813,2.017,2.017,0,0,0,1.916-1.169V12.206a1.986,1.986,0,0,0-1.9-1.143,1.824,1.824,0,0,0-1.6.822A4.408,4.408,0,0,0,65,14.359ZM79.107,19a3.3,3.3,0,0,1-.246-.888,3.593,3.593,0,0,1-4.834.246,2.615,2.615,0,0,1-.905-2.021A2.7,2.7,0,0,1,74.251,14a5.473,5.473,0,0,1,3.23-.813h1.31v-.624a1.666,1.666,0,0,0-.413-1.182,1.638,1.638,0,0,0-1.257-.444,1.881,1.881,0,0,0-1.2.365,1.129,1.129,0,0,0-.466.927H73.324a2.37,2.37,0,0,1,.519-1.463A3.455,3.455,0,0,1,75.253,9.7a4.955,4.955,0,0,1,1.991-.387,3.99,3.99,0,0,1,2.663.839,2.993,2.993,0,0,1,1.02,2.36V16.8a4.861,4.861,0,0,0,.36,2.048V19Zm-2.347-1.538a2.429,2.429,0,0,0,1.191-.308,2.055,2.055,0,0,0,.839-.826V14.535H77.64a3.148,3.148,0,0,0-1.784.413,1.338,1.338,0,0,0-.6,1.169,1.248,1.248,0,0,0,.409.98A1.583,1.583,0,0,0,76.761,17.462ZM87.677,13.8a13.393,13.393,0,0,1,.545-3.854,10.578,10.578,0,0,1,1.6-3.261,6.351,6.351,0,0,1,2.232-2.017l.422,1.248a6.524,6.524,0,0,0-2.008,2.87,12.852,12.852,0,0,0-.839,4.417l-.009.756a13.972,13.972,0,0,0,.751,4.75,7,7,0,0,0,2.1,3.177l-.422,1.187a6.362,6.362,0,0,1-2.237-2.026,10.577,10.577,0,0,1-1.6-3.261A13.921,13.921,0,0,1,87.677,13.8ZM96.193,19H94.058V9.49h2.136ZM93.926,7.021a1.133,1.133,0,0,1,.312-.817,1.179,1.179,0,0,1,.892-.325,1.193,1.193,0,0,1,.9.325,1.125,1.125,0,0,1,.316.817,1.1,1.1,0,0,1-.316.8,1.2,1.2,0,0,1-.9.321,1.188,1.188,0,0,1-.892-.321A1.107,1.107,0,0,1,93.926,7.021Zm8.71,6.917A13.224,13.224,0,0,1,102.1,17.7a10.671,10.671,0,0,1-1.626,3.3A6.367,6.367,0,0,1,98.2,23.069l-.422-1.187a6.754,6.754,0,0,0,2.087-3.116,13.84,13.84,0,0,0,.769-4.786v-.2a14.044,14.044,0,0,0-.668-4.452,7.852,7.852,0,0,0-1.916-3.221l-.272-.246.422-1.2a6.3,6.3,0,0,1,2.18,1.934,10.491,10.491,0,0,1,1.617,3.107,12.941,12.941,0,0,1,.633,3.546Z" transform="translate(550 15188.01)" fill="#12263f"/><path d="M16.165,14.667a4.673,4.673,0,0,1-.721,2.36,4.35,4.35,0,0,1-1.85,1.586,6.3,6.3,0,0,1-2.72.563A5.025,5.025,0,0,1,6.9,17.532a6.786,6.786,0,0,1-1.45-4.641v-.633a7.746,7.746,0,0,1,.655-3.292,4.961,4.961,0,0,1,1.885-2.18,5.26,5.26,0,0,1,2.848-.769,5.516,5.516,0,0,1,3.744,1.226,4.844,4.844,0,0,1,1.608,3.379H13.115a2.292,2.292,0,0,0-.589-1.679,2.422,2.422,0,0,0-1.687-.51A1.843,1.843,0,0,0,9.151,9.3a5.536,5.536,0,0,0-.562,2.751v.905A6.126,6.126,0,0,0,9.1,15.88a1.882,1.882,0,0,0,1.771.879,2.369,2.369,0,0,0,1.626-.5,2.126,2.126,0,0,0,.6-1.591Zm5.924,4.509a4.889,4.889,0,0,1-3.542-1.305,4.507,4.507,0,0,1-1.354-3.4v-.246a5.84,5.84,0,0,1,.541-2.575,3.955,3.955,0,0,1,1.578-1.727,4.763,4.763,0,0,1,2.461-.611,4.117,4.117,0,0,1,3.164,1.244,4.887,4.887,0,0,1,1.16,3.467v1.151H20.208a2.135,2.135,0,0,0,.694,1.257,2.066,2.066,0,0,0,1.389.457,2.662,2.662,0,0,0,2.2-.984l1.354,1.6a3.784,3.784,0,0,1-1.569,1.217A5.3,5.3,0,0,1,22.088,19.176ZM21.754,11.6q-1.3,0-1.547,1.723H23.2v-.229a1.467,1.467,0,0,0-.36-1.1A1.434,1.434,0,0,0,21.754,11.6ZM30.007,9.49l.1,1.116A3.225,3.225,0,0,1,32.82,9.314a2.713,2.713,0,0,1,2.219.888,4.226,4.226,0,0,1,.76,2.672V19H32.829V13a1.6,1.6,0,0,0-.29-1.059,1.342,1.342,0,0,0-1.055-.338,1.413,1.413,0,0,0-1.292.686V19H27.23V9.49ZM40.888,7.126V9.49h1.564v2.057H40.888V15.9a1.111,1.111,0,0,0,.193.747,1.037,1.037,0,0,0,.765.211,4.345,4.345,0,0,0,.738-.053v2.118a5.466,5.466,0,0,1-1.67.255,3.1,3.1,0,0,1-2.259-.721,2.954,2.954,0,0,1-.729-2.188v-4.72H36.713V9.49h1.213V7.126Zm8.481,5.045-.976-.07a1.752,1.752,0,0,0-1.793.879V19H43.639V9.49h2.777l.1,1.222a2.294,2.294,0,0,1,2.083-1.4,2.888,2.888,0,0,1,.826.105Zm.378,1.986a5.613,5.613,0,0,1,.554-2.536,3.96,3.96,0,0,1,1.591-1.709,4.791,4.791,0,0,1,2.435-.6,4.373,4.373,0,0,1,3.366,1.323,5.076,5.076,0,0,1,1.23,3.6v.105a4.925,4.925,0,0,1-1.235,3.529,4.384,4.384,0,0,1-3.344,1.305,4.434,4.434,0,0,1-3.261-1.217,4.761,4.761,0,0,1-1.327-3.3Zm2.962.185a3.538,3.538,0,0,0,.413,1.934,1.376,1.376,0,0,0,1.222.615q1.582,0,1.617-2.435v-.3q0-2.558-1.635-2.558-1.485,0-1.608,2.206ZM64.935,13.8a13.431,13.431,0,0,1,.571-3.99,9.629,9.629,0,0,1,1.578-3.129,5.6,5.6,0,0,1,2.237-1.793l.563,1.459a5.73,5.73,0,0,0-1.9,2.826,13.782,13.782,0,0,0-.681,4.5v.387a14.051,14.051,0,0,0,.672,4.588A5.706,5.706,0,0,0,69.883,21.5l-.562,1.459a5.547,5.547,0,0,1-2.237-1.8,9.484,9.484,0,0,1-1.578-3.116,13.5,13.5,0,0,1-.571-3.85Zm16.62.87a4.673,4.673,0,0,1-.721,2.36,4.35,4.35,0,0,1-1.85,1.586,6.3,6.3,0,0,1-2.72.563,5.025,5.025,0,0,1-3.973-1.644,6.786,6.786,0,0,1-1.45-4.641v-.633A7.746,7.746,0,0,1,71.5,8.967a4.961,4.961,0,0,1,1.885-2.18,5.26,5.26,0,0,1,2.848-.769,5.516,5.516,0,0,1,3.744,1.226,4.844,4.844,0,0,1,1.608,3.379H78.505a2.292,2.292,0,0,0-.589-1.679,2.422,2.422,0,0,0-1.687-.51,1.843,1.843,0,0,0-1.687.861,5.536,5.536,0,0,0-.562,2.751v.905a6.126,6.126,0,0,0,.514,2.927,1.882,1.882,0,0,0,1.771.879,2.369,2.369,0,0,0,1.626-.5,2.126,2.126,0,0,0,.6-1.591Zm5.766-.624a12.532,12.532,0,0,1-.606,3.92,10.008,10.008,0,0,1-1.674,3.186,5.574,5.574,0,0,1-2.307,1.806L82.17,21.5a5.787,5.787,0,0,0,1.89-2.812,13.577,13.577,0,0,0,.694-4.368v-.536a14.051,14.051,0,0,0-.672-4.588A5.706,5.706,0,0,0,82.17,6.344l.563-1.459a5.676,5.676,0,0,1,2.29,1.789,9.885,9.885,0,0,1,1.67,3.138,12.426,12.426,0,0,1,.628,3.845Z" transform="translate(419 15241.01)" fill="#12263f"/><path d="M10.878,19H8.663V6.2h2.215Zm4.808-1.705h5.063V19H13.031V17.6l4.825-6.39H13.119V9.49h7.444v1.354Zm6.372-3.129a5.619,5.619,0,0,1,1.02-3.542,3.313,3.313,0,0,1,2.76-1.31,3.114,3.114,0,0,1,2.522,1.116l.123-.94h1.9V22.656H28.245V18.191a3.188,3.188,0,0,1-2.426.984,3.282,3.282,0,0,1-2.733-1.332A5.884,5.884,0,0,1,22.058,14.166Zm2.136.185a3.968,3.968,0,0,0,.576,2.29,1.835,1.835,0,0,0,1.6.831,2.023,2.023,0,0,0,1.881-1.081V12.065a2.025,2.025,0,0,0-1.863-1.037,1.866,1.866,0,0,0-1.6.817A4.33,4.33,0,0,0,24.193,14.351ZM38.44,18.068a3.312,3.312,0,0,1-2.672,1.107,2.952,2.952,0,0,1-2.342-.905,3.851,3.851,0,0,1-.8-2.619V9.49h2.136v6.135q0,1.811,1.5,1.811a2.111,2.111,0,0,0,2.1-1.116V9.49h2.136V19H38.493ZM44.953,19H42.817V9.49h2.136ZM42.686,7.021A1.133,1.133,0,0,1,43,6.2a1.179,1.179,0,0,1,.892-.325,1.193,1.193,0,0,1,.9.325,1.125,1.125,0,0,1,.316.817,1.1,1.1,0,0,1-.316.8,1.2,1.2,0,0,1-.9.321A1.188,1.188,0,0,1,43,7.825,1.107,1.107,0,0,1,42.686,7.021Zm8.78,12.155A4.419,4.419,0,0,1,48.174,17.9a4.639,4.639,0,0,1-1.261-3.406v-.264a5.706,5.706,0,0,1,.549-2.544A4.181,4.181,0,0,1,49,9.938a4.078,4.078,0,0,1,2.215-.624,3.733,3.733,0,0,1,3,1.239,5.24,5.24,0,0,1,1.059,3.507v.861H49.066a2.856,2.856,0,0,0,.787,1.863,2.362,2.362,0,0,0,1.736.686,2.892,2.892,0,0,0,2.391-1.187l1.151,1.1a3.845,3.845,0,0,1-1.525,1.323A4.774,4.774,0,0,1,51.466,19.176Zm-.255-8.147a1.8,1.8,0,0,0-1.419.615,3.189,3.189,0,0,0-.69,1.714h4.069V13.2a2.6,2.6,0,0,0-.571-1.622A1.785,1.785,0,0,0,51.211,11.028Zm10.705.413a5.285,5.285,0,0,0-.87-.07A1.959,1.959,0,0,0,59.068,12.5V19H56.933V9.49h2.039l.053,1.063a2.406,2.406,0,0,1,2.145-1.239,2,2,0,0,1,.756.123Zm.949,2.733a5.654,5.654,0,0,1,1.02-3.529,3.267,3.267,0,0,1,2.733-1.332,3.1,3.1,0,0,1,2.443,1.055V5.5H71.2V19H69.264l-.105-.984a3.148,3.148,0,0,1-2.558,1.16,3.248,3.248,0,0,1-2.7-1.345A5.861,5.861,0,0,1,62.865,14.175ZM65,14.359a3.958,3.958,0,0,0,.558,2.263,1.811,1.811,0,0,0,1.586.813,2.017,2.017,0,0,0,1.916-1.169V12.206a1.986,1.986,0,0,0-1.9-1.143,1.824,1.824,0,0,0-1.6.822A4.408,4.408,0,0,0,65,14.359ZM79.107,19a3.3,3.3,0,0,1-.246-.888,3.593,3.593,0,0,1-4.834.246,2.615,2.615,0,0,1-.905-2.021A2.7,2.7,0,0,1,74.251,14a5.473,5.473,0,0,1,3.23-.813h1.31v-.624a1.666,1.666,0,0,0-.413-1.182,1.638,1.638,0,0,0-1.257-.444,1.881,1.881,0,0,0-1.2.365,1.129,1.129,0,0,0-.466.927H73.324a2.37,2.37,0,0,1,.519-1.463A3.455,3.455,0,0,1,75.253,9.7a4.955,4.955,0,0,1,1.991-.387,3.99,3.99,0,0,1,2.663.839,2.993,2.993,0,0,1,1.02,2.36V16.8a4.861,4.861,0,0,0,.36,2.048V19Zm-2.347-1.538a2.429,2.429,0,0,0,1.191-.308,2.055,2.055,0,0,0,.839-.826V14.535H77.64a3.148,3.148,0,0,0-1.784.413,1.338,1.338,0,0,0-.6,1.169,1.248,1.248,0,0,0,.409.98A1.583,1.583,0,0,0,76.761,17.462ZM87.677,13.8a13.393,13.393,0,0,1,.545-3.854,10.578,10.578,0,0,1,1.6-3.261,6.351,6.351,0,0,1,2.232-2.017l.422,1.248a6.524,6.524,0,0,0-2.008,2.87,12.852,12.852,0,0,0-.839,4.417l-.009.756a13.972,13.972,0,0,0,.751,4.75,7,7,0,0,0,2.1,3.177l-.422,1.187a6.362,6.362,0,0,1-2.237-2.026,10.577,10.577,0,0,1-1.6-3.261A13.921,13.921,0,0,1,87.677,13.8ZM96.193,19H94.058V9.49h2.136ZM93.926,7.021a1.133,1.133,0,0,1,.312-.817,1.179,1.179,0,0,1,.892-.325,1.193,1.193,0,0,1,.9.325,1.125,1.125,0,0,1,.316.817,1.1,1.1,0,0,1-.316.8,1.2,1.2,0,0,1-.9.321,1.188,1.188,0,0,1-.892-.321A1.107,1.107,0,0,1,93.926,7.021Zm8.71,6.917A13.224,13.224,0,0,1,102.1,17.7a10.671,10.671,0,0,1-1.626,3.3A6.367,6.367,0,0,1,98.2,23.069l-.422-1.187a6.754,6.754,0,0,0,2.087-3.116,13.84,13.84,0,0,0,.769-4.786v-.2a14.044,14.044,0,0,0-.668-4.452,7.852,7.852,0,0,0-1.916-3.221l-.272-.246.422-1.2a6.3,6.3,0,0,1,2.18,1.934,10.491,10.491,0,0,1,1.617,3.107,12.941,12.941,0,0,1,.633,3.546Z" transform="translate(550 15283.01)" fill="#12263f"/><path d="M15.493,16.609H11.266L10.527,19h-3.3L11.925,6.2h2.9L19.554,19H16.24ZM12,14.228h2.751l-1.38-4.438Zm17.174.1a5.8,5.8,0,0,1-.967,3.595,3.238,3.238,0,0,1-2.725,1.257,2.81,2.81,0,0,1-2.338-1.151L23.025,19H20.371V5.5h2.962v4.755a2.711,2.711,0,0,1,2.136-.94,3.239,3.239,0,0,1,2.742,1.274,5.826,5.826,0,0,1,.967,3.586Zm-2.971-.189a3.866,3.866,0,0,0-.365-1.952,1.229,1.229,0,0,0-1.121-.584,1.418,1.418,0,0,0-1.389.763v3.773a1.426,1.426,0,0,0,1.406.755,1.258,1.258,0,0,0,1.327-1.018A7.309,7.309,0,0,0,26.207,14.135ZM35.84,19a3.344,3.344,0,0,1-.281-.853,2.754,2.754,0,0,1-2.285,1.028,3.374,3.374,0,0,1-2.285-.813,2.588,2.588,0,0,1-.94-2.043,2.66,2.66,0,0,1,1.143-2.338,5.821,5.821,0,0,1,3.322-.791h.914v-.5q0-1.316-1.134-1.316a.927.927,0,0,0-1.055,1.042H30.276a2.655,2.655,0,0,1,1.173-2.239,4.931,4.931,0,0,1,2.993-.86,4.323,4.323,0,0,1,2.874.888A3.086,3.086,0,0,1,38.4,12.637v4.21a4.311,4.311,0,0,0,.4,2V19Zm-1.854-1.934a1.652,1.652,0,0,0,.918-.237,1.487,1.487,0,0,0,.523-.536V14.772h-.861q-1.547,0-1.547,1.389a.848.848,0,0,0,.272.655A.986.986,0,0,0,33.985,17.066ZM43.223,9.49v9.835a3.452,3.452,0,0,1-.967,2.6,3.714,3.714,0,0,1-2.672.914,6.308,6.308,0,0,1-1.4-.149V20.45a5.667,5.667,0,0,0,.835.079,1.084,1.084,0,0,0,1.23-1.222V9.49Zm-3.19-2.452A1.322,1.322,0,0,1,40.489,6a1.943,1.943,0,0,1,2.373,0,1.322,1.322,0,0,1,.457,1.037,1.322,1.322,0,0,1-.457,1.037,1.943,1.943,0,0,1-2.373,0A1.322,1.322,0,0,1,40.032,7.038Zm4.491,7.119a5.613,5.613,0,0,1,.554-2.536,3.96,3.96,0,0,1,1.591-1.709,4.791,4.791,0,0,1,2.435-.6,4.373,4.373,0,0,1,3.366,1.323,5.076,5.076,0,0,1,1.23,3.6v.105a4.925,4.925,0,0,1-1.235,3.529,4.384,4.384,0,0,1-3.344,1.305,4.434,4.434,0,0,1-3.261-1.217,4.761,4.761,0,0,1-1.327-3.3Zm2.962.185a3.538,3.538,0,0,0,.413,1.934,1.376,1.376,0,0,0,1.222.615q1.582,0,1.617-2.435v-.3q0-2.558-1.635-2.558-1.485,0-1.608,2.206ZM59.711,13.8a13.431,13.431,0,0,1,.571-3.99A9.629,9.629,0,0,1,61.86,6.678,5.6,5.6,0,0,1,64.1,4.885l.563,1.459a5.73,5.73,0,0,0-1.9,2.826,13.782,13.782,0,0,0-.681,4.5v.387a14.051,14.051,0,0,0,.672,4.588A5.706,5.706,0,0,0,64.659,21.5L64.1,22.955a5.547,5.547,0,0,1-2.237-1.8,9.484,9.484,0,0,1-1.578-3.116,13.5,13.5,0,0,1-.571-3.85Zm13.535,2.813H69.019L68.28,19h-3.3L69.678,6.2h2.9L77.307,19H73.993Zm-3.489-2.382h2.751l-1.38-4.438Zm17.174.1a5.8,5.8,0,0,1-.967,3.595,3.238,3.238,0,0,1-2.725,1.257A2.81,2.81,0,0,1,80.9,18.024L80.778,19H78.124V5.5h2.962v4.755a2.711,2.711,0,0,1,2.136-.94,3.239,3.239,0,0,1,2.742,1.274,5.826,5.826,0,0,1,.967,3.586Zm-2.971-.189a3.866,3.866,0,0,0-.365-1.952,1.229,1.229,0,0,0-1.121-.584,1.418,1.418,0,0,0-1.389.763v3.773a1.426,1.426,0,0,0,1.406.755,1.258,1.258,0,0,0,1.327-1.018A7.309,7.309,0,0,0,83.96,14.135Zm8.947-.092a12.532,12.532,0,0,1-.606,3.92,10.008,10.008,0,0,1-1.674,3.186,5.574,5.574,0,0,1-2.307,1.806L87.757,21.5a5.787,5.787,0,0,0,1.89-2.812,13.577,13.577,0,0,0,.694-4.368v-.536a14.051,14.051,0,0,0-.672-4.588,5.706,5.706,0,0,0-1.912-2.848l.563-1.459a5.676,5.676,0,0,1,2.29,1.789,9.885,9.885,0,0,1,1.67,3.138,12.426,12.426,0,0,1,.628,3.845Z" transform="translate(415 15336.01)" fill="#12263f"/><path d="M9.889,19V6.2h3.779a5.928,5.928,0,0,1,3.01.756A5.154,5.154,0,0,1,18.713,9.1a6.807,6.807,0,0,1,.721,3.182v.642a6.779,6.779,0,0,1-.725,3.2,5.092,5.092,0,0,1-2.065,2.127A6.2,6.2,0,0,1,13.572,19ZM12.113,8v9.229h1.45a3.339,3.339,0,0,0,2.685-1.094,4.766,4.766,0,0,0,.954-3.142v-.712A4.891,4.891,0,0,0,16.3,9.095,3.209,3.209,0,0,0,13.668,8ZM25.63,19.176A4.419,4.419,0,0,1,22.339,17.9a4.639,4.639,0,0,1-1.261-3.406v-.264a5.706,5.706,0,0,1,.549-2.544,4.181,4.181,0,0,1,1.542-1.745,4.078,4.078,0,0,1,2.215-.624,3.733,3.733,0,0,1,3,1.239,5.24,5.24,0,0,1,1.059,3.507v.861H23.231a2.856,2.856,0,0,0,.787,1.863,2.362,2.362,0,0,0,1.736.686,2.892,2.892,0,0,0,2.391-1.187l1.151,1.1a3.845,3.845,0,0,1-1.525,1.323A4.774,4.774,0,0,1,25.63,19.176Zm-.255-8.147a1.8,1.8,0,0,0-1.419.615,3.189,3.189,0,0,0-.69,1.714h4.069V13.2a2.6,2.6,0,0,0-.571-1.622A1.785,1.785,0,0,0,25.375,11.028Zm10.705.413a5.285,5.285,0,0,0-.87-.07A1.959,1.959,0,0,0,33.233,12.5V19H31.1V9.49h2.039l.053,1.063a2.406,2.406,0,0,1,2.145-1.239,2,2,0,0,1,.756.123Zm5.537,7.734A4.419,4.419,0,0,1,38.326,17.9a4.639,4.639,0,0,1-1.261-3.406v-.264a5.706,5.706,0,0,1,.549-2.544,4.181,4.181,0,0,1,1.542-1.745,4.078,4.078,0,0,1,2.215-.624,3.733,3.733,0,0,1,3,1.239,5.24,5.24,0,0,1,1.059,3.507v.861H39.218A2.856,2.856,0,0,0,40,16.785a2.362,2.362,0,0,0,1.736.686,2.892,2.892,0,0,0,2.391-1.187l1.151,1.1a3.845,3.845,0,0,1-1.525,1.323A4.774,4.774,0,0,1,41.618,19.176Zm-.255-8.147a1.8,1.8,0,0,0-1.419.615,3.189,3.189,0,0,0-.69,1.714h4.069V13.2a2.6,2.6,0,0,0-.571-1.622A1.785,1.785,0,0,0,41.363,11.028ZM51,17.471A1.931,1.931,0,0,0,52.323,17a1.591,1.591,0,0,0,.563-1.151H54.9a3.137,3.137,0,0,1-.554,1.657,3.632,3.632,0,0,1-1.406,1.217,4.191,4.191,0,0,1-1.916.448,4.055,4.055,0,0,1-3.164-1.292,5.124,5.124,0,0,1-1.169-3.568V14.1a5.039,5.039,0,0,1,1.16-3.476,4.018,4.018,0,0,1,3.164-1.305,3.907,3.907,0,0,1,2.764.989A3.542,3.542,0,0,1,54.9,12.9H52.885a1.956,1.956,0,0,0-.558-1.345A1.8,1.8,0,0,0,51,11.028a1.879,1.879,0,0,0-1.6.751,3.834,3.834,0,0,0-.571,2.281V14.4a3.9,3.9,0,0,0,.558,2.307A1.878,1.878,0,0,0,51,17.471Zm7.62-6.943a3.343,3.343,0,0,1,2.646-1.213q3.041,0,3.085,3.472V19H62.21V12.865a1.878,1.878,0,0,0-.426-1.393,1.743,1.743,0,0,0-1.252-.409,2.057,2.057,0,0,0-1.916,1.143V19H56.48V5.5h2.136ZM72.186,19a3.3,3.3,0,0,1-.246-.888,3.593,3.593,0,0,1-4.834.246,2.615,2.615,0,0,1-.905-2.021A2.7,2.7,0,0,1,67.33,14a5.473,5.473,0,0,1,3.23-.813h1.31v-.624a1.666,1.666,0,0,0-.413-1.182A1.638,1.638,0,0,0,70.2,10.94a1.881,1.881,0,0,0-1.2.365,1.129,1.129,0,0,0-.466.927H66.4a2.37,2.37,0,0,1,.519-1.463A3.455,3.455,0,0,1,68.332,9.7a4.955,4.955,0,0,1,1.991-.387,3.99,3.99,0,0,1,2.663.839,2.993,2.993,0,0,1,1.02,2.36V16.8a4.861,4.861,0,0,0,.36,2.048V19Zm-2.347-1.538a2.429,2.429,0,0,0,1.191-.308,2.055,2.055,0,0,0,.839-.826V14.535H70.718a3.148,3.148,0,0,0-1.784.413,1.338,1.338,0,0,0-.6,1.169,1.248,1.248,0,0,0,.409.98A1.583,1.583,0,0,0,69.839,17.462ZM80.755,13.8A13.393,13.393,0,0,1,81.3,9.943a10.578,10.578,0,0,1,1.6-3.261,6.351,6.351,0,0,1,2.232-2.017l.422,1.248a6.524,6.524,0,0,0-2.008,2.87,12.852,12.852,0,0,0-.839,4.417l-.009.756a13.972,13.972,0,0,0,.751,4.75,7,7,0,0,0,2.1,3.177l-.422,1.187A6.362,6.362,0,0,1,82.9,21.043a10.577,10.577,0,0,1-1.6-3.261A13.921,13.921,0,0,1,80.755,13.8Zm5.845.378a5.654,5.654,0,0,1,1.02-3.529,3.267,3.267,0,0,1,2.733-1.332A3.1,3.1,0,0,1,92.8,10.369V5.5h2.136V19H93l-.105-.984a3.148,3.148,0,0,1-2.558,1.16,3.248,3.248,0,0,1-2.7-1.345A5.861,5.861,0,0,1,86.6,14.175Zm2.136.185a3.958,3.958,0,0,0,.558,2.263,1.811,1.811,0,0,0,1.586.813A2.017,2.017,0,0,0,92.8,16.267V12.206a1.986,1.986,0,0,0-1.9-1.143,1.824,1.824,0,0,0-1.6.822A4.408,4.408,0,0,0,88.736,14.359Zm12.542-.422a13.224,13.224,0,0,1-.536,3.766,10.671,10.671,0,0,1-1.626,3.3,6.367,6.367,0,0,1-2.276,2.061l-.422-1.187A6.754,6.754,0,0,0,98.5,18.767a13.84,13.84,0,0,0,.769-4.786v-.2a14.044,14.044,0,0,0-.668-4.452A7.852,7.852,0,0,0,96.69,6.106l-.272-.246.422-1.2A6.3,6.3,0,0,1,99.019,6.6a10.491,10.491,0,0,1,1.617,3.107,12.941,12.941,0,0,1,.633,3.546Z" transform="translate(270 15378.01)" fill="#12263f"/><path d="M4.878,19H2.663V6.2H4.878Zm4.808-1.705h5.063V19H7.031V17.6l4.825-6.39H7.119V9.49h7.444v1.354Zm6.372-3.129a5.619,5.619,0,0,1,1.02-3.542,3.313,3.313,0,0,1,2.76-1.31,3.114,3.114,0,0,1,2.522,1.116l.123-.94h1.9V22.656H22.245V18.191a3.188,3.188,0,0,1-2.426.984,3.282,3.282,0,0,1-2.733-1.332A5.884,5.884,0,0,1,16.058,14.166Zm2.136.185a3.968,3.968,0,0,0,.576,2.29,1.835,1.835,0,0,0,1.6.831,2.023,2.023,0,0,0,1.881-1.081V12.065a2.025,2.025,0,0,0-1.863-1.037,1.866,1.866,0,0,0-1.6.817A4.33,4.33,0,0,0,18.193,14.351ZM32.44,18.068a3.312,3.312,0,0,1-2.672,1.107,2.952,2.952,0,0,1-2.342-.905,3.851,3.851,0,0,1-.8-2.619V9.49h2.136v6.135q0,1.811,1.5,1.811a2.111,2.111,0,0,0,2.1-1.116V9.49h2.136V19H32.493ZM38.953,19H36.817V9.49h2.136ZM36.686,7.021A1.133,1.133,0,0,1,37,6.2a1.179,1.179,0,0,1,.892-.325,1.193,1.193,0,0,1,.9.325,1.125,1.125,0,0,1,.316.817,1.1,1.1,0,0,1-.316.8,1.2,1.2,0,0,1-.9.321A1.188,1.188,0,0,1,37,7.825,1.107,1.107,0,0,1,36.686,7.021Zm8.78,12.155A4.419,4.419,0,0,1,42.174,17.9a4.639,4.639,0,0,1-1.261-3.406v-.264a5.706,5.706,0,0,1,.549-2.544A4.181,4.181,0,0,1,43,9.938a4.078,4.078,0,0,1,2.215-.624,3.733,3.733,0,0,1,3,1.239,5.24,5.24,0,0,1,1.059,3.507v.861H43.066a2.856,2.856,0,0,0,.787,1.863,2.362,2.362,0,0,0,1.736.686,2.892,2.892,0,0,0,2.391-1.187l1.151,1.1a3.845,3.845,0,0,1-1.525,1.323A4.774,4.774,0,0,1,45.466,19.176Zm-.255-8.147a1.8,1.8,0,0,0-1.419.615,3.189,3.189,0,0,0-.69,1.714h4.069V13.2a2.6,2.6,0,0,0-.571-1.622A1.785,1.785,0,0,0,45.211,11.028Zm10.705.413a5.285,5.285,0,0,0-.87-.07A1.959,1.959,0,0,0,53.068,12.5V19H50.933V9.49h2.039l.053,1.063a2.406,2.406,0,0,1,2.145-1.239,2,2,0,0,1,.756.123Zm.949,2.733a5.654,5.654,0,0,1,1.02-3.529,3.267,3.267,0,0,1,2.733-1.332,3.1,3.1,0,0,1,2.443,1.055V5.5H65.2V19H63.264l-.105-.984a3.148,3.148,0,0,1-2.558,1.16,3.248,3.248,0,0,1-2.7-1.345A5.861,5.861,0,0,1,56.865,14.175ZM59,14.359a3.958,3.958,0,0,0,.558,2.263,1.811,1.811,0,0,0,1.586.813,2.017,2.017,0,0,0,1.916-1.169V12.206a1.986,1.986,0,0,0-1.9-1.143,1.824,1.824,0,0,0-1.6.822A4.408,4.408,0,0,0,59,14.359ZM73.107,19a3.3,3.3,0,0,1-.246-.888,3.593,3.593,0,0,1-4.834.246,2.615,2.615,0,0,1-.905-2.021A2.7,2.7,0,0,1,68.251,14a5.473,5.473,0,0,1,3.23-.813h1.31v-.624a1.666,1.666,0,0,0-.413-1.182,1.638,1.638,0,0,0-1.257-.444,1.881,1.881,0,0,0-1.2.365,1.129,1.129,0,0,0-.466.927H67.324a2.37,2.37,0,0,1,.519-1.463A3.455,3.455,0,0,1,69.253,9.7a4.955,4.955,0,0,1,1.991-.387,3.99,3.99,0,0,1,2.663.839,2.993,2.993,0,0,1,1.02,2.36V16.8a4.861,4.861,0,0,0,.36,2.048V19Zm-2.347-1.538a2.429,2.429,0,0,0,1.191-.308,2.055,2.055,0,0,0,.839-.826V14.535H71.64a3.148,3.148,0,0,0-1.784.413,1.338,1.338,0,0,0-.6,1.169,1.248,1.248,0,0,0,.409.98A1.583,1.583,0,0,0,70.761,17.462ZM81.677,13.8a13.393,13.393,0,0,1,.545-3.854,10.578,10.578,0,0,1,1.6-3.261,6.351,6.351,0,0,1,2.232-2.017l.422,1.248a6.524,6.524,0,0,0-2.008,2.87,12.852,12.852,0,0,0-.839,4.417l-.009.756a13.972,13.972,0,0,0,.751,4.75,7,7,0,0,0,2.1,3.177l-.422,1.187a6.362,6.362,0,0,1-2.237-2.026,10.577,10.577,0,0,1-1.6-3.261A13.921,13.921,0,0,1,81.677,13.8ZM90.193,19H88.058V9.49h2.136ZM87.926,7.021a1.133,1.133,0,0,1,.312-.817,1.179,1.179,0,0,1,.892-.325,1.193,1.193,0,0,1,.9.325,1.125,1.125,0,0,1,.316.817,1.1,1.1,0,0,1-.316.8,1.2,1.2,0,0,1-.9.321,1.188,1.188,0,0,1-.892-.321A1.107,1.107,0,0,1,87.926,7.021Zm8.71,6.917A13.224,13.224,0,0,1,96.1,17.7a10.671,10.671,0,0,1-1.626,3.3A6.367,6.367,0,0,1,92.2,23.069l-.422-1.187a6.754,6.754,0,0,0,2.087-3.116,13.84,13.84,0,0,0,.769-4.786v-.2a14.044,14.044,0,0,0-.668-4.452,7.852,7.852,0,0,0-1.916-3.221l-.272-.246.422-1.2A6.3,6.3,0,0,1,94.377,6.6a10.491,10.491,0,0,1,1.617,3.107,12.941,12.941,0,0,1,.633,3.546Z" transform="translate(556 15378.01)" fill="#12263f"/><path d="M16.97,14.834a4.621,4.621,0,0,1-1.512,3.195,5.154,5.154,0,0,1-3.507,1.147,4.99,4.99,0,0,1-2.694-.725,4.759,4.759,0,0,1-1.8-2.061,7.438,7.438,0,0,1-.659-3.1v-1.2A7.491,7.491,0,0,1,7.442,8.9,4.835,4.835,0,0,1,9.284,6.774a5.136,5.136,0,0,1,2.773-.747,4.946,4.946,0,0,1,3.41,1.147,4.793,4.793,0,0,1,1.5,3.248H14.755a3.161,3.161,0,0,0-.8-1.991,2.658,2.658,0,0,0-1.894-.611A2.6,2.6,0,0,0,9.829,8.88a5.3,5.3,0,0,0-.8,3.11v1.135a5.62,5.62,0,0,0,.743,3.167,2.464,2.464,0,0,0,2.175,1.091,2.875,2.875,0,0,0,1.969-.589,3.071,3.071,0,0,0,.835-1.96Zm5.968,4.342A4.419,4.419,0,0,1,19.646,17.9a4.639,4.639,0,0,1-1.261-3.406v-.264a5.706,5.706,0,0,1,.549-2.544,4.181,4.181,0,0,1,1.542-1.745,4.078,4.078,0,0,1,2.215-.624,3.733,3.733,0,0,1,3,1.239,5.24,5.24,0,0,1,1.059,3.507v.861H20.538a2.856,2.856,0,0,0,.787,1.863,2.362,2.362,0,0,0,1.736.686,2.892,2.892,0,0,0,2.391-1.187l1.151,1.1a3.845,3.845,0,0,1-1.525,1.323A4.774,4.774,0,0,1,22.938,19.176Zm-.255-8.147a1.8,1.8,0,0,0-1.419.615,3.189,3.189,0,0,0-.69,1.714h4.069V13.2a2.6,2.6,0,0,0-.571-1.622A1.785,1.785,0,0,0,22.683,11.028ZM30.391,9.49l.062,1.1a3.419,3.419,0,0,1,2.769-1.274q2.971,0,3.023,3.4V19H34.108V12.839a1.958,1.958,0,0,0-.391-1.34,1.645,1.645,0,0,0-1.279-.435,2.058,2.058,0,0,0-1.925,1.169V19H28.378V9.49ZM41.1,7.179V9.49h1.679v1.582H41.1v5.309a1.169,1.169,0,0,0,.215.787,1,1,0,0,0,.769.242,3.29,3.29,0,0,0,.747-.088v1.652a5.26,5.26,0,0,1-1.406.2q-2.461,0-2.461-2.716V11.072H37.4V9.49H38.96V7.179Zm8.288,4.263a5.285,5.285,0,0,0-.87-.07A1.959,1.959,0,0,0,46.536,12.5V19H44.4V9.49h2.039l.053,1.063a2.406,2.406,0,0,1,2.145-1.239,2,2,0,0,1,.756.123Zm.633,2.716a5.607,5.607,0,0,1,.554-2.518,4.044,4.044,0,0,1,1.556-1.723,4.383,4.383,0,0,1,2.3-.6,4.154,4.154,0,0,1,3.125,1.239,4.874,4.874,0,0,1,1.3,3.287l.009.5a5.658,5.658,0,0,1-.541,2.514,4,4,0,0,1-1.547,1.714,4.415,4.415,0,0,1-2.325.606,4.125,4.125,0,0,1-3.221-1.34,5.133,5.133,0,0,1-1.208-3.573Zm2.136.185a3.832,3.832,0,0,0,.606,2.3,1.971,1.971,0,0,0,1.688.831,1.95,1.95,0,0,0,1.683-.844,4.232,4.232,0,0,0,.6-2.47,3.782,3.782,0,0,0-.62-2.285,2.089,2.089,0,0,0-3.344-.013A4.152,4.152,0,0,0,52.152,14.342ZM65.178,13.8a13.393,13.393,0,0,1,.545-3.854,10.578,10.578,0,0,1,1.6-3.261,6.351,6.351,0,0,1,2.232-2.017l.422,1.248a6.524,6.524,0,0,0-2.008,2.87,12.852,12.852,0,0,0-.839,4.417l-.009.756a13.972,13.972,0,0,0,.751,4.75,7,7,0,0,0,2.1,3.177l-.422,1.187a6.362,6.362,0,0,1-2.237-2.026,10.577,10.577,0,0,1-1.6-3.261A13.921,13.921,0,0,1,65.178,13.8Zm10.151,3.674A1.931,1.931,0,0,0,76.656,17a1.591,1.591,0,0,0,.563-1.151h2.013a3.137,3.137,0,0,1-.554,1.657,3.632,3.632,0,0,1-1.406,1.217,4.191,4.191,0,0,1-1.916.448,4.055,4.055,0,0,1-3.164-1.292,5.124,5.124,0,0,1-1.169-3.568V14.1a5.039,5.039,0,0,1,1.16-3.476,4.018,4.018,0,0,1,3.164-1.305,3.907,3.907,0,0,1,2.764.989,3.542,3.542,0,0,1,1.121,2.6H77.219a1.956,1.956,0,0,0-.558-1.345,1.8,1.8,0,0,0-1.332-.527,1.879,1.879,0,0,0-1.6.751,3.834,3.834,0,0,0-.571,2.281V14.4a3.9,3.9,0,0,0,.558,2.307A1.878,1.878,0,0,0,75.329,17.471Zm9.633-3.533a13.224,13.224,0,0,1-.536,3.766,10.671,10.671,0,0,1-1.626,3.3,6.367,6.367,0,0,1-2.276,2.061L80.1,21.883a6.754,6.754,0,0,0,2.087-3.116,13.84,13.84,0,0,0,.769-4.786v-.2a14.044,14.044,0,0,0-.668-4.452,7.852,7.852,0,0,0-1.916-3.221L80.1,5.86l.422-1.2A6.3,6.3,0,0,1,82.7,6.6,10.491,10.491,0,0,1,84.32,9.706a12.941,12.941,0,0,1,.633,3.546Z" transform="translate(419 15283.01)" fill="#12263f"/><path d="M16.97,14.834a4.621,4.621,0,0,1-1.512,3.195,5.154,5.154,0,0,1-3.507,1.147,4.99,4.99,0,0,1-2.694-.725,4.759,4.759,0,0,1-1.8-2.061,7.438,7.438,0,0,1-.659-3.1v-1.2A7.491,7.491,0,0,1,7.442,8.9,4.835,4.835,0,0,1,9.284,6.774a5.136,5.136,0,0,1,2.773-.747,4.946,4.946,0,0,1,3.41,1.147,4.793,4.793,0,0,1,1.5,3.248H14.755a3.161,3.161,0,0,0-.8-1.991,2.658,2.658,0,0,0-1.894-.611A2.6,2.6,0,0,0,9.829,8.88a5.3,5.3,0,0,0-.8,3.11v1.135a5.62,5.62,0,0,0,.743,3.167,2.464,2.464,0,0,0,2.175,1.091,2.875,2.875,0,0,0,1.969-.589,3.071,3.071,0,0,0,.835-1.96Zm5.968,4.342A4.419,4.419,0,0,1,19.646,17.9a4.639,4.639,0,0,1-1.261-3.406v-.264a5.706,5.706,0,0,1,.549-2.544,4.181,4.181,0,0,1,1.542-1.745,4.078,4.078,0,0,1,2.215-.624,3.733,3.733,0,0,1,3,1.239,5.24,5.24,0,0,1,1.059,3.507v.861H20.538a2.856,2.856,0,0,0,.787,1.863,2.362,2.362,0,0,0,1.736.686,2.892,2.892,0,0,0,2.391-1.187l1.151,1.1a3.845,3.845,0,0,1-1.525,1.323A4.774,4.774,0,0,1,22.938,19.176Zm-.255-8.147a1.8,1.8,0,0,0-1.419.615,3.189,3.189,0,0,0-.69,1.714h4.069V13.2a2.6,2.6,0,0,0-.571-1.622A1.785,1.785,0,0,0,22.683,11.028ZM30.391,9.49l.062,1.1a3.419,3.419,0,0,1,2.769-1.274q2.971,0,3.023,3.4V19H34.108V12.839a1.958,1.958,0,0,0-.391-1.34,1.645,1.645,0,0,0-1.279-.435,2.058,2.058,0,0,0-1.925,1.169V19H28.378V9.49ZM41.1,7.179V9.49h1.679v1.582H41.1v5.309a1.169,1.169,0,0,0,.215.787,1,1,0,0,0,.769.242,3.29,3.29,0,0,0,.747-.088v1.652a5.26,5.26,0,0,1-1.406.2q-2.461,0-2.461-2.716V11.072H37.4V9.49H38.96V7.179Zm8.288,4.263a5.285,5.285,0,0,0-.87-.07A1.959,1.959,0,0,0,46.536,12.5V19H44.4V9.49h2.039l.053,1.063a2.406,2.406,0,0,1,2.145-1.239,2,2,0,0,1,.756.123Zm.633,2.716a5.607,5.607,0,0,1,.554-2.518,4.044,4.044,0,0,1,1.556-1.723,4.383,4.383,0,0,1,2.3-.6,4.154,4.154,0,0,1,3.125,1.239,4.874,4.874,0,0,1,1.3,3.287l.009.5a5.658,5.658,0,0,1-.541,2.514,4,4,0,0,1-1.547,1.714,4.415,4.415,0,0,1-2.325.606,4.125,4.125,0,0,1-3.221-1.34,5.133,5.133,0,0,1-1.208-3.573Zm2.136.185a3.832,3.832,0,0,0,.606,2.3,1.971,1.971,0,0,0,1.688.831,1.95,1.95,0,0,0,1.683-.844,4.232,4.232,0,0,0,.6-2.47,3.782,3.782,0,0,0-.62-2.285,2.089,2.089,0,0,0-3.344-.013A4.152,4.152,0,0,0,52.152,14.342ZM65.178,13.8a13.393,13.393,0,0,1,.545-3.854,10.578,10.578,0,0,1,1.6-3.261,6.351,6.351,0,0,1,2.232-2.017l.422,1.248a6.524,6.524,0,0,0-2.008,2.87,12.852,12.852,0,0,0-.839,4.417l-.009.756a13.972,13.972,0,0,0,.751,4.75,7,7,0,0,0,2.1,3.177l-.422,1.187a6.362,6.362,0,0,1-2.237-2.026,10.577,10.577,0,0,1-1.6-3.261A13.921,13.921,0,0,1,65.178,13.8Zm10.151,3.674A1.931,1.931,0,0,0,76.656,17a1.591,1.591,0,0,0,.563-1.151h2.013a3.137,3.137,0,0,1-.554,1.657,3.632,3.632,0,0,1-1.406,1.217,4.191,4.191,0,0,1-1.916.448,4.055,4.055,0,0,1-3.164-1.292,5.124,5.124,0,0,1-1.169-3.568V14.1a5.039,5.039,0,0,1,1.16-3.476,4.018,4.018,0,0,1,3.164-1.305,3.907,3.907,0,0,1,2.764.989,3.542,3.542,0,0,1,1.121,2.6H77.219a1.956,1.956,0,0,0-.558-1.345,1.8,1.8,0,0,0-1.332-.527,1.879,1.879,0,0,0-1.6.751,3.834,3.834,0,0,0-.571,2.281V14.4a3.9,3.9,0,0,0,.558,2.307A1.878,1.878,0,0,0,75.329,17.471Zm9.633-3.533a13.224,13.224,0,0,1-.536,3.766,10.671,10.671,0,0,1-1.626,3.3,6.367,6.367,0,0,1-2.276,2.061L80.1,21.883a6.754,6.754,0,0,0,2.087-3.116,13.84,13.84,0,0,0,.769-4.786v-.2a14.044,14.044,0,0,0-.668-4.452,7.852,7.852,0,0,0-1.916-3.221L80.1,5.86l.422-1.2A6.3,6.3,0,0,1,82.7,6.6,10.491,10.491,0,0,1,84.32,9.706a12.941,12.941,0,0,1,.633,3.546Z" transform="translate(419 15378.01)" fill="#12263f"/><path d="M16.97,14.834a4.621,4.621,0,0,1-1.512,3.195,5.154,5.154,0,0,1-3.507,1.147,4.99,4.99,0,0,1-2.694-.725,4.759,4.759,0,0,1-1.8-2.061,7.438,7.438,0,0,1-.659-3.1v-1.2A7.491,7.491,0,0,1,7.442,8.9,4.835,4.835,0,0,1,9.284,6.774a5.136,5.136,0,0,1,2.773-.747,4.946,4.946,0,0,1,3.41,1.147,4.793,4.793,0,0,1,1.5,3.248H14.755a3.161,3.161,0,0,0-.8-1.991,2.658,2.658,0,0,0-1.894-.611A2.6,2.6,0,0,0,9.829,8.88a5.3,5.3,0,0,0-.8,3.11v1.135a5.62,5.62,0,0,0,.743,3.167,2.464,2.464,0,0,0,2.175,1.091,2.875,2.875,0,0,0,1.969-.589,3.071,3.071,0,0,0,.835-1.96Zm5.968,4.342A4.419,4.419,0,0,1,19.646,17.9a4.639,4.639,0,0,1-1.261-3.406v-.264a5.706,5.706,0,0,1,.549-2.544,4.181,4.181,0,0,1,1.542-1.745,4.078,4.078,0,0,1,2.215-.624,3.733,3.733,0,0,1,3,1.239,5.24,5.24,0,0,1,1.059,3.507v.861H20.538a2.856,2.856,0,0,0,.787,1.863,2.362,2.362,0,0,0,1.736.686,2.892,2.892,0,0,0,2.391-1.187l1.151,1.1a3.845,3.845,0,0,1-1.525,1.323A4.774,4.774,0,0,1,22.938,19.176Zm-.255-8.147a1.8,1.8,0,0,0-1.419.615,3.189,3.189,0,0,0-.69,1.714h4.069V13.2a2.6,2.6,0,0,0-.571-1.622A1.785,1.785,0,0,0,22.683,11.028ZM30.391,9.49l.062,1.1a3.419,3.419,0,0,1,2.769-1.274q2.971,0,3.023,3.4V19H34.108V12.839a1.958,1.958,0,0,0-.391-1.34,1.645,1.645,0,0,0-1.279-.435,2.058,2.058,0,0,0-1.925,1.169V19H28.378V9.49ZM41.1,7.179V9.49h1.679v1.582H41.1v5.309a1.169,1.169,0,0,0,.215.787,1,1,0,0,0,.769.242,3.29,3.29,0,0,0,.747-.088v1.652a5.26,5.26,0,0,1-1.406.2q-2.461,0-2.461-2.716V11.072H37.4V9.49H38.96V7.179Zm8.288,4.263a5.285,5.285,0,0,0-.87-.07A1.959,1.959,0,0,0,46.536,12.5V19H44.4V9.49h2.039l.053,1.063a2.406,2.406,0,0,1,2.145-1.239,2,2,0,0,1,.756.123Zm.633,2.716a5.607,5.607,0,0,1,.554-2.518,4.044,4.044,0,0,1,1.556-1.723,4.383,4.383,0,0,1,2.3-.6,4.154,4.154,0,0,1,3.125,1.239,4.874,4.874,0,0,1,1.3,3.287l.009.5a5.658,5.658,0,0,1-.541,2.514,4,4,0,0,1-1.547,1.714,4.415,4.415,0,0,1-2.325.606,4.125,4.125,0,0,1-3.221-1.34,5.133,5.133,0,0,1-1.208-3.573Zm2.136.185a3.832,3.832,0,0,0,.606,2.3,1.971,1.971,0,0,0,1.688.831,1.95,1.95,0,0,0,1.683-.844,4.232,4.232,0,0,0,.6-2.47,3.782,3.782,0,0,0-.62-2.285,2.089,2.089,0,0,0-3.344-.013A4.152,4.152,0,0,0,52.152,14.342ZM65.178,13.8a13.393,13.393,0,0,1,.545-3.854,10.578,10.578,0,0,1,1.6-3.261,6.351,6.351,0,0,1,2.232-2.017l.422,1.248a6.524,6.524,0,0,0-2.008,2.87,12.852,12.852,0,0,0-.839,4.417l-.009.756a13.972,13.972,0,0,0,.751,4.75,7,7,0,0,0,2.1,3.177l-.422,1.187a6.362,6.362,0,0,1-2.237-2.026,10.577,10.577,0,0,1-1.6-3.261A13.921,13.921,0,0,1,65.178,13.8Zm10.151,3.674A1.931,1.931,0,0,0,76.656,17a1.591,1.591,0,0,0,.563-1.151h2.013a3.137,3.137,0,0,1-.554,1.657,3.632,3.632,0,0,1-1.406,1.217,4.191,4.191,0,0,1-1.916.448,4.055,4.055,0,0,1-3.164-1.292,5.124,5.124,0,0,1-1.169-3.568V14.1a5.039,5.039,0,0,1,1.16-3.476,4.018,4.018,0,0,1,3.164-1.305,3.907,3.907,0,0,1,2.764.989,3.542,3.542,0,0,1,1.121,2.6H77.219a1.956,1.956,0,0,0-.558-1.345,1.8,1.8,0,0,0-1.332-.527,1.879,1.879,0,0,0-1.6.751,3.834,3.834,0,0,0-.571,2.281V14.4a3.9,3.9,0,0,0,.558,2.307A1.878,1.878,0,0,0,75.329,17.471Zm9.633-3.533a13.224,13.224,0,0,1-.536,3.766,10.671,10.671,0,0,1-1.626,3.3,6.367,6.367,0,0,1-2.276,2.061L80.1,21.883a6.754,6.754,0,0,0,2.087-3.116,13.84,13.84,0,0,0,.769-4.786v-.2a14.044,14.044,0,0,0-.668-4.452,7.852,7.852,0,0,0-1.916-3.221L80.1,5.86l.422-1.2A6.3,6.3,0,0,1,82.7,6.6,10.491,10.491,0,0,1,84.32,9.706a12.941,12.941,0,0,1,.633,3.546Z" transform="translate(419 15188.01)" fill="#12263f"/><path d="M7.523-2.648H3.117L2.2,0H.141l4.3-11.375H6.211L10.516,0H8.453ZM3.672-4.242h3.3L5.32-8.961Zm15.367.1a5.078,5.078,0,0,1-.879,3.133A2.863,2.863,0,0,1,15.742.156,2.758,2.758,0,0,1,13.43-.914L13.336,0H11.617V-12h1.9v4.359a2.748,2.748,0,0,1,2.211-.969,2.9,2.9,0,0,1,2.43,1.148,5.162,5.162,0,0,1,.883,3.211Zm-1.9-.164a3.589,3.589,0,0,0-.484-2.062,1.613,1.613,0,0,0-1.406-.687,1.763,1.763,0,0,0-1.734,1.078v3.484a1.781,1.781,0,0,0,1.75,1.1,1.6,1.6,0,0,0,1.375-.664,3.477,3.477,0,0,0,.5-2.008ZM25.68,0a2.93,2.93,0,0,1-.219-.789,2.955,2.955,0,0,1-2.219.945A2.982,2.982,0,0,1,21.164-.57a2.325,2.325,0,0,1-.8-1.8,2.4,2.4,0,0,1,1-2.074,4.865,4.865,0,0,1,2.871-.723H25.4v-.555a1.481,1.481,0,0,0-.367-1.051,1.456,1.456,0,0,0-1.117-.395,1.672,1.672,0,0,0-1.062.324,1,1,0,0,0-.414.824h-1.9A2.107,2.107,0,0,1,21-7.316a3.071,3.071,0,0,1,1.254-.949,4.4,4.4,0,0,1,1.77-.344,3.547,3.547,0,0,1,2.367.746,2.661,2.661,0,0,1,.906,2.1v3.813a4.321,4.321,0,0,0,.32,1.82V0ZM23.594-1.367a2.159,2.159,0,0,0,1.059-.273,1.827,1.827,0,0,0,.746-.734V-3.969H24.375a2.8,2.8,0,0,0-1.586.367,1.189,1.189,0,0,0-.531,1.039,1.109,1.109,0,0,0,.363.871A1.407,1.407,0,0,0,23.594-1.367Zm7.672-7.086V.75a2.781,2.781,0,0,1-.645,1.98,2.47,2.47,0,0,1-1.887.684,3.794,3.794,0,0,1-1.008-.133v-1.5a2.925,2.925,0,0,0,.672.07q.945,0,.969-1.031V-8.453Zm-2.062-2.2a1.008,1.008,0,0,1,.277-.727,1.048,1.048,0,0,1,.793-.289,1.061,1.061,0,0,1,.8.289,1,1,0,0,1,.281.727.977.977,0,0,1-.281.715,1.069,1.069,0,0,1-.8.285,1.056,1.056,0,0,1-.793-.285A.984.984,0,0,1,29.2-10.648ZM32.938-4.3a4.984,4.984,0,0,1,.492-2.238,3.6,3.6,0,0,1,1.383-1.531,3.9,3.9,0,0,1,2.047-.535,3.692,3.692,0,0,1,2.777,1.1,4.333,4.333,0,0,1,1.152,2.922l.008.445a5.029,5.029,0,0,1-.48,2.234A3.551,3.551,0,0,1,38.941-.383a3.925,3.925,0,0,1-2.066.539,3.667,3.667,0,0,1-2.863-1.191,4.563,4.563,0,0,1-1.074-3.176Zm1.9.164A3.406,3.406,0,0,0,35.375-2.1a1.752,1.752,0,0,0,1.5.738,1.733,1.733,0,0,0,1.5-.75,3.762,3.762,0,0,0,.535-2.2,3.362,3.362,0,0,0-.551-2.031,1.759,1.759,0,0,0-1.5-.75,1.743,1.743,0,0,0-1.477.738A3.691,3.691,0,0,0,34.836-4.141ZM49.859-1.359a1.716,1.716,0,0,0,1.18-.414,1.415,1.415,0,0,0,.5-1.023h1.789a2.789,2.789,0,0,1-.492,1.473,3.228,3.228,0,0,1-1.25,1.082,3.725,3.725,0,0,1-1.7.4A3.6,3.6,0,0,1,47.07-.992a4.555,4.555,0,0,1-1.039-3.172v-.2a4.479,4.479,0,0,1,1.031-3.09,3.571,3.571,0,0,1,2.813-1.16,3.473,3.473,0,0,1,2.457.879,3.148,3.148,0,0,1,1,2.309H51.539a1.738,1.738,0,0,0-.5-1.2,1.6,1.6,0,0,0-1.184-.469,1.671,1.671,0,0,0-1.422.668,3.408,3.408,0,0,0-.508,2.027v.3a3.465,3.465,0,0,0,.5,2.051A1.669,1.669,0,0,0,49.859-1.359ZM58.484.156A3.928,3.928,0,0,1,55.559-.98a4.124,4.124,0,0,1-1.121-3.027v-.234A5.072,5.072,0,0,1,54.926-6.5,3.716,3.716,0,0,1,56.3-8.055a3.625,3.625,0,0,1,1.969-.555,3.318,3.318,0,0,1,2.668,1.1,4.658,4.658,0,0,1,.941,3.117v.766H56.352a2.539,2.539,0,0,0,.7,1.656,2.1,2.1,0,0,0,1.543.609,2.571,2.571,0,0,0,2.125-1.055l1.023.977A3.418,3.418,0,0,1,60.387-.262,4.244,4.244,0,0,1,58.484.156Zm-.227-7.242A1.6,1.6,0,0,0,57-6.539a2.835,2.835,0,0,0-.613,1.523H60v-.141A2.307,2.307,0,0,0,59.492-6.6,1.586,1.586,0,0,0,58.258-7.086Zm9.516.367A4.7,4.7,0,0,0,67-6.781a1.741,1.741,0,0,0-1.758,1V0h-1.9V-8.453h1.813l.047.945a2.139,2.139,0,0,1,1.906-1.1,1.777,1.777,0,0,1,.672.109ZM72.3-1.359a1.716,1.716,0,0,0,1.18-.414,1.415,1.415,0,0,0,.5-1.023h1.789a2.789,2.789,0,0,1-.492,1.473,3.228,3.228,0,0,1-1.25,1.082,3.725,3.725,0,0,1-1.7.4A3.6,3.6,0,0,1,69.508-.992a4.555,4.555,0,0,1-1.039-3.172v-.2A4.479,4.479,0,0,1,69.5-7.449a3.571,3.571,0,0,1,2.813-1.16,3.473,3.473,0,0,1,2.457.879,3.148,3.148,0,0,1,1,2.309H73.977a1.738,1.738,0,0,0-.5-1.2A1.6,1.6,0,0,0,72.3-7.086a1.671,1.671,0,0,0-1.422.668,3.408,3.408,0,0,0-.508,2.027v.3a3.465,3.465,0,0,0,.5,2.051A1.669,1.669,0,0,0,72.3-1.359ZM82.25,0a2.93,2.93,0,0,1-.219-.789,2.955,2.955,0,0,1-2.219.945A2.982,2.982,0,0,1,77.734-.57a2.325,2.325,0,0,1-.8-1.8,2.4,2.4,0,0,1,1-2.074A4.865,4.865,0,0,1,80.8-5.164h1.164v-.555A1.481,1.481,0,0,0,81.6-6.77a1.456,1.456,0,0,0-1.117-.395,1.672,1.672,0,0,0-1.062.324,1,1,0,0,0-.414.824h-1.9a2.107,2.107,0,0,1,.461-1.3,3.071,3.071,0,0,1,1.254-.949,4.4,4.4,0,0,1,1.77-.344,3.547,3.547,0,0,1,2.367.746,2.661,2.661,0,0,1,.906,2.1v3.813a4.321,4.321,0,0,0,.32,1.82V0ZM80.164-1.367a2.159,2.159,0,0,0,1.059-.273,1.827,1.827,0,0,0,.746-.734V-3.969H80.945a2.8,2.8,0,0,0-1.586.367,1.189,1.189,0,0,0-.531,1.039,1.109,1.109,0,0,0,.363.871A1.407,1.407,0,0,0,80.164-1.367Zm9.32-2.922a5.026,5.026,0,0,1,.906-3.137,2.9,2.9,0,0,1,2.43-1.184,2.759,2.759,0,0,1,2.172.938V-12h1.9V0H95.172l-.094-.875A2.8,2.8,0,0,1,92.8.156a2.887,2.887,0,0,1-2.4-1.2A5.21,5.21,0,0,1,89.484-4.289Zm1.9.164a3.519,3.519,0,0,0,.5,2.012,1.61,1.61,0,0,0,1.41.723,1.793,1.793,0,0,0,1.7-1.039V-6.039A1.766,1.766,0,0,0,93.3-7.055a1.622,1.622,0,0,0-1.422.73A3.918,3.918,0,0,0,91.383-4.125ZM102.594.156A3.928,3.928,0,0,1,99.668-.98a4.124,4.124,0,0,1-1.121-3.027v-.234A5.072,5.072,0,0,1,99.035-6.5a3.716,3.716,0,0,1,1.371-1.551,3.625,3.625,0,0,1,1.969-.555,3.318,3.318,0,0,1,2.668,1.1,4.658,4.658,0,0,1,.941,3.117v.766h-5.523a2.539,2.539,0,0,0,.7,1.656,2.1,2.1,0,0,0,1.543.609,2.571,2.571,0,0,0,2.125-1.055l1.023.977A3.418,3.418,0,0,1,104.5-.262,4.244,4.244,0,0,1,102.594.156Zm-.227-7.242a1.6,1.6,0,0,0-1.262.547,2.835,2.835,0,0,0-.613,1.523h3.617v-.141A2.307,2.307,0,0,0,103.6-6.6,1.586,1.586,0,0,0,102.367-7.086ZM109.477,0h-1.9V-12h1.9ZM122.93-4.141a5.033,5.033,0,0,1-.891,3.129A2.852,2.852,0,0,1,119.648.156a2.871,2.871,0,0,1-2.227-.914V3.25h-1.9v-11.7h1.75l.078.859a2.788,2.788,0,0,1,2.273-1.016,2.881,2.881,0,0,1,2.426,1.152,5.167,5.167,0,0,1,.879,3.2ZM121.039-4.3a3.526,3.526,0,0,0-.5-2.008,1.638,1.638,0,0,0-1.441-.742,1.747,1.747,0,0,0-1.672.961v3.75a1.763,1.763,0,0,0,1.688.984,1.636,1.636,0,0,0,1.418-.73A3.881,3.881,0,0,0,121.039-4.3Zm8.617,3.477a2.944,2.944,0,0,1-2.375.984,2.624,2.624,0,0,1-2.082-.8,3.423,3.423,0,0,1-.707-2.328V-8.453h1.9V-3q0,1.609,1.336,1.609a1.876,1.876,0,0,0,1.867-.992v-6.07h1.9V0H129.7ZM128.57-12h2.164L128.57-9.633l-1.523,0Zm12.273,7.859a5.078,5.078,0,0,1-.879,3.133A2.863,2.863,0,0,1,137.547.156a2.758,2.758,0,0,1-2.312-1.07L135.141,0h-1.719V-12h1.9v4.359a2.748,2.748,0,0,1,2.211-.969,2.9,2.9,0,0,1,2.43,1.148,5.162,5.162,0,0,1,.883,3.211Zm-1.9-.164a3.589,3.589,0,0,0-.484-2.062,1.613,1.613,0,0,0-1.406-.687,1.763,1.763,0,0,0-1.734,1.078v3.484a1.781,1.781,0,0,0,1.75,1.1,1.6,1.6,0,0,0,1.375-.664,3.477,3.477,0,0,0,.5-2.008ZM144.453,0h-1.9V-12h1.9Zm4.086,0h-1.9V-8.453h1.9Zm-2.016-10.648a1.008,1.008,0,0,1,.277-.727,1.048,1.048,0,0,1,.793-.289,1.061,1.061,0,0,1,.8.289,1,1,0,0,1,.281.727.977.977,0,0,1-.281.715,1.069,1.069,0,0,1-.8.285,1.056,1.056,0,0,1-.793-.285A.984.984,0,0,1,146.523-10.648Zm7.555,9.289a1.716,1.716,0,0,0,1.18-.414,1.415,1.415,0,0,0,.5-1.023h1.789a2.788,2.788,0,0,1-.492,1.473A3.228,3.228,0,0,1,155.8-.242a3.725,3.725,0,0,1-1.7.4,3.6,3.6,0,0,1-2.812-1.148,4.555,4.555,0,0,1-1.039-3.172v-.2a4.479,4.479,0,0,1,1.031-3.09,3.571,3.571,0,0,1,2.813-1.16,3.473,3.473,0,0,1,2.457.879,3.148,3.148,0,0,1,1,2.309h-1.789a1.738,1.738,0,0,0-.5-1.2,1.6,1.6,0,0,0-1.184-.469,1.671,1.671,0,0,0-1.422.668,3.408,3.408,0,0,0-.508,2.027v.3a3.465,3.465,0,0,0,.5,2.051A1.669,1.669,0,0,0,154.078-1.359ZM158.625-4.3a4.984,4.984,0,0,1,.492-2.238A3.6,3.6,0,0,1,160.5-8.074a3.9,3.9,0,0,1,2.047-.535,3.692,3.692,0,0,1,2.777,1.1,4.333,4.333,0,0,1,1.152,2.922l.008.445A5.029,5.029,0,0,1,166-1.906a3.551,3.551,0,0,1-1.375,1.523,3.925,3.925,0,0,1-2.066.539A3.667,3.667,0,0,1,159.7-1.035a4.563,4.563,0,0,1-1.074-3.176Zm1.9.164a3.406,3.406,0,0,0,.539,2.043,1.752,1.752,0,0,0,1.5.738,1.733,1.733,0,0,0,1.5-.75,3.762,3.762,0,0,0,.535-2.2,3.362,3.362,0,0,0-.551-2.031,1.759,1.759,0,0,0-1.5-.75,1.743,1.743,0,0,0-1.477.738A3.691,3.691,0,0,0,160.523-4.141Z" transform="translate(382 15756)" fill="#12263f"/><path d="M7.523-2.648H3.117L2.2,0H.141l4.3-11.375H6.211L10.516,0H8.453ZM3.672-4.242h3.3L5.32-8.961ZM16.047-6.719a4.7,4.7,0,0,0-.773-.062,1.741,1.741,0,0,0-1.758,1V0h-1.9V-8.453H13.43l.047.945a2.139,2.139,0,0,1,1.906-1.1,1.777,1.777,0,0,1,.672.109Zm5.625,0a4.7,4.7,0,0,0-.773-.062,1.741,1.741,0,0,0-1.758,1V0h-1.9V-8.453h1.813l.047.945a2.139,2.139,0,0,1,1.906-1.1,1.777,1.777,0,0,1,.672.109ZM24.891,0h-1.9V-8.453h1.9ZM22.875-10.648a1.008,1.008,0,0,1,.277-.727,1.048,1.048,0,0,1,.793-.289,1.061,1.061,0,0,1,.8.289,1,1,0,0,1,.281.727.977.977,0,0,1-.281.715,1.069,1.069,0,0,1-.8.285,1.056,1.056,0,0,1-.793-.285A.984.984,0,0,1,22.875-10.648Zm11.5,6.508A5.078,5.078,0,0,1,33.5-1.008,2.863,2.863,0,0,1,31.078.156a2.758,2.758,0,0,1-2.312-1.07L28.672,0H26.953V-12h1.9v4.359a2.748,2.748,0,0,1,2.211-.969,2.9,2.9,0,0,1,2.43,1.148,5.162,5.162,0,0,1,.883,3.211Zm-1.9-.164a3.589,3.589,0,0,0-.484-2.062,1.613,1.613,0,0,0-1.406-.687,1.763,1.763,0,0,0-1.734,1.078v3.484a1.781,1.781,0,0,0,1.75,1.1,1.6,1.6,0,0,0,1.375-.664,3.477,3.477,0,0,0,.5-2.008ZM41.016,0A2.93,2.93,0,0,1,40.8-.789a2.955,2.955,0,0,1-2.219.945A2.982,2.982,0,0,1,36.5-.57a2.325,2.325,0,0,1-.8-1.8,2.4,2.4,0,0,1,1-2.074,4.865,4.865,0,0,1,2.871-.723h1.164v-.555a1.481,1.481,0,0,0-.367-1.051,1.456,1.456,0,0,0-1.117-.395,1.672,1.672,0,0,0-1.062.324,1,1,0,0,0-.414.824h-1.9a2.107,2.107,0,0,1,.461-1.3,3.071,3.071,0,0,1,1.254-.949,4.4,4.4,0,0,1,1.77-.344,3.547,3.547,0,0,1,2.367.746,2.661,2.661,0,0,1,.906,2.1v3.813a4.321,4.321,0,0,0,.32,1.82V0ZM38.93-1.367a2.16,2.16,0,0,0,1.059-.273,1.827,1.827,0,0,0,.746-.734V-3.969H39.711a2.8,2.8,0,0,0-1.586.367,1.189,1.189,0,0,0-.531,1.039,1.109,1.109,0,0,0,.363.871A1.407,1.407,0,0,0,38.93-1.367ZM50.625,0h-1.9V-12h1.9Zm5.789.156A3.928,3.928,0,0,1,53.488-.98a4.124,4.124,0,0,1-1.121-3.027v-.234A5.072,5.072,0,0,1,52.855-6.5a3.716,3.716,0,0,1,1.371-1.551A3.625,3.625,0,0,1,56.2-8.609a3.318,3.318,0,0,1,2.668,1.1A4.658,4.658,0,0,1,59.8-4.391v.766H54.281a2.539,2.539,0,0,0,.7,1.656,2.1,2.1,0,0,0,1.543.609,2.571,2.571,0,0,0,2.125-1.055l1.023.977A3.418,3.418,0,0,1,58.316-.262,4.244,4.244,0,0,1,56.414.156Zm-.227-7.242a1.6,1.6,0,0,0-1.262.547,2.835,2.835,0,0,0-.613,1.523H57.93v-.141A2.307,2.307,0,0,0,57.422-6.6,1.586,1.586,0,0,0,56.188-7.086Zm7.07-1.367V.75a2.781,2.781,0,0,1-.645,1.98,2.47,2.47,0,0,1-1.887.684,3.794,3.794,0,0,1-1.008-.133v-1.5a2.925,2.925,0,0,0,.672.07q.945,0,.969-1.031V-8.453Zm-2.062-2.2a1.008,1.008,0,0,1,.277-.727,1.048,1.048,0,0,1,.793-.289,1.061,1.061,0,0,1,.8.289,1,1,0,0,1,.281.727.977.977,0,0,1-.281.715,1.069,1.069,0,0,1-.8.285,1.056,1.056,0,0,1-.793-.285A.984.984,0,0,1,61.2-10.648ZM64.93-4.3a4.984,4.984,0,0,1,.492-2.238A3.6,3.6,0,0,1,66.8-8.074a3.9,3.9,0,0,1,2.047-.535,3.692,3.692,0,0,1,2.777,1.1,4.333,4.333,0,0,1,1.152,2.922l.008.445a5.029,5.029,0,0,1-.48,2.234A3.551,3.551,0,0,1,70.934-.383a3.925,3.925,0,0,1-2.066.539A3.667,3.667,0,0,1,66-1.035,4.563,4.563,0,0,1,64.93-4.211Zm1.9.164A3.406,3.406,0,0,0,67.367-2.1a1.752,1.752,0,0,0,1.5.738,1.733,1.733,0,0,0,1.5-.75A3.762,3.762,0,0,0,70.9-4.3a3.362,3.362,0,0,0-.551-2.031,1.759,1.759,0,0,0-1.5-.75,1.743,1.743,0,0,0-1.477.738A3.691,3.691,0,0,0,66.828-4.141ZM79.133-2.3a.861.861,0,0,0-.418-.773,4.445,4.445,0,0,0-1.387-.469,7.129,7.129,0,0,1-1.617-.516,2.158,2.158,0,0,1-1.422-1.992,2.25,2.25,0,0,1,.922-1.828,3.644,3.644,0,0,1,2.344-.734A3.792,3.792,0,0,1,80-7.859a2.38,2.38,0,0,1,.934,1.945h-1.9a1.17,1.17,0,0,0-.406-.91,1.557,1.557,0,0,0-1.078-.363,1.682,1.682,0,0,0-1.02.289.911.911,0,0,0-.395.773.769.769,0,0,0,.367.68,5.049,5.049,0,0,0,1.484.488,7.027,7.027,0,0,1,1.754.586,2.484,2.484,0,0,1,.945.816A2.082,2.082,0,0,1,81-2.4a2.2,2.2,0,0,1-.945,1.848,4.031,4.031,0,0,1-2.477.707,4.371,4.371,0,0,1-1.852-.375A3.047,3.047,0,0,1,74.461-1.25a2.441,2.441,0,0,1-.453-1.414h1.844a1.338,1.338,0,0,0,.508,1.035,1.973,1.973,0,0,0,1.242.363,1.92,1.92,0,0,0,1.141-.285A.883.883,0,0,0,79.133-2.3Zm7.148-1.992a5.026,5.026,0,0,1,.906-3.137,2.9,2.9,0,0,1,2.43-1.184,2.759,2.759,0,0,1,2.172.938V-12h1.9V0H91.969l-.094-.875A2.8,2.8,0,0,1,89.6.156a2.887,2.887,0,0,1-2.4-1.2A5.21,5.21,0,0,1,86.281-4.289Zm1.9.164a3.519,3.519,0,0,0,.5,2.012,1.61,1.61,0,0,0,1.41.723,1.793,1.793,0,0,0,1.7-1.039V-6.039A1.766,1.766,0,0,0,90.1-7.055a1.622,1.622,0,0,0-1.422.73A3.918,3.918,0,0,0,88.18-4.125ZM99.391.156A3.928,3.928,0,0,1,96.465-.98a4.124,4.124,0,0,1-1.121-3.027v-.234A5.072,5.072,0,0,1,95.832-6.5,3.716,3.716,0,0,1,97.2-8.055a3.625,3.625,0,0,1,1.969-.555,3.318,3.318,0,0,1,2.668,1.1,4.658,4.658,0,0,1,.941,3.117v.766H97.258a2.539,2.539,0,0,0,.7,1.656,2.1,2.1,0,0,0,1.543.609,2.571,2.571,0,0,0,2.125-1.055l1.023.977a3.418,3.418,0,0,1-1.355,1.176A4.244,4.244,0,0,1,99.391.156Zm-.227-7.242a1.6,1.6,0,0,0-1.262.547,2.835,2.835,0,0,0-.613,1.523h3.617v-.141A2.307,2.307,0,0,0,100.4-6.6,1.586,1.586,0,0,0,99.164-7.086ZM106.273,0h-1.9V-12h1.9Zm13.453-4.141a5.033,5.033,0,0,1-.891,3.129A2.852,2.852,0,0,1,116.445.156a2.871,2.871,0,0,1-2.227-.914V3.25h-1.9v-11.7h1.75l.078.859a2.788,2.788,0,0,1,2.273-1.016,2.881,2.881,0,0,1,2.426,1.152,5.167,5.167,0,0,1,.879,3.2ZM117.836-4.3a3.526,3.526,0,0,0-.5-2.008,1.638,1.638,0,0,0-1.441-.742,1.747,1.747,0,0,0-1.672.961v3.75a1.763,1.763,0,0,0,1.688.984,1.636,1.636,0,0,0,1.418-.73A3.881,3.881,0,0,0,117.836-4.3Zm8.617,3.477a2.944,2.944,0,0,1-2.375.984A2.624,2.624,0,0,1,122-.648a3.423,3.423,0,0,1-.707-2.328V-8.453h1.9V-3q0,1.609,1.336,1.609a1.876,1.876,0,0,0,1.867-.992v-6.07h1.9V0H126.5ZM125.367-12h2.164l-2.164,2.367-1.523,0Zm12.273,7.859a5.078,5.078,0,0,1-.879,3.133A2.863,2.863,0,0,1,134.344.156a2.758,2.758,0,0,1-2.312-1.07L131.938,0h-1.719V-12h1.9v4.359a2.748,2.748,0,0,1,2.211-.969,2.9,2.9,0,0,1,2.43,1.148,5.162,5.162,0,0,1,.883,3.211Zm-1.9-.164a3.589,3.589,0,0,0-.484-2.062,1.613,1.613,0,0,0-1.406-.687,1.763,1.763,0,0,0-1.734,1.078v3.484a1.781,1.781,0,0,0,1.75,1.1,1.6,1.6,0,0,0,1.375-.664,3.477,3.477,0,0,0,.5-2.008ZM141.25,0h-1.9V-12h1.9Zm4.086,0h-1.9V-8.453h1.9ZM143.32-10.648a1.008,1.008,0,0,1,.277-.727,1.048,1.048,0,0,1,.793-.289,1.061,1.061,0,0,1,.8.289,1,1,0,0,1,.281.727.977.977,0,0,1-.281.715,1.069,1.069,0,0,1-.8.285,1.056,1.056,0,0,1-.793-.285A.984.984,0,0,1,143.32-10.648Zm7.555,9.289a1.716,1.716,0,0,0,1.18-.414,1.415,1.415,0,0,0,.5-1.023h1.789a2.788,2.788,0,0,1-.492,1.473A3.228,3.228,0,0,1,152.6-.242a3.725,3.725,0,0,1-1.7.4,3.6,3.6,0,0,1-2.812-1.148,4.555,4.555,0,0,1-1.039-3.172v-.2a4.479,4.479,0,0,1,1.031-3.09,3.571,3.571,0,0,1,2.813-1.16,3.473,3.473,0,0,1,2.457.879,3.148,3.148,0,0,1,1,2.309h-1.789a1.738,1.738,0,0,0-.5-1.2,1.6,1.6,0,0,0-1.184-.469,1.671,1.671,0,0,0-1.422.668,3.408,3.408,0,0,0-.508,2.027v.3a3.465,3.465,0,0,0,.5,2.051A1.669,1.669,0,0,0,150.875-1.359ZM155.422-4.3a4.984,4.984,0,0,1,.492-2.238A3.6,3.6,0,0,1,157.3-8.074a3.9,3.9,0,0,1,2.047-.535,3.692,3.692,0,0,1,2.777,1.1,4.333,4.333,0,0,1,1.152,2.922l.008.445a5.029,5.029,0,0,1-.48,2.234,3.551,3.551,0,0,1-1.375,1.523,3.925,3.925,0,0,1-2.066.539A3.667,3.667,0,0,1,156.5-1.035a4.563,4.563,0,0,1-1.074-3.176Zm1.9.164a3.406,3.406,0,0,0,.539,2.043,1.752,1.752,0,0,0,1.5.738,1.733,1.733,0,0,0,1.5-.75,3.762,3.762,0,0,0,.535-2.2,3.362,3.362,0,0,0-.551-2.031,1.759,1.759,0,0,0-1.5-.75,1.743,1.743,0,0,0-1.477.738A3.691,3.691,0,0,0,157.32-4.141Z" transform="translate(382 15113)" fill="#12263f"/></g><g transform="translate(334.395 3066)"><rect width="572" height="46" transform="translate(179.605 13209)" fill="#eaeaea"/><path d="M112.967,15h-1.319l-5.011-7.67V15h-1.319V5.047h1.319l5.024,7.7v-7.7h1.306Zm1.8-3.767a4.369,4.369,0,0,1,.427-1.955,3.187,3.187,0,0,1,1.189-1.34,3.238,3.238,0,0,1,1.74-.472,3.119,3.119,0,0,1,2.444,1.046,4.024,4.024,0,0,1,.933,2.782v.089a4.407,4.407,0,0,1-.414,1.938,3.14,3.14,0,0,1-1.183,1.336,3.275,3.275,0,0,1-1.767.479,3.111,3.111,0,0,1-2.437-1.046,4,4,0,0,1-.933-2.769Zm1.271.15a3.164,3.164,0,0,0,.571,1.976,1.934,1.934,0,0,0,3.059-.01,3.46,3.46,0,0,0,.567-2.116,3.159,3.159,0,0,0-.578-1.972,1.836,1.836,0,0,0-1.535-.755,1.816,1.816,0,0,0-1.511.745A3.435,3.435,0,0,0,116.037,11.384ZM124.8,5.813V7.6h1.381v.978H124.8v4.593a1.027,1.027,0,0,0,.185.667.777.777,0,0,0,.629.222,3.062,3.062,0,0,0,.6-.082V15a3.688,3.688,0,0,1-.971.136,1.575,1.575,0,0,1-1.278-.513,2.2,2.2,0,0,1-.431-1.456V8.581h-1.347V7.6h1.347V5.813ZM132.224,15a2.657,2.657,0,0,1-.178-.779,2.822,2.822,0,0,1-2.105.916,2.611,2.611,0,0,1-1.794-.619,2,2,0,0,1-.7-1.569,2.091,2.091,0,0,1,.878-1.794,4.142,4.142,0,0,1,2.471-.639h1.23V9.935a1.42,1.42,0,0,0-.4-1.056,1.593,1.593,0,0,0-1.169-.393,1.844,1.844,0,0,0-1.135.342,1.007,1.007,0,0,0-.458.827H127.6a1.745,1.745,0,0,1,.393-1.07,2.683,2.683,0,0,1,1.066-.817,3.588,3.588,0,0,1,1.48-.3,2.924,2.924,0,0,1,2,.639,2.306,2.306,0,0,1,.752,1.76v3.4a4.162,4.162,0,0,0,.26,1.62V15Zm-2.1-.964a2.223,2.223,0,0,0,1.128-.308,1.861,1.861,0,0,0,.772-.8V11.411h-.991q-2.324,0-2.324,1.36a1.151,1.151,0,0,0,.4.93A1.524,1.524,0,0,0,130.125,14.036Zm5.175.3a.792.792,0,0,1,.195-.547.742.742,0,0,1,.584-.219.765.765,0,0,1,.591.219.776.776,0,0,1,.2.547.734.734,0,0,1-.2.526.778.778,0,0,1-.591.212.7.7,0,0,1-.779-.738Zm9.017-9.29,3.254,8.121,3.254-8.121h1.7V15h-1.312V11.124l.123-4.184L148.07,15h-1L143.8,6.961l.13,4.163V15h-1.312V5.047ZM156.02,15h-1.265V7.6h1.265Zm-1.367-9.358a.755.755,0,0,1,.188-.52.706.706,0,0,1,.557-.212.717.717,0,0,1,.561.212.747.747,0,0,1,.191.52.722.722,0,0,1-.191.513.73.73,0,0,1-.561.205.718.718,0,0,1-.557-.205A.73.73,0,0,1,154.653,5.642ZM159.24,7.6l.041.93A2.7,2.7,0,0,1,161.5,7.467q2.345,0,2.365,2.646V15H162.6V10.105a1.7,1.7,0,0,0-.366-1.183,1.466,1.466,0,0,0-1.118-.383,1.825,1.825,0,0,0-1.08.328,2.228,2.228,0,0,0-.725.861V15h-1.265V7.6Zm7.9,7.4h-1.265V7.6h1.265Zm-1.367-9.358a.755.755,0,0,1,.188-.52.706.706,0,0,1,.557-.212.717.717,0,0,1,.561.212.747.747,0,0,1,.191.52.722.722,0,0,1-.191.513.73.73,0,0,1-.561.205.718.718,0,0,1-.557-.205A.73.73,0,0,1,165.775,5.642Zm7.7,7.4a.931.931,0,0,0-.386-.8,3.718,3.718,0,0,0-1.347-.489,6.367,6.367,0,0,1-1.524-.492,2.169,2.169,0,0,1-.834-.684,1.635,1.635,0,0,1-.27-.943A1.919,1.919,0,0,1,169.88,8.1a3,3,0,0,1,1.965-.629,3.091,3.091,0,0,1,2.041.649,2.063,2.063,0,0,1,.783,1.661H173.4a1.142,1.142,0,0,0-.441-.9,1.652,1.652,0,0,0-1.111-.376,1.729,1.729,0,0,0-1.08.3.947.947,0,0,0-.39.786.767.767,0,0,0,.362.69,4.458,4.458,0,0,0,1.309.444,6.821,6.821,0,0,1,1.535.506,2.239,2.239,0,0,1,.872.708,1.74,1.74,0,0,1,.284,1.008,1.893,1.893,0,0,1-.793,1.589,3.326,3.326,0,0,1-2.058.6,3.725,3.725,0,0,1-1.572-.314,2.557,2.557,0,0,1-1.07-.878,2.117,2.117,0,0,1-.386-1.22h1.265a1.309,1.309,0,0,0,.509,1.008,1.976,1.976,0,0,0,1.254.373,2.039,2.039,0,0,0,1.152-.291A.893.893,0,0,0,173.472,13.038ZM178.1,5.813V7.6h1.381v.978H178.1v4.593a1.027,1.027,0,0,0,.185.667.777.777,0,0,0,.629.222,3.062,3.062,0,0,0,.6-.082V15a3.688,3.688,0,0,1-.971.136,1.575,1.575,0,0,1-1.278-.513,2.2,2.2,0,0,1-.431-1.456V8.581h-1.347V7.6h1.347V5.813Zm5.927,9.324a3.232,3.232,0,0,1-2.447-.988,3.666,3.666,0,0,1-.943-2.642v-.232a4.438,4.438,0,0,1,.42-1.965,3.279,3.279,0,0,1,1.176-1.354,2.956,2.956,0,0,1,1.637-.489,2.77,2.77,0,0,1,2.242.95,4.114,4.114,0,0,1,.8,2.721v.526H181.9a2.629,2.629,0,0,0,.639,1.767,2.009,2.009,0,0,0,1.555.673,2.2,2.2,0,0,0,1.135-.273,2.851,2.851,0,0,0,.813-.725l.772.6A3.106,3.106,0,0,1,184.027,15.137Zm-.157-6.631a1.687,1.687,0,0,0-1.285.557,2.708,2.708,0,0,0-.643,1.562h3.705v-.1a2.409,2.409,0,0,0-.52-1.494A1.588,1.588,0,0,0,183.87,8.506Zm8.08.232a3.79,3.79,0,0,0-.622-.048,1.667,1.667,0,0,0-1.688,1.06V15h-1.265V7.6h1.23l.021.854a1.969,1.969,0,0,1,1.764-.991,1.292,1.292,0,0,1,.561.1ZM194.486,15h-1.265V7.6h1.265Zm-1.367-9.358a.755.755,0,0,1,.188-.52.706.706,0,0,1,.557-.212.717.717,0,0,1,.561.212.747.747,0,0,1,.191.52.722.722,0,0,1-.191.513.73.73,0,0,1-.561.205.718.718,0,0,1-.557-.205A.73.73,0,0,1,193.119,5.642Zm3.056,5.592a4.369,4.369,0,0,1,.427-1.955,3.187,3.187,0,0,1,1.189-1.34,3.238,3.238,0,0,1,1.74-.472,3.119,3.119,0,0,1,2.444,1.046,4.024,4.024,0,0,1,.933,2.782v.089a4.407,4.407,0,0,1-.414,1.938,3.14,3.14,0,0,1-1.183,1.336,3.275,3.275,0,0,1-1.767.479,3.111,3.111,0,0,1-2.437-1.046,4,4,0,0,1-.933-2.769Zm1.271.15a3.164,3.164,0,0,0,.571,1.976,1.934,1.934,0,0,0,3.059-.01,3.46,3.46,0,0,0,.567-2.116,3.159,3.159,0,0,0-.578-1.972,1.836,1.836,0,0,0-1.535-.755,1.816,1.816,0,0,0-1.511.745A3.435,3.435,0,0,0,197.446,11.384Zm10.206-.144a4.333,4.333,0,0,1,.807-2.738,2.745,2.745,0,0,1,4.17-.147V4.5h1.265V15h-1.162l-.062-.793a2.575,2.575,0,0,1-2.112.93,2.526,2.526,0,0,1-2.1-1.053,4.382,4.382,0,0,1-.81-2.748Zm1.265.144a3.281,3.281,0,0,0,.52,1.969,1.68,1.68,0,0,0,1.436.711,1.845,1.845,0,0,0,1.757-1.08v-3.4a1.859,1.859,0,0,0-1.743-1.046,1.687,1.687,0,0,0-1.449.718A3.612,3.612,0,0,0,208.917,11.384Zm10.008,3.753a3.232,3.232,0,0,1-2.447-.988,3.666,3.666,0,0,1-.943-2.642v-.232a4.438,4.438,0,0,1,.42-1.965,3.279,3.279,0,0,1,1.176-1.354,2.956,2.956,0,0,1,1.637-.489,2.77,2.77,0,0,1,2.242.95,4.114,4.114,0,0,1,.8,2.721v.526H216.8a2.629,2.629,0,0,0,.639,1.767,2.009,2.009,0,0,0,1.555.673,2.2,2.2,0,0,0,1.135-.273,2.851,2.851,0,0,0,.813-.725l.772.6A3.106,3.106,0,0,1,218.924,15.137Zm-.157-6.631a1.687,1.687,0,0,0-1.285.557,2.708,2.708,0,0,0-.643,1.562h3.705v-.1a2.409,2.409,0,0,0-.52-1.494A1.588,1.588,0,0,0,218.767,8.506ZM232.562,10.4h-4.313v3.527h5.011V15h-6.323V5.047h6.255V6.12h-4.942V9.326h4.313Zm1.825.841a4.333,4.333,0,0,1,.807-2.738,2.745,2.745,0,0,1,4.17-.147V4.5h1.265V15h-1.162l-.062-.793a2.575,2.575,0,0,1-2.112.93,2.526,2.526,0,0,1-2.1-1.053,4.382,4.382,0,0,1-.81-2.748Zm1.265.144a3.281,3.281,0,0,0,.52,1.969,1.68,1.68,0,0,0,1.436.711,1.845,1.845,0,0,0,1.757-1.08v-3.4a1.859,1.859,0,0,0-1.743-1.046,1.687,1.687,0,0,0-1.449.718A3.612,3.612,0,0,0,235.652,11.384Zm11.5,2.885a2.686,2.686,0,0,1-2.167.868,2.3,2.3,0,0,1-1.8-.687,2.974,2.974,0,0,1-.625-2.034V7.6h1.265v4.778q0,1.682,1.367,1.682a1.893,1.893,0,0,0,1.928-1.08V7.6h1.265V15h-1.2Zm6.118-.164a1.822,1.822,0,0,0,1.183-.41,1.443,1.443,0,0,0,.561-1.025h1.2a2.293,2.293,0,0,1-.437,1.21,2.881,2.881,0,0,1-1.077.916,3.107,3.107,0,0,1-1.425.342,3.047,3.047,0,0,1-2.4-1.008,4.016,4.016,0,0,1-.892-2.758v-.212a4.453,4.453,0,0,1,.4-1.921,3.02,3.02,0,0,1,1.138-1.306,3.233,3.233,0,0,1,1.753-.465,2.966,2.966,0,0,1,2.068.745,2.663,2.663,0,0,1,.878,1.935h-1.2a1.743,1.743,0,0,0-.543-1.179,1.691,1.691,0,0,0-1.207-.461,1.77,1.77,0,0,0-1.494.694,3.259,3.259,0,0,0-.53,2.006v.239a3.194,3.194,0,0,0,.526,1.969A1.779,1.779,0,0,0,253.275,14.1Zm8.928.9a2.657,2.657,0,0,1-.178-.779,2.822,2.822,0,0,1-2.105.916,2.611,2.611,0,0,1-1.794-.619,2,2,0,0,1-.7-1.569,2.091,2.091,0,0,1,.878-1.794,4.141,4.141,0,0,1,2.471-.639H262V9.935a1.42,1.42,0,0,0-.4-1.056,1.593,1.593,0,0,0-1.169-.393,1.844,1.844,0,0,0-1.135.342,1.007,1.007,0,0,0-.458.827h-1.271a1.745,1.745,0,0,1,.393-1.07,2.683,2.683,0,0,1,1.066-.817,3.588,3.588,0,0,1,1.48-.3,2.924,2.924,0,0,1,2,.639,2.306,2.306,0,0,1,.752,1.76v3.4a4.162,4.162,0,0,0,.26,1.62V15Zm-2.1-.964a2.223,2.223,0,0,0,1.128-.308,1.861,1.861,0,0,0,.772-.8V11.411h-.991q-2.324,0-2.324,1.36a1.151,1.151,0,0,0,.4.93A1.524,1.524,0,0,0,260.1,14.036Zm8.114.068a1.822,1.822,0,0,0,1.183-.41,1.443,1.443,0,0,0,.561-1.025h1.2a2.293,2.293,0,0,1-.437,1.21,2.882,2.882,0,0,1-1.077.916,3.107,3.107,0,0,1-1.425.342,3.047,3.047,0,0,1-2.4-1.008,4.016,4.016,0,0,1-.892-2.758v-.212a4.453,4.453,0,0,1,.4-1.921,3.02,3.02,0,0,1,1.138-1.306,3.233,3.233,0,0,1,1.753-.465,2.966,2.966,0,0,1,2.068.745,2.663,2.663,0,0,1,.878,1.935h-1.2a1.743,1.743,0,0,0-.543-1.179,1.691,1.691,0,0,0-1.207-.461,1.77,1.77,0,0,0-1.494.694,3.259,3.259,0,0,0-.53,2.006v.239a3.194,3.194,0,0,0,.526,1.969A1.779,1.779,0,0,0,268.218,14.1Zm5.735.9h-1.265V7.6h1.265Zm-1.367-9.358a.755.755,0,0,1,.188-.52.706.706,0,0,1,.557-.212.717.717,0,0,1,.561.212.747.747,0,0,1,.191.52.722.722,0,0,1-.191.513.73.73,0,0,1-.561.205.718.718,0,0,1-.557-.205A.73.73,0,0,1,272.586,5.642Zm3.056,5.592a4.369,4.369,0,0,1,.427-1.955,3.187,3.187,0,0,1,1.189-1.34A3.238,3.238,0,0,1,279,7.467a3.119,3.119,0,0,1,2.444,1.046,4.024,4.024,0,0,1,.933,2.782v.089a4.407,4.407,0,0,1-.414,1.938,3.14,3.14,0,0,1-1.183,1.336,3.275,3.275,0,0,1-1.767.479,3.111,3.111,0,0,1-2.437-1.046,4,4,0,0,1-.933-2.769Zm1.271.15a3.164,3.164,0,0,0,.571,1.976,1.934,1.934,0,0,0,3.059-.01,3.46,3.46,0,0,0,.567-2.116,3.159,3.159,0,0,0-.578-1.972A1.836,1.836,0,0,0,279,8.506a1.816,1.816,0,0,0-1.511.745A3.435,3.435,0,0,0,276.914,11.384ZM279.573,4.5H281.1l-1.832,2.01-1.019,0Zm5.585,3.1.041.93a2.7,2.7,0,0,1,2.215-1.066q2.345,0,2.365,2.646V15h-1.265V10.105a1.7,1.7,0,0,0-.366-1.183,1.466,1.466,0,0,0-1.118-.383,1.825,1.825,0,0,0-1.08.328,2.228,2.228,0,0,0-.725.861V15h-1.265V7.6Zm9.687,3.637a4.333,4.333,0,0,1,.807-2.738,2.745,2.745,0,0,1,4.17-.147V4.5h1.265V15h-1.162l-.062-.793a2.575,2.575,0,0,1-2.112.93,2.526,2.526,0,0,1-2.1-1.053,4.382,4.382,0,0,1-.81-2.748Zm1.265.144a3.281,3.281,0,0,0,.52,1.969,1.68,1.68,0,0,0,1.436.711,1.845,1.845,0,0,0,1.757-1.08v-3.4a1.859,1.859,0,0,0-1.743-1.046,1.687,1.687,0,0,0-1.449.718A3.612,3.612,0,0,0,296.109,11.384Zm10.008,3.753a3.232,3.232,0,0,1-2.447-.988,3.666,3.666,0,0,1-.943-2.642v-.232a4.438,4.438,0,0,1,.42-1.965,3.28,3.28,0,0,1,1.176-1.354,2.956,2.956,0,0,1,1.637-.489,2.77,2.77,0,0,1,2.242.95,4.114,4.114,0,0,1,.8,2.721v.526h-5.011a2.629,2.629,0,0,0,.639,1.767,2.009,2.009,0,0,0,1.555.673,2.2,2.2,0,0,0,1.135-.273,2.851,2.851,0,0,0,.813-.725l.772.6A3.106,3.106,0,0,1,306.117,15.137Zm-.157-6.631a1.687,1.687,0,0,0-1.285.557,2.708,2.708,0,0,0-.643,1.562h3.705v-.1a2.409,2.409,0,0,0-.52-1.494A1.588,1.588,0,0,0,305.959,8.506Zm15.49,3.336a3.662,3.662,0,0,1-1.166,2.437,3.82,3.82,0,0,1-2.608.858,3.507,3.507,0,0,1-2.827-1.265,5.088,5.088,0,0,1-1.063-3.384V9.531a5.671,5.671,0,0,1,.5-2.44,3.7,3.7,0,0,1,1.4-1.617,3.911,3.911,0,0,1,2.105-.564,3.6,3.6,0,0,1,2.543.885,3.706,3.706,0,0,1,1.114,2.451H320.13a2.86,2.86,0,0,0-.742-1.728,2.244,2.244,0,0,0-1.6-.535,2.348,2.348,0,0,0-1.972.93,4.272,4.272,0,0,0-.714,2.648v.965a4.391,4.391,0,0,0,.677,2.579,2.187,2.187,0,0,0,1.894.958,2.526,2.526,0,0,0,1.678-.5,2.75,2.75,0,0,0,.776-1.726Zm1.258-.608a4.369,4.369,0,0,1,.427-1.955,3.187,3.187,0,0,1,1.189-1.34,3.238,3.238,0,0,1,1.74-.472,3.119,3.119,0,0,1,2.444,1.046,4.024,4.024,0,0,1,.933,2.782v.089a4.407,4.407,0,0,1-.414,1.938,3.14,3.14,0,0,1-1.183,1.336,3.275,3.275,0,0,1-1.767.479,3.111,3.111,0,0,1-2.437-1.046,4,4,0,0,1-.933-2.769Zm1.271.15a3.164,3.164,0,0,0,.571,1.976,1.934,1.934,0,0,0,3.059-.01,3.46,3.46,0,0,0,.567-2.116,3.159,3.159,0,0,0-.578-1.972,1.836,1.836,0,0,0-1.535-.755,1.816,1.816,0,0,0-1.511.745A3.435,3.435,0,0,0,323.979,11.384ZM332.4,15h-1.265V4.5H332.4Zm1.688-3.767a4.369,4.369,0,0,1,.427-1.955,3.187,3.187,0,0,1,1.189-1.34,3.238,3.238,0,0,1,1.74-.472,3.119,3.119,0,0,1,2.444,1.046,4.024,4.024,0,0,1,.933,2.782v.089a4.407,4.407,0,0,1-.414,1.938,3.14,3.14,0,0,1-1.183,1.336,3.275,3.275,0,0,1-1.767.479,3.111,3.111,0,0,1-2.437-1.046,4,4,0,0,1-.933-2.769Zm1.271.15a3.164,3.164,0,0,0,.571,1.976,1.934,1.934,0,0,0,3.059-.01,3.46,3.46,0,0,0,.567-2.116,3.159,3.159,0,0,0-.578-1.972,1.836,1.836,0,0,0-1.535-.755,1.816,1.816,0,0,0-1.511.745A3.435,3.435,0,0,0,335.361,11.384ZM343.6,7.6l.034.82a2.732,2.732,0,0,1,2.194-.957,2.115,2.115,0,0,1,2.112,1.189,2.8,2.8,0,0,1,.96-.861,2.837,2.837,0,0,1,1.4-.328q2.434,0,2.475,2.577V15h-1.265V10.119a1.7,1.7,0,0,0-.362-1.186,1.6,1.6,0,0,0-1.217-.393,1.677,1.677,0,0,0-1.169.42,1.706,1.706,0,0,0-.54,1.131V15h-1.271V10.153a1.411,1.411,0,0,0-1.579-1.613,1.692,1.692,0,0,0-1.7,1.06V15H342.4V7.6Zm17.343,3.78a4.4,4.4,0,0,1-.779,2.724,2.49,2.49,0,0,1-2.092,1.029,2.578,2.578,0,0,1-2.167-.991l-.062.854h-1.162V4.5h1.265V8.417a2.564,2.564,0,0,1,2.112-.95,2.505,2.505,0,0,1,2.116,1.019,4.53,4.53,0,0,1,.769,2.789Zm-1.265-.144a3.417,3.417,0,0,0-.5-2,1.652,1.652,0,0,0-1.436-.7,1.857,1.857,0,0,0-1.8,1.162v3.2a1.909,1.909,0,0,0,1.812,1.162,1.643,1.643,0,0,0,1.415-.7A3.634,3.634,0,0,0,359.676,11.24ZM363.908,15h-1.265V7.6h1.265Zm-1.367-9.358a.755.755,0,0,1,.188-.52.706.706,0,0,1,.557-.212.717.717,0,0,1,.561.212.747.747,0,0,1,.191.52.722.722,0,0,1-.191.513.73.73,0,0,1-.561.205.718.718,0,0,1-.557-.205A.73.73,0,0,1,362.541,5.642ZM370.5,15a2.657,2.657,0,0,1-.178-.779,2.822,2.822,0,0,1-2.105.916,2.611,2.611,0,0,1-1.794-.619,2,2,0,0,1-.7-1.569,2.091,2.091,0,0,1,.878-1.794,4.141,4.141,0,0,1,2.471-.639h1.23V9.935a1.42,1.42,0,0,0-.4-1.056,1.593,1.593,0,0,0-1.169-.393,1.844,1.844,0,0,0-1.135.342,1.007,1.007,0,0,0-.458.827H365.87a1.745,1.745,0,0,1,.393-1.07,2.683,2.683,0,0,1,1.066-.817,3.588,3.588,0,0,1,1.48-.3,2.924,2.924,0,0,1,2,.639,2.306,2.306,0,0,1,.752,1.76v3.4a4.162,4.162,0,0,0,.26,1.62V15Zm-2.1-.964a2.223,2.223,0,0,0,1.128-.308,1.861,1.861,0,0,0,.772-.8V11.411h-.991q-2.324,0-2.324,1.36a1.151,1.151,0,0,0,.4.93A1.524,1.524,0,0,0,368.4,14.036Zm8.565-3.076a10.568,10.568,0,0,1,.414-2.967,8.619,8.619,0,0,1,1.234-2.584,5.249,5.249,0,0,1,1.7-1.641l.26.834a5.444,5.444,0,0,0-1.637,2.338,10.135,10.135,0,0,0-.7,3.521l-.007.581a10.188,10.188,0,0,0,.964,4.58,5.47,5.47,0,0,0,1.381,1.818l-.26.772a5.418,5.418,0,0,1-1.736-1.7A9.5,9.5,0,0,1,376.964,10.96ZM388.189,15h-6.521v-.909l3.445-3.828a8.186,8.186,0,0,0,1.056-1.412,2.356,2.356,0,0,0,.291-1.125,1.786,1.786,0,0,0-.472-1.278,1.649,1.649,0,0,0-1.258-.5,1.953,1.953,0,0,0-1.466.537,2.05,2.05,0,0,0-.523,1.494h-1.265a2.936,2.936,0,0,1,.885-2.222,3.282,3.282,0,0,1,2.369-.848,3.153,3.153,0,0,1,2.194.728,2.483,2.483,0,0,1,.807,1.938q0,1.47-1.873,3.5l-2.666,2.892h5Zm7.581-4.245a5.784,5.784,0,0,1-.759,3.3,3.153,3.153,0,0,1-4.73.024,5.49,5.49,0,0,1-.793-3.155V9.237a5.655,5.655,0,0,1,.759-3.261,3.21,3.21,0,0,1,4.744-.038,5.458,5.458,0,0,1,.779,3.175Zm-1.265-1.729a4.634,4.634,0,0,0-.451-2.341,1.553,1.553,0,0,0-1.429-.735,1.532,1.532,0,0,0-1.415.731,4.525,4.525,0,0,0-.458,2.249v2.023a4.708,4.708,0,0,0,.468,2.382,1.55,1.55,0,0,0,1.418.769,1.529,1.529,0,0,0,1.391-.725,4.538,4.538,0,0,0,.475-2.283ZM401.546,15h-1.271V6.571l-2.55.937V6.359L401.348,5h.2Zm10.227,0h-6.521v-.909l3.445-3.828a8.186,8.186,0,0,0,1.056-1.412,2.356,2.356,0,0,0,.291-1.125,1.786,1.786,0,0,0-.472-1.278,1.649,1.649,0,0,0-1.258-.5,1.953,1.953,0,0,0-1.466.537,2.05,2.05,0,0,0-.523,1.494H405.06a2.936,2.936,0,0,1,.885-2.222,3.282,3.282,0,0,1,2.369-.848,3.153,3.153,0,0,1,2.194.728,2.483,2.483,0,0,1,.807,1.938q0,1.47-1.873,3.5l-2.666,2.892h5Zm4.389-3.972a10.574,10.574,0,0,1-.4,2.922,8.641,8.641,0,0,1-1.224,2.581,5.361,5.361,0,0,1-1.726,1.682l-.267-.772a5.5,5.5,0,0,0,1.692-2.505,10.839,10.839,0,0,0,.653-3.77v-.219a11.253,11.253,0,0,0-.3-2.669,9.009,9.009,0,0,0-.837-2.211,5.108,5.108,0,0,0-1.207-1.524l.267-.772a5.34,5.34,0,0,1,1.719,1.668,8.66,8.66,0,0,1,1.224,2.577A10.818,10.818,0,0,1,416.162,11.028Zm1.976,3.309a.792.792,0,0,1,.195-.547.742.742,0,0,1,.584-.219.765.765,0,0,1,.591.219.776.776,0,0,1,.2.547.734.734,0,0,1-.2.526.778.778,0,0,1-.591.212.7.7,0,0,1-.779-.738Z" transform="translate(198.605 13223)" fill="#12263f"/></g></g></svg>