<svg xmlns="http://www.w3.org/2000/svg" xmlns:xlink="http://www.w3.org/1999/xlink" width="59.465" height="47.091" viewBox="0 0 59.465 47.091"><defs><clipPath id="a"><rect width="59.465" height="47.091" fill="#eb6f2d"/></clipPath></defs><g clip-path="url(#a)"><path d="M1.965,27.335A11.9,11.9,0,0,0,.117,32.077a9.515,9.515,0,0,0,.728,5.47A8.935,8.935,0,0,0,4.7,41.491c4.376,2.39,9.714,1.793,14.355.6.032-.008.064-.018.1-.028a13.449,13.449,0,0,0,5.064,3.962,12.632,12.632,0,0,0,8.971.446,13.24,13.24,0,0,0,6.543-4.73,1.592,1.592,0,0,0,.66.35c4.064,1.044,8.718,1.687,12.741.129a10.289,10.289,0,0,0,4.905-3.687,8.624,8.624,0,0,0,1.431-4.991,12.31,12.31,0,0,0-5.257-9.582c-1.622-1.154-3.469-1.927-5.181-2.929-.385-.225-.746-.488-1.127-.718l-.031-.018-.027-.024c-.07-.063-.143-.122-.212-.187s-.129-.133-.2-.2l-.057-.052-.021-.033c-.052-.081-.1-.16-.151-.243,0,0-.061-.127-.1-.206-.038-.11-.113-.314-.1-.277-.043-.127-.084-.254-.125-.381-.2-.6-.384-1.21-.569-1.817-1.628-5.323-3.772-10.434-5.838-15.6a1.768,1.768,0,0,0-2.122-1.2,1.743,1.743,0,0,0-1.2,2.122c.634,1.585,1.29,3.167,1.938,4.752,1.15,2.819,2.272,5.651,3.192,8.547.354,1.114.683,2.235,1.033,3.35a9.483,9.483,0,0,0,1.371,3.095c1.176,1.522,3.135,2.381,4.8,3.25.834.435,1.668.876,2.458,1.388q.268.174.529.359c-.014-.01.149.111.222.165l.123.1a9.184,9.184,0,0,1,1.031,1c.07.079.461.6.225.264.105.148.215.292.317.442a11.627,11.627,0,0,1,.631,1.038q.143.265.271.538c.032.068.062.138.094.206.12.394.283.771.389,1.171.088.333.144.67.21,1.007-.092-.471.007.11.015.235.013.188.021.376.021.565s-.006.374-.019.561c-.006.081-.019.163-.021.243a8.27,8.27,0,0,1-.259,1.053c-.039.117-.239.569-.048.167-.072.151-.14.3-.218.45q-.134.252-.29.491c-.047.072-.1.142-.144.213l-.037.056-.009.009c-.273.27-.51.568-.8.823-.066.058-.134.113-.2.17l-.007,0c-.2.144-.408.283-.622.411-.23.139-.467.267-.708.386-.1.049-.2.095-.3.141l-.091.044-.108.036a14.985,14.985,0,0,1-1.508.453q-.407.094-.819.161l-.187.028-.356.039c-.535.051-1.073.074-1.611.074-.57,0-1.14-.026-1.709-.072q-.426-.035-.851-.085l-.231-.029c-.036-.007-.312-.047-.323-.049-.946-.148-1.884-.345-2.814-.574q.174-.279.345-.561c.247-.409.473-.833.728-1.237.132-.209.275-.411.418-.612l.046-.063a2.312,2.312,0,0,0,.223.083,8.762,8.762,0,0,0,1.179.234,6.943,6.943,0,0,0,3.3,0A2.891,2.891,0,0,0,49.9,33.243a2.668,2.668,0,0,0-1.986-2,7.392,7.392,0,0,0-2.184-.107,1.788,1.788,0,0,0-.336.045c-.041.005-.081.01-.122.017a6.531,6.531,0,0,0-1.389.395,4.988,4.988,0,0,0-1.4.733,8.48,8.48,0,0,0-1.037.922,11.294,11.294,0,0,0-.926,1.106c-.481.65-.91,1.344-1.332,2.049-.462.772-.947,1.532-1.463,2.269-.218.311-.439.62-.658.93-.046.066-.093.131-.14.2l-.052.068-.123.149q-.1.122-.208.242-.342.386-.717.741-.2.19-.411.37c-.055.047-.3.248-.276.231a11.506,11.506,0,0,1-1.785,1.1c-.155.077-.313.148-.47.221l-.185.072a11.358,11.358,0,0,1-1.1.355q-.483.128-.976.213l-.156.025c-.2.016-.4.039-.6.05-.331.018-.662.019-.993.006-.178-.007-.356-.015-.533-.028-.088-.006-.369-.038-.345-.031a10.169,10.169,0,0,1-1.951-.509c-.069-.025-.256-.1-.262-.1q-.2-.088-.391-.183-.49-.242-.955-.53-.234-.145-.461-.3-.1-.067-.193-.136l-.154-.113-.063-.05-.183-.152q-.244-.206-.476-.425-.38-.358-.729-.747-.189-.211-.368-.43l-.1-.129-.073-.1c-.477-.681-.943-1.368-1.354-2.091-.443-.781-.9-1.6-1.408-2.378a12.687,12.687,0,0,0-1.534-1.959c-.125-.128-.252-.253-.385-.372A6.236,6.236,0,0,0,15.1,31.7,6.113,6.113,0,0,0,13.48,31.2c-.031-.005-.062-.008-.092-.012a1.912,1.912,0,0,0-.366-.049c-1.45-.053-3.058-.051-3.9,1.371a2.931,2.931,0,0,0,1.067,3.955,5.657,5.657,0,0,0,3.541.311c.427-.06.85-.143,1.272-.232a2.431,2.431,0,0,0,.475-.154,11.483,11.483,0,0,1,.665,1.011c.312.545.639,1.081.962,1.619-.62.142-1.243.271-1.871.376-.216.036-.433.069-.65.1l-.07.01-.339.04c-.51.056-1.023.1-1.536.119s-1.024.025-1.535.006q-.339-.013-.677-.039-.168-.013-.337-.03c-.015,0-.345-.044-.325-.039-.4-.063-.8-.14-1.2-.24q-.362-.091-.718-.2-.158-.05-.314-.105l-.317-.117-.191-.082q-.15-.07-.3-.144-.323-.163-.634-.349-.257-.154-.5-.326c-.038-.026-.075-.054-.112-.081-.015-.016-.189-.156-.215-.178a10.083,10.083,0,0,1-.76-.772l-.023-.025c-.044-.067-.094-.13-.139-.2q-.178-.263-.33-.542c-.065-.12-.124-.242-.182-.365.023.042-.078-.2-.114-.308a7.992,7.992,0,0,1-.264-1.079L3.452,34.4c0-.046,0-.092,0-.115q-.022-.28-.023-.56,0-.251.013-.5.009-.158.023-.315c0-.031.019-.149.027-.211l.015-.088q.023-.126.049-.252.053-.253.119-.5c.1-.381.23-.75.367-1.119l.009-.025c.026-.058.051-.116.078-.173q.127-.273.268-.539a11.656,11.656,0,0,1,.625-1.041c.093-.138.191-.274.289-.408-.066.094.166-.21.238-.293a9.1,9.1,0,0,1,1.023-1.008c.053-.045.107-.088.161-.132.035-.026.145-.11.181-.136q.259-.187.527-.361c.426-.279.866-.537,1.311-.784a36.589,36.589,0,0,0,5.064-2.95c1.789-1.408,2.219-3.694,2.851-5.766,1.05-3.442,2.35-6.791,3.693-10.125.645-1.6,1.3-3.2,1.94-4.8a1.73,1.73,0,0,0-1.2-2.122,1.776,1.776,0,0,0-2.122,1.2c-1.837,4.592-3.84,9.145-5.31,13.873-.367,1.18-.715,2.366-1.1,3.541-.065.2-.126.4-.2.6-.008.013-.069.155-.1.2-.056.1-.119.2-.18.3l.009-.008-.01.01,0,.008a.322.322,0,0,1-.1.1c-.025.029-.05.057-.076.083-.066.066-.134.13-.2.192-.052.046-.154.123-.191.15-1.6,1.108-3.4,1.869-5.07,2.852a13.237,13.237,0,0,0-4.482,4.154M53.974,37.9c.069-.053.217-.154,0,0M13.8,34.884c.17.054.1.042,0,0m.8,4.606h0M3.471,34.537a.163.163,0,0,1-.015-.064.381.381,0,0,0,.015.064" transform="translate(0 0)" fill="#eb6f2d"/></g></svg>