<svg xmlns="http://www.w3.org/2000/svg" xmlns:xlink="http://www.w3.org/1999/xlink" width="400" height="283" viewBox="0 0 400 283"><defs><clipPath id="a"><rect width="400" height="283" transform="translate(1020 8500)" fill="#fff" opacity="0.53"/></clipPath><clipPath id="b"><rect width="400" height="294.217" fill="none"/></clipPath><clipPath id="d"><path d="M86.787,19.757C72.56,22.813,58.748,29.3,49.818,39.976,37.4,54.824,36.221,75.239,38.823,93.848a128.366,128.366,0,0,0,12.2,40.428c5.566,10.972,9.09,21.165,20.642,28.3,13.054,8.49,30.438,10.057,45.888,6.347,14.572-3.5,28.61-12.389,34.068-25.85,6.471-15.957,5.059-38.074,4.291-54.87-.66-14.44-2.746-29.137-9.633-42.113s-19.239-24.1-34.529-27.169A49.484,49.484,0,0,0,102.023,18a72.934,72.934,0,0,0-15.237,1.758" transform="translate(-37.689 -17.999)" fill="none"/></clipPath><linearGradient id="e" x1="-0.018" y1="1.618" x2="-0.014" y2="1.618" gradientUnits="objectBoundingBox"><stop offset="0" stop-color="#85a63c"/><stop offset="1" stop-color="#36593f"/></linearGradient><clipPath id="f"><rect width="400" height="285.21" fill="none"/></clipPath><clipPath id="g"><path d="M367.05,2.427a55.412,55.412,0,0,0-37.207,25.824c-7.383,12.3-9.565,26.206-10.206,39.865-.745,15.886-2.161,36.81,4.919,51.876,5.973,12.71,21.2,21.066,36.978,24.319,25.588,5.275,56.558-2.512,70.205-21.807,15.1-21.343,16.3-50.873,10.055-74.314C434.872,22.216,413.8,1.1,381.508,1.1A82.085,82.085,0,0,0,367.05,2.427" transform="translate(-318.999 -1.098)" fill="none"/></clipPath><linearGradient id="h" x1="-1.186" y1="1.55" x2="-1.182" y2="1.55" gradientUnits="objectBoundingBox"><stop offset="0" stop-color="#85a63c"/><stop offset="1" stop-color="#f2cb04"/></linearGradient><clipPath id="j"><path d="M232.4,1.491c-25.307,5.329-34.169,27.8-36.065,49.278q-1.106,12.523-1.308,25.095c-.164,10.2.154,20.6,3.728,30.253,8.242,22.262,36.364,31.945,60.025,26.366,12.8-3.018,25.154-10.77,30-22.563,5.744-13.979,4.595-33.39,3.991-48.13-.52-12.673-2.29-25.575-8.28-36.987S267.7,3.586,254.3.845A43.438,43.438,0,0,0,245.571,0,64.269,64.269,0,0,0,232.4,1.491" transform="translate(-194.989 -0.001)" fill="none"/></clipPath><linearGradient id="k" x1="-0.904" y1="1.912" x2="-0.899" y2="1.912" gradientUnits="objectBoundingBox"><stop offset="0" stop-color="#4e7343"/><stop offset="1" stop-color="#a67d03"/></linearGradient><clipPath id="l"><rect width="400" height="279.539" fill="none"/></clipPath><clipPath id="m"><path d="M124.43,307.785c-16.587,15.323-16.587,45.183-16.587,45.183L158.88,373.4l66.772-5.108-.85-10.215s-13.185-60.9-44.232-27.11c-12.632-22.595-25.1-32.009-36.746-32.011-6.784,0-13.289,3.191-19.394,8.83" transform="translate(-107.843 -298.955)" fill="none"/></clipPath><linearGradient id="n" x1="-0.691" y1="1.147" x2="-0.685" y2="1.147" xlink:href="#k"/><clipPath id="o"><path d="M35.529,291.087c11.136,25.8,28.2,26.85,28.2,26.85l3.215,12.754,2.092.129-3.259-13.06s7.531-9.726.056-44.4-38.455-41.192-38.455-41.192-2.983,33.116,8.154,58.915" transform="translate(-27.012 -232.172)" fill="none"/></clipPath><linearGradient id="p" x1="0.109" y1="2.246" x2="0.116" y2="2.246" xlink:href="#e"/><clipPath id="q"><path d="M35.529,291.369c8.3,19.235,19.9,24.711,25.26,26.254l4.986.419s-4.971-29.1-13.928-45.98c-5.655-10.661-16.957-27.781-24.522-38.956-.344,4.739-2.018,34.582,8.2,58.263" transform="translate(-27.012 -233.106)" fill="none"/></clipPath><linearGradient id="r" x1="-0.021" y1="1.461" x2="-0.01" y2="1.461" xlink:href="#e"/><clipPath id="s"><path d="M73.524,295.183c2.2,8.384,6.093,16.888,12.986,22.922.517.454,8.063,4.9,8.063,4.934s-.039,14.169-.039,14.169l2.168.615c.023-4.52-1.162-11.032.629-14.981,2.152-4.742,6.792-7.469,8.647-12.76a71.405,71.405,0,0,0,4-19.932,79.435,79.435,0,0,0-10.592-43.138c-4.813-8.481-10.991-16.669-12.392-26.157-13.266,21.174-19.785,50.255-13.466,74.328" transform="translate(-71.092 -220.855)" fill="none"/></clipPath><linearGradient id="t" x1="-0.461" y1="1.162" x2="-0.451" y2="1.162" xlink:href="#e"/><clipPath id="u"><path d="M73.524,296.6c2.2,8.384,6.093,16.888,12.986,22.922.081.071.335.241.708.477l3.39-.52s.967-29.46-3.227-53.664a201.691,201.691,0,0,1-2.342-40.273C73.1,246.373,67.524,273.741,73.524,296.6" transform="translate(-71.093 -225.541)" fill="none"/></clipPath><linearGradient id="v" x1="-1.304" y1="1.431" x2="-1.282" y2="1.431" gradientUnits="objectBoundingBox"><stop offset="0" stop-color="#85a63c"/><stop offset="0.134" stop-color="#85a63c"/><stop offset="1" stop-color="#36593f"/></linearGradient><clipPath id="x"><path d="M117.253,258.683c-7.871,17.753-6.816,41.7.6,63.113l-1.366,5.5,2.581,1.787,2.29-7.218c.024-.008.053-.021.076-.029l10.863-61.512,6.95-31.292c-3.572,3.255-15.368,14.706-21.991,29.646" transform="translate(-111.803 -229.037)" fill="none"/></clipPath><linearGradient id="y" x1="-1.874" y1="1.324" x2="-1.855" y2="1.324" xlink:href="#v"/><clipPath id="aa"><path d="M22.188,268.533c4.528,18.838,14.779,58.732,26.731,87.332,7.1-3.477,14.639-7.03,14.639-7.03,2-48.075-40.756-80.85-40.756-80.85s-.23.189-.614.548" transform="translate(-22.188 -267.985)" fill="none"/></clipPath><linearGradient id="ab" x1="-0.101" y1="1.168" x2="-0.089" y2="1.168" xlink:href="#e"/><clipPath id="ad"><path d="M267.676,319.9c-19.563,4.322-14.46,49.9-14.46,49.9L298.3,377.66c1.607-24.5-9.69-58.111-27.439-58.111a14.788,14.788,0,0,0-3.183.354" transform="translate(-252.616 -319.549)" fill="none"/></clipPath><linearGradient id="ae" x1="-3.597" y1="1.226" x2="-3.582" y2="1.226" gradientUnits="objectBoundingBox"><stop offset="0" stop-color="#4e7343"/><stop offset="0.204" stop-color="#45704a"/><stop offset="0.522" stop-color="#2f6860"/><stop offset="0.912" stop-color="#0c5b83"/><stop offset="1" stop-color="#03588c"/></linearGradient><clipPath id="af"><rect width="400" height="307.996" fill="none"/></clipPath><clipPath id="ag"><path d="M388.369,246.72c-1.918.539-7.857,25.254,4.658,38.739l.878,6.123a71.009,71.009,0,0,0-8.3-11.081c-6.3-6.677-12.364-11.8-17.511-12.022-4.949-.214,9.236,18.706,26.323,26.647l.939,6.547c-2.982-3.029-12.768-12.574-21.028-16.072-9.876-4.18-11.95-3.2-12.494-1.532-.495,1.51,28.3,15.569,33.6,18.141l1.013,7.066a48.721,48.721,0,0,0-14.233-11.283c-9.948-5.066-15.915-8.63-19.571-5.49-3.483,2.99,24.277,15.867,34.036,18.392l1.267,8.838c-3.14-2.432-11.179-8.421-17.885-11.369-8.534-3.749-16.576-6.33-17.21-1.62-.564,4.192,28.754,12.057,35.2,13.734l1.037,7.23c-3.24-1.833-12.512-6.894-19.112-8.645-8.121-2.155-13.947-2.637-15.382,1.29-1.288,3.524,28.458,7.189,34.572,7.9l1.27,8.855c-4.657-1.963-24.849-10.332-31.075-10.542-7.055-.238-8.529,3.9-3.174,6.932,4.8,2.713,29.245,3.793,34.3,3.99l3.793,26.458,2.047-.251-2.843-19.833c3.368-1.093,18.428-6.219,24.6-12.407,6.97-6.989,7.569-12.8,1.082-10.978-5.812,1.63-22.361,19.271-25.747,22.93l-1.369-9.555c6.1-3.463,29.212-17.142,28.093-24.963-1.2-8.378-21.7,12.1-28.315,23.412l-1.214-8.466c4.654-3.167,28.1-19.575,26.162-27.563-2.046-8.44-21.332,14.888-26.322,26.454l-1.541-10.748c3.088-2.746,22.421-20.01,24.906-24.041,2.7-4.383-.2-7.9-8.658-1.8-7.419,5.347-14.646,21.474-16.316,25.369L397.308,300.8c4.119-3.671,22.094-19.79,24.485-23.667,2.7-4.383-.2-7.9-8.658-1.8-6.98,5.03-13.787,19.6-15.959,24.546l-.819-5.716c1.909-2.815,6.637-9.848,12.253-18.669,7.334-11.522,13.531-16.884,8.517-19.2-4.684-2.169-18.378,13.137-21.239,34.6l-.75-5.23c1.433-4.231,5.3-17.174,2.458-26.111-3.155-9.91-6.6-12.893-8.687-12.894a2,2,0,0,0-.539.072" transform="translate(-361.823 -246.648)" fill="none"/></clipPath><linearGradient id="ah" x1="-2.102" y1="0.969" x2="-2.095" y2="0.969" xlink:href="#h"/><clipPath id="ai"><path d="M469.835,271.268c-4.708,8.887-3.189,23.05-2.5,27.808l-1.791,5.336c1.121-23-10.281-41.314-15.622-39.813-5.726,1.61-.249,8.278,5.227,21.616,4.175,10.169,7.769,18.326,9.241,21.631l-1.967,5.862c-1.338-5.624-5.661-21.986-12-28.413-7.716-7.818-11.451-4.6-9.46.461,1.758,4.465,17.469,24.326,21.135,28.929l-3.688,10.985c-1.024-4.474-5.483-22.511-12.219-29.336-7.717-7.819-11.451-4.6-9.459.459,1.826,4.64,18.716,25.9,21.5,29.394l-3.7,11.023C451.5,324.192,435.786,296.544,432,305.071c-3.582,8.067,17.8,29.153,22.14,33.312l-2.914,8.682c-4.782-13-22.333-37.885-25.22-29.28-2.693,8.031,18.894,26.212,24.675,30.9l-3.293,9.812c-2.9-4.481-16.823-25.688-22.607-28.36-6.472-2.99-6.969,3.219-1,11.728,5.275,7.512,20.051,15.38,23.439,17.118l-4.111,11.183,2.165.62,6.4-17.993c5.431.64,31.268,3.544,36.83,1.488,6.223-2.3,5.476-6.9-1.992-7.818-6.575-.81-29.351,4.617-34.7,5.927l3.054-9.1c6.644.265,38.542,1.334,37.872-2.58-.747-4.369-6.969-4.83-15.931-3.909-7.261.745-17.951,4.509-21.748,5.911l2.493-7.425c7.174-.7,39.445-4.107,39.666-8.6.249-5.059-8.712-3.679-18.42-1.15-7.6,1.98-17.179,6.918-20.983,8.971l3.044-9.069c10.789-1.052,42.426-9.978,39.346-13.7-3.236-3.909-10.206-1.15-21.656,2.53a53.906,53.906,0,0,0-17.121,9.472l2.431-7.24c6.173-1.857,39.06-11.833,38.834-13.5-.248-1.84-2.24-3.22-13.441-.46-9.335,2.3-21.427,10.662-25.2,13.388l2.254-6.711c19.505-5.531,38.079-23.058,32.834-23.655-5.457-.621-12.832,3.763-20.758,9.742a78.753,78.753,0,0,0-10.836,10.22l2.1-6.256c15.752-12.12,14.3-39.076,12.39-39.96a2.246,2.246,0,0,0-.948-.195c-2.285,0-6.3,2.815-11.249,12.152" transform="translate(-419.599 -259.116)" fill="none"/></clipPath><linearGradient id="aj" x1="-2.804" y1="0.96" x2="-2.797" y2="0.96" xlink:href="#ae"/><clipPath id="ak"><path d="M392.319,368.527c-33.755,14.237-34.169,38.647-34.169,38.647.743-.655,111.423,0,111.423,0,3.6-17.486-21.951-43.451-53.867-43.449a59.876,59.876,0,0,0-23.387,4.8" transform="translate(-358.15 -363.725)" fill="none"/></clipPath><linearGradient id="al" x1="-3.326" y1="0.704" x2="-3.317" y2="0.704" xlink:href="#v"/><clipPath id="am"><path d="M27.155,356.483c-11.931,8.38-27.744,26.173-27.138,41,25.822-.844,51.932-.053,77.818-.053h82.933s-11.482-21.216-41.466-40.665A87.569,87.569,0,0,0,71.936,342.7a77.53,77.53,0,0,0-44.781,13.779" transform="translate(-0.001 -342.704)" fill="none"/></clipPath><linearGradient id="an" x1="-0.136" y1="0.676" x2="-0.13" y2="0.676" xlink:href="#v"/><clipPath id="ao"><path d="M200.426,378.881c8.293,10.607,5.741,16.5,5.741,16.5-15.311-14.145-26.156-11.2-26.156-11.2,11.484,10.019,12.121,14.145,12.121,14.145-16.587-4.126-24.88-1.179-24.88-1.179s8.931,7.073,9.569,10.609l10.846.589h49.759L257.2,385.364s-23.6,1.179-25.519,11.786c-1.276-10.019,9.569-17.68,9.569-17.68C228.5,377.7,218.289,394.2,218.289,394.2c-3.7-14.16-13.53-15.375-16.794-15.375a8.977,8.977,0,0,0-1.069.052" transform="translate(-167.253 -378.829)" fill="#00261d"/></clipPath></defs><g transform="translate(-1020 -8500)" clip-path="url(#a)"><g transform="translate(1020 8484.392)"><g transform="translate(0 7.634)"><g clip-path="url(#b)"><path d="M54.647,265.694S1.06,13.157,213.5,13.157,378.088,298.008,378.088,298.008l-320.252-.823Z" transform="translate(-11.9 -3.977)" fill="#71d0ea"/><path d="M360.313,204.765c-13.526,4.97-24.889,14.125-34.623,24.269-1.611-11.471-9.738-21.146-18.415-29.338-5.529-5.221-11.53-10.182-18.653-13.242-16.51-7.094-36.835-2.51-50.944,8.239a60.2,60.2,0,0,0-23.288,39.522c-6.154-10.918-13.444-22.085-25.038-27.881-13.287-6.642-29.878-4.779-43.5,1.228A74.221,74.221,0,0,0,112.932,235.8c-2.5-15.692-12.131-31.025-27.432-37.673-10.787-4.687-22.83-2.911-32.909,2.707-10,60.886,2.057,118.8,2.057,118.8L57.6,349.363H378.567c2.143-15.233,10.151-82.37-4.365-147.9a60.253,60.253,0,0,0-13.888,3.3" transform="translate(-11.901 -55.332)" fill="#afebf9"/></g></g><g transform="translate(0 7.634)"><g clip-path="url(#b)"><path d="M247.883,343.945s-.638-30.646,19.776-63.649l18.934,18.351-14.468-23.655s11.688-24.411,31.681-23.4,33.39,13.974,33.39,13.974l-10.845,22.984,16.7-19.173s15.2,10.923,21.581,28.013,1.276,67.186,1.276,67.186l-119.439-2.947Z" transform="translate(-60.32 -76.042)" fill="#4e7343"/><path d="M350.934,350.642S350.3,320,370.71,286.992l18.934,18.351-14.468-23.655s22.949-23.574,35.087-23.574c14.035,0,29.984,14.145,29.984,14.145L429.4,295.243l16.693-19.17c1.618-1.859,13.677,14.573,14.281,15.666a88.907,88.907,0,0,1,9.531,26.593,87.143,87.143,0,0,1-6.939,53.909c-37.57-2.487-75.586-2.986-113.451-3.92Z" transform="translate(-85.541 -78.024)" fill="#00261d"/><path d="M170.219,330.172s.638-33.593,4.466-43.611l19.776,8.84L176.6,280.078s1.718-14.891,18.722-32.787,30.384-9.211,35.814,4.421,6.068,20.115,6.068,20.115l-19.138,16.5,21.69-10.019s3.189,15.323,1.914,37.718a271.09,271.09,0,0,1-5.1,39.486l-67.623-2.946Z" transform="translate(-41.347 -71.699)" fill="#00261d"/></g></g><g transform="translate(28.465 29.198)"><g transform="translate(0 0)" clip-path="url(#d)"><path d="M0,0,168.227,3.966l4.627,184.385L4.627,184.385Z" transform="translate(-52.843 16.281) rotate(-18.934)" fill="url(#e)"/></g></g><g transform="translate(0 7.634)"><g transform="translate(0 9.007)" clip-path="url(#f)"><path d="M151.63,138.374c.43-1.148.807-2.3,1.125-3.362l-50.737,21.077-.235-20.4L138.1,114.862a1.787,1.787,0,0,0,.695.087c5.917-.308,11.557,2.034,17.351,2.594q.094-1.218.165-2.443a52.63,52.63,0,0,1-5.241-.939A61.44,61.44,0,0,0,142,112.622l8.958-5.138,5.59-3.207q-.009-1.291-.032-2.572L126.33,119.02A184.151,184.151,0,0,1,132.5,99.449a.964.964,0,0,0-.938-1.294,1.929,1.929,0,0,0-1.869,1.088,184,184,0,0,0-6.527,20.951,1.1,1.1,0,0,0,.013.631l-9.858,5.654-11.572,6.638-.381-33.085Q111.6,93.9,121.607,87.476l30.172-3.5,4.047-.469q-.066-1.158-.147-2.317l-26.13,3.03-3.541.411q9.088-5.914,17.986-12.057,4.869-3.365,9.673-6.806-.246-1.206-.524-2.406-15.779,11.295-32.188,21.854l-.434.051a1.829,1.829,0,0,0-1.537,1.211q-3.869,2.471-7.769,4.906-4.908,3.054-9.871,6.033l-.424-36.865a1.079,1.079,0,0,0-.02-.179c4.253-3.753,9.393-6.575,14.357-9.5l2.718-1.6c9.145.06,18.292-.32,27.391-1.153,1.671-.153,2.235-2.543.189-2.355q-11.739,1.074-23.546,1.131l10.037-5.916,8.17-4.815q-.735-.876-1.506-1.723l-15.467,9.115q-2.848,1.678-5.714,3.339a1.955,1.955,0,0,0-1.633.952q-1.84,1.074-3.671,2.163l7.306-28.893q-1.295-.5-2.628-.921-4.022,15.911-8.045,31.821c0,.009,0,.016,0,.026-.725.441-1.455.876-2.174,1.324a65.191,65.191,0,0,0-6.049,4.21q.059-19.766.424-39.532c-1.376.026-2.752.1-4.127.212q-.146,7.889-.242,15.779L83.3,20.564q-1.654.412-3.291.885l16.4,16.51a1.372,1.372,0,0,0,.231.186Q96.52,49.431,96.5,60.719L71.806,47.88c0-.018,0-.034-.01-.053L64.931,27.545c-.919.5-1.826,1.012-2.714,1.552q2.834,8.372,5.667,16.745L58.1,40.751l-6.412-3.334c-.542.561-1.073,1.131-1.585,1.718-.113.131-.22.265-.332.4L84.412,57.546l11.133,5.789a1.736,1.736,0,0,0,.95.183q-.012,12.118.1,24.236L74.194,76.478c-8.22-4.136-16.369-8.431-24.781-12.252-3.211-1.458-6.478-2.818-9.816-4.02q-.31,1.314-.56,2.644a193.191,193.191,0,0,1,19.122,8.635c.606.3,1.212.61,1.818.914q-11.041.67-22.109.864c-.032.789-.057,1.579-.067,2.369q13.069-.25,26.11-1.144a1.643,1.643,0,0,0,.167-.026Q73.656,79.278,83.23,84.1l13.4,6.743q.2,20.6.726,41.2a1.445,1.445,0,0,0,.147.607q-.011,1.605-.023,3.224-11.755-5.1-23.327-10.515c-.093-.526-.563-.913-1.541-.787l-.114.014q-15.023-7.052-29.735-14.619.633,2.212,1.35,4.4,11.062,5.625,22.3,10.966-8.611,1.016-17.255,1.751.639,1.355,1.316,2.7,10.344-.915,20.641-2.225,13.059,6.116,26.34,11.848c-.044,6.1-.087,12.3-.129,18.5l-.147.088,1.065,115.394,8.465-.257-4.584-114.184,49.507-20.567" transform="translate(-9.251 -5.84)" fill="#b5bf8f"/></g></g><g transform="translate(240.927 29.198)"><g clip-path="url(#g)"><path d="M0,0,177.437,10.153,189.519,187.76,12.082,177.607Z" transform="translate(-55.255 14.01) rotate(-17.888)" fill="url(#h)"/></g></g><g transform="translate(0 7.634)"><g clip-path="url(#b)"><path d="M438.343,98.068q-3.186,1.491-6.395,2.944c-4.334,1.968-8.692,3.9-13.052,5.826-7.364,3.254-14.547,6.457-21.955,9.633q-6.993,3-14.046,5.9-.012-1.656-.025-3.3a1.423,1.423,0,0,0,.159-.621q.586-21.092.785-42.188l14.492-6.9q10.357-4.934,20.714-9.868c.06.009.119.022.181.026q12.278.8,24.593,1.085c-.134-.761-.282-1.574-.446-2.427q-9.954-.235-19.891-.8l1.966-.937c5.223-2.481,10.5-4.915,15.923-7.057-.247-.909-.508-1.81-.782-2.693Q437.7,47.789,434.883,49c-9.1,3.913-17.912,8.312-26.8,12.547L383.845,73.094q.112-12.41.114-24.819a1.971,1.971,0,0,0,1.028-.187l12.041-5.928,33.335-16.411q-.859-1.126-1.837-2.282l-3.036,1.5L414.9,30.174q2.674-7.479,5.346-14.957c-.857-.739-1.754-1.487-2.7-2.245l-6.877,19.236c-.006.018-.005.036-.011.054L383.956,45.41q-.025-11.559-.156-23.117a1.551,1.551,0,0,0,.25-.19c5.913-5.636,11.982-11.814,17.9-17.45-1.18-.324-2.422-.8-3.615-1.082-4.825,4.6-9.753,9.918-14.578,14.517-.071-5.387.011-11.114-.094-16.5-1.486-.115-2.553.026-4.041,0,.264,13.493-.174,27.111-.131,40.606a70.52,70.52,0,0,0-6.543-4.311c-.777-.459-1.567-.9-2.351-1.356,0-.01,0-.017,0-.026q-4.35-16.293-8.7-32.586-1.44.431-2.841.942l7.9,29.588q-1.98-1.112-3.97-2.215a2.139,2.139,0,0,0-1.766-.975q-3.094-1.706-6.18-3.42L338.3,18.5q-.836.868-1.629,1.766l8.836,4.93,10.856,6.059Q343.608,31.193,330.9,30.1c-2.214-.192-1.6,2.255.2,2.412,9.84.853,19.733,1.242,29.625,1.18l2.94,1.641c5.368,3,10.928,5.886,15.527,9.729a1.128,1.128,0,0,0-.02.183l-.458,37.75q-5.363-3.058-10.676-6.178-4.221-2.487-8.4-5.024a1.962,1.962,0,0,0-1.662-1.24l-.47-.051q-17.746-10.8-34.814-22.38-.3,1.229-.567,2.464,5.2,3.517,10.462,6.97,9.618,6.3,19.453,12.347l-3.83-.421-28.261-3.1q-.088,1.186-.159,2.373l4.377.48L356.8,72.81q10.824,6.571,21.884,12.857l-.412,33.881-12.516-6.8-10.662-5.79a1.06,1.06,0,0,0,.014-.647,181.016,181.016,0,0,0-7.059-21.454,2.106,2.106,0,0,0-2.022-1.114c-.8.061-1.273.679-1.014,1.325a181.4,181.4,0,0,1,6.678,20.041L319.043,87.381q-.024,1.312-.035,2.634l6.047,3.284,9.689,5.262a69.872,69.872,0,0,0-9.806,1.575c-1.869.387-3.763.756-5.668.962q.075,1.254.179,2.5c6.266-.573,12.366-2.972,18.766-2.656a2.031,2.031,0,0,0,.751-.089l39.275,21.329-.254,20.89-54.876-21.584c.344,1.087.751,2.267,1.217,3.443l53.546,21.062-4.959,116.928,9.156.263,1.15-118q23.458-7.792,47.269-14.777c.852-1.342,1.758-2.786,2.47-3.927q-25.148,7.324-49.917,15.533c-.039-5.372-.079-10.735-.119-16.028q14.367-5.861,28.489-12.134c7.424.895,19.226,2.147,26.684,2.771q.734-1.372,1.424-2.759c-6.232-.5-16.813-1.593-23.022-2.286,8.1-3.645,18.726-8.424,26.7-12.263.518-1.5.394-2.457.851-3.967-.23.76-4.819,2.305-5.707,2.722" transform="translate(-78.074 22.959)" fill="#36593f"/></g></g><g transform="translate(147.267 22.312)"><g transform="translate(0 0)" clip-path="url(#j)"><path d="M0,0,139.3,3.088l3.8,160.686L3.8,160.686Z" transform="matrix(0.953, -0.303, 0.303, 0.953, -43.31, 12.692)" fill="url(#k)"/></g></g><g transform="translate(0 22.312)"><g transform="translate(0 0)" clip-path="url(#l)"><path d="M280.531,81.352l7.861-4.419,4.9-2.755c0-.259,0-.52-.005-.779,0-.353-.008-.706-.014-1.058,0-.126-.005-.251-.008-.377l-26.484,14.89A156.068,156.068,0,0,1,272.2,70.023a.832.832,0,0,0-.823-1.112,1.7,1.7,0,0,0-1.64.935,155.859,155.859,0,0,0-5.727,18.018.92.92,0,0,0,.011.543l-8.65,4.862-10.154,5.709-.335-28.454q8.975-5.275,17.755-10.8l26.474-3.009,3.551-.4q-.058-1-.129-1.993l-22.927,2.606-3.108.353q7.974-5.085,15.783-10.369,4.272-2.895,8.487-5.854c-.143-.69-.3-1.378-.46-2.068Q276.464,48.7,262.064,57.785l-.381.043a1.6,1.6,0,0,0-1.348,1.041q-3.4,2.126-6.816,4.219-4.306,2.626-8.661,5.189l-.372-31.7a.94.94,0,0,0-.017-.154c3.731-3.228,8.241-5.655,12.6-8.17l2.385-1.378c8.025.052,16.051-.275,24.034-.991,1.466-.132,1.961-2.187.165-2.026q-10.3.924-20.66.972l8.808-5.088,7.167-4.141q-.643-.753-1.321-1.483l-13.571,7.84q-2.5,1.444-5.013,2.872a1.722,1.722,0,0,0-1.433.819q-1.614.924-3.22,1.86l6.409-24.848q-1.136-.429-2.3-.791-3.53,13.682-7.059,27.366c0,.008,0,.014,0,.022-.635.38-1.276.753-1.907,1.139a57.11,57.11,0,0,0-5.308,3.62q.051-17,.371-34c-.572.01-1.143.031-1.714.06l-.217.011c-.563.03-1.125.066-1.688.111q-.129,6.785-.213,13.57L229.07,2.225q-1.434.392-2.794.854L240.53,17.142a1.223,1.223,0,0,0,.2.16q-.108,9.707-.126,19.414L218.94,25.674c0-.015,0-.03-.008-.045l-5.354-15.5q-1.129.937-2.171,1.944L215.5,23.921l-8.589-4.377-1.2-.614q-.663,1-1.27,2.028L230,33.986l9.769,4.978a1.551,1.551,0,0,0,.834.157q-.01,10.422.092,20.843l-19.662-9.7c-7.212-3.557-14.363-7.251-21.743-10.537-.524-.233-1.052-.46-1.579-.687-.163.787-.311,1.576-.449,2.367,3.281,1.44,6.5,2.989,9.7,4.563q.8.392,1.6.786-6.052.36-12.114.554c-.032.31-.067.619-.1.928-.034.369-.059.737-.092,1.105q7.884-.266,15.753-.79c.051,0,.1-.015.147-.023q8.4,4.142,16.805,8.288l11.756,5.8q.177,17.717.637,35.43a1.217,1.217,0,0,0,.13.522q-.01,1.38-.02,2.773Q231.151,96.961,221,92.3c-.082-.451-.494-.785-1.353-.676l-.1.013q-2.1-.969-4.2-1.954-3.288-10.04-7.278-19.889c-.415-1.026-2.458-.217-2.085.7q3.594,8.865,6.608,17.9-8.822-4.162-17.521-8.523.049,1.634.146,3.264,9.424,4.687,18.99,9.148c-1.964.227-11.83.162-11.722,2.275.113,2.215,5.01.865,6.451.714q4.706-.494,9.4-1.079,11.46,5.26,23.112,10.19c-.038,5.249-.076,10.58-.113,15.908l-.129.076-.424,129.66,9.356-.746-4.373-121.944h.032l-.252-6.152,43.44-17.687c.378-.988.708-1.979.987-2.892l-44.519,18.126-.206-17.543,31.863-17.913a1.589,1.589,0,0,0,.61.075c5.19-.265,10.137,1.747,15.218,2.23.009-.11.02-.219.029-.33.025-.329.047-.66.069-.99.017-.26.029-.52.045-.78-1.542-.174-3.076-.482-4.59-.807a54.846,54.846,0,0,0-7.955-1.323" transform="translate(-47.741 -0.006)" fill="#364f3a"/></g></g><g transform="translate(81.449 216.219)"><g clip-path="url(#m)"><rect width="117.809" height="76.223" transform="translate(0 -1.778)" fill="url(#n)"/></g></g><g transform="translate(20.401 169.623)"><g clip-path="url(#o)"><path d="M0,0,99.688.193,99.78,51.6.092,51.409Z" transform="translate(-5.13 98.594) rotate(-88.653)" fill="url(#p)"/></g></g><g transform="translate(20.401 170.275)"><g clip-path="url(#q)"><path d="M0,0,73.814,2.141l2.875,94.1L2.875,94.1Z" transform="translate(-36.247 14.445) rotate(-24.355)" fill="url(#r)"/></g></g><g transform="translate(53.692 161.727)"><g clip-path="url(#s)"><path d="M0,0,74.123,1.4l2.518,124.032-74.123-1.4Z" transform="matrix(0.967, -0.256, 0.256, 0.967, -35.218, 7.665)" fill="url(#t)"/></g></g><g transform="translate(53.693 164.997)"><g clip-path="url(#u)"><path d="M0,0,34.416.269l.812,96.326L.812,96.326Z" transform="translate(-14.033 1) rotate(-5.906)" fill="url(#v)"/></g></g><g transform="translate(0 7.634)"><g clip-path="url(#b)"><path d="M113.094,340.564l4.754-19.174c-7.411-21.413-8.466-45.36-.6-63.113S140.3,227.694,140.3,227.694c7.572,27.422,10.7,38.45,10.072,55.5s-22.566,36.122-29.017,38.273L115.2,340.874Z" transform="translate(-27.363 -68.828)" fill="#36593f"/></g></g><g transform="translate(84.441 167.436)"><g clip-path="url(#x)"><path d="M0,0,40.813.319l.864,102.448L.864,102.448Z" transform="translate(-13.505 1.059) rotate(-5.906)" fill="url(#y)"/></g></g><g transform="translate(0 7.634)"><g clip-path="url(#b)"><path d="M32.442,362.445S10.186,342.133,5.52,312.229s13.011-44.244,13.011-44.244,42.759,32.775,40.755,80.85c0,0-28.143,13.261-26.844,13.61" transform="translate(-1.159 -81.008)" fill="#36593f"/></g></g><g transform="translate(16.758 194.611)"><g clip-path="url(#aa)"><path d="M0,0,63.744,1.087l1.741,95.129L1.741,95.129Z" transform="matrix(0.973, -0.229, 0.229, 0.973, -21.201, 4.606)" fill="url(#ab)"/></g></g><g transform="translate(0 7.634)"><g clip-path="url(#b)"><path d="M305.707,373.57s-3.828-41.647,19.989-60.9,32.523,18.508,31.785,33.418a91.434,91.434,0,0,1-4.566,25.124Z" transform="translate(-74.764 -92.898)" fill="#78a658"/></g></g><g transform="translate(190.791 230.588)"><g clip-path="url(#ad)"><rect width="51.793" height="58.111" transform="translate(-4.503 -0.001)" fill="url(#ae)"/></g></g><g transform="translate(0 0)"><g transform="translate(0 0)" clip-path="url(#af)"><path d="M202.863,375.419H167.49L153.432,359.08s16.78.838,18.14,8.379c.907-7.122-6.8-12.568-6.8-12.568,9.07-1.257,16.326,10.473,16.326,10.473,3.175-12.149,12.7-10.893,12.7-10.893-5.9,7.542-4.081,11.731-4.081,11.731,10.884-10.055,18.593-7.96,18.593-7.96-8.163,7.122-8.616,10.054-8.616,10.054,11.791-2.933,17.687-.838,17.687-.838s-6.349,5.028-6.8,7.541Z" transform="translate(-37.551 -107.14)" fill="#00261d"/><path d="M144.447,397.056s34.449-19.842,69.536-19.842,58.054,19.842,58.054,19.842,33.172-23.292,66.346-12.078c0,0,30.621,5.177,44.019,18.979v18.065H145.084Z" transform="translate(-40.352 -120.147)" fill="#36593f"/><path d="M395.6,135.913s10.207-.2,12.121,1.178,2.552,31.628,2.339,39.29-3.828,12.77-12.121,15.323Z" transform="translate(-96.819 -41.081)" fill="#03588c"/><path d="M381.259,126.7s5.316,11.2,6.592,30.45a126.008,126.008,0,0,1-4.04,39.093c-.638,1.965-10.207,11-31.047,6.286-3.189-56.97-3.4-63.846-3.4-63.846l-11.483-15.716s37,.394,43.381,3.733" transform="translate(-82.693 -37.17)" fill="#125dbf"/><path d="M387.468,127.4c-1.708-.894-5.612-1.577-10.413-2.1l-3.154-.015a9.206,9.206,0,0,0-6.2,5.182,23.316,23.316,0,0,0-1.774,7.805,484.753,484.753,0,0,0-2.623,58.484,37.129,37.129,0,0,0,.643,7.367c17.39,2.35,25.484-5.383,26.069-7.184a126.009,126.009,0,0,0,4.04-39.093c-1.276-19.252-6.592-30.45-6.592-30.45" transform="translate(-88.902 -37.873)" fill="#2374cc"/><path d="M297.99,239.7c-.352,1.03,2.291,42.642,5.672,55.953s13.711,50.371,13.711,50.371l11.6.655s-3.927-47.982-4.223-56.4-2.442-48.948-2.442-48.948Z" transform="translate(-72.923 -72.457)" fill="#022973"/><path d="M303.848,300.724c3.38,13.312,13.711,50.372,13.711,50.372l7.244.409a607.233,607.233,0,0,1-15.45-73.777c-.612-4.22-1.194-8.5-2.9-12.453a17.647,17.647,0,0,0-7.736-8.793c.921,13.6,2.859,35.3,5.129,44.243" transform="translate(-73.109 -77.53)" fill="#103d84"/><path d="M285.434,158.161c-1.418,3.339-1.56,4.126-2.835,7.4A40.737,40.737,0,0,0,290.8,168l1.772-6.669Z" transform="translate(-69.164 -47.81)" fill="#e2886d"/><path d="M280.156,165.481l9.19,4.73.786,31.133s-11.213,1.008-13.166-11.11c-1.489-9.234,3.189-24.753,3.189-24.753" transform="translate(-67.714 -50.022)" fill="#ce4e0f"/><path d="M285.866,169.1a83.466,83.466,0,0,1-4.382,24.72,17,17,0,0,1-1.5,3.442c3.89,5.808,10.957,5.179,10.957,5.179l-.785-31.133Z" transform="translate(-68.524 -51.115)" fill="#b73902"/><path d="M306.437,243.688s8.223,16.5,8.79,18.335,11.058,39.027,12.192,42.695,18.429,45.576,18.429,45.576l10.207-2.881s-4.82-32.218-11.908-46.362c1.985-35.623,4.82-49.767,1.134-60.767-19.28,1.047-38.844,3.4-38.844,3.4" transform="translate(-74.998 -72.634)" fill="#103d84"/><path d="M359.12,347.412s-4.82-32.218-11.908-46.362c1.985-35.623,4.82-49.767,1.134-60.768q-1.841.1-3.681.216c-10.223,2.169-25.7,5.543-25.7,5.543q3.563,1.282,7.054,2.729a18.009,18.009,0,0,1,5.6,3.2c2.923,2.768,3.505,6.928,3.936,10.775q1.792,16.039,3.585,32.077a63.732,63.732,0,0,0,1.192,7.754,86.1,86.1,0,0,0,3.064,8.9,351.067,351.067,0,0,1,11.27,37.192Z" transform="translate(-78.063 -72.634)" fill="#022973"/><path d="M338.749,99.9s20.415-2.554,26.794-2.554,8.931,1.178,12.759,5.107,9.144,14.145,6.38,21.02a42.135,42.135,0,0,1-7.868-2.554s-21.69-3.929-39.978-2.946l-11.908.589s3.4-14.537,5.529-16.894,8.293-1.768,8.293-1.768" transform="translate(-79.523 -29.426)" fill="#03588c"/><path d="M365.542,97.344c-6.38,0-26.794,2.554-26.794,2.554s-6.167-.589-8.293,1.768-5.529,16.894-5.529,16.894l11.908-.589a155.009,155.009,0,0,1,20.828.513,24.23,24.23,0,0,1,3.365-12.942,18.475,18.475,0,0,1,9.78-7.747,24.925,24.925,0,0,0-5.265-.451" transform="translate(-79.523 -29.426)" fill="#034f75"/><path d="M314.824,386.566l15.831,1.156s1.792,15.847,1.671,17.677c-14.451-.553-31.9-.8-31.9-.8,2.834-8.5,17.012-8.251,17.012-8.251Z" transform="translate(-73.528 -116.853)" fill="#e76e13"/><path d="M334.318,405.7c.121-1.83-1.671-17.677-1.671-17.677l-6.485-.474q.6,5.556,1.193,11.112A60.554,60.554,0,0,0,308.572,405c6.371.121,16.65.348,25.746.7" transform="translate(-75.52 -117.149)" fill="#e25813"/><path d="M305.975,127.366c-4.054,3.074-8.193,6.238-10.852,10.414-3.621,5.688-4.087,12.567-4.464,19.156q-.81,14.227-1.622,28.454a3,3,0,0,0-.123,3.14,2.685,2.685,0,0,0,2.656,1.095c-.05,1.2.088,2.288.038,3.489a8.933,8.933,0,0,1-.218,1.912,9.223,9.223,0,0,1-1.287,2.561c-3.081,4.8-6.343,9.654-7.551,15.12l9.463-1.386a107,107,0,0,0,29.771,1.178c15.311-1.768,20.627-4.125,20.627-4.125s-1.7-51.667-2.764-64.239-9.427-17.615-18.784-17.418Z" transform="translate(-69.152 -38.303)" fill="#da5304"/><path d="M305.854,191.918q13.789.188,27.578-.248l14.07.3c-.592-16.211-1.494-38.932-2.151-46.706-.625-7.394-3.778-12.181-8.171-14.833l-6.016.3-6.582,3.923-3.447,4.588q.144,10.455-.414,20.906c-.387,7.244-1.111,14.743-4.965,21.061-2.505,4.107-6.194,7.473-9.9,10.711" transform="translate(-74.855 -39.426)" fill="#c94300"/><path d="M295.034,215.635s.213.043.606.114c1.043-4.35,4.317-18.415,3.938-22.083-1.378-4.329-.257-26.9,1.427-35.858,1.65-8.758,6.2-15.769,7.078-16.137a.173.173,0,0,1-.054.01l-.045-.7c-1.3.069-6.1,8.072-7.723,16.7-1.739,9.237-2.841,31.676-1.422,36.108.353,3.482-2.939,17.623-3.952,21.86Z" transform="translate(-72.171 -42.617)" fill="#f39f06"/><path d="M327.357,241.1c15.311-1.768,20.627-4.126,20.627-4.126s-.217-6.594-.545-15.642l-42.122.362A7.577,7.577,0,0,1,309.946,226a15.376,15.376,0,0,1,1.03,6.157,43.775,43.775,0,0,1-.958,9.276,98.217,98.217,0,0,0,17.339-.334" transform="translate(-74.724 -66.907)" fill="#c94300"/><path d="M290.627,149.959l1.7-2.633a.563.563,0,0,1,.182-.2c.232-.131.518.073.671.28a2.52,2.52,0,0,1-.974,3.647Z" transform="translate(-71.128 -44.461)" fill="#f4aa90"/><path d="M292.769,144.428s6.7-12.529,15.706-16.779l.075,2.626s-11.483,13.751-13.823,18.073a4.973,4.973,0,0,1-1.958-3.92" transform="translate(-71.652 -38.586)" fill="#27050b"/><path d="M289.775,150.655a9.811,9.811,0,0,1,4.235,2.674c1.339,1.833-.825,4.982-3.006,4.943-1.437-.024-5.005.707-5.627-.706-.789-1.792,1.246-4.991,2.165-6.459a1.531,1.531,0,0,1,.69-.687,1.769,1.769,0,0,1,1.135.093c.134.043.268.089.407.142" transform="translate(-69.8 -45.451)" fill="#f4aa90"/><path d="M324.824,119.94q.273-7.954.547-15.909l.563-4.717-10.4,4.52q-1.225,8.22-1.8,16.507l-1.193,5.82,12.121-4.322Z" transform="translate(-76.491 -30.021)" fill="#f4aa90"/><path d="M326,105.037l.286-2.4-10.144,2.336q-.595,4.009-1.036,8.037a7.73,7.73,0,0,0,2.408-.35,28.15,28.15,0,0,0,8.358-3.889q.065-1.869.128-3.739" transform="translate(-77.12 -31.027)" fill="#e2886d"/><path d="M326.834,118q2.148,4.427,4.069,8.943l-22.229,8.049c-1-2.623-2.249-5.135-3.337-7.722-.657-1.562-.9-1.364.275-2.435.926-.841,3.134-1.307,4.337-1.769,1.433-.551,16.469-5.924,16.885-5.067" transform="translate(-74.594 -35.642)" fill="#da5304"/><path d="M309.682,134.7l1.874-.341,20.474-7.414q-1.92-4.515-4.069-8.943c-.187-.384-3.3.479-6.8,1.6a25.759,25.759,0,0,1-11.766,14.38c.1.239.2.478.291.719" transform="translate(-75.721 -35.642)" fill="#c94300"/><path d="M322.688,94.554a25.368,25.368,0,0,1-5.9,4.685,13.424,13.424,0,0,1-5.053,1.862,6.815,6.815,0,0,1-5.124-1.3,6.459,6.459,0,0,1-1.5-1.928,11.4,11.4,0,0,1-.412-9.272,20.126,20.126,0,0,1,5.677-7.842l3.917-3.336,14.32,12.338Z" transform="translate(-74.379 -23.404)" fill="#f4aa90"/><path d="M325.617,93.307a2.272,2.272,0,0,0-.814-1.215c-2.851-2.706-5.1-6.946-8.454-9.108-.218,2.761-1.509,7.293-2.112,10a19.036,19.036,0,0,1-2.314,6.234,9.959,9.959,0,0,1-2.93,2.983,7.423,7.423,0,0,0,3.985.577,13.423,13.423,0,0,0,5.053-1.862,25.387,25.387,0,0,0,5.9-4.686l.83-.672c.186-.363.388-.719.562-1.087a2.124,2.124,0,0,0,.292-1.169" transform="translate(-75.623 -25.085)" fill="#e2886d"/><path d="M320.421,87.771l.213,8.644s4.163-3.847,5.336-1.406-1.721,3.37-1.721,3.37l3.19,2.358a13.407,13.407,0,0,0,4.09-3.788Z" transform="translate(-78.42 -26.532)" fill="#27050b"/><path d="M323.251,75.427c5.121-.32,9.358-.486,14.181,1.1a20.643,20.643,0,0,1,6.621,3.849,11.593,11.593,0,0,1,2.789,4.919,11.514,11.514,0,0,1,.322,7.431,4.251,4.251,0,0,1-1.757,2.307,7.3,7.3,0,0,1-3.5.663l-8.4.193L321.468,76.166Z" transform="translate(-78.677 -22.737)" fill="#f39f06"/><path d="M349.006,97.029a10.906,10.906,0,0,0-.109-6.718,19.7,19.7,0,0,1-19.9-.86l1.011,1.988,5.343,8.752,8.4-.193a7.3,7.3,0,0,0,3.5-.663,4.251,4.251,0,0,0,1.757-2.307" transform="translate(-80.519 -27.04)" fill="#e88f00"/><path d="M330.652,98.61c-7.268-6.4-11.994-13.7-16.4-22.035l7.926-2.323,11.6,22.6Z" transform="translate(-76.911 -22.445)" fill="#da5304"/><path d="M294.261,215.132s15.755-3.253,27.025-4.039h2.339v9.43s-23.788-.763-29.544.011c0,0-1.326-3.917.181-5.4" transform="translate(-71.842 -63.81)" fill="#27050b"/><path d="M329.809,206.589h27.645l-.638,19.252s-25.093-3.143-25.731-3.143-4.89-5.894-1.276-16.109" transform="translate(-80.366 -62.449)" fill="#03588c"/><path d="M334.514,222.821c5.988.7,27.279,2.738,27.279,2.738l.637-19.252-12.423.2a32.267,32.267,0,0,1-15.493,16.318" transform="translate(-81.869 -62.364)" fill="#034f75"/><path d="M312.649,147.725s16.022-18.072,27.363-16.5c-2.764-4.714-9.64-4.322-9.64-4.322s-12.546,4.911-24.029,20.234c0,3.339,3.044,5.693,6.306.587" transform="translate(-74.975 -38.359)" fill="#27050b"/><path d="M311.407,163.589a7.28,7.28,0,0,1-.2-7.979,7.088,7.088,0,0,0-2.851,1.006l-2.411-3.641a51.216,51.216,0,0,0-4.554,3.92,3.386,3.386,0,0,0-.787.989,2.93,2.93,0,0,0,.03,1.959,16.146,16.146,0,0,0,6.437,8.907Z" transform="translate(-73.531 -46.242)" fill="#f4aa90"/><path d="M302.023,165.87a16.457,16.457,0,0,0,5.433,6.268l4.337-5.162a7.132,7.132,0,0,1-1.16-2.794,14.079,14.079,0,0,1-8.61,1.688" transform="translate(-73.918 -49.63)" fill="#e2886d"/><path d="M335.067,135.089c-6.562,1.359-9.108,7.717-9.62,13.333a35,35,0,0,0,.364,8.253c.421,2.87,1.245,5.675,1.829,8.524-.252-1.236-14.974-8.366-14.925-8.419-1.83,2.019-3.841,3.775-5.67,5.795,5.855,11.686,17.064,20.983,30.27,25.106,1.166.364,2.56.659,3.541-.029,2.393-1.677,2.532-6.559,2.851-9.069.461-3.628.846-7.463,1.171-10.981a133.173,133.173,0,0,0,.293-20.971c-.228-3.465-1.047-7.458-3.785-10.028a6.937,6.937,0,0,0-6.319-1.513" transform="translate(-75.147 -40.778)" fill="#e25813"/><path d="M341,135.108c-6.562,1.359-9.108,7.717-9.62,13.333a35,35,0,0,0,.364,8.253c.408,2.777,1.189,5.493,1.767,8.246,2.014,1.458,4.634,2.157,6.895,3.305,4.133-10.648,2.628-27.371,1.587-33.282a9.093,9.093,0,0,0-.992.144" transform="translate(-81.075 -40.798)" fill="#e76413"/><path d="M350.048,388.152l15.878-1.834a160.668,160.668,0,0,0,4.82,19.645c-18.713-1.048-29.771-.786-29.771-.786s2.268-8.644,13.326-7.6a72.254,72.254,0,0,0-4.253-9.43" transform="translate(-83.451 -116.778)" fill="#e76e13"/><path d="M373.109,405.963a160.675,160.675,0,0,1-4.82-19.645l-7.352.849q1.621,6.354,3.416,12.668a31.35,31.35,0,0,0-8.2,1.991,23.277,23.277,0,0,0-5.517,3.344c5.112.058,12.759.248,22.477.793" transform="translate(-85.814 -116.778)" fill="#e25813"/><path d="M101.124,120.663S89,117.636,85.6,118.14c2.21.9,4.505,1.741,6.639,2.739a3.17,3.17,0,0,0-2.548,1.582,13.9,13.9,0,0,0-1.512,3.643,1.575,1.575,0,0,0-.006,1.056,2.341,2.341,0,0,0,.928.85,6.25,6.25,0,0,0,2.6,1.123c.989.115,2.158-.343,2.279-1.128.04-.256,0-.573.276-.71a1,1,0,0,1,.55-.039c2.094.246,4.061.544,6.1.975l1.915-5.887Z" transform="translate(-20.95 -35.695)" fill="#f4aa90"/><path d="M97.534,123.387l-1.174,1.695-.566.816c-.084.12-.221.4-.416.333-.523-.171-.139-1.07-.054-1.384q.263-.975.525-1.951c.118-.436-.611-.622-.728-.186l-.441,1.639-1.626-.277a.391.391,0,0,0-.464.244.35.35,0,0,0,.264.429l1.645.28a2.043,2.043,0,0,0-.069,1.156c.008.025.023.047.033.071a4.877,4.877,0,0,1-2.89-.837.4.4,0,0,0-.517.125.342.342,0,0,0,.136.477,5.579,5.579,0,0,0,3.61.931.47.47,0,0,0,.255-.1c.025.01.046.027.073.035a.693.693,0,0,0,.074.015.808.808,0,0,1-.244.853,1.813,1.813,0,0,1-1.377.368,6.447,6.447,0,0,1-3.128-1.156.4.4,0,0,0-.517.125.341.341,0,0,0,.135.477,7.651,7.651,0,0,0,1.936.939,5.349,5.349,0,0,0,2.088.3,2.177,2.177,0,0,0,1.628-.837,1.412,1.412,0,0,0,.23-1.2,2.071,2.071,0,0,0,.483-.5,2.949,2.949,0,0,0,.436,1.177.4.4,0,0,0,.517.125.34.34,0,0,0,.135-.477c-.044-.067-.085-.136-.122-.207-.017-.033-.034-.066-.051-.1l0-.006-.023-.056a2.684,2.684,0,0,1-.133-.421c-.008-.036-.015-.072-.022-.108l-.01-.067c-.008-.066-.014-.133-.017-.2s0-.147,0-.22c0-.042,0-.084.008-.125,0-.015.017-.145.005-.063a.37.37,0,0,0-.033-.254l1.063-1.533c.264-.38-.39-.73-.652-.352" transform="translate(-21.998 -37.018)" fill="#27050b"/><path d="M163.671,236.716s-36.576,25.146-42.1,30.253c-5.529,19.645.85,69.15.85,69.15l9.782.393s7.23-47.147,8.506-60.506c36.151-13.358,40.546-14.014,40.546-14.014s10.065,30.908,12.617,39.945c2.977,11.394,14.461,56.97,14.461,56.97l11.483-1.178s-5.954-53.041-7.23-60.507c.85-31.431-.425-59.327-.425-59.327Z" transform="translate(-29.201 -71.556)" fill="#27050b"/><path d="M152.9,257.16c4.924-4.184,1.5-7.23-1.045-8.7-11.205,7.817-26.826,18.862-30.286,22.059-5.529,19.645.85,69.15.85,69.15l5.3.213c-.413-6.7-1.259-20.526-1.471-24.834-.283-5.762,1.7-40.861,1.7-40.861s17.863-11,24.951-17.026" transform="translate(-29.2 -75.106)" fill="#3f121e"/><path d="M235.137,368.771c-5.88-29.125-11.793-58.252-18.846-87.153-.752-3.082-1.652-6.376-4.232-8.45-2.1-1.686-7.947-2.1-10.775-.625,1.6,4.922,10.332,31.754,12.647,39.95,2.977,11.394,14.46,56.97,14.46,56.97Z" transform="translate(-49.262 -82.113)" fill="#3f121e"/><path d="M187.994,110.495c.85,0,29.2-1.834,38.56.786s14.46,8.12,12.759,15.454c1.7,9.953,3.118,31.17,2.551,42.171s-1.418,24.1-3.686,28.812-17.3,6.81-17.3,6.81l-46.216-5.5s.85-68.888,1.418-77.794,5.954-10.739,11.908-10.739" transform="translate(-42.749 -33.212)" fill="#f39f06"/><path d="M226.906,111.28c-9.357-2.619-37.71-.786-38.56-.786-5.954,0-11.342,1.834-11.909,10.739-.1,1.621-.215,5.235-.331,10.053,2.625-.153,5.473-.561,7.6-.439l32.728,1.878a52.534,52.534,0,0,0,9.715-.043,25.406,25.406,0,0,0,13.554-6.142c1.566-7.237-3.52-12.666-12.793-15.262" transform="translate(-43.1 -33.212)" fill="#e76413"/><path d="M218.184,105.227,216.7,125.855H202.448l5.316-19.252Z" transform="translate(-49.547 -31.809)" fill="#f4aa90"/><path d="M206.4,115.053a8.912,8.912,0,0,0,4.109.126,17.208,17.208,0,0,0,8.218-4.038l.427-5.912L208.73,106.6Z" transform="translate(-50.514 -31.809)" fill="#e0947c"/><path d="M204.375,84.038S198.591,99.1,202.8,102.254s12.094,2.187,14.724-1.214l1.051-2.914a6.344,6.344,0,0,0,3.155-2.915c.789-1.943-1.577-4.372-2.892-3.886l1.578-5.586Z" transform="translate(-49.258 -25.403)" fill="#f4aa90"/><path d="M201.707,83.954l15.249-3.4s-1.314,4.858-.657,6.194l-.394,4.008,2.235-4.372a3.243,3.243,0,0,1,2.892,3.886c2.892-2.793,3.287-4.129,4.338-6.922s-.526-6.194-2.629-6.679c-3.023-7.044-10.122-10.444-16.695-8.38s-6.7,3.886-6.7,3.886l4.338-.729s-4.6,2.186-5.259,4.857l3.024-.607s-4.075,5.222.263,8.258" transform="translate(-48.562 -20.462)" fill="#27050b"/><path d="M269.043,262.507l-4.312,2.434c-.219.124-.461.277-.5.512-.063.421.532.629.99.682a9.471,9.471,0,0,0,3.947-.1c1.256-.4,2.347-1.527,2.171-2.743-.106-.736-.995-1.448-1.674-1.052Z" transform="translate(-64.668 -79.236)" fill="#e0947c"/><path d="M260.444,256.494a2.345,2.345,0,0,0-.414.954.74.74,0,0,0,.541.8,1.207,1.207,0,0,0,.964-.435l1.982-1.8a.784.784,0,0,1,.582-.277c.233.029.377.245.486.437l3.566,6.231a5.929,5.929,0,0,0,2.635,2.84q-.105-1.284-.21-2.568a2.235,2.235,0,0,1,.062-.963c.48-1.29,2.959-1.265,3.2-2.611a2.05,2.05,0,0,0-.107-.886q-.472-1.718-.944-3.437a9.328,9.328,0,0,0-1.243-3.046,1.562,1.562,0,0,0-.67-.59,2.049,2.049,0,0,0-.913-.062l-5.643.467c-2.181.181-1.708-.426-2.478,1.519a21.334,21.334,0,0,1-1.4,3.426" transform="translate(-63.639 -75.892)" fill="#f4aa90"/><path d="M271.434,259.557a20,20,0,0,1,1.77,7.9c.007.449.762.45.755,0a20.488,20.488,0,0,0-1.8-8.089c-.184-.409-.915-.23-.728.186" transform="translate(-66.424 -78.334)" fill="#27050b"/><path d="M274.428,259.718a.342.342,0,0,0-.135.477,6.8,6.8,0,0,1,.642,2.974c0,.449.751.449.755,0a7.577,7.577,0,0,0-.745-3.327.4.4,0,0,0-.517-.125" transform="translate(-67.12 -78.495)" fill="#27050b"/><path d="M277.47,262.665q-.19-1.182-.381-2.363a.385.385,0,0,0-.464-.244.355.355,0,0,0-.264.429q.19,1.183.381,2.364a.385.385,0,0,0,.464.244.355.355,0,0,0,.264-.429" transform="translate(-67.635 -78.608)" fill="#27050b"/><path d="M110.793,122.088l-5.528-1.375-3.615,9.037,5.954,1.375Z" transform="translate(-24.878 -36.49)" fill="#399e45"/><path d="M261.012,244.233l.213,5.5s12.443,1.083,10.42-.786a47.12,47.12,0,0,1-.85-4.911Z" transform="translate(-63.881 -73.768)" fill="#399e45"/><path d="M232.672,193.455c-1.489-8.84-9.994-45.772-15.1-51.47S201.2,132.36,201.2,132.36a.941.941,0,0,0,.029-.095,102.939,102.939,0,0,1-19.309-1.28,27.821,27.821,0,0,1-9.882-3.541l.029.2c-5.189.244-10.3-.791-15.482-1.437q-8.833-1.1-17.7-1.939c-9.488-.9-19.835-2.566-29.361-1.928-.2.9-2.751,9.348-2.525,9.432.353.13,31.991,11.823,49.12,18.465l1.276,40.075s-2.127,1.375-8.719,16.894c14.035,6.286,46.145,8.644,64.859,1.768a66.7,66.7,0,0,0-2.127-11c-.85-4.322-3.615-28.878-3.615-28.878s11.27,28.681,14.247,40.075a27.47,27.47,0,0,0,12.546-.982c0-1.375-.425-5.894-1.914-14.734" transform="translate(-26.183 -36.939)" fill="#4ebf5f"/><path d="M222.042,131.691c.1-.368.429-2.06.609-8.549-10.846-4.911-30.622-1.964-30.622-1.964l.822,5.692a27.821,27.821,0,0,0,9.882,3.541,102.939,102.939,0,0,0,19.309,1.28" transform="translate(-46.998 -36.365)" fill="#399e45"/><path d="M212.418,128.612a17.45,17.45,0,0,1-6.593,2.055c.1.017.187.039.285.057A103.058,103.058,0,0,0,225.419,132c.1-.368.429-2.06.609-8.549a30.2,30.2,0,0,0-7.57-2.122,12.736,12.736,0,0,1-6.041,7.279" transform="translate(-50.374 -36.677)" fill="#2f8437"/><path d="M206.459,135.239c-.966,3.872-4.637,19.09-4.882,27.7-.281,9.841-.845,39.258-.85,39.528l-1.456,14.353c.251.016.5.031.755.045l1.456-14.36c.005-.3.569-29.711.85-39.549.244-8.585,3.93-23.834,4.874-27.613-.249-.034-.5-.073-.748-.11" transform="translate(-48.77 -40.881)" fill="#27050b"/><path d="M248.745,193.44A110.088,110.088,0,0,0,237.687,166.2c-4.537-7.6-7.939-12.834-7.939-12.834l.937-14.93c-2.513-1.132-4.34-1.769-4.34-1.769a.861.861,0,0,0,.029-.095c-2.362.052-5.387.048-8.718-.126,1.613,1.752,1.753,4.413,1.725,6.786a343.9,343.9,0,0,1-2.439,37.019c-.7,5.836-1.991,12.353-7.212,15.7,3.069,3.527,3.911,8.311,3.7,12.833a76.085,76.085,0,0,1-1.114,8.641c9.582-.172,19.006-1.444,26.36-4.146a66.715,66.715,0,0,0-2.127-11c-.85-4.322-3.615-28.878-3.615-28.878s11.27,28.682,14.247,40.075a26.873,26.873,0,0,0,6.163.25c-.866-4.267-2.734-13.188-4.6-20.287" transform="translate(-51.33 -41.245)" fill="#3fa84b"/><path d="M156.567,166.913a208.57,208.57,0,0,0,9.394-33.308l-9.566,6.3a11.455,11.455,0,0,1-4.757,2.161,11.881,11.881,0,0,1-4.523-.622l-39.239-10.7a22.03,22.03,0,0,0-.878,3.616c.353.13,31.99,11.823,49.119,18.465Z" transform="translate(-26.184 -39.52)" fill="#3fa84b"/><path d="M232.459,134.774s-8.79,33.266,7.372,56.577a110.957,110.957,0,0,0-1.418-15.716s-4.253-22.526.85-36.408a6.069,6.069,0,0,0-6.8-4.453" transform="translate(-56.308 -40.729)" fill="#c94300"/><path d="M186.889,128.41l-14.46,52.124a61.385,61.385,0,0,1-2.268-7.6c-.284-2.1,9.073-45.052,9.073-45.052s1.7-1.047,7.655.524" transform="translate(-41.644 -38.555)" fill="#c94300"/><path d="M172.039,217.627s14.177,4.191,23.817,5.238,31.756-2.619,31.756-2.619l-1.134-5.5s-23.533,3.406-30.054,3.406-24.384-6.025-24.384-6.025Z" transform="translate(-42.105 -64.123)" fill="#c94300"/><path d="M226.9,388.038l17.579-2.1,2.268,18.859-26.652.786a41.179,41.179,0,0,1,9.073-8.644Z" transform="translate(-53.866 -116.665)" fill="#2374cc"/><path d="M113.2,364.657l17.724-.122-.209,18.974-29.628.153s7.061-6.643,13.2-9.912Z" transform="translate(-24.74 -110.194)" fill="#2374cc"/></g></g><g transform="translate(273.269 179.724)"><g clip-path="url(#ag)"><path d="M0,0,117.423,3.157l3.895,136.869L3.895,136.869Z" transform="translate(-46.99 16.657) rotate(-22.138)" fill="url(#ah)"/></g></g><g transform="translate(316.905 188.422)"><g clip-path="url(#ai)"><path d="M0,0,108.148,1.579l1.972,125.5L1.972,125.5Z" transform="translate(-24.887 4.239) rotate(-11.234)" fill="url(#aj)"/></g></g><g transform="translate(270.496 257.729)"><g transform="translate(0 0)" clip-path="url(#ak)"><path d="M0,0,78.551,2.574,81.869,108.7,3.318,106.123Z" transform="translate(-17.603 31.987) rotate(-63.052)" fill="url(#al)"/></g></g><g transform="translate(1.066 247.074)"><g clip-path="url(#am)"><path d="M0,0,118.353,3.878l5.254,168.037L5.254,168.037Z" transform="translate(-24.543 43.527) rotate(-63.052)" fill="url(#an)"/></g></g><g transform="translate(73.305 272.332)"><g transform="translate(0 0)" clip-path="url(#ao)"><path d="M0,0,66.077,2.165l2.931,93.728L2.931,93.728Z" transform="translate(-13.401 23.225) rotate(-63.052)" fill="#00261d"/></g></g></g></g></svg>