<svg xmlns="http://www.w3.org/2000/svg" xmlns:xlink="http://www.w3.org/1999/xlink" width="85" height="71" viewBox="0 0 85 71"><defs><linearGradient id="a" x1="0.5" x2="0.5" y2="1" gradientUnits="objectBoundingBox"><stop offset="0" stop-color="#ffb338"/><stop offset="1" stop-color="#eb6f2d"/></linearGradient></defs><g transform="translate(-180 -11666)"><g transform="translate(0 1784)"><rect width="85" height="71" rx="11" transform="translate(180 9882)" fill="#ffdf88"/></g><g transform="translate(199.146 11675.545)"><g transform="translate(0)"><path d="M6.1,49.687a1.73,1.73,0,0,0,1.557,2.483H25.1a1.73,1.73,0,0,0,1.635-1.185c.571-1.643,1.825-4.533,3.9-5.475a73.39,73.39,0,0,0,7.517,2.275,2.356,2.356,0,0,0,2.777-1.73c.735-2.128-.285-2.707.043-3.979.225-.882,1.055-1.1,1.713-1.566.528-.372-.424-1.592-.424-1.592s1.012-.753,1.375-1.081c.381-.32-.147-.856-.631-1.868a2.266,2.266,0,0,1-.156-1.393c.173-.934,1.574-1.28,2.266-1.8,1.445-1.073,1.522-1.332-2.249-5.406a6.121,6.121,0,0,1-1.436-3.252c-.069-.407-.484-.848-.476-1.341.017-1.237,1.808-1.747,1.972-2.95.13-.934-1.073-2.638-1.462-4.308a25.932,25.932,0,0,0-.822-3.019,15.622,15.622,0,0,0-3.278-5.363c-2.119-2.249-5.06-3.218-8.036-3.91C18.449.72,12.991,2.1,6.789,6.974a13.393,13.393,0,0,0-4.861,7,25.148,25.148,0,0,0-.865,7.093c.086,6.349,4.126,8.572,5.925,12.681A15.665,15.665,0,0,1,8.182,41.8a23.981,23.981,0,0,1-2.076,7.863Z" transform="translate(-0.194 -1.122)" fill="#f9c1a8"/><path d="M34.549,49.662A23.981,23.981,0,0,0,36.624,41.8a15.665,15.665,0,0,0-1.194-8.053c-1.8-4.109-5.839-6.332-5.925-12.681a25.148,25.148,0,0,1,.865-7.093,13.393,13.393,0,0,1,4.861-7c4.488-3.531,8.6-5.216,14.644-4.932-4.693.259-8.233,1.929-12.05,4.93a13.393,13.393,0,0,0-4.861,7,25.148,25.148,0,0,0-.865,7.093c.086,6.349,4.126,8.572,5.925,12.681A15.665,15.665,0,0,1,39.219,41.8a23.981,23.981,0,0,1-2.076,7.863l-.009.026a1.73,1.73,0,0,0,1.558,2.484H36.1a1.73,1.73,0,0,1-1.557-2.483Z" transform="translate(-28.637 -1.124)" fill="#dfc49c"/><path d="M11.06,20.654a4.573,4.573,0,0,0,1.185,3.071h.009a6.423,6.423,0,0,0,3.27,4.5,7.843,7.843,0,0,0-1.142,2.3,1.76,1.76,0,0,0-.086.554,1.806,1.806,0,0,0,1.09,1.652,1.433,1.433,0,0,0,.329.1v.009a1.847,1.847,0,0,0,1.791-.649,4.731,4.731,0,0,1,2.145-1.419c.147-.052.285-.1.424-.147,2.379-.856,3.114-1.756,3.287-3.235h.052a7.434,7.434,0,0,0,2.716-.51,4.556,4.556,0,0,0,7.759-1.488H33.9a6.184,6.184,0,0,0,7.084-9.5,2.736,2.736,0,0,0,.147-.882,2.694,2.694,0,0,0-2.162-2.647c.009-.1.017-.208.017-.32A3.494,3.494,0,0,0,35.5,8.544a3.386,3.386,0,0,0-1.514.346,5.109,5.109,0,0,0-4.394-2.5,5.054,5.054,0,0,0-3.365,1.272,2.681,2.681,0,0,0-4.757.389,6.851,6.851,0,0,0-.735-.043A6.454,6.454,0,0,0,14.3,13.924h-.017a2.7,2.7,0,0,0-2.335,4.022,4.535,4.535,0,0,0-.891,2.707Z" transform="translate(-5.01 -1.715)" fill="#ef314c"/><path d="M31.551,17.946a2.7,2.7,0,0,1,2.335-4.022H33.9a6.454,6.454,0,0,1,6.427-5.916,6.851,6.851,0,0,1,.735.043A2.69,2.69,0,0,1,43.548,6.39a2.64,2.64,0,0,1,1.3.346,2.7,2.7,0,0,0-1.185,1.315,6.851,6.851,0,0,0-.735-.043A6.454,6.454,0,0,0,36.5,13.924h-.017a2.7,2.7,0,0,0-2.335,4.022,4.565,4.565,0,0,0,.294,5.778h.009a6.423,6.423,0,0,0,3.27,4.5,7.843,7.843,0,0,0-1.142,2.3,1.76,1.76,0,0,0-.086.554,1.79,1.79,0,0,0,.5,1.211,1.824,1.824,0,0,1-1.675.542v-.009a1.433,1.433,0,0,1-.329-.1,1.806,1.806,0,0,1-1.09-1.652,1.76,1.76,0,0,1,.086-.554,7.843,7.843,0,0,1,1.142-2.3,6.423,6.423,0,0,1-3.27-4.5h-.009a4.565,4.565,0,0,1-.294-5.778Z" transform="translate(-24.61 -1.715)" fill="#bb193b"/><path d="M36.057,56.544h3.927C41.8,51.622,43.435,46.337,42.466,40.9c-.363-2.059-1.133-4.256-.216-6.5-.138.052-.277.1-.424.147a4.731,4.731,0,0,0-2.145,1.419,1.847,1.847,0,0,1-1.791.649,23.132,23.132,0,0,0,.649,4.282C39.508,46.337,37.873,51.622,36.057,56.544Z" transform="translate(-27.187 -5.497)" fill="#bb193b"/><path d="M26.115,17.406a.865.865,0,0,1,1.012.687,3.451,3.451,0,0,0,1.432,2.2,3.533,3.533,0,0,0,4.553-.515.865.865,0,0,1,1.284,1.16,5.209,5.209,0,0,1-2.768,1.6,2.572,2.572,0,0,0,2.105,1.086.865.865,0,1,1,0,1.73A4.29,4.29,0,0,1,29.7,22.574a5.219,5.219,0,0,1-4.271-4.152.865.865,0,0,1,.687-1.016Z" transform="translate(-9.844 -3.2)" fill="#f5f5f5"/><path d="M21.255,14.255a.865.865,0,0,1,.865-.865A3.984,3.984,0,0,1,26.1,17.369a.865.865,0,0,1-1.73,0A2.249,2.249,0,0,0,22.12,15.12a.865.865,0,0,1-.865-.865Z" transform="translate(2.272 -2.66)" fill="#f5f5f5"/><path d="M42.139,23.834a5.259,5.259,0,0,0,1.218,2.812c2.718,2.931,3.494,3.941,3.4,4.986s-1.238,1.755-2.162,2.226c-.372.19-.995.509-1.038.738a1.478,1.478,0,0,0,.1.869c.47.99,1.4,2.061.423,2.881-.186.165-.506.417-.8.64a2.182,2.182,0,0,1,.279,1.253c-.094.651-.542.889-1.112,1.211-.764.438-.962.567-.7,1.665.709,3-1.031,5.968-3.9,5.372a70.15,70.15,0,0,1-7.276-2.182c-1.194.712-2.328,2.442-3.147,4.821a2.606,2.606,0,0,1-2.459,1.77H7.514a2.595,2.595,0,0,1-2.322-3.751,23.72,23.72,0,0,0,1.989-7.593,14.657,14.657,0,0,0-1.124-7.6C4.345,30.045.15,27.575.058,20.942-.053,13.342,2.3,9.148,6.119,6.155,12.934.792,18.806-.191,29.387,2.25c2.872.663,6.124,1.674,8.467,4.152a16.425,16.425,0,0,1,3.46,5.659,22.825,22.825,0,0,1,.778,2.829,10.1,10.1,0,0,0,.833,2.327c.946,2.118,1.175,2.941-.547,4.52-1.29,1.19-.439.887-.24,2.1Zm-26.728,2.23a.865.865,0,0,1,1.081-.573,6.574,6.574,0,0,0,4.368-.157.911.911,0,0,1,.971.241A3.7,3.7,0,0,0,27.8,21.243a.865.865,0,0,1,1.483-.89,5.375,5.375,0,0,1,.495,1.112,1.3,1.3,0,0,0,1.233-1.3.855.855,0,0,1,.865-.854c1.643,0,.887,3.562-1.816,3.86a5.433,5.433,0,0,1-.079.865A5.3,5.3,0,0,0,35.961,16.8a3.521,3.521,0,0,1-.644.513.865.865,0,0,1-.892-1.483,1.829,1.829,0,0,0-.934-3.392,1.8,1.8,0,0,0-1.454.734.865.865,0,1,1-1.388-1.033A3.494,3.494,0,0,1,33.1,10.755a2.6,2.6,0,0,0-2.88-2.041c.065.178.133.356.181.54a.865.865,0,0,1-1.674.432A4.225,4.225,0,0,0,22.34,7.212a3.516,3.516,0,0,1,.2,1.138.865.865,0,0,1-1.73,0,1.819,1.819,0,0,0-3.639,0,.865.865,0,0,1-1.73,0c0-.067.016-.13.02-.2a5.615,5.615,0,0,0-5.122,4.33,3.52,3.52,0,0,1,1.119.558.865.865,0,0,1-1.038,1.384A1.823,1.823,0,1,0,8.567,17.54a.865.865,0,1,1-.735,1.566,3.559,3.559,0,0,1-.647-.4,3.7,3.7,0,0,0,5.589,4.259,2.95,2.95,0,0,1-.231-3.043.865.865,0,0,1,1.548.772,1.286,1.286,0,0,0,.417,1.631,1.3,1.3,0,0,0,1.878-.478.865.865,0,1,1,1.545.778,2.984,2.984,0,0,1-3.78,1.455,5.3,5.3,0,0,1-5.01,1.054A5.514,5.514,0,0,0,12.7,27.316a.865.865,0,0,1-.274,1.708,7.115,7.115,0,0,1-1.534-.448,7.727,7.727,0,0,0-.644,1.486.932.932,0,0,0,1.638.836,5.536,5.536,0,0,1,2.533-1.682c1.869-.625,2.591-1.185,2.9-1.794a8.209,8.209,0,0,1-1.326-.278.865.865,0,0,1-.573-1.078Zm-1.547,5.351a3.6,3.6,0,0,0-.663.605,2.773,2.773,0,0,1-1.541.922c.33,3.4,2.557,6.846-1.506,18.226H12.25C17.1,37.826,13.4,36.161,13.872,31.417ZM41.929,19.573a5.6,5.6,0,0,0-.578-1.65,12.023,12.023,0,0,1-.942-2.644,21.66,21.66,0,0,0-.721-2.621,14.724,14.724,0,0,0-3.1-5.067C34.572,5.452,31.748,4.57,29,3.935,17.714,1.333,12.8,3.1,7.185,7.516a12.478,12.478,0,0,0-4.561,6.55,24.219,24.219,0,0,0-.837,6.851c.086,6.055,3.979,8.054,5.855,12.35A16.381,16.381,0,0,1,8.9,41.761a25.314,25.314,0,0,1-2.162,8.165.865.865,0,0,0,.777,1.24h.8c4.325-11.894,1.823-14.474,1.6-18.465A2.647,2.647,0,0,1,8.6,29.525a9.348,9.348,0,0,1,.764-1.76A7.294,7.294,0,0,1,6.493,23.37a5.355,5.355,0,0,1-.479-6.217,3.546,3.546,0,0,1,2.565-4.738,7.333,7.333,0,0,1,7.439-5.994A3.52,3.52,0,0,1,21.4,5.755a5.949,5.949,0,0,1,7.95,1.366,4.331,4.331,0,0,1,5.507,3.872,3.537,3.537,0,0,1,2.091,4.018A7.035,7.035,0,0,1,29.424,25.7a5.421,5.421,0,0,1-8.493,1.433,8.31,8.31,0,0,1-1.806.352c-.373,1.384-1.363,2.29-3.315,3.064a8.6,8.6,0,0,0,.148,4.52c1.2,5.717.188,10.333-1.869,16.1H24.957a.877.877,0,0,0,.823-.6,12.749,12.749,0,0,1,2.84-4.93c-.937-.328-1.694-.6-2.009-.7-3.7-1.164-5.551-2.849-5.5-5.01A.842.842,0,0,1,22,39.087a.865.865,0,0,1,.844.885c-.049,2.107,3.738,3.114,5.709,3.806A96.187,96.187,0,0,0,38.193,46.8a1.533,1.533,0,0,0,1.777-1.161c.682-1.965-.4-2.234.024-3.913.255-1.005.966-1.406,1.776-1.877-.254-.535-.576-.68-.507-1.186s.33-.533,1.4-1.384a4.065,4.065,0,0,1-.8-3c.269-1.421,1.989-1.868,2.6-2.325a4.8,4.8,0,0,0,.572-.469c-.015-.5-1.918-2.553-2.941-3.655a6.92,6.92,0,0,1-1.656-3.7,3.762,3.762,0,0,1-.485-1.494c.017-1.659,1.88-2.345,1.977-3.059Z" transform="translate(-0.054 -0.985)"/></g></g><g transform="translate(-1 1776)"><g transform="translate(200.312 9937.838)"><path d="M54.888,134.106H54.34v-.548a.743.743,0,1,0-1.485,0v.548h-.548a.743.743,0,0,0,0,1.485h.548v.548a.743.743,0,1,0,1.485,0v-.548h.548a.743.743,0,0,0,0-1.485Z" transform="translate(-51.564 -132.815)" fill="#4d793f"/></g><g transform="translate(247.612 9913.402)"><g transform="translate(0)"><path d="M189.942,14.9a2.611,2.611,0,0,1-2.093-2.051.047.047,0,0,0-.093,0,2.611,2.611,0,0,1-2.093,2.051.046.046,0,0,0,0,.091,2.611,2.611,0,0,1,2.093,2.051.047.047,0,0,0,.093,0,2.611,2.611,0,0,1,2.093-2.051A.046.046,0,0,0,189.942,14.9Z" transform="translate(-185.622 -12.814)" fill="url(#a)"/></g></g><g transform="translate(198.755 9901.451)"><g transform="translate(0)"><path d="M191.355,145.492a1.865,1.865,0,0,1-1.5-1.465.034.034,0,0,0-.066,0,1.866,1.866,0,0,1-1.5,1.465.033.033,0,0,0,0,.065,1.865,1.865,0,0,1,1.5,1.465.034.034,0,0,0,.066,0,1.866,1.866,0,0,1,1.5-1.465A.033.033,0,0,0,191.355,145.492Z" transform="translate(-188.27 -143.999)" fill="url(#a)"/></g></g><g transform="translate(242.056 9901.388)"><circle cx="0.794" cy="0.794" r="0.794" fill="#406834"/></g><g transform="translate(210.532 9942.322)"><g transform="translate(-14.206 1.206)"><circle cx="0.794" cy="0.794" r="0.794" fill="#f5c84c"/></g></g></g></g></svg>