<svg xmlns="http://www.w3.org/2000/svg" xmlns:xlink="http://www.w3.org/1999/xlink" width="505" height="220.5" viewBox="0 0 505 220.5"><defs><clipPath id="a"><rect width="505" height="220" transform="translate(180 18367)" fill="#fff" stroke="#707070" stroke-width="1"/></clipPath></defs><g transform="translate(-180 -18367)"><g clip-path="url(#a)"><g transform="translate(0 -410.121)"><g transform="translate(-784 -295.894)"><path d="M49.185,82.623C61.356,74.5,64.327,59.13,64.067,45.27c-.044-2.314.251-4.748-.832-6.793s-3.662-3.471-5.775-2.528c-1.752.782-2.542,2.768-3.541,4.406a13.65,13.65,0,0,1-5.575,5.1c-1.5.742-3.357,1.181-4.818.357-2-1.131-2.2-3.889-2.149-6.19q.141-6.427.281-12.857a21.146,21.146,0,0,0-.6-6.841,7.166,7.166,0,0,0-4.468-4.891c-2.207-.646-4.968.575-5.471,2.818a20.987,20.987,0,0,0-.111,2.863,2.421,2.421,0,0,1-1.47,2.256A2.838,2.838,0,0,1,27,21.874,30.519,30.519,0,0,1,21.566,13.5a42.326,42.326,0,0,0-5.055-8.63C14.369,2.307,11.38.255,8.047.019S1.125,1.762.231,4.983s.97,6.547,3.015,9.2a51.686,51.686,0,0,0,10.671,10.35A4.246,4.246,0,0,1,15.7,26.486c.482,1.541-1.014,3.042-2.555,3.524-1.747.544-3.628.338-5.448.522s-3.8.945-4.516,2.63c-.99,2.337.964,4.831,2.9,6.474a44.694,44.694,0,0,0,13.071,7.71,15.105,15.105,0,0,1,4.864,2.424c1.364,1.21,2.166,3.289,1.306,4.9s-3.013,2.1-4.8,1.74a31.274,31.274,0,0,1-5.084-2c-3.184-1.241-7.322-1.084-9.416,1.616a7.2,7.2,0,0,0-.885,6.424,16.727,16.727,0,0,0,3.443,5.736A44.774,44.774,0,0,0,27.5,81.733c7.389,2.654,14.262,3.444,21.686.89" transform="translate(964 19205)" fill="#cddfc8"/><path d="M86.9,106.149a1.855,1.855,0,0,0,.2-.361l.523-1.065c.451-.926,1.071-2.282,1.815-3.967,1.491-3.368,3.408-8.083,5.457-13.313s3.928-9.955,5.36-13.344c.71-1.661,1.29-3.02,1.711-4.008.19-.446.343-.808.463-1.091a1.835,1.835,0,0,0,.14-.391,1.865,1.865,0,0,0-.2.362c-.135.277-.308.629-.522,1.064-.451.926-1.069,2.282-1.814,3.967-1.492,3.368-3.408,8.083-5.458,13.315s-3.928,9.953-5.36,13.342c-.71,1.661-1.29,3.02-1.711,4.008-.19.446-.343.808-.463,1.092a1.829,1.829,0,0,0-.14.39" transform="translate(922.441 19172.186)" fill="#e0e0e0"/><path d="M51.573,84.614c-1.959-7.019-7.32-23.534-10.513-31.3L38.672,47.57c-.787-1.883-1.567-3.749-2.445-5.528a102.73,102.73,0,0,0-5.636-9.94c-1.948-3.077-3.91-5.926-5.765-8.578s-3.641-5.085-5.36-7.237A82.488,82.488,0,0,0,10.6,6.733C9.469,5.689,8.565,4.907,7.945,4.384l-.707-.59c-.161-.131-.249-.192-.249-.192s.072.079.225.219l.686.616c.6.54,1.493,1.337,2.609,2.395a86.177,86.177,0,0,1,8.765,9.608c1.7,2.157,3.469,4.6,5.317,7.25s3.793,5.509,5.73,8.585a103.24,103.24,0,0,1,5.6,9.917c.871,1.772,1.645,3.626,2.432,5.514l2.384,5.74C43.929,61.206,49.294,77.7,51.264,84.7" transform="translate(960.657 19203.277)" fill="#406834"/><path d="M62.856,54.062a5.533,5.533,0,0,0,.227-.98c.127-.634.284-1.558.462-2.7.358-2.286.749-5.458,1.17-8.958s.867-6.659,1.274-8.932c.2-1.137.373-2.056.5-2.688a5.488,5.488,0,0,0,.16-.993,5.662,5.662,0,0,0-.292.963c-.17.625-.38,1.539-.611,2.673-.471,2.267-.955,5.431-1.378,8.935-.413,3.47-.787,6.609-1.069,8.966-.142,1.1-.261,2.009-.352,2.714a5.528,5.528,0,0,0-.094,1" transform="translate(933.941 19191.221)" fill="#406834"/><path d="M5.6,65.747a1.081,1.081,0,0,0,.308.055l.886.089c.769.074,1.88.178,3.25.352,2.74.326,6.511.913,10.64,1.745s7.832,1.76,10.489,2.507c1.331.364,2.4.689,3.141.91l.854.251a1.056,1.056,0,0,0,.306.065,1.065,1.065,0,0,0-.283-.131l-.834-.313c-.728-.261-1.788-.622-3.114-1.018-2.646-.809-6.351-1.77-10.49-2.612S12.831,66.262,10.076,66c-1.376-.143-2.495-.211-3.268-.243l-.891-.025a1.079,1.079,0,0,0-.312.016" transform="translate(961.319 19173.563)" fill="#406834"/><path d="M10.968,115.149a2.047,2.047,0,0,0,.395.159l1.153.392,4.247,1.415c3.583,1.2,8.513,2.916,13.955,4.826s10.39,3.593,14,4.733c1.8.571,3.266,1.019,4.282,1.31l1.172.331a1.947,1.947,0,0,0,.416.092,2,2,0,0,0-.4-.16l-1.152-.392-4.246-1.414c-3.584-1.2-8.514-2.917-13.957-4.827s-10.388-3.592-13.993-4.732c-1.8-.571-3.266-1.019-4.282-1.31l-1.172-.33a1.931,1.931,0,0,0-.416-.092" transform="translate(958.754 19149.93)" fill="#406834"/></g><g transform="translate(235.817 18790.662)"><g transform="translate(0 -3)"><g transform="translate(3.36)"><rect width="101.025" height="167.225" fill="#e0e0e0"/></g><rect width="101.025" height="167.225" fill="#ebebeb"/><g transform="translate(4.302 3.391)"><rect width="92.421" height="160.443" fill="#fff"/></g><g transform="translate(21.895 24.239)"><g transform="translate(0.001)"><rect width="56.831" height="118.746" fill="#ebebeb"/></g><g transform="translate(0 32.918)"><path d="M1119.48,550.066c-.132-11.093,9.842-21.921,20.827-23.471,5.238-.738,10.8.3,15.7-1.705,8.736-3.582,11.516-15.19,20.307-18.631l.4,85.827H1119.48Z" transform="translate(-1119.479 -506.259)" fill="#e0e0e0"/></g></g></g><g transform="translate(277.73 5.926)"><g transform="translate(0.003)"><path d="M1608.366,436.256v93.622H1473.9l-4.844-92.967Z" transform="translate(-1469.055 -436.256)" fill="#e0e0e0"/></g><g transform="translate(0.003 0.655)"><rect width="92.77" height="134.466" transform="translate(0 92.77) rotate(-90)" fill="#f5f5f5"/></g><g transform="translate(14.235 11.876)"><g transform="translate(0.332 0.305)"><rect width="105.339" height="69.718" fill="#fff"/></g><path d="M1594.172,452.788s-.182.012-.52.018l-1.5.018-5.785.037-21.708.082-75.829.15.3-.3c.008,21.3.018,44.9.028,69.71v.009l-.332-.332,105.339.067-.265.265c.059-21.217.106-38.613.139-50.726.029-6.055.052-10.785.067-14.027q.02-2.4.03-3.686c.01-.836.029-1.279.029-1.279s.019.405.029,1.224q.01,1.264.029,3.637c.016,3.228.039,7.938.067,13.967.034,12.153.081,29.6.139,50.891v.264h-.265l-105.339.068h-.332V522.5c.01-24.807.019-48.408.027-69.71v-.305h.305l76.029.149,21.638.082,5.725.037,1.464.018C1594.015,452.776,1594.172,452.788,1594.172,452.788Z" transform="translate(-1488.501 -452.483)" fill="#e0e0e0"/></g><g transform="translate(0 0.388)"><path d="M1469.054,436.793a11.362,11.362,0,0,1,2.312,1.5c1.375.994,3.249,2.4,5.272,4.021s3.8,3.151,5.054,4.3a10.963,10.963,0,0,1,1.926,1.971c-.125.141-3.358-2.525-7.4-5.75S1468.935,436.944,1469.054,436.793Z" transform="translate(-1469.051 -436.787)" fill="#e0e0e0"/></g><g transform="translate(119.903 0.649)"><path d="M1647.452,437.149c.114.144-3.054,2.841-7.075,6.023s-7.375,5.647-7.488,5.5,3.053-2.84,7.075-6.024S1647.339,437,1647.452,437.149Z" transform="translate(-1632.886 -437.143)" fill="#e0e0e0"/></g><g transform="translate(119.367 81.281)"><g transform="translate(0.003 0.006)"><path d="M1647.151,559.478l-14.993-12.152" transform="translate(-1632.158 -547.326)" fill="#fff"/></g><path d="M1632.157,547.324c.116-.142,3.566,2.463,7.705,5.818s7.4,6.191,7.288,6.334-3.565-2.462-7.706-5.818S1632.042,547.467,1632.157,547.324Z" transform="translate(-1632.154 -547.318)" fill="#e0e0e0"/></g><g transform="translate(0 82.018)"><path d="M1469.054,559.733c-.114-.144,3.021-2.813,7-5.961s7.3-5.584,7.414-5.44-3.021,2.813-7,5.961S1469.167,559.876,1469.054,559.733Z" transform="translate(-1469.051 -548.326)" fill="#e0e0e0"/></g><g transform="translate(35.955 33.902)"><rect width="23.344" height="66.281" transform="translate(0 23.344) rotate(-90)" fill="#e0e0e0"/></g></g><g transform="translate(154.183 -6.186)"><g transform="translate(5.075 0.023)"><rect width="74.604" height="77.769" fill="#e0e0e0"/></g><g transform="translate(0.023 0.023)"><rect width="74.604" height="77.769" fill="#fafafa"/></g><path d="M1374.872,515.284h-74.65V437.469h74.65Zm-74.6-.047h74.557V437.515h-74.557Z" transform="translate(-1300.222 -437.469)" fill="#e0e0e0"/><g transform="translate(10.052 10.477)"><rect width="54.546" height="56.86" fill="#fff"/></g><g transform="translate(0.096 67.712)"><path d="M1310.309,529.994a8.933,8.933,0,0,1-1.346,1.565c-.872.919-2.1,2.163-3.468,3.515s-2.634,2.556-3.563,3.411a8.687,8.687,0,0,1-1.576,1.313,8.644,8.644,0,0,1,1.339-1.558c.871-.919,2.1-2.167,3.475-3.522s2.641-2.562,3.57-3.417A8.5,8.5,0,0,1,1310.309,529.994Z" transform="translate(-1300.353 -529.99)" fill="#e0e0e0"/></g><g transform="translate(64.595 67.573)"><path d="M1388.488,529.8a8.964,8.964,0,0,1,1.565,1.346c.919.872,2.163,2.1,3.515,3.467s2.556,2.634,3.411,3.563a8.67,8.67,0,0,1,1.313,1.576,8.69,8.69,0,0,1-1.558-1.339c-.919-.871-2.167-2.1-3.522-3.475s-2.562-2.641-3.417-3.57A8.494,8.494,0,0,1,1388.488,529.8Z" transform="translate(-1388.484 -529.801)" fill="#e0e0e0"/></g><g transform="translate(64.447 0.822)"><path d="M1388.284,448.4a8.879,8.879,0,0,1,1.346-1.565c.871-.919,2.1-2.163,3.468-3.515s2.633-2.556,3.563-3.411a8.725,8.725,0,0,1,1.576-1.313,8.679,8.679,0,0,1-1.339,1.559c-.871.919-2.1,2.166-3.476,3.522s-2.64,2.562-3.57,3.417A8.577,8.577,0,0,1,1388.284,448.4Z" transform="translate(-1388.281 -438.592)" fill="#e0e0e0"/></g><g transform="translate(0.096 0.812)"><path d="M1310.16,448.535a8.891,8.891,0,0,1-1.565-1.346c-.92-.871-2.164-2.1-3.515-3.468s-2.556-2.633-3.411-3.563a8.675,8.675,0,0,1-1.313-1.576,8.727,8.727,0,0,1,1.558,1.339c.919.871,2.166,2.1,3.522,3.476s2.563,2.64,3.418,3.57A8.514,8.514,0,0,1,1310.16,448.535Z" transform="translate(-1300.353 -438.579)" fill="#e0e0e0"/></g><g transform="translate(9.81 10.236)"><path d="M1368.266,508.556a2.639,2.639,0,0,1-.012-.276c0-.194-.007-.455-.012-.793q-.009-1.07-.024-3.07c-.012-2.693-.031-6.612-.055-11.588-.026-9.958-.063-24.145-.108-41.132l.211.211-54.392.031h-.005l.241-.242c-.012,20.87-.024,40.394-.034,56.86l-.208-.207,39.387.106,11.063.054,2.927.023.756.012a2.567,2.567,0,0,1,.263.011,1.577,1.577,0,0,1-.24.012l-.734.012-2.888.024-11.016.054-39.519.106h-.207v-.209c-.01-16.466-.022-35.99-.034-56.86v-.242h.247l54.392.031h.211v.21c-.045,17.043-.081,31.276-.107,41.267-.024,4.955-.042,8.858-.056,11.541-.01,1.314-.019,2.326-.025,3.029,0,.329-.009.583-.012.771A1.741,1.741,0,0,1,1368.266,508.556Z" transform="translate(-1313.627 -451.455)" fill="#e0e0e0"/></g><g transform="translate(28.224 29.807)"><rect width="18.201" height="18.201" fill="#ebebeb"/></g></g></g><g transform="translate(180 19033.242)"><path d="M1518.293,822.328c0,.105-113.057.19-252.488.19-139.479,0-252.512-.085-252.512-.19s113.033-.191,252.512-.191C1405.236,822.137,1518.293,822.223,1518.293,822.328Z" transform="translate(-1013.293 -822.137)" fill="#263238"/></g><g transform="translate(622.97 18850.371)"><g transform="translate(0.245 0.226)"><path d="M1626.162,594.511a26.379,26.379,0,0,1,7.4-14.1,27.089,27.089,0,0,1,38.026-.1,26.412,26.412,0,0,1,.1,37.629,27.089,27.089,0,0,1-38.026.1,26.38,26.38,0,0,1-7.712-15.574l-7.054-4.534Z" transform="translate(-1618.9 -572.57)" fill="#fff"/></g><path d="M1626.072,594.428s-.177.063-.5.2l-1.415.635-5.4,2.478-.194.089.18.117,7.029,4.573-.075-.118a26.439,26.439,0,0,0,5.059,12.648,27.011,27.011,0,0,0,2.613,3.018,30.324,30.324,0,0,0,3.213,2.695,26.253,26.253,0,0,0,7.977,3.993,27.6,27.6,0,0,0,19.385-1.291,26.6,26.6,0,0,0,14.254-33.137,25.14,25.14,0,0,0-4.032-7.452,26.189,26.189,0,0,0-5.881-5.64l-.809-.583c-.28-.178-.571-.335-.855-.5-.575-.323-1.128-.676-1.709-.967a28.187,28.187,0,0,0-3.559-1.466,29.637,29.637,0,0,0-3.611-.976c-.605-.1-1.212-.173-1.81-.259l-.9-.121-.895-.038a26.356,26.356,0,0,0-12.859,2.409,27.991,27.991,0,0,0-8.732,6.325,26.627,26.627,0,0,0-4.5,6.764,25.451,25.451,0,0,0-1.664,4.848c-.132.574-.216,1.006-.258,1.3a3.284,3.284,0,0,0-.062.457,2.874,2.874,0,0,0,.114-.432c.064-.3.17-.735.318-1.3a27.4,27.4,0,0,1,1.755-4.781,26.844,26.844,0,0,1,4.532-6.643,27.851,27.851,0,0,1,8.663-6.174,26.02,26.02,0,0,1,12.662-2.3l.879.041.879.122c.587.088,1.183.16,1.777.262a28.9,28.9,0,0,1,3.54.971,27.789,27.789,0,0,1,3.487,1.449c.569.287,1.111.636,1.673.954.277.165.564.32.837.5l.791.574a25.705,25.705,0,0,1,5.752,5.542,24.666,24.666,0,0,1,3.937,7.305,26.22,26.22,0,0,1-13.956,32.453,27.126,27.126,0,0,1-19,1.311,25.861,25.861,0,0,1-7.846-3.891,30.04,30.04,0,0,1-3.172-2.633,26.694,26.694,0,0,1-2.586-2.955,26.235,26.235,0,0,1-5.076-12.433l-.01-.078-.064-.041-7.08-4.495-.014.206,5.385-2.605,1.376-.681A3.364,3.364,0,0,0,1626.072,594.428Z" transform="translate(-1618.565 -572.262)" fill="#263238"/><g transform="translate(22.274 18.498)"><path d="M1649.024,604.228a7.143,7.143,0,0,1,1.7-3.973,6.969,6.969,0,0,1,3.541-2.359,5.775,5.775,0,0,1,4.431.676,1.747,1.747,0,1,0,3.479.077,5.768,5.768,0,0,1,4.36-1.03,6.991,6.991,0,0,1,3.723,2.065,7.162,7.162,0,0,1,2.022,3.823,8.657,8.657,0,0,1-.876,5.416,12.43,12.43,0,0,1-4.137,4.162c-2.741,1.789-6.355,4.036-6.355,4.036s-3.223-2.188-6.1-3.751a12.454,12.454,0,0,1-4.466-3.814A8.669,8.669,0,0,1,1649.024,604.228Z" transform="translate(-1649 -597.537)" fill="#ffb338"/></g></g><g transform="translate(302.815 18800.369)"><g transform="translate(0.152 0.237)"><path d="M1181.315,534.259,1191.666,532a27.772,27.772,0,1,0-10.078-25.225,27.421,27.421,0,0,0,3.544,17.631l-.011-.012Z" transform="translate(-1181.315 -482.669)" fill="#fff"/></g><path d="M1181.259,534.172s.1-.228.271-.656c.178-.446.43-1.075.757-1.894l2.886-7.276-.193.041.011.011a.118.118,0,0,0,.166,0,.116.116,0,0,0,.018-.141,27.384,27.384,0,0,1,2.4-31.022,27.96,27.96,0,0,1,8.466-7.024,28.257,28.257,0,0,1,11.394-3.32,28.634,28.634,0,0,1,12.41,2,28,28,0,0,1,5.744,3.113c.454.311.868.68,1.306,1.017a14.647,14.647,0,0,1,1.271,1.07,26.182,26.182,0,0,1,2.323,2.4c.359.431.737.845,1.077,1.287l.955,1.369.476.682.408.722.812,1.44c.253.487.452,1,.681,1.5a14,14,0,0,1,.622,1.51,25.481,25.481,0,0,1,.921,3.105,27.657,27.657,0,0,1,.041,12.463,26.951,26.951,0,0,1-5.092,10.639,28.1,28.1,0,0,1-17.906,10.446,28.838,28.838,0,0,1-9.008-.088,28.126,28.126,0,0,1-12.794-5.748.12.12,0,0,0-.1-.023l-7.643,1.748-1.99.46c-.45.105-.692.168-.692.168s.21-.035.647-.124l1.966-.4,7.763-1.621-.1-.023a28.152,28.152,0,0,0,12.881,5.908,29.11,29.11,0,0,0,9.127.136,28.472,28.472,0,0,0,18.219-10.549,27.379,27.379,0,0,0,5.2-10.814,28.1,28.1,0,0,0-.026-12.689,25.886,25.886,0,0,0-.936-3.162,14.207,14.207,0,0,0-.632-1.538c-.232-.506-.435-1.027-.693-1.524l-.826-1.467-.416-.735-.485-.7-.973-1.394c-.346-.45-.731-.872-1.1-1.311a26.566,26.566,0,0,0-2.366-2.446,14.826,14.826,0,0,0-1.3-1.09c-.446-.344-.867-.719-1.33-1.036a28.516,28.516,0,0,0-5.853-3.168A29.09,29.09,0,0,0,1207.4,482.4a28.683,28.683,0,0,0-11.585,3.4,28.347,28.347,0,0,0-8.583,7.163,27.878,27.878,0,0,0-6.118,17.88,27.518,27.518,0,0,0,3.861,13.528l.184-.14-.011-.011a.118.118,0,0,0-.165,0,.133.133,0,0,0-.028.042l-2.777,7.412-.7,1.878C1181.327,533.971,1181.259,534.172,1181.259,534.172Z" transform="translate(-1181.107 -482.345)" fill="#263238"/><g transform="translate(17.283 13.081)"><path d="M1226.656,511.124a10.968,10.968,0,1,0-15.687,9.745c-.006,1.286-.013,2.738-.013,2.738l9.612.045s.066-1.536.094-2.908A10.838,10.838,0,0,0,1226.656,511.124Z" transform="translate(-1204.722 -500.219)" fill="#ffb338"/><g transform="translate(5.075 10.885)"><path d="M1218.952,527.579s0-.045.012-.134.026-.223.047-.391c.044-.344.108-.85.208-1.5s.234-1.445.448-2.357a15.934,15.934,0,0,1,1.009-3.015,10.335,10.335,0,0,1,.91-1.62,2.026,2.026,0,0,1,.753-.663,1.144,1.144,0,0,1,1.041.039.746.746,0,0,1,.3.988,1.557,1.557,0,0,1-.85.719,3.02,3.02,0,0,1-3.819-1.988,2.246,2.246,0,0,1-.059-1.253.984.984,0,0,1,1-.749.709.709,0,0,1,.556.386.97.97,0,0,1,.085.67,2.117,2.117,0,0,1-.776,1.074,3.3,3.3,0,0,1-2.559.722,2.848,2.848,0,0,1-2.114-1.574,1.623,1.623,0,0,1-.067-1.315.8.8,0,0,1,1.158-.414,1.081,1.081,0,0,1,.46.479,1.67,1.67,0,0,1,.165.626,3.106,3.106,0,0,1-.173,1.24,3.237,3.237,0,0,1-1.554,1.813,3.36,3.36,0,0,1-2.271.3,1.747,1.747,0,0,1-.985-.523.833.833,0,0,1-.056-1.046.718.718,0,0,1,.494-.236,1.037,1.037,0,0,1,.523.1,1.582,1.582,0,0,1,.668.748c.272.59.491,1.163.713,1.71.866,2.192,1.48,4,1.89,5.248.206.625.357,1.114.458,1.445l.113.378c.025.086.034.13.034.13s-.018-.042-.047-.126l-.125-.374-.482-1.437c-.426-1.246-1.052-3.044-1.93-5.229-.223-.543-.447-1.123-.717-1.7a1.48,1.48,0,0,0-.622-.7.749.749,0,0,0-.884.108.724.724,0,0,0,.059.9,1.63,1.63,0,0,0,.922.481,3.235,3.235,0,0,0,2.187-.292,3.118,3.118,0,0,0,1.491-1.746,2.968,2.968,0,0,0,.164-1.187,1.176,1.176,0,0,0-.557-1,.7.7,0,0,0-.568-.056.7.7,0,0,0-.406.405,1.5,1.5,0,0,0,.067,1.209,2.716,2.716,0,0,0,2.013,1.5,3.161,3.161,0,0,0,2.453-.693,2.007,2.007,0,0,0,.732-1,.848.848,0,0,0-.072-.58.574.574,0,0,0-.453-.317.777.777,0,0,0-.546.171.941.941,0,0,0-.315.485,2.129,2.129,0,0,0,.057,1.179,2.9,2.9,0,0,0,3.653,1.916,1.443,1.443,0,0,0,.789-.657.639.639,0,0,0-.25-.845,1.033,1.033,0,0,0-.938-.036,1.907,1.907,0,0,0-.714.627,10.256,10.256,0,0,0-.907,1.6,16.067,16.067,0,0,0-1.023,2.994c-.22.907-.361,1.7-.469,2.348s-.179,1.148-.234,1.5q-.038.25-.06.389C1218.963,527.534,1218.952,527.579,1218.952,527.579Z" transform="translate(-1211.656 -515.092)" fill="#263238"/></g><g transform="translate(6.229 23.927)"><path d="M1222.1,534.177l-8.253-.039a.616.616,0,0,1-.616-.616h0a.615.615,0,0,1,.622-.61l8.253.039a.615.615,0,0,1,.616.615h0A.616.616,0,0,1,1222.1,534.177Z" transform="translate(-1213.233 -532.912)" fill="#263238"/></g><g transform="translate(6.22 25.687)"><path d="M1222.1,535.357l-8.253-.039a.613.613,0,1,0-.006,1.226l.906,0,1.191,2.269a.8.8,0,0,0,.7.424l2.949.014a.8.8,0,0,0,.71-.425l1.179-2.251.615,0a.613.613,0,1,0,.006-1.226Z" transform="translate(-1213.221 -535.318)" fill="#263238"/></g><g transform="translate(1.224 1.976)" opacity="0.2"><path d="M1207.187,507.443a8.384,8.384,0,0,0-.782,3.134,7.9,7.9,0,0,0,.29,2.594,5.753,5.753,0,0,0,.708,1.595c.234.342.416.5.5.455.184-.09-.124-.908-.269-2.234a9.33,9.33,0,0,1,.778-4.977,9.453,9.453,0,0,1,3.375-3.768c1.124-.736,1.957-1.023,1.91-1.221-.02-.086-.255-.127-.671-.086a5.875,5.875,0,0,0-1.693.478,8.085,8.085,0,0,0-2.2,1.434A7.957,7.957,0,0,0,1207.187,507.443Z" transform="translate(-1206.394 -502.919)" fill="#fff"/></g><g transform="translate(9.775 1.226)" opacity="0.2"><path d="M1220.848,502.689c.034-.179-.092-.374-.341-.528a2.22,2.22,0,0,0-2.072-.02c-.252.149-.382.341-.352.521.07.365.682.556,1.377.566C1219.461,503.227,1220.542,503.114,1220.848,502.689Z" transform="translate(-1218.079 -501.894)" fill="#fff"/></g><g transform="translate(9.229 28.902)"><path d="M1221.244,540.2c-.01.021-.217-.075-.567-.176a4.639,4.639,0,0,0-2.788.067c-.344.117-.546.222-.557.2a1.678,1.678,0,0,1,.523-.291,4.056,4.056,0,0,1,2.851-.068A1.694,1.694,0,0,1,1221.244,540.2Z" transform="translate(-1217.333 -539.71)" fill="#455a64"/></g><g transform="translate(7.826 26.893)"><path d="M1222.081,537.049c0,.037-1.492.06-3.333.051s-3.332-.045-3.332-.083,1.492-.059,3.333-.051S1222.081,537.013,1222.081,537.049Z" transform="translate(-1215.416 -536.965)" fill="#455a64"/></g><g transform="translate(8.405 27.925)"><path d="M1221.772,538.393a4.7,4.7,0,0,1-.813.078c-.5.029-1.2.054-1.969.061s-1.466-.005-1.969-.025a4.689,4.689,0,0,1-.814-.063,5.154,5.154,0,0,1,.816-.031l1.967-.014,1.966-.023A5.383,5.383,0,0,1,1221.772,538.393Z" transform="translate(-1216.206 -538.375)" fill="#455a64"/></g></g></g><g transform="translate(476.19 18795.426)"><g transform="translate(0.144 0.226)"><path d="M1418.2,525.086l9.868-2.157a26.479,26.479,0,1,0-9.609-24.051,26.141,26.141,0,0,0,3.38,16.81l-.011-.01Z" transform="translate(-1418.203 -475.898)" fill="#fff"/></g><path d="M1418.15,525s.094-.218.258-.626c.17-.425.411-1.025.722-1.806l2.752-6.936-.184.039.01.01a.113.113,0,0,0,.159,0,.111.111,0,0,0,.017-.135,26.108,26.108,0,0,1,2.286-29.577,26.836,26.836,0,0,1,18.935-9.862,27.309,27.309,0,0,1,11.832,1.909,26.7,26.7,0,0,1,5.477,2.969c.433.3.827.648,1.244.97a13.771,13.771,0,0,1,1.213,1.02,24.993,24.993,0,0,1,2.215,2.29c.342.411.7.806,1.027,1.227l.911,1.306.455.651.389.689.774,1.372c.241.465.431.953.648,1.426a13.03,13.03,0,0,1,.593,1.44,24.188,24.188,0,0,1,.878,2.96,26.363,26.363,0,0,1,.039,11.883,25.694,25.694,0,0,1-4.854,10.143,26.79,26.79,0,0,1-17.072,9.959,27.481,27.481,0,0,1-8.588-.083,26.81,26.81,0,0,1-12.2-5.48.116.116,0,0,0-.1-.022l-7.287,1.666-1.9.439c-.429.1-.659.16-.659.16s.2-.034.617-.119l1.874-.385,7.4-1.546-.094-.022a26.842,26.842,0,0,0,12.281,5.632,27.718,27.718,0,0,0,8.7.13,27.14,27.14,0,0,0,17.37-10.058,26.1,26.1,0,0,0,4.959-10.31,26.8,26.8,0,0,0-.025-12.1,24.8,24.8,0,0,0-.893-3.015,13.65,13.65,0,0,0-.6-1.467c-.222-.482-.415-.979-.661-1.452l-.787-1.4-.4-.7-.462-.662-.928-1.33c-.33-.429-.7-.831-1.045-1.249a25.354,25.354,0,0,0-2.256-2.332,14.267,14.267,0,0,0-1.235-1.039c-.425-.328-.827-.685-1.268-.987a27.128,27.128,0,0,0-5.58-3.02,27.742,27.742,0,0,0-12.047-1.93,27.35,27.35,0,0,0-11.046,3.241,27.029,27.029,0,0,0-8.184,6.83,26.574,26.574,0,0,0-5.833,17.048,26.241,26.241,0,0,0,3.68,12.9l.177-.134-.01-.01a.113.113,0,0,0-.158,0,.148.148,0,0,0-.026.041l-2.648,7.067c-.288.774-.509,1.369-.665,1.791C1418.214,524.81,1418.15,525,1418.15,525Z" transform="translate(-1418.006 -475.589)" fill="#263238"/><g transform="translate(12.469 23.325)"><path d="M1441.734,510.788a3.345,3.345,0,1,1-3.326-3.328A3.328,3.328,0,0,1,1441.734,510.788Z" transform="translate(-1435.044 -507.46)" fill="#263238"/><g transform="translate(11.153 0.061)"><path d="M1456.973,510.872a3.345,3.345,0,1,1-3.326-3.328A3.328,3.328,0,0,1,1456.973,510.872Z" transform="translate(-1450.283 -507.544)" fill="#263238"/></g><g transform="translate(22.305 0.123)"><path d="M1472.211,510.956a3.345,3.345,0,1,1-3.326-3.328A3.328,3.328,0,0,1,1472.211,510.956Z" transform="translate(-1465.521 -507.628)" fill="#263238"/></g></g></g><g transform="translate(345.772 18787.662)"><g transform="translate(0)"><g transform="translate(55.843)"><path d="M1356.522,491.89a6.558,6.558,0,0,0-6.722-3.428,9.014,9.014,0,0,0-11.009-.018,8.181,8.181,0,0,0-7.835-.308,8.018,8.018,0,0,0-4.291,6.5,6.85,6.85,0,0,0-7.012,3.324,6.7,6.7,0,0,0,.979,7.633,6.316,6.316,0,0,0,2.433,12.341l32.111-18.677A6.42,6.42,0,0,0,1356.522,491.89Z" transform="translate(-1316.107 -486.578)" fill="#263238"/><g transform="translate(3.333 6.328)"><g transform="translate(0 1.787)"><path d="M1323.341,521.77a26.993,26.993,0,0,1,27.514-24.1l1.4.029c15.105,1.183,22.53,14.539,20.918,29.45l-3.228,49.794-2.2,6.226-26.024,32.27-6.56-29.071-.126-13.5s-14.493-2.534-14.373-16.923C1320.719,549,1322.016,534.7,1323.341,521.77Z" transform="translate(-1320.661 -497.666)" fill="#ffbf9d"/></g><g transform="translate(14.392 71.841)"><path d="M1340.326,598.561a35.519,35.519,0,0,0,19.025-5.173s-4.669,10.289-19.01,8.742Z" transform="translate(-1340.326 -593.388)" fill="#ff9a6c"/></g><g transform="translate(6.074 36.984)"><path d="M1328.964,547.576a2.062,2.062,0,0,0,1.958,2.114,1.98,1.98,0,0,0,2.179-1.808,2.065,2.065,0,0,0-1.956-2.115A1.981,1.981,0,0,0,1328.964,547.576Z" transform="translate(-1328.961 -545.76)" fill="#263238"/></g><g transform="translate(5.449 31.642)"><path d="M1328.138,540.539c.251.273,1.847-.847,4.082-.8,2.232.02,3.848,1.191,4.1.925.122-.118-.13-.607-.833-1.135a5.735,5.735,0,0,0-3.272-1.072,5.515,5.515,0,0,0-3.257.968C1328.256,539.936,1328.013,540.416,1328.138,540.539Z" transform="translate(-1328.107 -538.46)" fill="#263238"/></g><g transform="translate(26.075 38.094)"><path d="M1356.293,549.092a2.063,2.063,0,0,0,1.959,2.113,1.979,1.979,0,0,0,2.178-1.808,2.065,2.065,0,0,0-1.956-2.115A1.982,1.982,0,0,0,1356.293,549.092Z" transform="translate(-1356.29 -547.276)" fill="#263238"/></g><g transform="translate(26.828 31.77)"><path d="M1357.349,540.714c.253.273,1.851-.846,4.083-.795,2.231.02,3.848,1.19,4.1.924.121-.117-.128-.606-.834-1.135a5.737,5.737,0,0,0-3.271-1.072,5.515,5.515,0,0,0-3.257.968C1357.469,540.111,1357.226,540.591,1357.349,540.714Z" transform="translate(-1357.318 -538.635)" fill="#263238"/></g><g transform="translate(13.501 31.683)"><path d="M1344.767,556.916a14.88,14.88,0,0,0-3.615-.722c-.569-.069-1.107-.192-1.194-.58a2.852,2.852,0,0,1,.415-1.665q.848-2.032,1.777-4.265c2.47-6.072,4.27-11.07,4.023-11.166s-2.452,4.748-4.922,10.82q-.893,2.246-1.706,4.292a3.238,3.238,0,0,0-.342,2.209,1.429,1.429,0,0,0,.921.844,3.913,3.913,0,0,0,.966.152A14.721,14.721,0,0,0,1344.767,556.916Z" transform="translate(-1339.108 -538.516)" fill="#263238"/></g><g transform="translate(26.942 25.478)"><path d="M1357.494,532.093c.254.579,2.188.1,4.526.189,2.338.033,4.273.607,4.526.041.11-.271-.269-.8-1.079-1.307a7.027,7.027,0,0,0-3.449-.976,6.773,6.773,0,0,0-3.447.8C1357.761,531.306,1357.382,531.817,1357.494,532.093Z" transform="translate(-1357.475 -530.038)" fill="#263238"/></g><g transform="translate(6.074 25.754)"><path d="M1329,532.329c.339.539,1.924.177,3.768.34,1.849.1,3.366.683,3.778.2.184-.238-.009-.763-.641-1.306a5.526,5.526,0,0,0-6.081-.433C1329.12,531.575,1328.853,532.068,1329,532.329Z" transform="translate(-1328.961 -530.415)" fill="#263238"/></g><g transform="translate(4.208)"><path d="M1326.418,514.547s4.022-8.931,8.455-10.943c5.367-2.437,7.535,3.382,12.629,2.084s10.218-3.636,15.313.344c5.577,4.356,2.86,7.277,3.077,13.667.88,25.908,5.5,33.323,7.116,21.162.176-1.333,3.943-2.319,4.617-7.949.872-7.3,1.341-16.179-.2-21.405-1.3-4.4-3.758-7.479-8.21-10.9-7.028-5.408-16.83-5.721-23.5-5.194S1326.046,503.254,1326.418,514.547Z" transform="translate(-1326.41 -495.225)" fill="#263238"/></g><g transform="translate(49.235 41.523)"><path d="M1388.588,555.663a3.933,3.933,0,0,1,4.338-3.676c2.706.31,5.692,1.9,5.4,7.436-.522,9.829-10.386,7.283-10.388,7C1387.934,566.23,1388.332,559.774,1388.588,555.663Z" transform="translate(-1387.935 -551.961)" fill="#ffbf9d"/></g><g transform="translate(51.581 44.718)"><path d="M1391.152,564.007c.045-.029.167.13.452.277a1.748,1.748,0,0,0,1.292.093c1.07-.326,2.041-1.928,2.183-3.7a5.616,5.616,0,0,0-.354-2.476,1.986,1.986,0,0,0-1.232-1.382.885.885,0,0,0-1.046.416c-.148.268-.1.467-.149.482-.029.023-.2-.176-.1-.577a1.1,1.1,0,0,1,.424-.6,1.321,1.321,0,0,1,.971-.2,2.424,2.424,0,0,1,1.726,1.617,5.769,5.769,0,0,1,.454,2.77c-.168,1.977-1.292,3.778-2.749,4.114a1.874,1.874,0,0,1-1.569-.343C1391.157,564.246,1391.117,564.023,1391.152,564.007Z" transform="translate(-1391.141 -556.327)" fill="#ff9a6c"/></g></g><g transform="translate(14.539 2.967)"><path d="M1374.857,520.159a9.489,9.489,0,0,1-4.25,1.837c-1.559.121-3.319-.8-3.549-2.329-.1-.687.082-1.478-.362-2.016-.53-.642-1.535-.465-2.37-.394a6.34,6.34,0,0,1-6.491-4.635c-.759,1.077-2.479.995-3.579.261a14.169,14.169,0,0,1-2.646-2.921,4.1,4.1,0,0,0-3.377-1.758,9.9,9.9,0,0,1-2.171.427c-1.3-.141-1.909-1.666-2.079-2.952s-.294-2.785-1.384-3.5c-1.011-.667-2.346-.321-3.552-.17s-2.75-.16-3.033-1.329a2.314,2.314,0,0,1,.482-1.775,6.478,6.478,0,0,1,7.649-2.256,8.761,8.761,0,0,1,16.064-1.347,9.082,9.082,0,0,1,7.961-1.892,8.978,8.978,0,0,1,6.126,5.375,6.615,6.615,0,0,1,6.658,2.387,6.453,6.453,0,0,1,.385,7c1.766,1.046,3.259,2.834,3.253,4.871s-2.051,4.024-4.025,3.448a3.629,3.629,0,0,1-1.5,4.593,3.71,3.71,0,0,1-4.722-1.211" transform="translate(-1335.973 -490.632)" fill="#263238"/></g><g transform="translate(45.243 28.811)"><path d="M1392.545,525.946a2.339,2.339,0,0,1-.659,1.878,3.2,3.2,0,0,1-2.016,1.134,3.465,3.465,0,0,1-2.816-.872l.422-.053a9.887,9.887,0,0,1-2.035,2.412,5.737,5.737,0,0,1-1.834,1.077,4.442,4.442,0,0,1-4.839-1.543,5.645,5.645,0,0,1-.762-2.063,1.939,1.939,0,0,1-.06-.8c.043-.008.122.263.277.744a6.59,6.59,0,0,0,.879,1.89,4.083,4.083,0,0,0,5.97.26,9.89,9.89,0,0,0,1.939-2.26l.181-.286.241.233a3.041,3.041,0,0,0,2.381.8,2.94,2.94,0,0,0,1.818-.9A4.761,4.761,0,0,0,1392.545,525.946Z" transform="translate(-1377.926 -525.945)" fill="#455a64"/></g><g transform="translate(14.879 2.044)"><path d="M1363.108,493.293c.005.034-.26.064-.708.241a3.415,3.415,0,0,0-1.571,1.268l-.123.184-.133-.185a12.356,12.356,0,0,0-4.726-3.948,9.751,9.751,0,0,0-3.9-.929,8.26,8.26,0,0,0-6.789,3.4,6.617,6.617,0,0,0-1.155,2.944l-.038.31-.3-.088a5.626,5.626,0,0,0-4.141.413,5.418,5.418,0,0,0-2.31,2.35,7.3,7.3,0,0,0-.68,2.9,1.989,1.989,0,0,1-.1-.806,5.428,5.428,0,0,1,.495-2.231,5.612,5.612,0,0,1,2.388-2.6,6.024,6.024,0,0,1,4.5-.529l-.337.222a7.054,7.054,0,0,1,1.219-3.2,8.706,8.706,0,0,1,7.262-3.636,10.063,10.063,0,0,1,4.1,1.031,12.039,12.039,0,0,1,4.765,4.222h-.256a3.372,3.372,0,0,1,1.772-1.248A1.513,1.513,0,0,1,1363.108,493.293Z" transform="translate(-1336.437 -489.371)" fill="#455a64"/></g><g transform="translate(20.725 59.872)"><path d="M1352.084,568.387s2.867,5.925-3.273,7.348a2.965,2.965,0,0,1-1.613-.089h0a2.963,2.963,0,0,1-1.925-2.051l-.847-3.225C1344.715,570.449,1352.084,568.387,1352.084,568.387Z" transform="translate(-1344.426 -568.387)" fill="#ff9a6c"/></g><g transform="translate(19.858 59.642)"><path d="M1346.239,575.635a7.8,7.8,0,0,1,.8.073,5.293,5.293,0,0,0,2.1-.315,4.6,4.6,0,0,0,2.924-5.611,4.442,4.442,0,0,0-.627-1.388l.206.074c-2.373.6-4.468,1.116-5.972,1.468l-1.774.4a2.48,2.48,0,0,1-.654.1,2.424,2.424,0,0,1,.623-.23l1.745-.507c1.486-.416,3.566-.974,5.93-1.589l.13-.034.075.108a4.74,4.74,0,0,1,.687,1.5,5.068,5.068,0,0,1-.586,3.97,5.018,5.018,0,0,1-4.826,2.2A2.091,2.091,0,0,1,1346.239,575.635Z" transform="translate(-1343.241 -568.072)" fill="#263238"/></g></g><path d="M1274.862,629.015s-10.4,5.569-12.518,20.154c-1.819,12.529-12.77,79.7-12.77,79.7l-9.77,41.345h25.311l13.765-73.378Z" transform="translate(-1239.804 -524.772)" fill="#f9a21b"/><g transform="translate(42.481 85.174)"><path d="M1297.85,763.365l14.228-128.839,12.411-28.4,4.153-2.876,3,12.646,4.015,14.3,10.979-13.795,17.336-13.438.4,6.631,8.325,24.336-6.9,63.51v65.79Z" transform="translate(-1297.85 -602.959)" fill="#fff"/></g><g transform="translate(73.553 113.007)"><path d="M1340.323,773.424a1.679,1.679,0,0,0,.034-.342c.012-.252.029-.583.05-1,.034-.913.081-2.209.143-3.862.115-3.384.28-8.229.484-14.2.42-11.992,1.086-28.556,2.04-46.839s2.024-34.835,2.856-46.806c.421-5.963.762-10.8,1-14.177.112-1.65.2-2.944.261-3.855.023-.42.042-.752.056-1a1.708,1.708,0,0,0,0-.343,1.748,1.748,0,0,0-.053.34c-.026.25-.061.581-.105,1-.084.91-.2,2.2-.356,3.848-.3,3.342-.7,8.182-1.16,14.166-.924,11.966-2.046,28.511-3.005,46.8s-1.564,34.857-1.893,46.855c-.165,6-.274,10.853-.323,14.21-.021,1.654-.036,2.95-.047,3.864v1.006A1.714,1.714,0,0,0,1340.323,773.424Z" transform="translate(-1340.306 -640.99)" fill="#263238"/></g><path d="M1408.19,694.321l19.931-61.7-35.266-18.956-7.368-7.976s-1.566,33.1-1.812,41.867-4.107,42-5.83,62.212c-.921,10.8-.329,28.836.211,39,.62,11.662.493,15.517.493,15.517l34.5-.192-11.414-45.433Z" transform="translate(-1276.691 -518.517)" fill="#f9a21b"/><path d="M1306.981,613.381l-24.043,9.245-3.73,89.4-9.285,51.934,26.517.5c.246-6.331,6.994-59.079,6.994-59.079l8.858-82.552,6.916-17.638Z" transform="translate(-1247.88 -518.383)" fill="#f9a21b"/><g transform="translate(52.647 94.507)"><path d="M1318.635,615.712a3.936,3.936,0,0,0-.441.49l-1.216,1.474-4.515,5.6-.1.119.125.094,3.825,2.875.053-.313-4.49,1.407-.141.044v.149c.085,7.919.193,17.89.31,28.7.194,13.193.37,25.133.5,33.824.087,4.3.159,7.788.209,10.249.035,1.179.063,2.11.083,2.786.014.294.025.532.034.725a.125.125,0,1,0,.051,0c0-.192.01-.431.016-.725,0-.677.007-1.608.012-2.787-.012-2.462-.028-5.954-.048-10.251-.09-8.691-.214-20.632-.35-33.825-.155-10.808-.3-20.779-.411-28.7l-.14.193,4.477-1.446.333-.108-.28-.206-3.86-2.829.029.213,4.4-5.682,1.153-1.522A4.012,4.012,0,0,0,1318.635,615.712Z" transform="translate(-1311.74 -615.712)" fill="#263238"/></g><g transform="translate(103.304 90.658)"><path d="M1380.961,700.7a1.017,1.017,0,0,0,.094-.238c.062-.188.139-.421.234-.71l.9-2.729c.786-2.368,1.952-5.783,3.448-9.985l2.481-6.862a82.026,82.026,0,0,0,2.523-8,179.235,179.235,0,0,0,3.526-18.868c1.219-8.779,2.006-17.055,2.485-24.176l.007-.1-.073-.07-3.869-3.692-.019.3,3.668-2.762.143-.108-.106-.141-6.623-8.886-1.822-2.4-.484-.616a1.074,1.074,0,0,0-.179-.2,1,1,0,0,0,.136.231l.443.646,1.744,2.457,6.492,8.981.037-.25-3.692,2.731-.188.139.169.164,3.844,3.717-.066-.17c-.52,7.1-1.332,15.373-2.547,24.136a186.417,186.417,0,0,1-3.477,18.823q-1.105,4.277-2.466,7.977l-2.424,6.886c-1.454,4.219-2.57,7.655-3.3,10.042-.365,1.194-.633,2.125-.806,2.759-.075.295-.137.533-.186.724A.926.926,0,0,0,1380.961,700.7Z" transform="translate(-1380.959 -610.453)" fill="#263238"/></g><g transform="translate(101.148 214.491)" opacity="0.3"><path d="M1408.364,791.84l-19.1,7.412-1.274-4.211-9.46,7.808-.519-11.648,8.315-11.544,20.638,6.616Z" transform="translate(-1378.012 -779.658)"/></g><g transform="translate(102.893 114.104)"><path d="M1442.547,734.871a7.187,7.187,0,0,0,3.419-5.856,64.873,64.873,0,0,0-.583-9.977c-1.363-11.246-16.448-76.549-16.448-76.549l-22.226,50.89,6.423,22.157L1380.4,731.047l9.114,25.453S1433.007,740.748,1442.547,734.871Z" transform="translate(-1380.397 -642.489)" fill="#f9a21b"/></g><g transform="translate(128.652 129.155)"><path d="M1429.665,663.055a2.729,2.729,0,0,0-.208.571l-.5,1.662c-.433,1.51-1.028,3.59-1.757,6.134-1.461,5.185-3.465,12.354-5.5,20.321s-3.647,15.241-4.661,20.533c-.509,2.646-.891,4.792-1.122,6.281-.106.7-.192,1.271-.26,1.715a2.777,2.777,0,0,0-.056.6,2.7,2.7,0,0,0,.157-.586c.092-.44.208-1,.353-1.7.315-1.538.748-3.656,1.279-6.246,1.1-5.269,2.769-12.518,4.8-20.481s3.983-15.142,5.355-20.351l1.6-6.176.409-1.686A2.781,2.781,0,0,0,1429.665,663.055Z" transform="translate(-1415.594 -663.055)" fill="#263238"/></g><g transform="translate(102.582 186.189)"><path d="M1431.592,766.512a.912.912,0,0,0-.213.06l-.612.216-2.357.875-8.8,3.344-30.3,11.683.316.143c-1.9-5.328-3.967-11.1-6.1-17.078-1.022-2.852-2.027-5.656-3-8.378l-.127.306,32.356-15.458-.023.009a18.943,18.943,0,0,1,13.3.556,24.2,24.2,0,0,1,3.283,1.709l.808.526a1.6,1.6,0,0,0,.285.167,1.627,1.627,0,0,0-.255-.209l-.783-.569a21.621,21.621,0,0,0-3.26-1.8,18.98,18.98,0,0,0-5.705-1.522,19.491,19.491,0,0,0-7.778.807l-.012,0-.012.006-32.418,15.332-.2.1.075.21c.974,2.722,1.978,5.527,3,8.379l6.123,17.071.084.234.233-.091,30.239-11.848,8.746-3.474,2.329-.948.6-.254A.835.835,0,0,0,1431.592,766.512Z" transform="translate(-1379.972 -740.986)" fill="#263238"/></g><g transform="translate(80.694 95.148)"><path d="M1350.066,633.333a6.772,6.772,0,0,0,.922-.826l2.44-2.4c2.111-2.133,4.969-5.023,8.242-8.332l-.358-.012a10.005,10.005,0,0,1,2.126,4.476,9.873,9.873,0,0,1,.2,2.616l-.033.564.438-.352c4.169-3.344,7.547-6.624,10.074-8.863,1.254-1.131,2.269-2.029,2.976-2.639a9.594,9.594,0,0,0,1.071-.976,7.958,7.958,0,0,0-1.187.837c-.745.569-1.8,1.43-3.082,2.529-2.589,2.176-6.017,5.419-10.162,8.722l.406.212a10.239,10.239,0,0,0-.209-2.751,10.37,10.37,0,0,0-2.251-4.695l-.176-.2-.182.19-8.118,8.456-2.338,2.5A6.856,6.856,0,0,0,1350.066,633.333Z" transform="translate(-1350.065 -616.587)" fill="#263238"/></g><g transform="translate(69.628 93.671)"><path d="M1334.984,614.57a2.8,2.8,0,0,0-.04.768c0,.5.03,1.224.1,2.138a44.365,44.365,0,0,0,1.221,7.355l.152.6.288-.556a17.981,17.981,0,0,1,3.195-4.361c.365-.367.742-.714,1.109-1.027l-.408-.135a67.479,67.479,0,0,0,2.981,9.742c.472,1.2.887,2.15,1.191,2.8a4.779,4.779,0,0,0,.521.981,5.223,5.223,0,0,0-.349-1.051l-1.044-2.844a83.856,83.856,0,0,1-2.81-9.732l-.09-.405-.319.27c-.378.321-.766.677-1.142,1.055a17.779,17.779,0,0,0-3.257,4.5l.441.048a54.213,54.213,0,0,1-1.391-7.267C1335.114,615.638,1335.045,614.567,1334.984,614.57Z" transform="translate(-1334.944 -614.57)" fill="#263238"/></g><g transform="translate(50.109 106.439)" opacity="0.3"><path d="M1311.013,632.015l-2.74,3.738s.765,56.686,3.675,70.761Z" transform="translate(-1308.273 -632.015)"/></g><g transform="translate(22.041 126.014)"><path d="M1269.922,778.328a1.559,1.559,0,0,1,.034-.271c.034-.195.078-.457.135-.79.13-.714.315-1.734.554-3.042.5-2.662,1.223-6.492,2.118-11.246,1.832-9.547,4.376-22.8,7.239-37.712l0,.038c-.023-2-.046-4.119-.07-6.265-.162-16.64-.308-31.7-.414-42.626-.034-5.439-.062-9.847-.081-12.916,0-1.51,0-2.689,0-3.512,0-.387.007-.689.009-.913a1.789,1.789,0,0,1,.016-.311,1.915,1.915,0,0,1,.023.311l.029.913c.017.823.042,2,.074,3.511.048,3.069.118,7.477.2,12.916.135,10.924.321,25.984.525,42.622.023,2.146.046,4.265.068,6.265v.02l0,.018c-2.91,14.9-5.5,28.148-7.359,37.688-.944,4.745-1.7,8.567-2.233,11.224-.266,1.3-.475,2.319-.621,3.028l-.17.784A1.552,1.552,0,0,1,1269.922,778.328Z" transform="translate(-1269.921 -658.763)" fill="#263238"/></g><g transform="translate(16.737 190.107)"><path d="M1271.1,746.649c-.012.114-1.9-.049-4.226.116s-4.176.574-4.2.463a16.379,16.379,0,0,1,8.429-.579Z" transform="translate(-1262.673 -746.34)" fill="#263238"/></g><g transform="translate(57.119 204.361)"><path d="M1363.969,765.816s-18.457,3.852-21.2,4.453-13.577,8.734-14.65,9.334-4.2,2.589-4.2,2.589,2.017,3.307,5.6,2.106a19.238,19.238,0,0,0,5.938-3.252l-7.633,6.964-8.689,5.308a2.564,2.564,0,0,0-1.088,3.143,1.506,1.506,0,0,0,1.821.963c2.469-.438,10.482-3.564,10.482-3.564s.376,4.836,4.789,5.436c0,0,.949,4.154,4.788,3.268,0,0,3.776,3.092,7.12,1.325s12.024-5.315,13.813-8.918a53.562,53.562,0,0,1,4.055-6.723l6.686-1.16Z" transform="translate(-1317.852 -765.816)" fill="#ffbf9d"/><g transform="translate(12.487 22.483)"><path d="M1334.916,802.1a21.878,21.878,0,0,0,5.064-2.291,15.965,15.965,0,0,0,4.514-3.263c-.1-.122-2.116,1.3-4.788,2.764S1334.841,801.945,1334.916,802.1Z" transform="translate(-1334.914 -796.537)" fill="#ff9a6c"/></g><g transform="translate(16.878 27.319)"><path d="M1350.606,803.157c-.084-.148-2.37,1.135-4.993,2.979a46.643,46.643,0,0,0-4.7,3.409c.079.144,2.39-1.094,5.019-2.939A42.834,42.834,0,0,0,1350.606,803.157Z" transform="translate(-1340.913 -803.145)" fill="#ff9a6c"/></g><g transform="translate(22.063 31.036)"><path d="M1355.956,808.229c-.1-.1-1.778,1.3-4.024,2.822s-4.025,2.845-3.929,2.985a20.849,20.849,0,0,0,4.251-2.516C1354.524,809.985,1356.078,808.345,1355.956,808.229Z" transform="translate(-1347.999 -808.224)" fill="#ff9a6c"/></g><g transform="translate(17.272 7.55)"><path d="M1351.973,776.152a4.861,4.861,0,0,0-1.936.42,14.814,14.814,0,0,0-4.172,2.347,19.651,19.651,0,0,0-3.352,3.418,5.725,5.725,0,0,0-1.054,1.68c.151.123,1.89-2.37,4.755-4.649A26.138,26.138,0,0,1,1351.973,776.152Z" transform="translate(-1341.453 -776.132)" fill="#ff9a6c"/></g></g></g></g><g transform="translate(469.649 18798.098)"><g transform="translate(0 80.266)"><g transform="translate(0 5.451)"><g transform="translate(24.917 26.942)"><path d="M1476.2,671.963c.1.839-7.571,21.678-7.571,21.678l-10.708-38.868-14.808,3.1s4.015,53.709,6.613,60.971c2.773,7.752,18.985,13.547,28.047,3.039,2.593-3.007,10.87-22.2,10.87-22.2Z" transform="translate(-1443.115 -654.773)" fill="#a26760"/></g><path d="M1448.794,644.9s1.8-4.818.374-8.986-6.263-7.4-5.962-9.9-2.267-8.5-4.584-8.03-4.028,2.733-2.069,6.587a49.574,49.574,0,0,1,3.092,7.837s-24.117-12.432-26.087-12.7-3.94-.539-4.45,1.015,4.3,3.544,4.3,3.544l6.472,8.347a36.375,36.375,0,0,0,4.5,8.973c2.785,3.724,8.263,6.218,8.263,6.218l7.032,8.375S1450.342,652.575,1448.794,644.9Z" transform="translate(-1409.068 -617.959)" fill="#a26760"/><g transform="translate(4.745 5.638)"><path d="M1415.556,626.666c.04.035.214-.141.594-.321a2.907,2.907,0,0,1,1.713-.207,9.634,9.634,0,0,1,4.855,3.263,25.261,25.261,0,0,1,3.257,5.077,10.848,10.848,0,0,0,1.254,2.214,8.935,8.935,0,0,0-.83-2.41,19.933,19.933,0,0,0-3.181-5.31,9.166,9.166,0,0,0-5.3-3.293,2.863,2.863,0,0,0-1.9.447C1415.636,626.4,1415.526,626.644,1415.556,626.666Z" transform="translate(-1415.552 -625.663)" fill="#7b4b45"/></g><g transform="translate(13.585 9.744)"><path d="M1427.635,631.294c-.091.157,1.464,1.208,3.472,2.346s3.71,1.934,3.8,1.777-1.463-1.207-3.472-2.346S1427.725,631.136,1427.635,631.294Z" transform="translate(-1427.631 -631.274)" fill="#7b4b45"/></g><g transform="translate(19.091 14.729)"><path d="M1442.433,638.484c.078-.153-1.822-.793-4.054-.037-2.242.731-3.366,2.376-3.211,2.452.143.135,1.381-1.174,3.421-1.83C1440.616,638.373,1442.4,638.677,1442.433,638.484Z" transform="translate(-1435.155 -638.085)" fill="#7b4b45"/></g></g><g transform="translate(27.973)"><g transform="translate(42.229 8.927)"><path d="M1520.3,626.32l8.356-3.611,28.75.748,10.79,4.537,2.179,27.606s-40.885,14.548-41.047,14.548-24.335-23.719-24.335-23.719Z" transform="translate(-1504.993 -622.709)" fill="#a26760"/></g><g transform="translate(38.741 24.685)"><path d="M1509.3,648.384a60.434,60.434,0,0,0,6.818,1.721,64.832,64.832,0,0,0,35.406-2.017l11.08-3.848s18.26,36.59,18.625,37.855-15.913,92.595-15.913,92.595h-65.089l1.589-52.489s-1.1-48.235-.913-48.777S1509.3,648.384,1509.3,648.384Z" transform="translate(-1500.227 -644.24)" fill="#263238"/></g><g transform="translate(0 5.523)"><path d="M1512.417,618.058l-8.449,5.965c-6.5,2.062-18.047,6.007-21.553,9.475-5.294,5.239-12.234,40.45-12.234,40.45s-1.215-3.023-3.975-3.023l-18.914,29.683s1.918,15.508,6.482,17.133,17.117.733,17.3.733h7.85l-2.9,49.13,15.255.064h0l.607-54.614,2.847-34.043,7.881-31.7Z" transform="translate(-1447.291 -618.058)" fill="#406834"/></g><g transform="translate(31.45 41.817)"><path d="M1492.238,667.65a4.008,4.008,0,0,1,.059.664q.032.712.085,1.906c.068,1.655.133,4.052.184,7.013.105,5.923.108,14.109-.161,23.145s-.769,17.21-1.229,23.116c-.229,2.953-.438,5.341-.605,6.989l-.2,1.9a.334.334,0,1,1-.086-.007q.044-.711.118-1.9c.114-1.7.272-4.074.468-7,.383-5.908.828-14.077,1.1-23.108s.314-17.208.288-23.128c-.02-2.928-.036-5.313-.047-7.013q0-1.194,0-1.907A3.729,3.729,0,0,1,1492.238,667.65Z" transform="translate(-1490.264 -667.65)" fill="#263238"/></g><g transform="translate(31.247 31.046)"><path d="M1491.974,661.137a41.257,41.257,0,0,1-1.965-8.2,41.3,41.3,0,0,1,1.965,8.2Z" transform="translate(-1489.986 -652.933)" fill="#263238"/></g><g transform="translate(30.03 43.336)" opacity="0.3"><path d="M1491.784,669.725q-.12.58-.236,1.159c-3.84,19.173-4.077,42.051-1.622,61.445.732.1,3.375-59.646,1.778-62.218" transform="translate(-1488.324 -669.725)"/></g><g transform="translate(84.743)"><path d="M1628.664,653.569c-1.857-7.537-6.21-11.124-6.21-11.124l-19,24.689,7.148,107.01h27.455l-3.143-54.328S1630.521,661.105,1628.664,653.569Z" transform="translate(-1573.909 -619.074)" fill="#406834"/><path d="M1609.6,640.157l3.724-4.673A56.084,56.084,0,0,0,1594.8,623.5c-5.357-2.026-13.557-5.724-13.557-5.724l-5.891-7.262-1.426,20.972s-1.042,46.333-1.774,54.729c-.7,8.039-9.181,44.818-9.071,79.433l41.09-.066-9.137-53.831s3.735-34.308,3.969-35.427S1609.6,640.157,1609.6,640.157Z" transform="translate(-1563.083 -610.511)" fill="#406834"/><g transform="translate(34.917 29.355)"><path d="M1624.42,650.623c.09.077-2.886,3.659-6.648,8s-6.885,7.8-6.976,7.722,2.885-3.658,6.648-8S1624.33,650.546,1624.42,650.623Z" transform="translate(-1610.794 -650.621)" fill="#263238"/></g></g><g transform="translate(42.474 12.65)"><path d="M1513.242,656.364a1.453,1.453,0,0,1-.066-.361c-.031-.277-.072-.624-.121-1.05-.094-.97-.225-2.3-.386-3.953l.226.075a60.65,60.65,0,0,0-7.112,10.014l-.456.806.076-.921a59.4,59.4,0,0,1,8.554-26.538c1.216-2.107,2.281-3.763,3.023-4.9l.875-1.3a.274.274,0,1,1,.074.046l-.806,1.341c-.7,1.165-1.721,2.843-2.9,4.962a66.158,66.158,0,0,0-7.023,17.482,65.342,65.342,0,0,0-1.392,8.941l-.38-.116a56.93,56.93,0,0,1,7.272-9.986l.206-.226.021.3c.111,1.657.2,2.99.267,3.963.021.428.039.776.053,1.056A1.405,1.405,0,0,1,1513.242,656.364Z" transform="translate(-1505.327 -627.797)" fill="#263238"/></g></g><g transform="translate(43.895 60.602)"><path d="M1469.047,734.911a1.906,1.906,0,0,1,.16-.407l.523-1.134c.236-.488.517-1.088.812-1.8s.67-1.5,1.006-2.411c.356-.9.742-1.886,1.1-2.967.392-1.068.731-2.236,1.106-3.458a69.29,69.29,0,0,0,2.685-16.38c.034-1.278.087-2.493.055-3.631.006-1.138-.044-2.2-.1-3.162-.029-.968-.127-1.838-.185-2.605s-.129-1.426-.2-1.963c-.055-.506-.1-.916-.135-1.241a1.9,1.9,0,0,1-.022-.437,1.881,1.881,0,0,1,.1.425l.206,1.233c.091.536.188,1.193.262,1.961s.2,1.639.242,2.61c.068.969.135,2.032.143,3.175.045,1.143,0,2.364-.021,3.649a65.682,65.682,0,0,1-2.7,16.465c-.386,1.226-.738,2.4-1.144,3.465-.373,1.081-.775,2.066-1.148,2.963-.353.905-.743,1.694-1.062,2.4s-.617,1.3-.873,1.776l-.588,1.1A1.845,1.845,0,0,1,1469.047,734.911Z" transform="translate(-1469.046 -693.317)" fill="#263238"/></g><g transform="translate(122.198 7.262)"><path d="M1584.72,620.434a3.574,3.574,0,0,1,.043.6q.018.647.048,1.733c.023,1.544.057,3.713.1,6.376.059,5.384.121,12.822.085,21.038-.02,1.842-.039,3.644-.058,5.392-.018.874-.037,1.734-.08,2.582-.012.213-.024.423-.047.639l-.023.168a.814.814,0,0,1-.026.105.291.291,0,0,1-.027.055l-.009.015a.213.213,0,0,1-.051.046.208.208,0,0,1-.11.033.523.523,0,0,1-.093-.023,1.293,1.293,0,0,1-.31-.221c-.317-.288-.6-.584-.88-.88-2.213-2.384-4.122-4.647-5.778-6.593l.254-.073c-.506,3.175-.918,5.768-1.21,7.609q-.222,1.307-.352,2.075l-.1.539a.621.621,0,0,1-.049.182.643.643,0,0,1,.006-.188c.017-.148.037-.327.062-.545q.1-.771.274-2.087c.263-1.844.632-4.445,1.085-7.627l.044-.313.21.241c1.674,1.924,3.6,4.176,5.816,6.536.278.291.564.586.861.854a2.115,2.115,0,0,0,.189.149c0-.031-.03.056-.022.133s-.078-.045-.149-.037l.01-.048.019-.142c.021-.2.032-.409.043-.618.039-.838.056-1.7.071-2.57.017-1.746.034-3.547.052-5.386.01-8.2.02-15.618.026-21.035.01-2.664.017-4.832.023-6.377q.014-1.088.023-1.734A3.659,3.659,0,0,1,1584.72,620.434Z" transform="translate(-1576.04 -620.434)" fill="#263238"/></g><g transform="translate(144.374 50.583)"><path d="M1609.6,679.628a1.218,1.218,0,0,1,0,.25c-.007.184-.016.426-.028.733-.034.665-.081,1.61-.142,2.818-.141,2.472-.343,6.018-.594,10.408-.539,8.832-1.284,21.059-2.119,34.738l0-.044c.2,1.159.416,2.4.634,3.65,2.466,14.346,4.7,27.333,6.319,36.757.787,4.69,1.426,8.492,1.872,11.146.21,1.3.375,2.318.49,3.034.05.332.089.594.119.79a1.438,1.438,0,0,1,.027.272,1.46,1.46,0,0,1-.066-.264l-.155-.785c-.132-.713-.32-1.726-.561-3.021-.474-2.649-1.153-6.445-1.991-11.126-1.648-9.42-3.92-22.4-6.429-36.737-.217-1.25-.431-2.491-.632-3.651l0-.022v-.022c.881-13.677,1.669-25.9,2.238-34.731.3-4.387.542-7.931.711-10.4.09-1.207.161-2.15.211-2.815l.064-.73A1.361,1.361,0,0,1,1609.6,679.628Z" transform="translate(-1606.34 -679.628)" fill="#263238"/></g></g><g transform="translate(58.567)"><g transform="translate(0 17.065)"><path d="M1514.636,524.154c-6.536.14-12.148,9.752-11.177,15.166.472,2.63,1.673,5.648-.477,7.6-2.128,1.927-6.606,1.762-8.636,3.749a8.219,8.219,0,0,0-2.318,5.879c.282,3.32-.263,7.738-2.934,8.915l13.269,4.709c1.371-1.371,1.919-3.532,3.29-4.9-1.568,1.437-3.091,6.563,4.01,7.143l4.417-3.852c12.075,3.078,24.759,6.9,34.41,1.712" transform="translate(-1489.094 -524.154)" fill="#263238"/></g><g transform="translate(19.026)"><path d="M1583.095,546.7c-.872-2.488-2.3-4.782-2.9-7.346-1.3-5.512,1.315-11.787-1.487-16.72-1.995-3.51-6.139-5.173-10.05-6.289s-7.646-1.775-10.6-4.548c-2.165-2.034-3.427-4.865-5.584-6.906-3.075-2.908-7.553-3.833-11.8-4.016a25.7,25.7,0,0,0-12.75,2.281c-3.886,1.974-7.077,5.606-7.7,9.885-.3,2.086-.006,4.261-.632,6.276-.689,2.215-2.406,3.959-3.445,6.036a11.007,11.007,0,0,0,3.042,13.236l30.621,37.722c6.33,2.239,13.222-5.718,18-10.4S1585.3,552.983,1583.095,546.7Z" transform="translate(-1515.091 -500.836)" fill="#263238"/></g><g transform="translate(22.05 15.495)"><path d="M1521,539.8c1.076-8.707,7.564-19.089,16.309-17.656l27.069,8.473a4.535,4.535,0,0,1,3.867,5.195l-5.582,64.664c.064.018-.676,1.039-.612,1.056,0,0-7.317,18.145-25.156,11.478-3.537-1.322-5.14-.1-5.625-4.146h0c-.773-.3-4.453-1.579-4.434-2.034l4.869-14.525h0c.252-5.3.407-6.906.4-6.857,0,0-11.172-2.1-12.645-16.806C1518.73,561.328,1519.8,549.472,1521,539.8Z" transform="translate(-1519.223 -522.009)" fill="#a26760"/></g><g transform="translate(25.541 30.424)"><g transform="translate(0 7.092)"><g transform="translate(19.642 6.716)"><path d="M1550.84,562.858a1.877,1.877,0,0,0,1.708,1.991,1.8,1.8,0,0,0,2.046-1.571,1.878,1.878,0,0,0-1.706-1.992A1.806,1.806,0,0,0,1550.84,562.858Z" transform="translate(-1550.832 -561.274)" fill="#263238"/></g><g transform="translate(0.82 6.233)"><path d="M1525.122,562.2a1.876,1.876,0,0,0,1.708,1.991,1.805,1.805,0,0,0,2.046-1.571,1.879,1.879,0,0,0-1.706-1.992A1.806,1.806,0,0,0,1525.122,562.2Z" transform="translate(-1525.114 -560.614)" fill="#263238"/></g><path d="M1524.014,554.117c.211.338,1.946-.791,4.147-.514,2.2.241,3.638,1.743,3.921,1.462.137-.123-.045-.709-.666-1.385a5.048,5.048,0,0,0-6.439-.758C1524.216,553.437,1523.908,553.964,1524.014,554.117Z" transform="translate(-1523.993 -552.097)" fill="#263238"/><g transform="translate(20.126 1.501)"><path d="M1551.525,556.507c.265.31,1.969-.96,4.332-.9,2.363.021,4.062,1.349,4.327,1.047.13-.133-.129-.687-.872-1.287a5.765,5.765,0,0,0-3.454-1.215,5.622,5.622,0,0,0-3.458,1.1C1551.659,555.824,1551.4,556.369,1551.525,556.507Z" transform="translate(-1551.494 -554.149)" fill="#263238"/></g><g transform="translate(7.117 1.011)"><path d="M1538.811,570.176a13.614,13.614,0,0,0-3.265-.781c-.516-.083-1-.214-1.068-.569a2.6,2.6,0,0,1,.437-1.5q.843-1.82,1.767-3.82c2.461-5.441,4.276-9.928,4.053-10.024s-2.4,4.237-4.859,9.678q-.891,2.013-1.7,3.847a2.951,2.951,0,0,0-.389,2,1.3,1.3,0,0,0,.809.8,3.561,3.561,0,0,0,.874.172A13.333,13.333,0,0,0,1538.811,570.176Z" transform="translate(-1533.718 -553.479)" fill="#263238"/></g><g transform="translate(9.179 37.36)"><path d="M1536.749,607.2a37.864,37.864,0,0,0,20.024-4.057s-5.585,10.378-20.238,8.158Z" transform="translate(-1536.535 -603.146)" fill="#7b4b45"/></g></g><g transform="translate(20.221 2.814)"><path d="M1551.63,547.545c.168.558,2.212.417,4.578.84,2.376.376,4.256,1.178,4.6.706.155-.226-.149-.76-.9-1.334a8.163,8.163,0,0,0-6.994-1.179C1552.026,546.877,1551.559,547.28,1551.63,547.545Z" transform="translate(-1551.623 -546.251)" fill="#263238"/></g><g transform="translate(0.601)"><path d="M1524.865,544.265c.381.48,2.009.1,3.933.19,1.927.031,3.534.513,3.937.058.179-.222-.051-.695-.737-1.169a6.078,6.078,0,0,0-3.152-.934,6.007,6.007,0,0,0-3.19.735C1524.949,543.574,1524.7,544.032,1524.865,544.265Z" transform="translate(-1524.815 -542.406)" fill="#263238"/></g></g><g transform="translate(35.175 14.468)"><path d="M1597.721,549.209c-1.393-2.543,1.292-5.38-.842-7.726-1.947-2.14-7.076-2.216-8.9-4.4-1.428-1.7-1.489-2.152-1.536-3.749-.059-2-.972-10.406-13.369-12.114l-1.721,7.638c-.774-.359-1.576-.67-2.368-.956a136.675,136.675,0,0,0-31.306-7.3c-1.288,2.188-.007,5.111,2.024,6.651s4.614,2.116,7.026,2.961,4.893,2.167,5.922,4.484c1.095,2.466.263,5.422,1.23,7.939,1.666,4.33,7.837,5.626,9.478,9.964,1.24,3.282-.629,6.832-1.049,10.311a12.706,12.706,0,0,0,4.028,10.756c2.332,2.116,6.3,5.954,6.573,5.184l33.187-20.54C1608,553.707,1599.627,552.69,1597.721,549.209Z" transform="translate(-1537.157 -520.605)" fill="#263238"/></g><g transform="translate(9.277 49.987)"><path d="M1515.435,587.117a1.788,1.788,0,0,1-.34.172,7.034,7.034,0,0,1-1.023.384,9.685,9.685,0,0,1-4,.285,10.019,10.019,0,0,1-5.371-2.477,8.892,8.892,0,0,1-2.065-2.848,10.1,10.1,0,0,1-.854-3.666,9.279,9.279,0,0,1,7.508-9.645,9.2,9.2,0,0,1,4.01.075,7.307,7.307,0,0,1,1.04.34.191.191,0,1,1-.021.056,9.617,9.617,0,0,0-1.045-.283,9.436,9.436,0,0,0-8.923,2.9,9.236,9.236,0,0,0-2.272,6.546,9.9,9.9,0,0,0,.823,3.56,8.708,8.708,0,0,0,1.986,2.768,9.925,9.925,0,0,0,5.214,2.469,10.025,10.025,0,0,0,3.943-.19,9.321,9.321,0,0,0,1.031-.329A1.892,1.892,0,0,1,1515.435,587.117Z" transform="translate(-1501.77 -569.138)" fill="#e0e0e0"/></g><g transform="translate(31.974 8.784)"><path d="M1589.386,565.439a1.394,1.394,0,0,1,.081-.226,4.282,4.282,0,0,0,.229-.659,5.838,5.838,0,0,0,.109-2.649,6.517,6.517,0,0,0-2-3.642,5.617,5.617,0,0,0-2.293-1.259c-.907-.255-1.922-.338-2.943-.686a3.988,3.988,0,0,1-1.429-.826,3.887,3.887,0,0,1-.956-1.429,8.474,8.474,0,0,1-.428-3.56,19.261,19.261,0,0,0,.049-3.782,4.824,4.824,0,0,0-.624-1.828,4.523,4.523,0,0,0-1.4-1.4,13.025,13.025,0,0,0-3.978-1.415,13.126,13.126,0,0,1-4.225-1.55,5.032,5.032,0,0,1-1.6-1.694,7.1,7.1,0,0,1-.777-2.223c-.3-1.549-.3-3.139-.595-4.692a9.1,9.1,0,0,0-5.718-6.722,16.061,16.061,0,0,0-4.366-.723,10.263,10.263,0,0,1-2.16-.4,4.531,4.531,0,0,1-1.866-1.089,9.366,9.366,0,0,1-1.844-3.634,9.125,9.125,0,0,0-1.906-3.227,9.7,9.7,0,0,0-5.958-3.021,8.828,8.828,0,0,0-5.422,1.161,9.986,9.986,0,0,0-3.116,2.854,9,9,0,0,0-1.2,2.4c-.111.288-.145.522-.194.672a1.506,1.506,0,0,1-.07.23,6.5,6.5,0,0,1,.206-.919,8.682,8.682,0,0,1,1.159-2.443,10,10,0,0,1,3.127-2.932,8.973,8.973,0,0,1,5.531-1.225,9.9,9.9,0,0,1,6.116,3.063,9.37,9.37,0,0,1,1.971,3.3,9.191,9.191,0,0,0,1.791,3.531,6.086,6.086,0,0,0,3.862,1.4,16.265,16.265,0,0,1,4.44.733,9.377,9.377,0,0,1,5.907,6.937c.3,1.59.3,3.181.594,4.691a6.833,6.833,0,0,0,.742,2.135,4.75,4.75,0,0,0,1.513,1.6c2.53,1.627,5.747,1.425,8.189,2.976a4.78,4.78,0,0,1,1.478,1.494,5.076,5.076,0,0,1,.653,1.928,19.4,19.4,0,0,1-.061,3.833,8.264,8.264,0,0,0,.4,3.462,3.663,3.663,0,0,0,.893,1.353,3.762,3.762,0,0,0,1.35.789c.982.343,2,.436,2.923.7a5.773,5.773,0,0,1,2.355,1.318,6.6,6.6,0,0,1,2,3.743,5.764,5.764,0,0,1-.165,2.685,3.691,3.691,0,0,1-.259.655A1.5,1.5,0,0,1,1589.386,565.439Z" transform="translate(-1532.783 -512.839)" fill="#455a64"/></g><path d="M1547.768,580.234a1.06,1.06,0,0,0-.515-.409,1.228,1.228,0,0,0-.766.124l-6.02,2.379h0c.16,3.339,2.276,4.63,3.863,4.66a4.343,4.343,0,0,0,3.864-2.306A4.253,4.253,0,0,0,1547.768,580.234Z" transform="translate(-1502.87 -522.01)" fill="#7b4b45"/><g transform="translate(37.333 57.572)"><path d="M1543.431,586.79a6.059,6.059,0,0,0,2.607-.42,3.548,3.548,0,0,0,1.983-1.883,4.767,4.767,0,0,0-.033-3.386,4.652,4.652,0,0,0-.725-1.252l.215.054c-2.045.82-3.884,1.44-5.213,1.838a12.07,12.07,0,0,1-2.158.544,17.233,17.233,0,0,1,2.081-.779c1.3-.461,3.119-1.121,5.148-1.952l.127-.052.089.106a4.914,4.914,0,0,1,.792,1.355,5.026,5.026,0,0,1,0,3.652,3.752,3.752,0,0,1-2.209,2,4.783,4.783,0,0,1-1.986.319A1.781,1.781,0,0,1,1543.431,586.79Z" transform="translate(-1540.106 -579.502)" fill="#263238"/></g></g></g><g transform="translate(190.841 18807.723)"><g transform="translate(77.47 112.623)"><path d="M1171.2,701.915,1181.329,699l12.562-4.747,9.972-5.406s.871-.861-.351-1.937-6.645,1.928-6.645,1.928l-4.293,1.6s-3.62.3-3.419-.042,5.817-3.055,5.817-3.055l9.581-5.214s2.7-1.4,1.865-3.19c-.4-.853-1.4-1.358-3.235-.653s-4.736,2.524-5.773,2.949-6.956,3.085-6.956,3.085l12.261-8.4s4-2.383,2.716-4.068-3.716.172-5.114.714-9.1,5.456-12.1,6.822c-2.572,1.171-1.952.2-1.952.2l7.28-4.5c3.209-1.983,5.646-3.952,3.556-5.255-1.363-.85-7.519,2.434-7.519,2.434l-9.09,5.078-4.332,1.916,3.61-3.233a12.279,12.279,0,0,0,3.948-4.917c1.266-3.127-1.3-3.232-1.3-3.232l-14.831,10.144c-2.307,2.016-5.026,11.72-5.026,11.72l-28.607,11.442,11.872,17.37Z" transform="translate(-1133.961 -667.874)" fill="#ffbf9d"/><g transform="translate(39.721 11.024)"><path d="M1190.346,682.938a2.117,2.117,0,0,1,.445.517,9.522,9.522,0,0,1,.928,1.612,10.895,10.895,0,0,1-1.59,11.6,9.609,9.609,0,0,1-1.325,1.306,2.128,2.128,0,0,1-.566.381c-.047-.054.735-.637,1.681-1.856a11.27,11.27,0,0,0,1.553-11.326C1190.886,683.747,1190.286,682.977,1190.346,682.938Z" transform="translate(-1188.235 -682.937)" fill="#ff9a6c"/></g></g><g transform="translate(29.953)"><path d="M1157.6,598.089c.225-1.042,1.287-1.655,2.167-2.285A10.554,10.554,0,0,0,1164,585.744a10.793,10.793,0,0,0-7.223-8.3,8.291,8.291,0,0,1-2.657-1.079c-1.872-1.471-1.27-4.347-1.982-6.586-1.506-4.742-8.442-5.675-10.927-10.008-1.515-2.643-1.009-5.885-.874-8.908s-.448-6.55-3.14-8.061c-1.448-.813-3.255-.865-4.669-1.734-2.917-1.792-2.793-5.867-3.871-9.06a11.819,11.819,0,0,0-12.825-7.464s2.125-4.557-3.5-6.886c-6.794-2.812-7.229,1.947-10.358-1.019a10.454,10.454,0,0,0-12.761-.887,29.781,29.781,0,0,1-3.429,2.565c-1.559.8-3.384.884-5.1,1.255a15.023,15.023,0,0,0-11.644,14.2l42.919,73.049c1.487,6.948-2.86,10.061,3.225,13.961,1.277.818,10.417,3.233,11.923,3.488,1.878.318,6.392.479,8.134-.273,3.782-1.634,9.484-4.111,11-7.866a10.792,10.792,0,0,0,12.125-2.722,10.144,10.144,0,0,0,.595-12.122C1158.263,600.3,1157.347,599.25,1157.6,598.089Z" transform="translate(-1069.034 -513.987)" fill="#263238"/><g transform="translate(0.198 16.878)"><path d="M1069.9,550.884l-.595-5,30.31-8.571c9.423-1.858,20.632,6.5,22.15,15.76,1.687,10.29,3.33,22.917,2.832,30.756-1,15.763-13.012,18.864-13.012,18.864l2.776,26.808-.475,6.894-30-26.225Z" transform="translate(-1069.304 -537.048)" fill="#ffbf9d"/><g transform="translate(45.306 27.292)"><path d="M1135.279,575.965a2.009,2.009,0,0,1-1.772,2.191,1.958,1.958,0,0,1-2.281-1.6,2.008,2.008,0,0,1,1.768-2.192A1.962,1.962,0,0,1,1135.279,575.965Z" transform="translate(-1131.21 -574.34)" fill="#263238"/></g><g transform="translate(41.658 21.178)"><path d="M1134.309,567.736c-.228.283-1.885-.692-4.082-.484-2.2.177-3.7,1.429-3.966,1.188-.129-.105.083-.6.736-1.161a5.7,5.7,0,0,1,3.144-1.272,5.515,5.515,0,0,1,3.28.709C1134.147,567.159,1134.423,567.608,1134.309,567.736Z" transform="translate(-1126.225 -565.985)" fill="#263238"/></g><g transform="translate(25.212 29.211)"><path d="M1107.823,578.589a2.008,2.008,0,0,1-1.772,2.19,1.959,1.959,0,0,1-2.281-1.6,2.009,2.009,0,0,1,1.769-2.193A1.962,1.962,0,0,1,1107.823,578.589Z" transform="translate(-1103.754 -576.963)" fill="#263238"/></g><g transform="translate(20.094 23.567)"><path d="M1104.845,571c-.228.283-1.887-.69-4.082-.483-2.2.177-3.7,1.429-3.967,1.188-.128-.105.081-.6.737-1.161a5.688,5.688,0,0,1,3.143-1.272,5.528,5.528,0,0,1,3.281.708C1104.681,570.425,1104.958,570.873,1104.845,571Z" transform="translate(-1096.76 -569.25)" fill="#263238"/></g><g transform="translate(34.938 22.711)"><path d="M1119.823,585.847a14.924,14.924,0,0,1,3.508-.957c.556-.108,1.076-.266,1.134-.648a2.756,2.756,0,0,0-.534-1.588q-.987-1.915-2.07-4.014c-2.889-5.722-5.037-10.447-4.8-10.558s2.771,4.436,5.659,10.158q1.047,2.118,2,4.046a3.121,3.121,0,0,1,.5,2.121,1.391,1.391,0,0,1-.844.886,3.915,3.915,0,0,1-.94.217A14.745,14.745,0,0,1,1119.823,585.847Z" transform="translate(-1117.044 -568.08)" fill="#263238"/></g><g transform="translate(19.858 62.116)"><path d="M1118.858,625.49a43.366,43.366,0,0,1-22.42-3.566s6.541,10.911,22.883,7.971Z" transform="translate(-1096.438 -621.924)" fill="#ff9a6c"/></g><g transform="translate(17.982 15.609)"><path d="M1103.813,559.633c-.16.6-2.381.528-4.93,1.069-2.56.491-4.566,1.418-4.96.927-.177-.236.131-.818.916-1.459a8.478,8.478,0,0,1,3.586-1.609,8.608,8.608,0,0,1,3.948.088C1103.357,558.934,1103.879,559.348,1103.813,559.633Z" transform="translate(-1093.875 -558.377)" fill="#263238"/></g><g transform="translate(40.799 14.908)"><path d="M1132.576,559.31c-.339.523-1.9.157-3.725.3-1.828.081-3.33.637-3.735.16-.179-.233.015-.744.644-1.266a5.527,5.527,0,0,1,6.011-.371C1132.463,558.575,1132.724,559.057,1132.576,559.31Z" transform="translate(-1125.052 -557.418)" fill="#263238"/></g></g></g><g transform="translate(0 12.455)"><g transform="translate(0 0.62)"><path d="M1111.314,540.14a27.484,27.484,0,0,0-15.037-8.288l-25.661,4.061-6.845,4.213c-.566-1.484-.929-2.407-.929-2.407-2.518-1.62-9.373-4.885-14.927,1.015-2,2.128-3.478,7.634-3.375,10.461.039,1.07.219,2.367-.716,2.995a3.472,3.472,0,0,1-1.126.4c-6.5,1.6-10.8,8.529-9.022,14.538a3,3,0,0,1,.206,1.208,3.26,3.26,0,0,1-1.066,1.628,9.894,9.894,0,0,0-1.179,11.8,12.272,12.272,0,0,1,1.945,3.446c.522,2.279-1.183,4.4-2.484,6.385-3.9,5.954-4.357,14.39.871,19.45,1.271,1.23,2.881,2.308,3.42,3.932a9.061,9.061,0,0,1,.275,2.468c.194,4.2,2.842,8.8,7.331,9.5,2.492.39,5.452-.375,7.3,1.227a9.851,9.851,0,0,1,1.717,2.6,9.631,9.631,0,0,0,10.846,3.788c3.945-1.306,6.506-5.457,5.719-9.271,4.765-1.829,7.929-6.7,7.447-11.454,0,0-2.818-14.673-1.6-18.729s-2.117-12.445-3.982-16.508-.423-13.762-.189-17.6a12.875,12.875,0,0,0-.519-3.258l0,0,0-.011c-.23-.922-.522-1.959-.859-3.07a27.489,27.489,0,0,1-.258-3.077c-.131-3.617,3.662-6.369,7.431-5.369a10.36,10.36,0,0,0,2.807.348,10.113,10.113,0,0,0,7.787-3.82,15.182,15.182,0,0,0,14.262,2.979,37.594,37.594,0,0,0,7.059,6.9,13.917,13.917,0,0,0,9.62,2.616A23.837,23.837,0,0,0,1111.314,540.14Z" transform="translate(-1028.106 -531.852)" fill="#263238"/></g><g transform="translate(40.667)"><path d="M1123.732,544.969c-.046,0,0-.568-.135-1.582a9.937,9.937,0,0,0-1.522-4.046,9.458,9.458,0,0,0-5.146-3.915,10.2,10.2,0,0,0-8.007.847l-.183.105-.143-.154a14.783,14.783,0,0,0-3.665-2.844,15.308,15.308,0,0,0-9.7-1.691,14.8,14.8,0,0,0-7.283,3.471,15.321,15.321,0,0,0-3.4,4.259c-.6,1.146-.817,1.834-.868,1.816a1.961,1.961,0,0,1,.131-.506,10.764,10.764,0,0,1,.553-1.4,14.555,14.555,0,0,1,3.334-4.439,14.923,14.923,0,0,1,7.451-3.669,15.644,15.644,0,0,1,10.041,1.709,15.116,15.116,0,0,1,3.795,2.956l-.326-.049a10.6,10.6,0,0,1,8.412-.835,9.7,9.7,0,0,1,5.293,4.162,9.561,9.561,0,0,1,1.417,4.2,6.7,6.7,0,0,1,.012,1.192A1.37,1.37,0,0,1,1123.732,544.969Z" transform="translate(-1083.673 -531.005)" fill="#455a64"/></g><g transform="translate(7.113 15.223)"><path d="M1037.825,574.793a35.008,35.008,0,0,0,6.159-1.051,24.493,24.493,0,0,0,12.264-8.073l.546-.7.076-.1.119-.01a13.9,13.9,0,0,0,7.245-2.783,14.651,14.651,0,0,0,4.13-4.756,15.753,15.753,0,0,0,1.681-5.52,1.225,1.225,0,0,1,.021.406,8.221,8.221,0,0,1-.075,1.165,12.357,12.357,0,0,1-1.3,4.112,14.591,14.591,0,0,1-4.161,4.962,14.166,14.166,0,0,1-7.5,2.926l.195-.106c-.176.226-.366.469-.558.713a23.261,23.261,0,0,1-6.276,5.45,24.032,24.032,0,0,1-6.3,2.657,22.455,22.455,0,0,1-4.566.726c-.545.039-.97.012-1.257.013A1.391,1.391,0,0,1,1037.825,574.793Z" transform="translate(-1037.825 -551.805)" fill="#455a64"/></g><g transform="translate(10.756 17.164)"><path d="M1042.8,619.774a7.934,7.934,0,0,0,.946.675,5.334,5.334,0,0,0,1.3.51,5.792,5.792,0,0,0,1.894.116,5.184,5.184,0,0,0,2.227-.745,4.579,4.579,0,0,0,1.022-.86,4.5,4.5,0,0,0,.746-1.223,5.285,5.285,0,0,0,.238-3.114,4.912,4.912,0,0,0-1.877-2.907l-.28-.2.346,0a10.7,10.7,0,0,0,5.349-1.54,14.277,14.277,0,0,0,4.424-4.333c.318-.441.566-.93.847-1.406.235-.5.506-.989.7-1.517a15.336,15.336,0,0,0,.942-3.281,24.831,24.831,0,0,0,.15-7.115,69.616,69.616,0,0,0-2.236-10.419l-.025-.092.08-.056a26.169,26.169,0,0,0,8.294-9.389,27.666,27.666,0,0,0,2.049-4.969c.2-.811.464-1.577.584-2.341q.111-.568.217-1.112c.07-.362.094-.722.141-1.071a25.91,25.91,0,0,0-.021-6.576c-.081-.767-.238-1.345-.3-1.743-.033-.189-.058-.337-.079-.451a.735.735,0,0,1-.018-.155s.23.81.487,2.336a25.1,25.1,0,0,1,.1,6.609c-.045.351-.065.714-.133,1.079s-.138.739-.209,1.121c-.116.77-.371,1.543-.573,2.362a27.653,27.653,0,0,1-2.038,5.019,26.294,26.294,0,0,1-8.349,9.5l.055-.148a69.194,69.194,0,0,1,2.253,10.46,25.009,25.009,0,0,1-.157,7.193,15.554,15.554,0,0,1-.962,3.334c-.2.537-.471,1.035-.711,1.541-.286.483-.541.979-.864,1.427a14.493,14.493,0,0,1-4.519,4.4,10.913,10.913,0,0,1-5.479,1.551l.065-.2a5.119,5.119,0,0,1,1.946,3.044,5.468,5.468,0,0,1-.27,3.226,4.649,4.649,0,0,1-.786,1.264,4.75,4.75,0,0,1-1.067.881,5.294,5.294,0,0,1-2.3.74,5.82,5.82,0,0,1-1.931-.147,5.216,5.216,0,0,1-1.312-.547,3.916,3.916,0,0,1-.7-.522C1042.87,619.848,1042.8,619.774,1042.8,619.774Z" transform="translate(-1042.802 -554.458)" fill="#455a64"/></g></g><g transform="translate(82.379 28.251)"><path d="M1157.045,628.26a1.065,1.065,0,0,1,.154-.108l.466-.3a8,8,0,0,0,.744-.5,11.918,11.918,0,0,0,.973-.749,17.48,17.48,0,0,0,6.214-11.452,15.776,15.776,0,0,0-.585-6.266,17.359,17.359,0,0,0-3.36-6.193,16.95,16.95,0,0,0-6.118-4.63l-.184-.082.142-.142a15.619,15.619,0,0,0,4.264-7.984,14.891,14.891,0,0,0,.312-2.989,13.985,13.985,0,0,0-.27-2.938,13.726,13.726,0,0,0-.833-2.769,14.915,14.915,0,0,0-1.317-2.507,15.9,15.9,0,0,0-8.169-6.407l-.133-.045.061-.125a14.067,14.067,0,0,0,.921-9.627,13.746,13.746,0,0,0-3.885-6.486,14.49,14.49,0,0,0-4.12-2.741c-.528-.231-.942-.387-1.227-.478l-.32-.111a.52.52,0,0,1-.106-.044,10.506,10.506,0,0,1,1.683.563,14.179,14.179,0,0,1,4.19,2.706,13.812,13.812,0,0,1,3.983,6.54,14.233,14.233,0,0,1-.894,9.785l-.072-.171a16.132,16.132,0,0,1,8.321,6.494,15.207,15.207,0,0,1,1.344,2.55,14.043,14.043,0,0,1,.853,2.821,14.3,14.3,0,0,1,.277,2.993,15.188,15.188,0,0,1-.317,3.042,15.868,15.868,0,0,1-4.346,8.125l-.042-.224a17.175,17.175,0,0,1,6.21,4.714,17.561,17.561,0,0,1,3.389,6.292,15.945,15.945,0,0,1,.566,6.358,17.457,17.457,0,0,1-6.366,11.5,11.283,11.283,0,0,1-.992.734,7.3,7.3,0,0,1-.76.485l-.479.275A1.083,1.083,0,0,1,1157.045,628.26Z" transform="translate(-1140.668 -552.589)" fill="#455a64"/></g><g transform="translate(61.125 60.802)"><path d="M1112.573,597.44a25.862,25.862,0,0,1,5.971,1.621l.019.052c-.179,1.381-.53,2.9-1.7,3.683a2.991,2.991,0,0,1-2.988.1,3.292,3.292,0,0,1-1.742-2.3A6.8,6.8,0,0,1,1112.573,597.44Z" transform="translate(-1111.746 -597.167)" fill="#ff9a6c"/><path d="M1115.527,602.976c.014.037-.163.164-.545.227a2.559,2.559,0,0,1-1.587-.315,3.265,3.265,0,0,1-1.542-1.841,5.011,5.011,0,0,1-.026-2.9,3.85,3.85,0,0,1,.271-.772.632.632,0,0,1,.648-.293c.179.036.25.064.374.1l1.29.363,2.174.651a6.544,6.544,0,0,1,1.958.768,6.562,6.562,0,0,1-2.083-.3l-2.212-.511-1.3-.324-.307-.076c-.02.05-.019-.131-.027-.11-.023-.005.111.107.071.089a4.865,4.865,0,0,0-.192.595,4.717,4.717,0,0,0-.036,2.534,2.911,2.911,0,0,0,1.191,1.621A3.64,3.64,0,0,0,1115.527,602.976Z" transform="translate(-1111.626 -597.066)" fill="#263238"/></g><g transform="translate(21.161 84.567)"><path d="M1057.288,770.683h87.268l-2.059-34.745-3.089-41.664a42.784,42.784,0,0,0-7.931-21.8l-6.634-9.236-8.2-11-5.053-9.9-31.33-12.8-3.869,7.987s-4.559,3.276-7.483,5.773c-5.678,4.849-9,11.235-10.893,18.416-.018.07-.037.141-.056.212-1.83,7.051-.4,17.235-.4,17.235l10.418,50.093a93.753,93.753,0,0,0-7.9,23.074C1059.624,754.552,1058.222,763.423,1057.288,770.683Z" transform="translate(-1057.02 -629.539)" fill="#406834"/><g transform="translate(26.768 12.019)"><path d="M1122.776,651.976a5.889,5.889,0,0,1-.717-1.24l-1.748-3.525.44-.008c-.945,2.326-2.119,5.217-3.434,8.45l-.126.311-.318-.129-4.955-2.009c-5.1-2.081-9.7-4-13.012-5.422l-3.912-1.718a6.753,6.753,0,0,1-1.4-.717,6.81,6.81,0,0,1,1.5.466l4,1.512c3.364,1.306,7.993,3.153,13.091,5.234l4.945,2.032-.443.182,3.618-8.375.222-.515.218.508q.92,2.146,1.551,3.615A5.834,5.834,0,0,1,1122.776,651.976Z" transform="translate(-1093.596 -645.962)" fill="#263238"/></g><g transform="translate(18.762 103.263)"><path d="M1117.662,786.7a6.457,6.457,0,0,1-1.505-.273c-.959-.214-2.333-.58-4.017-1.08a99.658,99.658,0,0,1-24.869-11.407c-1.475-.948-2.645-1.749-3.43-2.335a6.415,6.415,0,0,1-1.183-.96,6.386,6.386,0,0,1,1.336.735l3.54,2.141a126.553,126.553,0,0,0,24.758,11.355l3.939,1.289A6.413,6.413,0,0,1,1117.662,786.7Z" transform="translate(-1082.656 -770.638)" fill="#263238"/></g><g transform="translate(0.591 13.434)"><path d="M1062.495,698.255s16.082,44.132,21.37,52.126,7.908,10.262,15.981,8.878,43.515-13.031,43.515-13.031l-.517-7.229-32.811,6.936-18.933-3.89-17.287-26.618Z" transform="translate(-1059.079 -661.399)" opacity="0.3"/><path d="M1130.333,702.044l-1.786-2.913-8.666,2.06-13.1,2.928s-7.608-44.338-18.6-51.448-19.021-5.856-25.784,6.692-3.121,19.86-3.121,19.86,17.493,48.867,28.905,58.841,49.031-8.848,49.031-8.848l7.626-6.33Z" transform="translate(-1057.953 -648.015)" fill="#406834"/><path d="M1130.207,701.925a2.7,2.7,0,0,1,.268.337l.746,1.025c.665.935,1.623,2.283,2.866,4.029l10.787,15.339.1.147-.139.116-7.605,6.352-.021.018-.023.012a157.408,157.408,0,0,1-20.158,8.194,86.766,86.766,0,0,1-12.12,3.047,44.686,44.686,0,0,1-6.6.617,20.375,20.375,0,0,1-6.814-.945,10.744,10.744,0,0,1-1.634-.7l-.79-.424c-.249-.165-.485-.353-.729-.531a7.927,7.927,0,0,1-1.309-1.213l-1.24-1.293c-.768-.909-1.445-1.893-2.18-2.846s-1.315-2.013-1.985-3.025a138.876,138.876,0,0,1-7.062-13.067c-4.415-9.1-8.449-18.814-12.359-28.868-1.178-3.047-2.325-6.076-3.391-9.029l.016.037a17.165,17.165,0,0,1-.851-8.388,30.834,30.834,0,0,1,2.17-7.952,39.966,39.966,0,0,1,3.814-7.124,20.843,20.843,0,0,1,5.471-5.76,12.146,12.146,0,0,1,7.487-2.119,19.808,19.808,0,0,1,7.3,2.087c1.1.577,2.2,1.146,3.224,1.808a12.234,12.234,0,0,1,2.87,2.293,28.647,28.647,0,0,1,3.9,5.891,86.286,86.286,0,0,1,4.957,12.3c1.314,4.029,2.412,7.93,3.363,11.655,1.9,7.453,3.284,14.191,4.311,20.017l-.241-.159,13.383-2.934,8.413-1.934.054-.012.028.046,1.309,2.207c.286.49.412.744.412.744s-.169-.226-.476-.7l-1.374-2.17.082.034-8.385,2.059-13.358,3.049-.2.047-.038-.206c-1.066-5.8-2.488-12.529-4.418-19.957-.965-3.713-2.076-7.6-3.4-11.608a86.163,86.163,0,0,0-4.961-12.2,28.129,28.129,0,0,0-3.825-5.749,11.551,11.551,0,0,0-2.743-2.176c-1.014-.651-2.089-1.207-3.17-1.77a19.187,19.187,0,0,0-7.048-2.008,11.47,11.47,0,0,0-7.075,2.017,20.215,20.215,0,0,0-5.28,5.585,39.368,39.368,0,0,0-3.741,7.006,30.229,30.229,0,0,0-2.117,7.774,16.635,16.635,0,0,0,.787,8l.017.037c1.063,2.942,2.209,5.97,3.386,9.013,3.9,10.04,7.928,19.746,12.321,28.822a138.969,138.969,0,0,0,7.009,13.014c.661,1,1.252,2.048,1.959,3s1.389,1.913,2.138,2.8l1.2,1.254a7.46,7.46,0,0,0,1.247,1.165c.227.165.446.342.678.5l.743.4a10.061,10.061,0,0,0,1.546.665,19.808,19.808,0,0,0,6.6.927,44.182,44.182,0,0,0,6.507-.591,86.621,86.621,0,0,0,12.046-2.987,159.362,159.362,0,0,0,20.123-8.072l-.044.029,7.646-6.306-.037.263-10.637-15.448-2.78-4.085-.7-1.055A2.392,2.392,0,0,1,1130.207,701.925Z" transform="translate(-1057.828 -647.895)" fill="#263238"/><g transform="translate(42.412 56.14)"><path d="M1115.988,746.905a12.21,12.21,0,0,1-.2-3.434,36.5,36.5,0,0,1,4.223-15.969,12.336,12.336,0,0,1,1.874-2.9,26.11,26.11,0,0,1-1.426,3.113,45.914,45.914,0,0,0-4.174,15.779A25.909,25.909,0,0,1,1115.988,746.905Z" transform="translate(-1115.779 -724.605)" fill="#263238"/></g><g transform="translate(62.614 53.365)"><path d="M1160.027,748.65a4.674,4.674,0,0,1-.962-.872c-.588-.591-1.409-1.472-2.393-2.589a77.037,77.037,0,0,1-7.031-9.266,48.421,48.421,0,0,1-5.111-10.438,28.08,28.08,0,0,1-.945-3.391,4.548,4.548,0,0,1-.187-1.279c.12-.028.55,1.754,1.6,4.505a57.48,57.48,0,0,0,5.237,10.231,104.354,104.354,0,0,0,6.817,9.322A41.192,41.192,0,0,1,1160.027,748.65Z" transform="translate(-1143.383 -720.814)" fill="#263238"/></g></g></g><g transform="translate(93.911 118.536)"><path d="M1193.968,710.254l10.126-2.918,12.563-4.747,9.971-5.406s.871-.861-.351-1.937-6.645,1.928-6.645,1.928l-4.293,1.6s-3.619.3-3.418-.042,5.816-3.055,5.816-3.055l9.582-5.214s2.7-1.4,1.865-3.19c-.4-.853-1.4-1.358-3.235-.653s-4.736,2.524-5.773,2.949-6.957,3.085-6.957,3.085l12.261-8.4s4-2.382,2.716-4.067-3.715.172-5.114.714-9.1,5.456-12.095,6.822c-2.572,1.171-1.952.2-1.952.2l7.281-4.5c3.209-1.983,5.646-3.951,3.556-5.255-1.364-.85-7.52,2.434-7.52,2.434l-9.09,5.078-4.332,1.916,3.61-3.233a12.279,12.279,0,0,0,3.948-4.917c1.266-3.128-1.3-3.232-1.3-3.232l-14.83,10.144c-2.307,2.016-5.027,11.72-5.027,11.72L1156.727,709.1l12.168,17.6Z" transform="translate(-1156.506 -676.023)" fill="#ffbf9d"/><path d="M1193.887,710.184s-.14.1-.422.3l-1.259.844-4.9,3.248-18.43,12.149-.093.061-.063-.092-12.193-17.58-.1-.149.17-.065,28.6-11.046-.1.113c.558-1.945,1.2-3.943,1.962-5.962.386-1.007.792-2.021,1.27-3.019a10.073,10.073,0,0,1,1.841-2.827l.005-.005.012-.008,14.826-10.15.055-.037.057.005a2.17,2.17,0,0,1,1.265.516,1.777,1.777,0,0,1,.552,1.276,5.524,5.524,0,0,1-.774,2.583,12.6,12.6,0,0,1-3.595,4.113l.018-.015-3.609,3.234-.2-.312,4.331-1.917-.015.008,7.685-4.294a40.924,40.924,0,0,1,4.046-2.061c.7-.307,1.408-.6,2.14-.847a7.112,7.112,0,0,1,2.308-.471,1.338,1.338,0,0,1,.594.152,2.943,2.943,0,0,1,.455.353,1.292,1.292,0,0,1,.423,1.1,2.112,2.112,0,0,1-.463,1.042,5.585,5.585,0,0,1-.736.8,23.606,23.606,0,0,1-3.441,2.444l-7.048,4.353.06-.059c-.269.165.391.069.771-.087a11.9,11.9,0,0,0,1.255-.536c.823-.4,1.629-.842,2.427-1.292,1.6-.9,3.162-1.836,4.722-2.759l2.336-1.376a24.692,24.692,0,0,1,2.395-1.281c.8-.339,1.571-.82,2.432-1.123a3.664,3.664,0,0,1,1.369-.247,1.83,1.83,0,0,1,1.293.594,1.45,1.45,0,0,1,.386,1.377,2.992,2.992,0,0,1-.681,1.208,9.7,9.7,0,0,1-2.024,1.721c-1.448.963-2.854,1.947-4.265,2.906l-8.292,5.676-.171-.3,5.414-2.4c.894-.409,1.783-.749,2.614-1.218l2.516-1.373a17.436,17.436,0,0,1,2.6-1.18,3.93,3.93,0,0,1,1.44-.2,1.845,1.845,0,0,1,1.761,2.048,2.383,2.383,0,0,1-.641,1.292,5.367,5.367,0,0,1-1.068.9c-.394.255-.8.446-1.187.666-3.151,1.7-6.183,3.378-9.147,4.945-1.5.734-2.978,1.459-4.4,2.218a8.858,8.858,0,0,0-.983.587c-.017,0-.023.039-.01-.035a.094.094,0,0,0-.027-.067s-.006-.005-.006-.005a.547.547,0,0,0,.1.027,2.361,2.361,0,0,0,.279.029c.193.011.389.012.585.011.784-.01,1.565-.058,2.334-.116l-.037.008,4.3-1.6-.018.008a24.32,24.32,0,0,1,4.447-1.92,6.547,6.547,0,0,1,1.156-.233,1.641,1.641,0,0,1,1.183.245,2,2,0,0,1,.661.978,1.25,1.25,0,0,1-.3,1.144l-.011.012-.017.009-9.98,5.389-.007,0-.007,0-12.574,4.715h-.006l-7.564,2.145-1.928.537c-.431.119-.654.17-.654.17s.212-.073.639-.2l1.915-.57,7.553-2.212-.005,0,12.551-4.778-.013.006,9.961-5.424-.028.02a1.009,1.009,0,0,0,.232-.911,1.767,1.767,0,0,0-.585-.848,1.427,1.427,0,0,0-1-.182,6.356,6.356,0,0,0-1.109.228,24.135,24.135,0,0,0-4.386,1.909l-.01.005-.009,0-4.291,1.6-.018.007h-.019c-.776.06-1.557.111-2.355.123-.2,0-.4,0-.6-.009a2.688,2.688,0,0,1-.314-.033.716.716,0,0,1-.182-.053.451.451,0,0,1-.068-.048.214.214,0,0,1-.058-.132.188.188,0,0,1,.074-.152,6.934,6.934,0,0,1,1.069-.662c1.426-.766,2.9-1.494,4.4-2.232,2.949-1.568,5.985-3.252,9.129-4.958.389-.22.8-.417,1.161-.654a5.019,5.019,0,0,0,1-.846,2.07,2.07,0,0,0,.561-1.117,1.519,1.519,0,0,0-1.464-1.68,3.607,3.607,0,0,0-1.314.184,17.2,17.2,0,0,0-2.539,1.159l-2.512,1.375c-.845.477-1.768.834-2.644,1.236l-5.4,2.4-.171-.3,8.293-5.689c1.409-.96,2.823-1.95,4.262-2.909a9.391,9.391,0,0,0,1.944-1.653,2.654,2.654,0,0,0,.6-1.056,1.075,1.075,0,0,0-.3-1.039,2,2,0,0,0-2.269-.25c-.818.287-1.57.757-2.416,1.119-1.583.739-3.118,1.732-4.68,2.635-1.56.924-3.126,1.861-4.728,2.766-.8.452-1.61.9-2.448,1.3a12.5,12.5,0,0,1-1.295.553,3.5,3.5,0,0,1-.713.185.629.629,0,0,1-.481-.1.35.35,0,0,1-.111-.326.633.633,0,0,1,.089-.236l.021-.035.039-.024,7.046-4.354a23.274,23.274,0,0,0,3.383-2.4,5.278,5.278,0,0,0,.688-.746,1.751,1.751,0,0,0,.39-.854.9.9,0,0,0-.312-.79,2.748,2.748,0,0,0-.378-.294.985.985,0,0,0-.423-.1,6.845,6.845,0,0,0-2.166.452c-.716.242-1.417.531-2.108.835a40.825,40.825,0,0,0-4.018,2.046l-7.683,4.291-.008,0-.008,0-4.332,1.915-1.089.482.887-.794,3.611-3.233.005,0,.014-.01a12.248,12.248,0,0,0,3.478-3.978,5.217,5.217,0,0,0,.733-2.392,1.41,1.41,0,0,0-.43-1.019,1.805,1.805,0,0,0-1.032-.421l.111-.032-14.835,10.138.017-.013a9.9,9.9,0,0,0-1.759,2.713c-.472.984-.877,1.99-1.262,2.99-.754,2.005-1.4,4-1.96,5.93l-.024.083-.078.03-28.616,11,.066-.214,12.144,17.613-.156-.03,18.5-12.067,4.928-3.2,1.272-.816C1193.739,710.27,1193.887,710.184,1193.887,710.184Z" transform="translate(-1156.425 -675.954)" fill="#ff9a6c"/></g></g></g></g><path d="M-7691.435,6887.5H-8195v-1h503.565Z" transform="translate(8376 11700)" fill="#5c7c52"/></g></svg>