<svg xmlns="http://www.w3.org/2000/svg" width="54.255" height="54.263" viewBox="0 0 54.255 54.263"><g transform="translate(0 0)"><path d="M233.8,71.039a11.324,11.324,0,0,0-11.461,11.155v.019a1.59,1.59,0,0,0,2.039,1.525,3.935,3.935,0,0,1,2.832.257,3.584,3.584,0,0,1,1.965,3.354,3.637,3.637,0,0,1-2.346,3.084,1.59,1.59,0,1,0,1.127,2.973,6.666,6.666,0,0,0,.7-12.243,7.028,7.028,0,0,0-2.928-.754,8.235,8.235,0,0,1,8.072-6.19,8.142,8.142,0,0,1,8.281,7.975,1.59,1.59,0,0,0,3.18,0A11.324,11.324,0,0,0,233.8,71.039Zm0,0" transform="translate(-198.773 -63.51)" fill="#eb6f2d"/><path d="M184.664,5.416A19.7,19.7,0,0,0,159.522,3.76a18.821,18.821,0,0,0-6.888,9.671,11.428,11.428,0,0,0,.966,8.527c3.051,6.062,3.913,11.636,2.975,19.24-.506,4.1.465,7.485,2.809,9.777a11.637,11.637,0,0,0,8.134,3.289q.358,0,.718-.022a11.546,11.546,0,0,0,7.483-3.364,10.915,10.915,0,0,0,2.992-10.107,6.136,6.136,0,0,1,2.858-6.417,18.392,18.392,0,0,0,3.1-28.938Zm-4.794,26.25a9.647,9.647,0,0,0-3.685,4.228,8.881,8.881,0,0,0-.579,5.561,7.718,7.718,0,0,1,.175,1.9,7.809,7.809,0,0,1-2.313,5.277,8.368,8.368,0,0,1-5.426,2.436,8.469,8.469,0,0,1-6.436-2.367c-1.631-1.595-2.262-3.988-1.876-7.115.712-5.767.877-12.779-3.29-21.059a8.43,8.43,0,0,1-.761-6.181A15.617,15.617,0,0,1,161.4,6.324,16.521,16.521,0,0,1,182.456,7.7a15.165,15.165,0,0,1,4.688,10.819,15.322,15.322,0,0,1-7.274,13.144Zm0,0" transform="translate(-136.069 0)" fill="#eb6f2d"/><path d="M91.217,204.042A1.59,1.59,0,0,0,89,206.326a12.313,12.313,0,0,1,0,17.794,1.59,1.59,0,1,0,2.213,2.283,15.493,15.493,0,0,0,0-22.361Zm0,0" transform="translate(-79.14 -182.017)" fill="#eb6f2d"/><path d="M.469,277.762a1.59,1.59,0,0,0-.007,2.248,1.309,1.309,0,0,1,0,1.841,1.59,1.59,0,0,0,2.255,2.241,4.5,4.5,0,0,0,0-6.323,1.59,1.59,0,0,0-2.248-.007Zm0,0" transform="translate(0 -247.911)" fill="#eb6f2d"/><path d="M47.377,246.522a1.59,1.59,0,0,0-2.213,2.284,6.069,6.069,0,0,1,0,8.79,1.59,1.59,0,0,0,2.213,2.284,9.25,9.25,0,0,0,0-13.357Zm0,0" transform="translate(-39.946 -219.994)" fill="#eb6f2d"/></g></svg>