<svg xmlns="http://www.w3.org/2000/svg" width="186" height="186" viewBox="0 0 186 186"><g transform="translate(-1012 -5101)"><path d="M93,0A93,93,0,1,1,0,93,93,93,0,0,1,93,0Z" transform="translate(1012 5101)" fill="#fff7e0"/><path d="M93,12a81,81,0,1,0,81,81A81.092,81.092,0,0,0,93,12M93,0A93,93,0,1,1,0,93,93,93,0,0,1,93,0Z" transform="translate(1012 5101)" fill="#406834"/><g transform="translate(1058 5153.138)"><rect width="9.57" height="87.19" transform="translate(3.267 3.267)" fill="#995023"/><rect width="9.57" height="87.19" transform="translate(80.888 3.267)" fill="#995023"/><rect width="68.051" height="59.544" transform="translate(12.837 6.457)" fill="#c9c9c9"/><rect width="44.658" height="47.848" transform="translate(30.913 12.837)" fill="#96b567"/><rect width="3.19" height="3.19" transform="translate(17.09 10.71)" fill="#919191"/><rect width="8.506" height="3.19" transform="translate(17.09 17.09)" fill="#919191"/><rect width="8.506" height="3.19" transform="translate(17.09 22.407)" fill="#919191"/><rect width="3.19" height="3.19" transform="translate(17.09 28.786)" fill="#919191"/><rect width="8.506" height="3.19" transform="translate(17.09 35.166)" fill="#919191"/><rect width="8.506" height="3.19" transform="translate(17.09 40.483)" fill="#919191"/><rect width="3.19" height="3.19" transform="translate(17.09 46.862)" fill="#919191"/><rect width="8.506" height="2.127" transform="translate(17.09 53.242)" fill="#919191"/><rect width="8.506" height="3.19" transform="translate(17.09 58.559)" fill="#919191"/><path d="M37.993,50.881H27V27.153l10.468-1.5V22.14L30.81,20.476,35.048,12H50.132l8.458,10.151L56.908,27.2V44.9H45.47Z" transform="translate(12.385 4.954)" fill="#7a974e"/><rect width="3.19" height="12.76" transform="translate(35.166 12.837)" fill="#7a974e"/><rect width="2.127" height="2.127" transform="translate(45.799 38.356)" fill="#fdb62f"/><rect width="3.19" height="3.19" transform="translate(55.369 33.04)" fill="#fdb62f"/><rect width="3.19" height="3.19" transform="translate(57.495 22.407)" fill="#fdb62f"/><rect width="2.127" height="3.19" transform="translate(60.685 39.419)" fill="#fdb62f"/><rect width="3.19" height="2.127" transform="translate(47.926 45.799)" fill="#fdb62f"/><rect width="3.19" height="3.19" transform="translate(40.483 17.09)" fill="#fdb62f"/><rect width="3.19" height="2.127" transform="translate(58.559 53.242)" fill="#fdb62f"/><rect width="3.19" height="10.633" transform="translate(66.002 50.052)" fill="#7a974e"/><path d="M34.839,38.353H33.365l2.106,4.486h3.3l-2.6-5.551Z" transform="translate(15.539 17.482)" fill="#7a974e"/><rect width="8.506" height="3.19" transform="translate(30.913 42.609)" fill="#7a974e"/><path d="M48.45,19.178l-.6,1.812h4.9V18H47.468Z" transform="translate(22.525 7.927)" fill="#7a974e"/><path d="M42.906,13.486l1.322,1.587,5.016-5.016L48.187,9H46.072l-4.486,4.486Z" transform="translate(19.611 3.468)" fill="#7a974e"/><path d="M28.7,38.667V36.654l-5.117,6.5h3.807l3.532-4.486Z" transform="translate(10.69 17.168)" fill="#7a974e"/><path d="M29.844,28.008,24,26.061V17.735l10.529-1.756,7.416,1.854v8.446Z" transform="translate(10.899 6.925)" fill="#5ea9db"/><rect width="2.127" height="59.544" transform="translate(12.837 6.457)" fill="#bdbdbd"/><path d="M90.229,2H81.257a1.5,1.5,0,0,0-1.5,1.5v1.5h-65.8V3.5a1.5,1.5,0,0,0-1.5-1.5H3.5A1.5,1.5,0,0,0,2,3.5V90.229a1.5,1.5,0,0,0,1.5,1.5h8.972a1.5,1.5,0,0,0,1.5-1.5V67.8h65.8V90.229a1.5,1.5,0,0,0,1.5,1.5h8.972a1.5,1.5,0,0,0,1.5-1.5V3.5A1.5,1.5,0,0,0,90.229,2ZM10.972,88.734H4.991V4.991h5.982Zm2.991-23.927V7.982h65.8V64.807Zm74.77,23.927H82.752V4.991h5.982Z" transform="translate(0 0)"/><path d="M66.358,8H21.5A1.5,1.5,0,0,0,20,9.5V57.349a1.5,1.5,0,0,0,1.5,1.5H66.358a1.5,1.5,0,0,0,1.5-1.5V9.5A1.5,1.5,0,0,0,66.358,8Zm-1.5,14.954H61.077l-6.155-7.386L59.5,10.991h5.363ZM52.28,13.982H39.44a1.5,1.5,0,0,0-1.346.827l-2.642,5.3-6.48,1.077v-10.2h26.3ZM28.972,24.221l7.416-1.235,4.548,1.137v3.517L32.1,28.9l-3.128-1.044Zm3.739,28.642h7.3l1.5,2.991H30.468Zm10.1-1.083,6.124-4.9h8.448v8.972H44.851ZM57.469,28.463a1.5,1.5,0,0,0-.084.473V43.89H48.413a1.5,1.5,0,0,0-.935.327l-7.067,5.654H33.459V31.729l9.185-1.313a1.5,1.5,0,0,0,1.283-1.48V22.954A1.5,1.5,0,0,0,42.793,21.5l-4.172-1.047,1.744-3.484H52.2l6.5,7.794ZM25.982,10.991V28.936A1.5,1.5,0,0,0,27,30.353l3.463,1.154v7.9H22.991V10.991Zm-2.991,31.4h7.477v8.474l-3.739,4.984H22.991ZM60.376,55.853V29.178l1.077-3.233h3.41V55.853Z" transform="translate(8.917 2.972)"/><rect width="3.19" height="3.19" transform="translate(17.09 10.71)"/><rect width="8.506" height="3.19" transform="translate(17.09 17.09)"/><rect width="8.506" height="3.19" transform="translate(17.09 22.407)"/><rect width="3.19" height="3.19" transform="translate(17.09 28.786)"/><rect width="8.506" height="3.19" transform="translate(17.09 35.166)"/><rect width="8.506" height="3.19" transform="translate(17.09 40.483)"/><rect width="3.19" height="3.19" transform="translate(17.09 46.862)"/><rect width="8.506" height="2.127" transform="translate(17.09 53.242)"/><rect width="8.506" height="3.19" transform="translate(17.09 58.559)"/><rect width="2.127" height="2.127" transform="translate(45.799 38.356)"/><rect width="3.19" height="3.19" transform="translate(55.369 33.04)"/><rect width="3.19" height="3.19" transform="translate(57.495 22.407)"/><rect width="2.127" height="3.19" transform="translate(60.685 39.419)"/><rect width="3.19" height="2.127" transform="translate(47.926 45.799)"/><rect width="3.19" height="3.19" transform="translate(40.483 17.09)"/><rect width="3.19" height="2.127" transform="translate(58.559 53.242)"/></g></g></svg>