<svg xmlns="http://www.w3.org/2000/svg" xmlns:xlink="http://www.w3.org/1999/xlink" width="122.436" height="129.485" viewBox="0 0 122.436 129.485"><defs><clipPath id="a"><rect width="102.07" height="87.496" fill="none"/></clipPath><clipPath id="c"><rect width="43.119" height="39.694" transform="translate(0)" fill="none"/></clipPath><clipPath id="d"><rect width="39.978" height="38.962" transform="translate(0)" fill="none"/></clipPath><clipPath id="e"><rect width="40.999" height="40.788" fill="none"/></clipPath><clipPath id="f"><rect width="40.183" height="37.111" fill="none"/></clipPath><clipPath id="g"><rect width="38.219" height="28.661" fill="none"/></clipPath><clipPath id="h"><rect width="34.732" height="25.268" fill="none"/></clipPath><clipPath id="i"><rect width="32.275" height="21.921" fill="none"/></clipPath><clipPath id="j"><rect width="37.584" height="28.477" fill="none"/></clipPath><clipPath id="k"><rect width="34.153" height="24.873" fill="none"/></clipPath><clipPath id="l"><rect width="32.11" height="21.985" fill="none"/></clipPath><clipPath id="m"><rect width="8.237" height="7.865" transform="translate(0 0)" fill="none"/></clipPath></defs><g transform="translate(0 92.507) rotate(-65)"><g clip-path="url(#a)"><g transform="translate(0 0)"><g clip-path="url(#a)"><path d="M4.527,15.583c-1.578-.5-1.846-.856-1.587-2.384A24.462,24.462,0,0,1,6.79,4.02c.707-1.1,1.554-2.1,2.344-3.148A1.843,1.843,0,0,1,11.572.214c13.41,5.966,25.555,13.658,34.853,25.3a51.744,51.744,0,0,0,8.544,9.023,49.7,49.7,0,0,0,10.612,6.238c7.893,3.439,15.453,7.426,22.068,13.046a144.364,144.364,0,0,1,13.9,13.971,1.609,1.609,0,0,1,.161,2.194A43.544,43.544,0,0,1,93.325,79.3a2.229,2.229,0,0,1-.649.471c-.659.21-1.433.621-1.977.43-.349-.123-.385-1.169-.534-1.807a1.208,1.208,0,0,1,.086-.458l-.277-.055c-1.269,1.038-2.518,2.1-3.811,3.105-1.636,1.275-3.3,2.515-4.966,3.753a12.9,12.9,0,0,1-12.883,1.809A34.855,34.855,0,0,1,53.087,75.551c-3.589-4.419-4.63-9.522-4.138-15.056a54.572,54.572,0,0,1,2.838-12.57,5.016,5.016,0,0,0-4.307-6.673,4.659,4.659,0,0,0-2.573.725c-1.891,1.1-3.6,2.521-5.542,3.515a76.227,76.227,0,0,1-9.02,4.064c-4.9,1.753-9.722.912-14.325-1.28A32.137,32.137,0,0,1,2.033,36.294,11.741,11.741,0,0,1,.575,26.123c.99-3.066,2.2-6.061,3.328-9.084.172-.462.388-.908.624-1.455m26.94-1.058c-1.569-.981-3.425-2.311-5.43-3.35a51.841,51.841,0,0,0-6.343-2.691A6.5,6.5,0,0,0,14.232,9c-4.178,2.347-6.986,7.321-9.3,11.365C2.645,24.358,1.343,29.438,3.254,33.89a20.9,20.9,0,0,0,6.481,7.821,30.388,30.388,0,0,0,9.587,5.1,16,16,0,0,0,12.1-.426,35.411,35.411,0,0,0,10.73-7.263,10.766,10.766,0,0,0,3.136-5.163c.575-2.457-.48-4.564-1.657-6.542-3.014-5.065-7.315-8.953-12.165-12.9M83.155,53.474a53.7,53.7,0,0,0-12.325-7.011,32.389,32.389,0,0,0-6.89-2.043,7.362,7.362,0,0,0-8.038,3.7A31.82,31.82,0,0,0,51.575,61.48a18.1,18.1,0,0,0,4.251,13.6,31.315,31.315,0,0,0,10.847,8.393c4.222,2.08,9.758,2.333,13.788-.384A33.078,33.078,0,0,0,91.51,69.977a7.519,7.519,0,0,0-.068-7.506,33.818,33.818,0,0,0-8.287-9M13.314,5.915c-.3-1.9-1.917-2.78-3.455-1.881a3.443,3.443,0,0,0,3.455,1.881m84.81,64.412c.435-1.728-.863-3.038-2.769-2.794a3.444,3.444,0,0,0,2.769,2.794" transform="translate(0 0)" fill="#991d32"/><g transform="translate(2.332 8.104)" opacity="0.75" style="mix-blend-mode:darken;isolation:isolate"><g transform="translate(0 0)"><g clip-path="url(#c)"><path d="M29.135,6.421c-1.569-.982-3.425-2.311-5.43-3.351A51.922,51.922,0,0,0,17.362.378,6.5,6.5,0,0,0,11.9.9C7.721,3.242,4.915,8.216,2.6,12.26.313,16.254-.988,21.334.922,25.786A20.894,20.894,0,0,0,7.4,33.607a30.4,30.4,0,0,0,9.587,5.1,16,16,0,0,0,12.1-.427,35.431,35.431,0,0,0,10.729-7.262,10.757,10.757,0,0,0,3.136-5.164c.576-2.456-.48-4.564-1.656-6.541-3.014-5.065-7.315-8.953-12.165-12.9" transform="translate(0 0)" fill="#050505"/></g></g></g><g transform="translate(2.223 8.938)" opacity="0.2"><g transform="translate(0 0)"><g clip-path="url(#d)"><path d="M12.043.121A21.021,21.021,0,0,0,6.034,7.141c-.8,1.332-1.546,2.7-2.279,4.093a21.779,21.779,0,0,0-1.793,4.178,18.014,18.014,0,0,0-.753,4.35,10.944,10.944,0,0,0,.668,4.208A17.573,17.573,0,0,0,7.224,30.9a27.392,27.392,0,0,0,7.6,4.889,29.481,29.481,0,0,0,4.27,1.531,17.384,17.384,0,0,0,4.381.54,14.661,14.661,0,0,0,4.382-.751,31.836,31.836,0,0,0,4.23-1.82,38.2,38.2,0,0,0,7.795-5.154l.1.1a35.464,35.464,0,0,1-7.535,5.692,31.53,31.53,0,0,1-4.277,2.033,15.665,15.665,0,0,1-4.635.974,16.277,16.277,0,0,1-4.718-.449,30.438,30.438,0,0,1-4.483-1.537,28.709,28.709,0,0,1-8.015-5A18.781,18.781,0,0,1,.691,24.4a14,14,0,0,1,.251-9.339,22.878,22.878,0,0,1,2.026-4.28C3.752,9.416,4.553,8.055,5.42,6.737A20.416,20.416,0,0,1,11.975,0Z" transform="translate(0 0)"/></g></g></g><g transform="translate(51.481 44.294)" opacity="0.75" style="mix-blend-mode:darken;isolation:isolate"><g clip-path="url(#e)"><path d="M31.675,9.179A53.738,53.738,0,0,0,19.35,2.168,32.4,32.4,0,0,0,12.459.125a7.363,7.363,0,0,0-8.038,3.7A31.837,31.837,0,0,0,.094,17.186a18.1,18.1,0,0,0,4.251,13.6,31.318,31.318,0,0,0,10.848,8.393c4.222,2.08,9.758,2.333,13.787-.384A33.071,33.071,0,0,0,40.028,25.683a7.515,7.515,0,0,0-.067-7.505,33.823,33.823,0,0,0-8.287-9" transform="translate(0 0)" fill="#050505"/></g></g><g transform="translate(51.389 48.081)" opacity="0.2"><g transform="translate(0 0)"><g clip-path="url(#f)"><path d="M4.573.071A33.622,33.622,0,0,0,1.63,8.763a33.863,33.863,0,0,0-.611,4.507,17.748,17.748,0,0,0,.222,4.415C2.219,23.492,6.4,28.336,11.3,31.636a35.347,35.347,0,0,0,3.832,2.345,15.245,15.245,0,0,0,4.037,1.554,13.094,13.094,0,0,0,8.374-.756,13.764,13.764,0,0,0,1.881-1.1c.62-.425,1.227-.869,1.817-1.34a31.542,31.542,0,0,0,3.321-3.094,39.666,39.666,0,0,0,5.5-7.376l.125.062c-2.718,5.55-6.743,10.634-12.144,13.807a13.68,13.68,0,0,1-9.132,1.035,16.547,16.547,0,0,1-4.379-1.612,36.828,36.828,0,0,1-4.011-2.379,28.67,28.67,0,0,1-6.729-6.419,20.986,20.986,0,0,1-2.353-4.031A17.66,17.66,0,0,1,.171,17.838a25.008,25.008,0,0,1,.747-9.25A31.485,31.485,0,0,1,4.454,0Z" transform="translate(0 0)"/></g></g></g><g transform="translate(3.054 14.631)" style="mix-blend-mode:soft-light;isolation:isolate"><g transform="translate(0 0)"><g clip-path="url(#g)"><g opacity="0.2"><g clip-path="url(#h)"><path d="M28.543,0,0,18.754c.062.169.128.337.2.5a18.115,18.115,0,0,0,4.4,6.01l30.132-19.8C32.83,3.579,30.745,1.794,28.543,0" transform="translate(0 0)" fill="#fff"/></g></g><g transform="translate(5.944 6.74)" opacity="0.2"><g clip-path="url(#i)"><path d="M30.023,0,0,19.727c.243.206.489.412.737.613a26.1,26.1,0,0,0,2.169,1.581l29.368-19.3Q31.211,1.266,30.023,0" transform="translate(0 0)" fill="#fff"/></g></g></g></g></g><g transform="translate(52.583 51.381)" style="mix-blend-mode:soft-light;isolation:isolate"><g clip-path="url(#j)"><g opacity="0.2"><g clip-path="url(#k)"><path d="M30.573,2.092Q29.066.974,27.589,0L0,18.127A20.154,20.154,0,0,0,3.244,23.7c.326.4.661.793,1,1.173L34.153,5.224a47.064,47.064,0,0,0-3.58-3.132" transform="translate(0 -0.001)" fill="#fff"/></g></g><g transform="translate(5.474 6.492)" opacity="0.2"><g clip-path="url(#l)"><path d="M29.916,0,0,19.656a29.266,29.266,0,0,0,2.7,2.329L32.11,2.662A29.194,29.194,0,0,0,29.916,0" transform="translate(0.001 0)" fill="#fff"/></g></g></g></g><g transform="translate(44.863 40.087)" opacity="0.2"><g transform="translate(0 0)"><g clip-path="url(#m)"><path d="M6.842,7.81a5.49,5.49,0,0,0,.065-2.862,4.814,4.814,0,0,0-1.5-2.4,4.839,4.839,0,0,0-2.564-1.2,2.954,2.954,0,0,0-1.411.08,5.973,5.973,0,0,0-1.35.538L0,1.816A3.6,3.6,0,0,1,1.186.54a3.973,3.973,0,0,1,.856-.4,3.365,3.365,0,0,1,1-.133,4.947,4.947,0,0,1,3.5,1.267A4.937,4.937,0,0,1,8.222,4.615,3.87,3.87,0,0,1,7,7.865Z" transform="translate(0 0)"/></g></g></g></g></g></g></g></svg>