<svg xmlns="http://www.w3.org/2000/svg" xmlns:xlink="http://www.w3.org/1999/xlink" width="112.448" height="88.96" viewBox="0 0 112.448 88.96"><defs><clipPath id="a"><rect width="112.448" height="88.96" fill="none"/></clipPath><clipPath id="c"><rect width="33.595" height="75.015" fill="none"/></clipPath><radialGradient id="d" cx="0.5" cy="0.5" r="0.515" gradientTransform="matrix(0.941, 0.339, 0.339, -0.941, -0.85, 4.865)" gradientUnits="objectBoundingBox"><stop offset="0" stop-color="#fff2c9"/><stop offset="0.514" stop-color="#fff2c9"/><stop offset="1" stop-color="#ffeabe"/></radialGradient><radialGradient id="e" cx="0.5" cy="0.5" r="0.508" xlink:href="#d"/><radialGradient id="f" cx="0.5" cy="0.5" r="0.333" gradientTransform="matrix(1.318, 0.339, 0.755, -1.494, -1.318, 6.546)" xlink:href="#d"/><radialGradient id="g" cx="0.5" cy="0.5" r="0.11" gradientTransform="matrix(2.21, 0.339, 3.93, -4.638, -5.935, 14.869)" xlink:href="#d"/><radialGradient id="h" cx="0.5" cy="0.5" r="0.466" gradientTransform="matrix(-0.242, 0.941, 1.067, 0.539, -4.608, 2.389)" xlink:href="#d"/><radialGradient id="i" cx="0.5" cy="0.5" r="0.257" gradientTransform="matrix(-0.144, 0.941, 1.974, 1.673, -11.208, -2.468)" xlink:href="#d"/></defs><g clip-path="url(#a)"><rect width="66.135" height="26.501" transform="matrix(0.835, -0.55, 0.55, 0.835, 42.638, 58.375)" fill="#fff"/><rect width="7.423" height="26.5" transform="matrix(0.835, -0.55, 0.55, 0.835, 42.638, 58.376)" fill="#008c7c"/><rect width="42.647" height="2.686" transform="translate(61.268 49.849) rotate(-33.36)" fill="#008c7c"/><rect width="30.783" height="1.601" transform="translate(72.774 49.249) rotate(-33.36)" fill="#ffeabe"/><rect width="37.797" height="1.602" transform="translate(68.84 56.029) rotate(-33.36)" fill="#ffeabe"/><rect width="14.109" height="4.841" transform="translate(91.708 47.686) rotate(-33.361)" fill="#ffeabe"/><rect width="14.109" height="4.84" transform="matrix(0.835, -0.55, 0.55, 0.835, 76.844, 57.472)" fill="#ffeabe"/><rect width="14.109" height="4.84" transform="matrix(0.835, -0.55, 0.55, 0.835, 61.98, 67.258)" fill="#ffeabe"/><g clip-path="url(#a)"><path d="M45.008,88.671,3.2,73.591A4.848,4.848,0,0,1,.289,67.385L23.441,3.2A4.849,4.849,0,0,1,29.647.289l41.8,15.081a4.848,4.848,0,0,1,2.915,6.205L51.214,85.756a4.849,4.849,0,0,1-6.206,2.916" transform="translate(0 0)" fill="#991d32"/><g opacity="0.39" style="mix-blend-mode:multiply;isolation:isolate"><g clip-path="url(#c)"><path d="M4.237,68.809,27.389,4.629A4.848,4.848,0,0,1,33.6,1.713L29.647.289A4.848,4.848,0,0,0,23.442,3.2L.29,67.385A4.848,4.848,0,0,0,3.2,73.591l3.948,1.424a4.849,4.849,0,0,1-2.916-6.206" transform="translate(0 0)" fill="#634329"/></g></g><path d="M75.022,45.358l.3.109a15.578,15.578,0,1,1,.929-5.29,15.6,15.6,0,0,1-.929,5.29l-.3-.109-.3-.11a14.933,14.933,0,1,0-14.062,9.88,14.926,14.926,0,0,0,14.062-9.88Z" transform="translate(-16.007 -8.732)" fill="url(#d)"/><path d="M75.022,45.358l.3.109a15.578,15.578,0,1,1,.929-5.29,15.6,15.6,0,0,1-.929,5.29l-.3-.109-.3-.11a14.933,14.933,0,1,0-14.062,9.88,14.926,14.926,0,0,0,14.062-9.88Z" transform="translate(-16.007 -8.732)" fill="url(#e)"/><path d="M72.375,43.738l.3.109c-2.5,6.913-7.615,11.662-12.389,11.683a6.6,6.6,0,0,1-2.25-.388c-3.55-1.292-5.457-5.416-5.457-10.37a22.8,22.8,0,0,1,1.4-7.669c2.5-6.913,7.615-11.661,12.389-11.683a6.6,6.6,0,0,1,2.25.388c3.551,1.292,5.458,5.416,5.457,10.37a22.8,22.8,0,0,1-1.4,7.669l-.3-.109-.3-.11a22.157,22.157,0,0,0,1.362-7.45c0-4.814-1.859-8.63-5.031-9.764a5.946,5.946,0,0,0-2.032-.35c-4.327-.021-9.354,4.5-11.782,11.257a22.143,22.143,0,0,0-1.362,7.45c0,4.815,1.859,8.631,5.03,9.764a5.946,5.946,0,0,0,2.032.35c4.328.022,9.355-4.5,11.782-11.257Z" transform="translate(-18.679 -9.03)" fill="url(#f)"/><path d="M68.711,41.707l.3.109c-2.827,7.613-5.992,13.389-8.168,13.565a1,1,0,0,1-.339-.058h0c-.789-.34-.957-1.311-.977-2.651,0-2.856,1.1-7.769,3.052-13.177,2.828-7.612,5.992-13.389,8.168-13.565a1,1,0,0,1,.339.058c.789.34.956,1.311.976,2.651,0,2.856-1.1,7.769-3.052,13.177l-.3-.109-.3-.11c1.934-5.354,3.017-10.252,3.014-12.958.02-1.3-.3-2.011-.55-2.044l-.121-.02c-1.232-.176-4.923,5.6-7.561,13.139-1.934,5.354-3.016,10.252-3.014,12.958-.02,1.3.3,2.011.551,2.044h0l.12.02c1.232.177,4.923-5.6,7.561-13.139Z" transform="translate(-21.147 -9.211)" fill="url(#g)"/><path d="M57.694,51.892l-.109.3c-6.913-2.5-11.663-7.615-11.684-12.389a6.6,6.6,0,0,1,.388-2.25c1.292-3.551,5.416-5.457,10.37-5.457a22.785,22.785,0,0,1,7.67,1.4C71.241,36,75.99,41.114,76.012,45.889a6.607,6.607,0,0,1-.388,2.25c-1.293,3.55-5.416,5.457-10.37,5.457a22.8,22.8,0,0,1-7.669-1.4l.109-.3.11-.3a22.157,22.157,0,0,0,7.45,1.362c4.814,0,8.63-1.859,9.764-5.031a5.955,5.955,0,0,0,.35-2.031c.021-4.328-4.5-9.355-11.258-11.783a22.136,22.136,0,0,0-7.45-1.361c-4.814,0-8.631,1.858-9.764,5.031a5.938,5.938,0,0,0-.35,2.03c-.022,4.328,4.5,9.356,11.258,11.783Z" transform="translate(-16.305 -11.403)" fill="url(#h)"/><path d="M60.088,48.229l-.11.3C52.367,45.7,46.59,42.54,46.414,40.364a.985.985,0,0,1,.058-.339c.34-.789,1.311-.956,2.651-.976,2.856,0,7.769,1.1,13.177,3.052,7.612,2.827,13.389,5.992,13.565,8.168a.985.985,0,0,1-.059.339c-.34.788-1.311.956-2.65.976-2.856,0-7.769-1.1-13.177-3.052l.11-.3.11-.3c5.354,1.934,10.252,3.016,12.958,3.014,1.3.019,2.011-.3,2.044-.551l.02-.12c.176-1.232-5.6-4.923-13.14-7.562-5.354-1.933-10.251-3.016-12.957-3.013-1.3-.02-2.011.3-2.045.551l-.019.12c-.177,1.232,5.6,4.923,13.139,7.561Z" transform="translate(-16.488 -13.871)" fill="url(#i)"/></g><text transform="translate(18.563 51.44) rotate(19.837)" fill="#ffeabe" font-size="5" font-family="SegoeUI, Segoe UI"><tspan x="0" y="0" letter-spacing="-0.083em">P</tspan><tspan y="0">ASSPO</tspan><tspan y="0" letter-spacing="0.01em">R</tspan><tspan y="0">T</tspan></text><g clip-path="url(#a)"><path d="M18.23,7.593-.324.9.324-.9,18.879,5.794Z" transform="translate(24.051 61.961)" fill="#ffeabe"/><path d="M18.23,7.593-.324.9.324-.9,18.879,5.794Z" transform="translate(22.519 66.208)" fill="#ffeabe"/></g></g></svg>