<svg xmlns="http://www.w3.org/2000/svg" xmlns:xlink="http://www.w3.org/1999/xlink" width="85" height="78" viewBox="0 0 85 78"><defs><clipPath id="a"><rect width="85" height="78" rx="11" transform="translate(180 3017)" fill="#b7ceac"/></clipPath></defs><g transform="translate(-180 -3017)"><rect width="85" height="78" rx="11" transform="translate(180 3017)" fill="#ffd667"/><g clip-path="url(#a)"><g transform="translate(129.591 3025.349)"><g transform="translate(69.898 1.041)"><path d="M111.382,345.155l-3.008-1.5-1.79,1.269-1.139-1.724-.319.021-4.654,4.961-7.248-1.588-2.877-3.152-.079-.014c-.159.286-.277.5-.284.534a26.789,26.789,0,0,1-2.75-.332l-3.059,1.529A14.133,14.133,0,0,0,76.361,357.8v5.763a1.858,1.858,0,0,0,1.858,1.858H90.346l2.12-1.567h11.461l1.2,1.567h12.21a1.858,1.858,0,0,0,1.858-1.858V357.8A14.133,14.133,0,0,0,111.382,345.155Z" transform="translate(-76.361 -296.611)" fill="#cac5cb"/><path d="M87.232,346.295l-3.059,1.529a14.133,14.133,0,0,0-7.813,12.641v5.763a1.858,1.858,0,0,0,1.858,1.858h2.4c0-.019,0-.037,0-.056v-5.763a14.133,14.133,0,0,1,7.813-12.641l2.416-1.255Z" transform="translate(-76.36 -299.28)" fill="#b3adb5"/><path d="M181.489,319.985l-.082.365a9.655,9.655,0,0,1-18.816-.364l3.961-1.979,2.823-1.625h5.043l3.114,1.625Z" transform="translate(-150.624 -273.518)" fill="#f8f7f8"/><g transform="translate(0 8.186)"><path d="M117.049,72.792a4.475,4.475,0,0,1,.185,1.856l-.2,1.79a1.1,1.1,0,0,0,.277.857l.857.948a4.487,4.487,0,0,1,.287,5.668l-.022.03a1.176,1.176,0,0,0-.229.7v1.733a4.487,4.487,0,0,1-3.444,4.364l-.292.855a4.487,4.487,0,0,1-4.686,3.016H85.9a4.487,4.487,0,0,1-4.686-3.016l-.292-.855a4.487,4.487,0,0,1-3.444-4.364V84.638a1.176,1.176,0,0,0-.229-.7l-.022-.03a4.487,4.487,0,0,1,.287-5.668l.857-.948a1.1,1.1,0,0,0,.277-.857l-.2-1.79a4.487,4.487,0,0,1,3.181-4.793l2.266-.674,18.567-2.687,13.994,4.429Z" transform="translate(-76.357 -66.494)" fill="#dfae91"/></g><path d="M299.4,173.915a2.556,2.556,0,0,0,0-5.112h-4.8v5.112Z" transform="translate(-264.314 -146.419)" fill="#f8d3aa"/><path d="M116.334,173.915a2.556,2.556,0,0,1,0-5.112h3.641v5.112Z" transform="translate(-108.585 -146.419)" fill="#f8d3aa"/><g transform="translate(7.544)"><path d="M170.953,316.382h-1.579l-2.823,1.625-3.961,1.979a9.6,9.6,0,0,0,1.335,3.24l7.028-3.65Z" transform="translate(-158.168 -273.518)" fill="#efedee"/><path d="M202.108,284.565a5.49,5.49,0,0,1-10.981,0v-7.013h10.981Z" transform="translate(-182.744 -240.076)" fill="#ffe6c6"/><path d="M193.135,277.552h-2.008v7.013a5.49,5.49,0,0,0,5.49,5.49,5.555,5.555,0,0,0,.607-.034,5.5,5.5,0,0,1-3.119-3.5,1,1,0,0,1,1.061-1.275,14.469,14.469,0,0,0,1.451.073,14.234,14.234,0,0,0,5.49-1.1v-6.667h-8.973Z" transform="translate(-182.744 -240.076)" fill="#f8d3aa"/><path d="M167.007,118.224v10.1a12.233,12.233,0,0,1-24.466,0v-10.1a1.989,1.989,0,0,1,1.388-1.9l1.31-.416a7.2,7.2,0,0,0,3.533-2.484l1.182-1.546.726,1.132a4.85,4.85,0,0,0,8.132.053l.781-1.185,1.182,1.546a7.2,7.2,0,0,0,3.533,2.484l1.31.416A1.989,1.989,0,0,1,167.007,118.224Z" transform="translate(-140.901 -97.397)" fill="#ffe6c6"/><path d="M143.53,119.375a8.54,8.54,0,0,0,4.192-2.948l.433-.567a1.119,1.119,0,0,1,1.831.076,5.755,5.755,0,0,0,9.649.063l.061-.092a1.119,1.119,0,0,1,1.823-.064l.447.584a8.539,8.539,0,0,0,4.192,2.948l.849.27v-1.421a1.989,1.989,0,0,0-1.388-1.9l-1.31-.416a7.2,7.2,0,0,1-3.533-2.484l-1.182-1.546-.781,1.185a4.85,4.85,0,0,1-8.132-.053l-.726-1.132-1.182,1.546a7.2,7.2,0,0,1-3.533,2.484l-1.31.416a1.989,1.989,0,0,0-1.388,1.9v1.465Z" transform="translate(-140.902 -97.397)" fill="#f8d3aa"/><path d="M298.389,88.682H311.2a1.869,1.869,0,0,0,0-3.738H293.028v2.909Z" transform="translate(-270.504 -74.197)" fill="#e1dee2"/><path d="M149.126,7.5h-6A10.877,10.877,0,0,0,132.5,16.063l4.447,3.337H158.36l1.393-3.337A10.877,10.877,0,0,0,149.126,7.5Z" transform="translate(-132.254 -7.502)" fill="#8aadde"/><g transform="translate(0 8.561)"><path d="M158.467,71.505v3.611H132.313a1.593,1.593,0,0,1-1.592-1.593V71.505a10.859,10.859,0,0,1,.247-2.313H158.22A10.86,10.86,0,0,1,158.467,71.505Z" transform="translate(-130.721 -69.192)" fill="#5f90d3"/></g><path d="M202.793,255.2H202.2a4.327,4.327,0,0,1-4.327-4.327.321.321,0,0,1,.321-.321H206.8a.321.321,0,0,1,.321.321A4.327,4.327,0,0,1,202.793,255.2Z" transform="translate(-188.554 -216.824)" fill="#f09ea2"/><path d="M191.919,447.183v-7.151a1.925,1.925,0,0,0-1.954-1.895H179.093a1.925,1.925,0,0,0-1.954,1.895v7.151Z" transform="translate(-170.697 -378.377)" fill="#a9e4f9"/><path d="M180.07,442.158a1.925,1.925,0,0,1,1.953-1.895h9.895v-.232a1.925,1.925,0,0,0-1.954-1.895H179.093a1.925,1.925,0,0,0-1.954,1.895v7.151h2.931Z" transform="translate(-170.697 -378.376)" fill="#81d9f8"/><path d="M210.767,481.312a3.838,3.838,0,0,0-7.654,0Z" transform="translate(-193.067 -412.506)" fill="#cfeffc"/></g></g><g transform="translate(68.857 0)"><path d="M118.174,10.747H106.205a11.87,11.87,0,0,0-3.126-6.937,1.041,1.041,0,0,0-1.526,1.416,9.82,9.82,0,0,1,2.036,3.334H79.106A9.85,9.85,0,0,1,88.35,2.082h6a9.776,9.776,0,0,1,3.75.742A1.041,1.041,0,1,0,98.894.9,11.846,11.846,0,0,0,94.348,0h-6A11.928,11.928,0,0,0,76.463,11.13l-1.551.461a5.525,5.525,0,0,0-3.919,5.9l.2,1.79a.056.056,0,0,1-.014.044l-.857.948a5.548,5.548,0,0,0-.352,6.987l.02.027a.134.134,0,0,1,.026.08V29.1a5.508,5.508,0,0,0,3.673,5.208l.119.347A5.5,5.5,0,0,0,79.026,38.4c.183,0,.367-.009.552-.027l.143-.014a13.37,13.37,0,0,0,5.1,5.155v1.37L77.28,48.654a15.225,15.225,0,0,0-7.021,7.28,1.041,1.041,0,1,0,1.894.864,13.137,13.137,0,0,1,6.058-6.282l2.994-1.5,4.485,10.75a3,3,0,0,0-2.813,2.985v7.373a1.041,1.041,0,1,0,2.082,0V62.754a.914.914,0,0,1,.913-.913H96.743a.914.914,0,0,1,.913.913v7.373a1.041,1.041,0,1,0,2.082,0V62.754a3,3,0,0,0-2.678-2.977l4.478-10.735,2.948,1.474a13.02,13.02,0,0,1,7.239,11.71v7.62a1.041,1.041,0,1,0,2.082,0v-7.62a15.174,15.174,0,0,0-8.389-13.572L97.88,44.886V43.521a13.42,13.42,0,0,0,1.525-1.008A1.041,1.041,0,0,0,98.14,40.86a11.087,11.087,0,0,1-6.792,2.3A11.2,11.2,0,0,1,80.157,31.965v-10.1a.945.945,0,0,1,.661-.9l1.31-.416A8.191,8.191,0,0,0,86.174,17.7l.281-.367a5.87,5.87,0,0,0,4.844,2.6h.039a5.87,5.87,0,0,0,4.892-2.611l.293.383a8.191,8.191,0,0,0,4.046,2.844l1.31.416a.944.944,0,0,1,.661.9v10.1a11.162,11.162,0,0,1-1.671,5.884,1.041,1.041,0,1,0,1.769,1.1c.122-.2.236-.4.347-.6l.272.027q.278.027.553.027a5.5,5.5,0,0,0,5.221-3.742l.118-.347a5.508,5.508,0,0,0,3.673-5.208V27.372a.132.132,0,0,1,.024-.077l.025-.034a5.547,5.547,0,0,0-.354-6.983l-.858-.948a.057.057,0,0,1-.014-.044l.2-1.79a5.549,5.549,0,0,0,.023-.929h6.307a2.91,2.91,0,0,0,0-5.819ZM97.685,47.116l1.9.948a8.613,8.613,0,0,1-16.464,0l1.9-.948a6.531,6.531,0,0,0,12.671,0ZM87.941,59.76l-2.125-5.094a10.66,10.66,0,0,0,11.129-.021L94.812,59.76ZM95.8,44.474V45.53a4.45,4.45,0,0,1-8.9,0V44.47a13.308,13.308,0,0,0,8.9,0Zm8.3-33.832a9.888,9.888,0,0,1,.084,1.272v2.57H79.068a.553.553,0,0,1-.552-.552V11.915a9.869,9.869,0,0,1,.085-1.272ZM78.076,27.5h-.4a1.515,1.515,0,0,1,0-3.031h.4ZM81.5,18.564l-1.31.416a3.019,3.019,0,0,0-2.113,2.887v.517h-.4a3.6,3.6,0,0,0,0,7.194h.4v2.387a13.214,13.214,0,0,0,.732,4.347,3.432,3.432,0,0,1-3.032-2.325l-.292-.855a1.041,1.041,0,0,0-.743-.676A3.435,3.435,0,0,1,72.1,29.1V27.372a2.206,2.206,0,0,0-.433-1.316l-.02-.027a3.458,3.458,0,0,1,.221-4.354l.857-.948a2.14,2.14,0,0,0,.54-1.669l-.2-1.79a3.445,3.445,0,0,1,2.443-3.681l.929-.276v.623a2.637,2.637,0,0,0,2.634,2.634h5.351a6.116,6.116,0,0,1-2.921,2Zm9.842-.714h-.027a3.736,3.736,0,0,1-2.827-1.283h5.7A3.734,3.734,0,0,1,91.34,17.85Zm13.282,6.616h.4a1.515,1.515,0,0,1,0,3.031h-.4Zm5.152-7.2-.2,1.79a2.14,2.14,0,0,0,.54,1.669l.857.948a3.457,3.457,0,0,1,.223,4.351l-.025.034a2.2,2.2,0,0,0-.431,1.313V29.1a3.435,3.435,0,0,1-2.645,3.352,1.041,1.041,0,0,0-.743.676l-.292.855a3.429,3.429,0,0,1-3.173,2.329,13.277,13.277,0,0,0,.733-4.352V29.578h.4a3.6,3.6,0,0,0,0-7.194h-.4v-.517a3.019,3.019,0,0,0-2.112-2.887l-1.31-.416a6.115,6.115,0,0,1-2.921-2h11.5a3.435,3.435,0,0,1-.006.7Zm8.4-2.783H106.263V12.829h11.911a.828.828,0,1,1,0,1.656Z" transform="translate(-68.891 0)"/><path d="M181.915,179.228a1.041,1.041,0,0,0,1.041-1.041v-.874a1.041,1.041,0,1,0-2.082,0v.874A1.041,1.041,0,0,0,181.915,179.228Z" transform="translate(-165.329 -151.811)"/><path d="M268.59,175.04v-.874a1.041,1.041,0,1,0-2.082,0v.874a1.041,1.041,0,1,0,2.082,0Z" transform="translate(-239.079 -149.101)"/><path d="M216.725,212.365a2.533,2.533,0,0,0,3,0l.08-.059a1.041,1.041,0,1,0-1.23-1.68l-.08.059a.46.46,0,0,1-.545,0l-.08-.059a1.041,1.041,0,1,0-1.23,1.68Z" transform="translate(-195.77 -181.225)"/><path d="M195.74,249.781h.593a5.374,5.374,0,0,0,5.368-5.368,1.363,1.363,0,0,0-1.361-1.361h-8.606a1.363,1.363,0,0,0-1.361,1.361A5.374,5.374,0,0,0,195.74,249.781Zm3.8-4.647a3.292,3.292,0,0,1-3.206,2.566h-.593a3.292,3.292,0,0,1-3.206-2.566Z" transform="translate(-173.509 -209.323)"/><path d="M170,152.189a1.041,1.041,0,0,0,0-2.082h-1.992a5.453,5.453,0,0,0-2.992.891,1.041,1.041,0,1,0,1.139,1.742,3.376,3.376,0,0,1,1.852-.552H170Z" transform="translate(-151.268 -129.276)"/><path d="M256.48,152.911A1.041,1.041,0,0,0,257.05,151a5.453,5.453,0,0,0-2.992-.891h-1.992a1.041,1.041,0,1,0,0,2.082h1.992a3.376,3.376,0,0,1,1.852.552A1.037,1.037,0,0,0,256.48,152.911Z" transform="translate(-225.746 -129.277)"/><path d="M70.075,430.642a1.04,1.04,0,0,0-1.14.931,15.266,15.266,0,0,0-.078,1.529v8.037a1.041,1.041,0,1,0,2.082,0V433.1a13.2,13.2,0,0,1,.067-1.32A1.041,1.041,0,0,0,70.075,430.642Z" transform="translate(-68.857 -370.876)"/><path d="M119.532,419.38a1.041,1.041,0,0,0-1.446.275l-.116.17a10.731,10.731,0,0,0-.293,11.588,1.041,1.041,0,1,0,1.778-1.082,8.645,8.645,0,0,1,.236-9.336l.116-.17A1.041,1.041,0,0,0,119.532,419.38Z" transform="translate(-109.562 -361.026)"/><path d="M320.3,419.655a1.041,1.041,0,1,0-1.721,1.171l.116.17a8.645,8.645,0,0,1,.236,9.336,1.041,1.041,0,1,0,1.778,1.082,10.731,10.731,0,0,0-.293-11.588Z" transform="translate(-283.767 -361.026)"/><path d="M200.481,470.266a4.873,4.873,0,0,0-4.868,4.868,1.041,1.041,0,1,0,2.082,0,2.786,2.786,0,0,1,5.573,0,1.041,1.041,0,1,0,2.082,0,4.873,4.873,0,0,0-4.868-4.868Z" transform="translate(-178.023 -405.006)"/></g></g></g></g></svg>