<svg xmlns="http://www.w3.org/2000/svg" xmlns:xlink="http://www.w3.org/1999/xlink" width="78" height="77.777" viewBox="0 0 78 77.777"><defs><filter id="a" x="0" y="0" width="78" height="77.777" filterUnits="userSpaceOnUse"><feOffset dy="3" input="SourceAlpha"/><feGaussianBlur stdDeviation="3" result="b"/><feFlood flood-opacity="0.161"/><feComposite operator="in" in2="b"/><feComposite in="SourceGraphic"/></filter><linearGradient id="c" x1="-0.016" y1="0.148" x2="0.772" y2="0.844" gradientUnits="objectBoundingBox"><stop offset="0"/><stop offset="1" stop-opacity="0"/></linearGradient></defs><g transform="translate(2.546 -0.454)"><g transform="matrix(1, 0, 0, 1, -2.55, 0.45)" filter="url(#a)"><path d="M30,0A29.889,29.889,0,1,1,0,29.888,29.944,29.944,0,0,1,30,0Z" transform="translate(9 6)" fill="#406834"/></g><path d="M203.577,152.172l-20.838-20.838a11.318,11.318,0,0,0-8.367-3.2c-6.617,0-10.623,4.039-10.623,10.151v.56l8.126,8.126c-2.022,2.511-4.8,5.825-8.614,10.319v1.84l14.614,14.613A30.324,30.324,0,0,0,203.577,152.172Z" transform="translate(-137.936 -107.285)" opacity="0.49" fill="url(#c)"/><path d="M185.741,151.956v7.168H163.262v-1.84c12.161-14.343,13.836-16.661,13.836-19.256a2.553,2.553,0,0,0-2.628-2.738,2.646,2.646,0,0,0-2.731,2.964v.584h-7.989v-.559c0-6.111,4.005-10.151,10.623-10.151,6.411,0,10.838,3.942,10.838,9.616,0,3.8-1.407,6.723-7.871,14.211Z" transform="translate(-138.048 -107.285)" fill="#fff"/></g></svg>