<svg xmlns="http://www.w3.org/2000/svg" xmlns:xlink="http://www.w3.org/1999/xlink" width="37.985" height="56.396" viewBox="0 0 37.985 56.396"><defs><clipPath id="a"><rect width="37.985" height="56.397" fill="#eb6f2d"/></clipPath></defs><g clip-path="url(#a)"><path d="M1.176,16.386a1.631,1.631,0,0,0,1.986-1.208c.108-.453.233-.9.382-1.34q.052-.154.108-.307c.015-.04.064-.162.082-.209.081-.192.165-.383.253-.572A15.386,15.386,0,0,1,5.352,10.41l.089-.119c.066-.085.13-.17.2-.255q.2-.253.406-.5.494-.586,1.033-1.126.484-.487,1-.938c.081-.071.162-.141.244-.211l.095-.078c.2-.156.4-.307.607-.455a19.654,19.654,0,0,1,2.329-1.444q.281-.148.567-.287l.244-.115.16-.071q.647-.278,1.312-.505a17.638,17.638,0,0,1,2.606-.675c.092-.016.525-.078.4-.064.177-.022.354-.043.531-.06q.679-.065,1.361-.073t1.359.041q.3.022.6.055l.218.026c-.115-.013.175.025.251.038a15.508,15.508,0,0,1,2.5.645q.29.1.577.214.18.071.358.146l.162.071.161.076q.141.068.281.139.351.178.694.374c.413.236.818.49,1.216.755q.307.2.606.423.149.109.3.221c-.008-.006.289.226.275.213a17.2,17.2,0,0,1,1.773,1.7q.39.425.755.874.191.235.375.477l.161.215.026.034.034.052c.421.625.824,1.258,1.184,1.927q.266.495.505,1.005.112.239.218.482.066.151.13.3l.058.14.048.122c.031.083.062.165.092.248q.1.279.2.561.187.563.344,1.138c.2.723.359,1.457.484,2.2q.05.295.092.59c.01.068.019.136.028.2.028.4.082.793.108,1.191q.078,1.168.047,2.341c-.02.785-.079,1.567-.165,2.347l-.01.094c0,.025-.009.062-.017.115-.029.2-.058.4-.091.6q-.1.6-.221,1.195-.234,1.126-.559,2.227-.163.551-.348,1.094-.1.288-.2.573-.046.127-.094.253l-.067.175-.041.1c-.043.1-.085.208-.129.311q-.1.248-.214.494-.246.553-.516,1.094-.51,1.021-1.1,1.991-.314.512-.65,1.008c-.1.142-.194.281-.292.421-.076.1-.152.206-.229.307q-.681.9-1.438,1.722a31.075,31.075,0,0,1-4.118,3.624,45.431,45.431,0,0,0-4.694,4.058c-1.134,1.159-2.231,2.362-3.414,3.466q-.44.41-.9.8l0,0-.006,0-.079.063-.133.106q-.271.213-.55.414c-.294.211-.6.412-.9.6q-.258.154-.522.294c-.077.04-.449.21-.372.182a8.646,8.646,0,0,1-.937.33q-.282.079-.569.136l-.152.027-.131.014a6.855,6.855,0,0,1-1.139.009c-.045,0-.09-.009-.135-.013a1.065,1.065,0,0,1-.129-.012h0c-.236-.045-.47-.095-.7-.158-.392-.107-.765-.259-1.148-.395l-.02-.007c-.082-.041-.165-.08-.247-.122q-.321-.164-.629-.354-.246-.152-.483-.319c-.07-.049-.437-.346-.361-.273a8.942,8.942,0,0,1-.867-.875c-.053-.062-.264-.338-.254-.315-.092-.134-.181-.272-.265-.412q-.152-.257-.285-.526c-.056-.113-.1-.231-.158-.343l-.007-.015-.025-.07A1.642,1.642,0,0,0,2.044,47.5,1.767,1.767,0,0,0,.917,49.63,10.224,10.224,0,0,0,10.155,56.4c3.7.059,6.767-2.46,9.334-5.046,1.246-1.256,2.427-2.59,3.733-3.776.818-.743,1.457-1.238,2.36-1.94.976-.759,1.952-1.517,2.9-2.32A26.112,26.112,0,0,0,34.86,35.1,28.408,28.408,0,0,0,37.028,14.98C34.867,7.427,28.778,1.286,21.366.193A18.962,18.962,0,0,0,9.578,2.374,19.431,19.431,0,0,0,1.1,11.226a16.951,16.951,0,0,0-1.05,3.034,1.772,1.772,0,0,0,1.127,2.127m28.863,20.37c.053-.073.154-.207,0,0" transform="translate(0 0)" fill="#eb6f2d"/><path d="M99.718,108.206c-.008.045-.016.09-.027.134-.03.124-.061.249-.1.37,0-.019-.082.166-.109.215s-.067.114-.1.171l-.018.031-.008.009a3.568,3.568,0,0,1-.273.3c-.034.034-.069.067-.1.1l-.055.036a4.264,4.264,0,0,1-.82.446c-.71.282-1.458.441-2.175.7A8.242,8.242,0,0,0,90.6,115.8a5.683,5.683,0,0,0,2.351,6.379,6.355,6.355,0,0,0,6.078.028,6.59,6.59,0,0,0,1.293-.908,1.5,1.5,0,0,0,0-2,1.289,1.289,0,0,0-1.868,0c.25-.213-.027.016-.07.047q-.131.095-.267.181a5.07,5.07,0,0,1-.476.263c0-.009-.311.118-.374.139a7.023,7.023,0,0,1-.726.183l-.029.006-.042,0c-.071,0-.141.013-.212.017a5.2,5.2,0,0,1-.633,0c-.061,0-.121-.009-.181-.015a1.766,1.766,0,0,0-.19-.032,4.542,4.542,0,0,1-.594-.169c-.045-.016-.234-.1-.187-.077-.049-.025-.1-.051-.146-.079-.148-.085-.285-.182-.425-.281l-.014-.01-.031-.035c-.07-.077-.147-.146-.216-.224q-.057-.065-.112-.133s-.092-.14-.118-.185c-.056-.1-.1-.2-.154-.294l-.027-.048-.011-.04c-.071-.236-.131-.468-.179-.711l-.009-.045c0-.012,0-.03,0-.057-.007-.121-.013-.241-.011-.363,0-.015.021-.308.011-.28a3.966,3.966,0,0,1,.1-.439c0-.012.087-.257.081-.257.024-.054.049-.107.074-.16a4.712,4.712,0,0,1,.363-.627s.167-.205.17-.209q.132-.156.274-.3.095-.1.193-.192c.03-.028.3-.259.285-.255a8.225,8.225,0,0,1,1.205-.785c.116-.063.234-.121.352-.179l.074-.037.081-.03c.311-.117.62-.23.937-.327A8.362,8.362,0,0,0,101,111.389a5.006,5.006,0,0,0,1.37-3.4,5.881,5.881,0,0,0-3.979-5.4c-.858-.361-1.757-.592-2.629-.913a4.658,4.658,0,0,1-2.013-1.3c-.012-.013-.04-.052-.06-.078-.062-.094-.121-.19-.176-.289s-.1-.186-.143-.282c.009.009-.081-.223-.087-.243-.027-.092-.1-.578-.1-.43-.008-.106-.013-.212-.014-.319,0-.051.027-.4.014-.356a4.956,4.956,0,0,1,.13-.574c.03-.1.064-.2.1-.306.009-.029.016-.052.022-.071s.022-.042.038-.074c.118-.238.231-.477.366-.705q.086-.145.177-.286c.021-.032.181-.257.182-.264a10.089,10.089,0,0,1,.952-1.078q.263-.259.543-.5c.032-.024.2-.157.2-.16q.206-.158.418-.305a11.267,11.267,0,0,1,1.146-.68l.047-.026.04-.015c.084-.032.167-.067.252-.1a9.929,9.929,0,0,1,1.1-.341,9.115,9.115,0,0,1,7.462,1.4,7.068,7.068,0,0,1,2.087,2.472,7.3,7.3,0,0,1,.765,3.4,1.321,1.321,0,1,0,2.641,0A10.142,10.142,0,0,0,108.93,92.9a11.209,11.209,0,0,0-7.7-3.086,10.893,10.893,0,0,0-7.294,2.619c-1.786,1.507-3.442,3.814-3.4,6.365a5.781,5.781,0,0,0,1.391,3.626,7,7,0,0,0,2.912,1.9c.959.373,1.954.624,2.906,1.02.04.019.08.038.119.058.1.054.209.108.312.167s.2.12.3.186c.049.033.1.066.146.1,0,0,.1.083.153.12s.145.137.168.162c.086.088.167.18.246.274l.065.08.027.047c.085.145.166.289.244.439a.351.351,0,0,1,.075.189c.038.133.068.268.1.4a.755.755,0,0,0,.025.081.792.792,0,0,0,0,.082c0,.157,0,.311,0,.468,0,.005,0,.009,0,.014" transform="translate(-82.218 -81.127)" fill="#eb6f2d"/></g></svg>