<svg xmlns="http://www.w3.org/2000/svg" width="85" height="115" viewBox="0 0 85 115"><g transform="translate(-180 -9860)"><rect width="85" height="115" rx="11" transform="translate(180 9860)" fill="#ffdf88"/><g transform="translate(170.688 9881.763)"><g transform="translate(22.301 0)"><g transform="translate(22.541 63.848)"><path d="M136.6,228.686H104.606a1.57,1.57,0,0,0,0,3.139H136.6a1.57,1.57,0,0,0,0-3.139Z" transform="translate(-103.036 -228.686)" fill="#edf4fc"/></g><g transform="translate(23.886 66.97)"><path d="M140.071,239.884H108.079a1.564,1.564,0,0,1-.224-.018v.634c0,.024,0,.048,0,.072s0,.023,0,.034a3.149,3.149,0,0,0,3.173,3.067h26.094a3.149,3.149,0,0,0,3.173-3.067c0-.011,0-.023,0-.034s0-.048,0-.072v-.634A1.571,1.571,0,0,1,140.071,239.884Z" transform="translate(-107.855 -239.866)" fill="#dae6f1"/></g><g transform="translate(15.849 63.848)"><path d="M85.758,230.256a1.57,1.57,0,0,1,1.57-1.57h-8.07l-.192,3.14h8.262a1.57,1.57,0,0,1-1.57-1.57Z" transform="translate(-79.066 -228.686)" fill="#edf4fc"/></g><g transform="translate(14.536 66.988)"><path d="M83.714,240.652c0-.011,0-.023,0-.034s0-.048,0-.072v-.616H75.676l-.151,2.471a1.384,1.384,0,0,1-1.162,1.3,3.238,3.238,0,0,0,.358.022H86.886a3.15,3.15,0,0,1-3.172-3.067Z" transform="translate(-74.363 -239.93)" fill="#dae6f1"/></g><g transform="translate(13.941 49.443)"><path d="M87.467,179.292a9.5,9.5,0,0,0-6.461-2.194,9.607,9.607,0,0,0-8.771,6.788,2.061,2.061,0,0,1,.288,1.013.76.76,0,0,0,.624.756,2.123,2.123,0,0,1,1.8,2.107,2.077,2.077,0,0,1-.762,1.564,1.469,1.469,0,0,1,.224.859l-.08,1.312H85.325a9.51,9.51,0,0,1,2.141-12.2Z" transform="translate(-72.235 -177.09)" fill="#aa6f59"/></g><g transform="translate(39.732 50.681)"><path d="M176.568,183.222a3,3,0,0,0-4.5-1.1q-.1.076-.195.159a3.341,3.341,0,0,1-2.352.871,4.755,4.755,0,1,0,4.442,5.936,3.245,3.245,0,0,1,1.438-2,3.072,3.072,0,0,0,.751-.634A2.982,2.982,0,0,0,176.568,183.222Z" transform="translate(-164.608 -181.523)" fill="#d1856d"/></g><g transform="translate(25.701 49.443)"><path d="M142.622,188.3a7.768,7.768,0,0,0-2.524-5.272c-.055.078-.107.157-.169.23a3.072,3.072,0,0,1-.751.634,3.245,3.245,0,0,0-1.438,2,4.754,4.754,0,1,1-7.938-4.576,4.794,4.794,0,0,1,1.4-.946,3.571,3.571,0,0,1-.457-.389A9.543,9.543,0,0,0,115.686,191.5h26.453A7.8,7.8,0,0,0,142.622,188.3Z" transform="translate(-114.354 -177.091)" fill="#aa6f59"/></g><g transform="translate(28.22 52.462)"><path d="M132.285,189.065l-1.759-.84a3.6,3.6,0,0,0-4.379,1.146l-2.313,3.228a2.445,2.445,0,1,0,4.249,2.355l1.237-3a.9.9,0,0,1,.985-.613l1.05.273a1.362,1.362,0,0,0,.929-2.547Z" transform="translate(-123.376 -187.905)" fill="#d1856d"/></g><g transform="translate(16.057 52.462)"><path d="M88.718,189.065l-1.759-.84a3.6,3.6,0,0,0-4.379,1.146L80.268,192.6a2.424,2.424,0,0,0-.455,1.473,2.048,2.048,0,0,1,.6,1.483c0,.022,0,.044-.005.066a2.441,2.441,0,0,0,4.109-.667l1.237-3a.9.9,0,0,1,.985-.613l1.05.273a1.362,1.362,0,0,0,.929-2.547Z" transform="translate(-79.812 -187.905)" fill="#d1856d"/></g><g transform="translate(1.233 60.985)"><path d="M29.675,219.884a1.479,1.479,0,1,0-2.955.1l.423,6.922a1.386,1.386,0,0,0,1.385,1.318h1.312Z" transform="translate(-26.718 -218.43)" fill="#f5c84c"/></g><g transform="translate(4.191 60.985)"><path d="M38.817,218.43h-.026a1.478,1.478,0,0,0-1.478,1.5l.163,8.289H40.3v-8.313a1.479,1.479,0,0,0-1.479-1.479Z" transform="translate(-37.312 -218.43)" fill="#fcdd86"/></g><g transform="translate(7.174 60.985)"><path d="M49.525,218.43h-.051A1.479,1.479,0,0,0,48,219.909v8.313H51v-8.313A1.478,1.478,0,0,0,49.525,218.43Z" transform="translate(-47.996 -218.43)" fill="#f5c84c"/></g><g transform="translate(10.182 60.985)"><path d="M60.274,218.43h-.026a1.479,1.479,0,0,0-1.479,1.479v8.313h2.82l.163-8.289A1.479,1.479,0,0,0,60.274,218.43Z" transform="translate(-58.769 -218.43)" fill="#fcdd86"/></g><g transform="translate(13.001 60.985)"><path d="M70.511,218.43a1.479,1.479,0,0,0-1.478,1.454l-.164,8.337H70.18a1.386,1.386,0,0,0,1.385-1.318l.423-6.922A1.479,1.479,0,0,0,70.511,218.43Z" transform="translate(-68.868 -218.43)" fill="#f5c84c"/></g><g transform="translate(6.892 51.962)"><path d="M48.773,186.113a1.786,1.786,0,1,0,1.786,1.786A1.786,1.786,0,0,0,48.773,186.113Z" transform="translate(-46.987 -186.113)" fill="#fc657e"/></g><g transform="translate(0.698 54.562)"><path d="M38.956,198.869a.76.76,0,0,1-.624-.756,2.082,2.082,0,0,0-2.756-1.927.755.755,0,0,1-.934-.349,2.094,2.094,0,0,0-.273-.412,1.784,1.784,0,0,1-3.176,0,2.078,2.078,0,0,0-.273.412.755.755,0,0,1-.934.349,2.082,2.082,0,0,0-2.756,1.927.76.76,0,0,1-.624.756,2.121,2.121,0,0,0-1.8,2.107,2.077,2.077,0,0,0,.762,1.564,1.479,1.479,0,0,1,2.731.762v.048a1.479,1.479,0,0,1,1.478-1.5H29.8a1.479,1.479,0,0,1,1.479,1.479,1.479,1.479,0,0,1,1.479-1.479h.051a1.479,1.479,0,0,1,1.479,1.479,1.479,1.479,0,0,1,1.479-1.479h.026a1.478,1.478,0,0,1,1.478,1.5V203.3A1.479,1.479,0,0,1,40,202.54a2.077,2.077,0,0,0,.762-1.564,2.124,2.124,0,0,0-1.805-2.107Z" transform="translate(-24.801 -195.424)" fill="#fff0cc"/></g><g transform="translate(50.427 45.669)"><path d="M210.661,167.165a1.752,1.752,0,0,0-1.178-1,.767.767,0,0,1-.584-.777,1.767,1.767,0,1,0-2.921,1.261l-3.063,2.3a3.013,3.013,0,0,1,1.265,1.327,2.876,2.876,0,0,1,.218.643l3.062-2.3a1.735,1.735,0,0,0,.18.305,1.762,1.762,0,0,0,3.022-1.766Z" transform="translate(-202.915 -163.573)" fill="#fff0cc"/></g><g transform="translate(8.17 37.082)"><path d="M55.509,134.347h-.65V133.7a.881.881,0,0,0-1.763,0v.651h-.651a.881.881,0,1,0,0,1.763H53.1v.651a.881.881,0,0,0,1.763,0v-.651h.65a.881.881,0,0,0,0-1.763Z" transform="translate(-51.564 -132.815)" fill="#70d6f9"/></g><g transform="translate(45.599 3.578)"><g transform="translate(0)"><path d="M190.749,15.294a3.1,3.1,0,0,1-2.484-2.434.056.056,0,0,0-.11,0,3.1,3.1,0,0,1-2.484,2.434.054.054,0,0,0,0,.108,3.1,3.1,0,0,1,2.484,2.434.056.056,0,0,0,.11,0,3.1,3.1,0,0,1,2.484-2.434A.054.054,0,0,0,190.749,15.294Z" transform="translate(-185.623 -12.814)" fill="#f5c84c"/></g></g><g transform="translate(46.338 40.204)"><g transform="translate(0)"><path d="M191.932,145.771a2.214,2.214,0,0,1-1.775-1.739.04.04,0,0,0-.079,0,2.214,2.214,0,0,1-1.775,1.739.039.039,0,0,0,0,.077,2.214,2.214,0,0,1,1.775,1.739.04.04,0,0,0,.079,0,2.214,2.214,0,0,1,1.775-1.739A.039.039,0,0,0,191.932,145.771Z" transform="translate(-188.27 -143.999)" fill="#fc657e"/></g></g><g transform="translate(40.852)"><circle cx="0.943" cy="0.943" r="0.943" fill="#87d147"/></g><g transform="translate(3.44 43.834)"><circle cx="0.943" cy="0.943" r="0.943" fill="#f5c84c"/></g><g transform="translate(17.522 14.015)"><path d="M107.591,53.885a.6.6,0,0,0-.582-.592c-4.68-.137-7.147-1.992-8.094-2.921a.607.607,0,0,0-.9.057C93.9,55.6,87.828,54.873,85.787,54.446a.6.6,0,0,0-.727.581V64.1a11.266,11.266,0,1,0,22.533,0V54.062c0-.059,0-.118,0-.176Z" transform="translate(-85.06 -50.198)" fill="#f9c1a8"/></g><g transform="translate(25.103 29.43)"><path d="M118.19,105.41h-4.542a1.44,1.44,0,0,0-1.436,1.436v.845a3.707,3.707,0,1,0,7.414,0v-.845A1.44,1.44,0,0,0,118.19,105.41Z" transform="translate(-112.212 -105.41)" fill="#fc657e"/></g><g transform="translate(25.103 29.43)"><path d="M118.19,105.41h-4.542a1.44,1.44,0,0,0-1.436,1.436v.845h7.414v-.845A1.44,1.44,0,0,0,118.19,105.41Z" transform="translate(-112.212 -105.41)" fill="#edf4fc"/></g><g transform="translate(13.864 3.52)"><path d="M95.7,14.839a6.372,6.372,0,0,0-3.288.918,6.442,6.442,0,0,0-5.519-3.15h-3.3A11.664,11.664,0,0,0,71.958,24.236v5.211a4.673,4.673,0,0,1,3.658-.974v-.541a.6.6,0,0,1,.727-.581c2.041.427,8.112,1.158,12.227-4.018a.607.607,0,0,1,.9-.057c.948.929,3.414,2.784,8.094,2.921a.6.6,0,0,1,.582.592q0,.088,0,.176v1.507a4.676,4.676,0,0,1,3.986,1.263V21.275A6.454,6.454,0,0,0,95.7,14.839Z" transform="translate(-71.958 -12.607)" fill="#414344"/></g><g transform="translate(40.027 19.329)"><path d="M166.416,69.229a4.7,4.7,0,0,0-.723.057v8.529c0,.254-.012.506-.028.756a4.7,4.7,0,1,0,.751-9.342Z" transform="translate(-165.665 -69.229)" fill="#f9c1a8"/></g><g transform="translate(12.095 19.329)"><path d="M71.049,77.816V69.286a4.706,4.706,0,1,0,.028,9.285h0C71.06,78.321,71.049,78.069,71.049,77.816Z" transform="translate(-65.622 -69.229)" fill="#f9c1a8"/></g><g transform="translate(6.102 37.819)"><path d="M89.466,147.949a4.447,4.447,0,0,0-3.257-3.356l-8.75-2.2-3.092-1.525a3.892,3.892,0,0,1-2.171-3.491v-1.918a11.19,11.19,0,0,1-10.381.168v1.749a3.892,3.892,0,0,1-2.171,3.491l-3.092,1.525-8.75,2.2a4.446,4.446,0,0,0-3.354,4.064L44.155,153a.732.732,0,0,0,.716-.39,2.094,2.094,0,0,1,.273-.412,1.786,1.786,0,1,1,3.176,0,2.077,2.077,0,0,1,.273.412.755.755,0,0,0,.934.349,2.082,2.082,0,0,1,2.469.914,9.608,9.608,0,0,1,8.771-6.788,9.5,9.5,0,0,1,6.461,2.194,9.506,9.506,0,0,1,12.914.692,3.567,3.567,0,0,0,.457.389h0a4.727,4.727,0,0,1,2.1-.414,3.342,3.342,0,0,0,2.352-.871q.093-.083.195-.159a2.991,2.991,0,0,1,3.236-.229h0Z" transform="translate(-44.155 -135.457)" fill="#70d6f9"/></g><g transform="translate(21.105 37.819)"><path d="M113.1,140.866a3.892,3.892,0,0,1-2.171-3.491v-1.918a11.19,11.19,0,0,1-10.381.168v1.749a3.892,3.892,0,0,1-2.171,3.491l-.486.24a8.808,8.808,0,0,0,15.694,0Z" transform="translate(-97.893 -135.457)" fill="#f9c1a8"/></g><g transform="translate(16.824 13.318)"><path d="M106.486,52.071a1.3,1.3,0,0,0-1.259-1.276c-4.512-.132-6.836-1.947-7.626-2.722a1.3,1.3,0,0,0-1.937.121c-3.8,4.784-9.336,4.229-11.537,3.769a1.306,1.306,0,0,0-1.09.264,1.289,1.289,0,0,0-.478,1.007V62.3a11.965,11.965,0,0,0,23.929,0V52.261c0-.064,0-.128,0-.19ZM105.092,62.3a10.569,10.569,0,1,1-21.137,0V53.352c2.041.406,8.417,1.142,12.741-4.213,1.156,1.1,3.731,2.888,8.4,3.048,0,.025,0,.049,0,.074Z" transform="translate(-82.559 -47.7)"/></g><g transform="translate(13.166 2.822)"><path d="M93.9,12.339a7.069,7.069,0,0,0-3.059.7,7.174,7.174,0,0,0-5.748-2.933h-3.3A12.341,12.341,0,0,0,69.459,22.434V27.44a.7.7,0,0,0,1.4,0V22.434A10.944,10.944,0,0,1,81.786,11.5h3.3a5.776,5.776,0,0,1,4.92,2.811.7.7,0,0,0,.958.24,5.718,5.718,0,0,1,8.666,4.919v8.29a.7.7,0,1,0,1.4,0v-8.29A7.142,7.142,0,0,0,93.9,12.339Z" transform="translate(-69.459 -10.107)"/></g><g transform="translate(39.577 18.631)"><g transform="translate(0)"><path d="M165.255,66.729a5.33,5.33,0,0,0-.58.032.7.7,0,0,0,.153,1.388,3.866,3.866,0,0,1,.427-.024,4.006,4.006,0,0,1,0,8.012,3.531,3.531,0,0,1-.379-.021.7.7,0,0,0-.15,1.388,4.87,4.87,0,0,0,.529.029,5.4,5.4,0,0,0,0-10.8Z" transform="translate(-164.054 -66.729)"/></g></g><g transform="translate(11.397 18.631)"><path d="M68.524,68.125a3.889,3.889,0,0,1,.447.026.7.7,0,1,0,.159-1.387,5.336,5.336,0,0,0-.607-.035,5.4,5.4,0,0,0,0,10.8A4.956,4.956,0,0,0,69.1,77.5a.7.7,0,1,0-.162-1.386,3.536,3.536,0,0,1-.416.026,4.006,4.006,0,0,1,0-8.012Z" transform="translate(-63.122 -66.729)"/></g><g transform="translate(5.421 37.412)"><g transform="translate(28.024)"><path d="M160.683,146.514a5.148,5.148,0,0,0-3.711-3.649l-8.678-2.184-3.026-1.492a3.174,3.174,0,0,1-1.782-2.865V134.7a.7.7,0,0,0-1.4,0v1.626a4.561,4.561,0,0,0,2.56,4.117l3.093,1.525a.715.715,0,0,0,.138.051l8.75,2.2a3.75,3.75,0,0,1,2.7,2.658.7.7,0,1,0,1.348-.364Z" transform="translate(-142.09 -134)"/></g><g transform="translate(0 0.157)"><path d="M60.058,134.563a.7.7,0,0,0-.7.7v1.469a3.174,3.174,0,0,1-1.782,2.865l-3.026,1.492-8.678,2.184a5.118,5.118,0,0,0-3.88,4.694l-.276,4.087a.7.7,0,0,0,.649.743l.048,0a.7.7,0,0,0,.7-.651l.276-4.095a3.731,3.731,0,0,1,2.827-3.426l8.75-2.2a.7.7,0,0,0,.138-.051l3.093-1.525a4.561,4.561,0,0,0,2.56-4.117v-1.469A.7.7,0,0,0,60.058,134.563Z" transform="translate(-41.717 -134.563)"/></g></g><g transform="translate(20.508 42.96)"><path d="M112.264,153.991a.7.7,0,0,0-.948.273,8.108,8.108,0,0,1-14.249-.032.7.7,0,1,0-1.225.67,9.5,9.5,0,0,0,16.7.038A.7.7,0,0,0,112.264,153.991Z" transform="translate(-95.756 -153.87)"/></g><g transform="translate(24.405 28.732)"><path d="M116.388,102.91h-4.542a2.137,2.137,0,0,0-2.134,2.134v.845a4.4,4.4,0,0,0,8.81,0v-.845a2.137,2.137,0,0,0-2.134-2.134Zm.738,2.979a3.009,3.009,0,0,1-6.018,0v-.845a.739.739,0,0,1,.738-.738h4.542a.739.739,0,0,1,.738.738v.845Z" transform="translate(-109.712 -102.91)"/></g><g transform="translate(24.598 31.013)"><path d="M118.144,111.081H111.1a.7.7,0,0,0,0,1.4h7.041a.7.7,0,1,0,0-1.4Z" transform="translate(-110.405 -111.081)"/></g><g transform="translate(21.268 22.316)"><path d="M101.029,79.931a2.554,2.554,0,0,0-2.551,2.552.7.7,0,0,0,1.4,0,1.155,1.155,0,1,1,2.311,0,.7.7,0,0,0,1.4,0A2.554,2.554,0,0,0,101.029,79.931Z" transform="translate(-98.478 -79.931)"/></g><g transform="translate(31.534 22.316)"><path d="M137.8,79.931a2.555,2.555,0,0,0-2.552,2.552.7.7,0,1,0,1.4,0,1.155,1.155,0,1,1,2.311,0,.7.7,0,1,0,1.4,0A2.554,2.554,0,0,0,137.8,79.931Z" transform="translate(-135.245 -79.931)"/></g><g transform="translate(21.843 63.15)"><path d="M134.795,226.186H102.8a2.268,2.268,0,1,0,0,4.535h31.992a2.268,2.268,0,0,0,0-4.535Zm0,3.139H102.8a.872.872,0,1,1,0-1.743h31.992a.872.872,0,1,1,0,1.743Z" transform="translate(-100.535 -226.186)"/></g><g transform="translate(39.038 49.983)"><path d="M175.4,181.112a3.7,3.7,0,0,0-5.547-1.348q-.125.095-.24.2a2.652,2.652,0,0,1-1.863.694,5.4,5.4,0,0,0-4.008,1.558,5.453,5.453,0,1,0,9.1,5.249,2.561,2.561,0,0,1,1.119-1.576,3.765,3.765,0,0,0,.922-.777,3.693,3.693,0,0,0,.514-4Zm-1.571,3.084a2.367,2.367,0,0,1-.581.491,3.965,3.965,0,0,0-1.757,2.429,4,4,0,0,1-1.487,2.229,4.057,4.057,0,1,1-2.451-7.3l.147,0A4.025,4.025,0,0,0,170.546,181c.048-.042.1-.083.149-.122a2.3,2.3,0,0,1,3.137,3.316Z" transform="translate(-162.123 -179.022)"/></g><g transform="translate(49.886 44.969)"><path d="M209.9,165.069a2.454,2.454,0,0,0-1.645-1.384.071.071,0,0,1-.056-.075,2.458,2.458,0,1,0-4.609,1.107l-2.335,1.755a.7.7,0,1,0,.838,1.116L205,165.4a.7.7,0,0,0,.042-1.082,1.033,1.033,0,0,1-.147-.153,1.066,1.066,0,0,1,.419-1.613,1.059,1.059,0,0,1,1.49,1,1.459,1.459,0,0,0,1.112,1.48A1.061,1.061,0,1,1,206.8,166.7a1.083,1.083,0,0,1-.107-.186.7.7,0,0,0-1.05-.259l-2.874,2.16a.7.7,0,1,0,.838,1.116l2.3-1.731a2.46,2.46,0,0,0,3.99-2.735Z" transform="translate(-200.978 -161.065)"/></g><g transform="translate(25.003 48.745)"><g transform="translate(25.872 6.059)"><path d="M208.309,202.1a8.437,8.437,0,0,0-2.61-5.617.7.7,0,1,0-.966,1.007,7.05,7.05,0,0,1,1.809,7.413.7.7,0,1,0,1.319.455A8.472,8.472,0,0,0,208.309,202.1Z" transform="translate(-204.518 -196.291)"/></g><path d="M129.707,177.933a2.563,2.563,0,0,1-.269-.238,10.241,10.241,0,0,0-16.269,12.16.7.7,0,0,0,1.216-.685,8.845,8.845,0,0,1,14.051-10.5,3.969,3.969,0,0,0,.414.367.7.7,0,1,0,.857-1.1Z" transform="translate(-111.853 -174.59)"/></g><g transform="translate(27.522 51.769)"><path d="M130.783,186.644l-1.772-.846a4.314,4.314,0,0,0-5.234,1.376l-2.313,3.228a3.143,3.143,0,1,0,5.462,3.028l1.237-3c.007-.018.014-.035.02-.053a.2.2,0,0,1,.193-.137l1,.26a2.06,2.06,0,0,0,1.4-3.852Zm-.251,2.046a.661.661,0,0,1-.8.455l-1.05-.273c-.024-.006-.048-.011-.072-.015a1.587,1.587,0,0,0-1.743,1.06l-1.227,2.981a1.747,1.747,0,1,1-3.036-1.683l2.308-3.221a2.914,2.914,0,0,1,2.345-1.181,2.839,2.839,0,0,1,1.17.251l1.759.84a.66.66,0,0,1,.35.786Z" transform="translate(-120.876 -185.42)"/></g><g transform="translate(23.188 66.484)"><path d="M138.492,238.137a.7.7,0,0,0-.7.7v.411a2.451,2.451,0,0,1-2.475,2.474H109.225a2.451,2.451,0,0,1-2.475-2.474v-.422a.7.7,0,1,0-1.4,0v.422a3.829,3.829,0,0,0,3.871,3.87h26.094a3.83,3.83,0,0,0,3.871-3.87v-.411A.7.7,0,0,0,138.492,238.137Z" transform="translate(-105.354 -238.125)"/></g><g transform="translate(15.362 51.769)"><path d="M87.226,186.644l-1.772-.846a4.314,4.314,0,0,0-5.234,1.376L77.907,190.4a3.129,3.129,0,0,0-.582,1.651.7.7,0,0,0,1.394.077,1.732,1.732,0,0,1,.323-.915l2.308-3.221a2.907,2.907,0,0,1,3.515-.93l1.759.84a.663.663,0,0,1-.453,1.241l-1.05-.273c-.024-.006-.048-.011-.072-.015a1.586,1.586,0,0,0-1.743,1.06L82.078,192.9a1.743,1.743,0,0,1-2.88.538.7.7,0,0,0-1.014.96,3.142,3.142,0,0,0,5.185-.966l1.237-3c.007-.018.014-.035.02-.053a.2.2,0,0,1,.193-.137l1,.26a2.06,2.06,0,0,0,1.405-3.852Z" transform="translate(-77.324 -185.42)"/></g><g transform="translate(13.299 48.745)"><g transform="translate(2.264 14.405)"><path d="M87.907,226.186H78.74a.7.7,0,1,0,0,1.4h9.167a.7.7,0,1,0,0-1.4Z" transform="translate(-78.042 -226.186)"/></g><path d="M85.995,176.743a10.238,10.238,0,0,0-16.025,4.945.7.7,0,1,0,1.328.432,8.841,8.841,0,0,1,13.841-4.275.7.7,0,1,0,.857-1.1Z" transform="translate(-69.935 -174.59)"/></g><g transform="translate(15.35 66.29)"><path d="M86.041,237.43H77.979a.7.7,0,0,0,0,1.4h8.062a.7.7,0,0,0,0-1.4Z" transform="translate(-77.281 -237.43)"/></g><g transform="translate(15.563 63.15)"><path d="M86.59,226.186H78.74a.7.7,0,1,0,0,1.4h7.85a.7.7,0,1,0,0-1.4Z" transform="translate(-78.042 -226.186)"/></g><g transform="translate(13.838 70.056)"><path d="M85.085,250.942H72.919a2.477,2.477,0,0,1-.28-.018.7.7,0,1,0-.157,1.387,3.875,3.875,0,0,0,.437.026H85.084a.7.7,0,0,0,0-1.4Z" transform="translate(-71.863 -250.92)"/></g><g transform="translate(15.35 66.29)"><path d="M85.817,237.43H77.979a.7.7,0,0,0,0,1.4h7.838a.7.7,0,0,0,0-1.4Z" transform="translate(-77.281 -237.43)"/></g><g transform="translate(0.536 60.287)"><path d="M28.572,218.071a2.186,2.186,0,0,0-2.176-2.14,2.177,2.177,0,0,0-2.173,2.292l.422,6.914a2.083,2.083,0,0,0,2.082,1.982h1.312a.7.7,0,0,0,.7-.712Zm-1.846,7.651a.69.69,0,0,1-.688-.663l-.422-6.914a.78.78,0,0,1,.78-.819.784.784,0,0,1,.781.768v0l.15,7.625Z" transform="translate(-24.22 -215.931)"/></g><g transform="translate(3.493 60.287)"><path d="M36.988,215.931a2.177,2.177,0,0,0-2.176,2.212.7.7,0,0,0,.7.687h.012a.7.7,0,0,0,.686-.709.776.776,0,0,1,.224-.56.793.793,0,0,1,.583-.233.781.781,0,0,1,.781.781.7.7,0,1,0,1.4,0A2.184,2.184,0,0,0,36.988,215.931Z" transform="translate(-34.811 -215.931)"/></g><g transform="translate(3.656 70.078)"><path d="M38.915,251h-2.82a.7.7,0,1,0,0,1.4h2.82a.7.7,0,0,0,0-1.4Z" transform="translate(-35.397 -251)"/></g><g transform="translate(6.476 60.287)"><path d="M47.724,215.931h-.051a2.179,2.179,0,0,0-2.176,2.177v8.313a.7.7,0,0,0,.7.7H49.2a.7.7,0,0,0,.7-.7v-8.313A2.179,2.179,0,0,0,47.724,215.931Zm.781,9.791H46.893v-7.615a.781.781,0,0,1,.78-.781h.051a.781.781,0,0,1,.781.781Z" transform="translate(-45.497 -215.931)"/></g><g transform="translate(9.484 60.287)"><path d="M60.023,216.581a2.195,2.195,0,0,0-3.754,1.526.7.7,0,1,0,1.4,0,.787.787,0,0,1,.807-.781.78.78,0,0,1,.781.793.7.7,0,0,0,.686.709h.012a.7.7,0,0,0,.7-.687,2.161,2.161,0,0,0-.625-1.562Z" transform="translate(-56.269 -215.931)"/></g><g transform="translate(9.484 70.078)"><path d="M59.787,251h-2.82a.7.7,0,1,0,0,1.4h2.82a.7.7,0,1,0,0-1.4Z" transform="translate(-56.269 -251)"/></g><g transform="translate(12.304 60.287)"><path d="M70.285,216.607a2.156,2.156,0,0,0-1.576-.676,2.186,2.186,0,0,0-2.176,2.139l-.164,8.337a.7.7,0,0,0,.7.712h1.312a2.081,2.081,0,0,0,2.081-1.974l.423-6.93A2.157,2.157,0,0,0,70.285,216.607Zm-1.22,8.461a.688.688,0,0,1-.688.655h-.6l.15-7.627a.784.784,0,0,1,.781-.768.781.781,0,0,1,.78.811Z" transform="translate(-66.369 -215.931)"/></g><g transform="translate(6.194 51.264)"><path d="M46.97,183.613a2.484,2.484,0,1,0,2.484,2.484A2.487,2.487,0,0,0,46.97,183.613Zm0,3.571a1.088,1.088,0,1,1,1.088-1.088A1.089,1.089,0,0,1,46.97,187.184Z" transform="translate(-44.486 -183.613)"/></g><g transform="translate(7.949 49.65)"><path d="M53.637,178.238a.7.7,0,0,0-.927-.34,3.3,3.3,0,0,0-1.928,2.5.7.7,0,0,0,.562.812.712.712,0,0,0,.126.011.7.7,0,0,0,.686-.573,1.931,1.931,0,0,1,1.142-1.481A.7.7,0,0,0,53.637,178.238Z" transform="translate(-50.771 -177.833)"/></g><g transform="translate(9.68 54.009)"><path d="M62.25,196.753a.111.111,0,0,1-.031-.081,2.78,2.78,0,0,0-3.682-2.573.1.1,0,0,1-.082,0,2.739,2.739,0,0,0-.215-.359.7.7,0,0,0-1.139.806,1.339,1.339,0,0,1,.106.176,1.459,1.459,0,0,0,1.786.7,1.384,1.384,0,0,1,1.831,1.282,1.454,1.454,0,0,0,1.22,1.432,1.422,1.422,0,0,1,1.209,1.4,1.37,1.37,0,0,1-.437.979.7.7,0,1,0,.954,1.019,2.758,2.758,0,0,0,.879-1.968A2.832,2.832,0,0,0,62.25,196.753Z" transform="translate(-56.972 -193.444)"/></g><g transform="translate(0 53.989)"><path d="M29.7,193.507a.7.7,0,0,0-.975.156,2.71,2.71,0,0,0-.233.384.1.1,0,0,1-.082,0,2.78,2.78,0,0,0-3.682,2.573.118.118,0,0,1-.028.08,2.835,2.835,0,0,0-2.4,2.812,2.766,2.766,0,0,0,.8,1.891.7.7,0,1,0,.994-.98,1.377,1.377,0,0,1-.4-.941,1.422,1.422,0,0,1,1.209-1.4,1.453,1.453,0,0,0,1.22-1.432,1.384,1.384,0,0,1,1.831-1.282,1.459,1.459,0,0,0,1.786-.7,1.373,1.373,0,0,1,.116-.19.7.7,0,0,0-.156-.974Z" transform="translate(-22.301 -193.374)"/></g></g></g></g></svg>